<?xml version="1.0" encoding="UTF-8"?><svg id="a" xmlns="http://www.w3.org/2000/svg" width="500" height="500" xmlns:xlink="http://www.w3.org/1999/xlink" viewBox="0 0 500 500"><defs><linearGradient id="b" x1="311.11" y1="251.805" x2="313.028" y2="250.707" gradientTransform="translate(0 500) scale(1 -1)" gradientUnits="userSpaceOnUse"><stop offset="0" stop-color="#837f84"/><stop offset="1" stop-color="#a09fa4"/></linearGradient><linearGradient id="c" x1="252.983" y1="239.269" x2="293.683" y2="230.068" gradientTransform="translate(0 500) scale(1 -1)" gradientUnits="userSpaceOnUse"><stop offset="0" stop-color="#351b13"/><stop offset="1" stop-color="#5a4644"/></linearGradient><linearGradient id="d" x1="281.596" y1="237.483" x2="282.466" y2="232.775" gradientTransform="translate(0 500) scale(1 -1)" gradientUnits="userSpaceOnUse"><stop offset="0" stop-color="#2c1919"/><stop offset="1" stop-color="#4e3223"/></linearGradient><linearGradient id="e" x1="299.922" y1="239.351" x2="297.197" y2="240.356" gradientTransform="translate(0 500) scale(1 -1)" gradientUnits="userSpaceOnUse"><stop offset="0" stop-color="#515249"/><stop offset="1" stop-color="#75646a"/></linearGradient><linearGradient id="f" x1="273.937" y1="383.357" x2="317.409" y2="396.079" gradientTransform="translate(0 500) scale(1 -1)" gradientUnits="userSpaceOnUse"><stop offset="0" stop-color="#8b5f4a"/><stop offset="1" stop-color="#b4855b"/></linearGradient><linearGradient id="g" x1="389.72" y1="325.936" x2="392.724" y2="344.299" gradientTransform="translate(0 500) scale(1 -1)" gradientUnits="userSpaceOnUse"><stop offset="0" stop-color="#dc9176"/><stop offset="1" stop-color="#e7b58e"/></linearGradient><linearGradient id="h" x1="287.494" y1="392.072" x2="319.186" y2="403.232" gradientTransform="translate(0 500) scale(1 -1)" gradientUnits="userSpaceOnUse"><stop offset="0" stop-color="#cc9974"/><stop offset="1" stop-color="#f2ca98"/></linearGradient><linearGradient id="i" x1="377.348" y1="356.645" x2="376.168" y2="365.616" gradientTransform="translate(0 500) scale(1 -1)" gradientUnits="userSpaceOnUse"><stop offset="0" stop-color="#fce9c7"/><stop offset="1" stop-color="#ffffe6"/></linearGradient><linearGradient id="j" x1="267.45" y1="336.31" x2="328.38" y2="324.171" gradientTransform="translate(0 500) scale(1 -1)" gradientUnits="userSpaceOnUse"><stop offset="0" stop-color="#4f2e2f"/><stop offset="1" stop-color="#996a4a"/></linearGradient><linearGradient id="k" x1="291.023" y1="317.119" x2="281.738" y2="333.65" gradientTransform="translate(0 500) scale(1 -1)" gradientUnits="userSpaceOnUse"><stop offset="0" stop-color="#411b15"/><stop offset="1" stop-color="#543325"/></linearGradient><linearGradient id="l" x1="297.023" y1="405.515" x2="301.873" y2="406.103" gradientTransform="translate(0 500) scale(1 -1)" gradientUnits="userSpaceOnUse"><stop offset="0" stop-color="#754a36"/><stop offset="1" stop-color="#8e6342"/></linearGradient><linearGradient id="m" x1="264.95" y1="464.348" x2="266.396" y2="457.139" gradientTransform="translate(0 500) scale(1 -1)" gradientUnits="userSpaceOnUse"><stop offset="0" stop-color="#5d392a"/><stop offset="1" stop-color="#785141"/></linearGradient><linearGradient id="n" x1="294.963" y1="368.167" x2="309.859" y2="369.707" gradientTransform="translate(0 500) scale(1 -1)" gradientUnits="userSpaceOnUse"><stop offset="0" stop-color="#f1b99a"/><stop offset="1" stop-color="#fee9c4"/></linearGradient><linearGradient id="o" x1="298.683" y1="368.738" x2="313.178" y2="371.753" gradientTransform="translate(0 500) scale(1 -1)" gradientUnits="userSpaceOnUse"><stop offset="0" stop-color="#633c2b"/><stop offset="1" stop-color="#7b5337"/></linearGradient><linearGradient id="p" x1="143.068" y1="245.972" x2="141.806" y2="245.936" gradientTransform="translate(0 500) scale(1 -1)" gradientUnits="userSpaceOnUse"><stop offset="0" stop-color="#ada9b3"/><stop offset="1" stop-color="#8f8f9e"/></linearGradient><linearGradient id="q" x1="227.388" y1="347.533" x2="227.508" y2="339.606" gradientTransform="translate(0 500) scale(1 -1)" gradientUnits="userSpaceOnUse"><stop offset="0" stop-color="#411d10"/><stop offset="1" stop-color="#643625"/></linearGradient><linearGradient id="r" x1="254.4" y1="445.728" x2="240.535" y2="380.366" gradientTransform="translate(0 500) scale(1 -1)" gradientUnits="userSpaceOnUse"><stop offset="0" stop-color="#e4a98f"/><stop offset="1" stop-color="#fcd9b9"/></linearGradient><linearGradient id="s" x1="256.022" y1="395.596" x2="266.598" y2="375.481" gradientTransform="translate(0 500) scale(1 -1)" gradientUnits="userSpaceOnUse"><stop offset="0" stop-color="#472920"/><stop offset="1" stop-color="#816759"/></linearGradient><linearGradient id="t" x1="259.748" y1="372.317" x2="245.66" y2="379.531" gradientTransform="translate(0 500) scale(1 -1)" gradientUnits="userSpaceOnUse"><stop offset="0" stop-color="#f3e4dd"/><stop offset="1" stop-color="#fdfdfc"/></linearGradient><linearGradient id="u" x1="185.697" y1="394.033" x2="198.44" y2="376.905" gradientTransform="translate(0 500) scale(1 -1)" gradientUnits="userSpaceOnUse"><stop offset="0" stop-color="#44261f"/><stop offset="1" stop-color="#634840"/></linearGradient><linearGradient id="v" x1="201.328" y1="385.545" x2="206.245" y2="387.359" gradientTransform="translate(0 500) scale(1 -1)" gradientUnits="userSpaceOnUse"><stop offset="0" stop-color="#b2a7a5"/><stop offset="1" stop-color="#daced3"/></linearGradient><linearGradient id="w" x1="191.746" y1="377.936" x2="201.344" y2="375.557" gradientTransform="translate(0 500) scale(1 -1)" gradientUnits="userSpaceOnUse"><stop offset="0" stop-color="#8f6b54"/><stop offset="1" stop-color="#a58063"/></linearGradient><linearGradient id="x" x1="131.954" y1="160.529" x2="111.965" y2="165.656" gradientTransform="translate(0 500) scale(1 -1)" gradientUnits="userSpaceOnUse"><stop offset="0" stop-color="#f3b38f"/><stop offset="1" stop-color="#fbd4b0"/></linearGradient><linearGradient id="y" x1="181.068" y1="406.044" x2="185.872" y2="395.065" gradientTransform="translate(0 500) scale(1 -1)" gradientUnits="userSpaceOnUse"><stop offset="0" stop-color="#d59484"/><stop offset="1" stop-color="#e8bba4"/></linearGradient><linearGradient id="z" x1="938.535" y1="155.307" x2="947.654" y2="161.402" gradientTransform="translate(1290.752 490.088) rotate(-180) scale(.972)" gradientUnits="userSpaceOnUse"><stop offset="0" stop-color="#eac49a"/><stop offset="1" stop-color="#ffe1a6"/></linearGradient><linearGradient id="aa" x1="1002.118" y1="39.009" x2="966.856" y2="47.256" gradientTransform="translate(1290.752 490.088) rotate(-180) scale(.972)" gradientUnits="userSpaceOnUse"><stop offset="0" stop-color="#f5ab51"/><stop offset="1" stop-color="#e0beac"/></linearGradient></defs><ellipse cx="237.443" cy="480.837" rx="171.666" ry="13.78" fill="#969a9b" opacity=".7"/><path d="M135.184,98.56c.935-6.432,1.076-9.938,2.754-16.444,5.622-22.618,20.088-42.032,40.154-53.887,14.008-8.248,29.717-12.636,46.106-12.542,5.233.03,12.444,1.528,17.506,2.851.851.352,1.858.83,2.748.978l1.157.508.21.064c4.249,2.344,5.796,3.486,9.369,6.76,6.183-.645,6.958-.664,13.042.38l1.508.259c.701.243,1.385.496,2.103.682l.37.105c7.602,2.617,11.843,4.754,18.258,9.813,12.901,10.92,22.165,25.515,26.556,41.836,3.582,12.803,3.643,26.048,7.08,38.638,3.319,12.161,11.529,23.156,12.195,36.309.769,10.274-1.486,16.755-5.567,25.696,7.516-5.291,15.676-13.303,22.374-19.603,2.496-2.348,6.421-6.816,8.874-8.745,2.295.695,2.93,1.311,4.71,2.819.769-2.749,1.54-5.554,2.066-8.317,1.058-5.562-.692-17.308,8.557-15.481,2.684.53,4.753,5.453,5.086,7.877,3.342-3.882,5.716-6.401,10.015-9.397,4.235-2.95,10.856-5.527,11.445,2.215l.06.777c7.135-2.408,10.583,1.464,7.304,8.211,6.598,1.52,5.335,5.817,2.629,10.6,1.077.672,1.571.944,2.519,1.817.887,5.202-1.633,8.044-5.137,11.402-2.037,2.197-7.399,5.776-10.03,7.53-.318.21-1.606,1.035-1.822,1.234-.534.272-2.246,1.091-2.66,1.366-1.673.69-3.714,1.446-5.194,2.422,1.354,1.384,2.771,2.823,3.733,4.524.384.937.831,1.959,1.149,2.911-.959,1.88-1.933,2.685-2.833,4.149-2.514,3.035-5.08,6.026-7.699,8.97-.918,1.033-4.077,4.448-4.662,5.337-2.132,2.227-4.291,4.429-6.477,6.603l-1.314,1.403c-2.697,2.507-5.336,5.075-7.917,7.701-6.905,6.108-13.732,11.703-21.134,17.189-1.722,1.276-6.062,4.835-7.652,5.699-2.029,1.683-23.191,16.554-24.454,16.808,1.312,13.066,3.192,26.139,4.597,39.228,2.333,22.202,4.411,44.43,6.232,66.681.383,4.392,2.758,23.794,1.551,26.953-2.636,2.208-16.769,5.715-20.448,6.615-3.496.854-9.349,1.608-13.038,2.491-1.679,9.474-2.639,19.261-4.035,28.785-.26,1.773-1.343,10.3-1.747,11.423-.076,1.741-.29,3.474-.64,5.181-.702,4.979-1.308,10.342-2.197,15.301-.117.654-.554,1.025-1.088,1.39l-.497.209-.033.431c1.392,1.575,9.252,6.212,11.571,7.877,2.534,1.82,2.745,2.586,4.502,4.11.281.439.531.897.748,1.371,1.349,2.917,1.984,7.153-1.864,8.357-12.74,3.988-27.632.088-39.537-4.925l-2.219,1.236c-15.233-1.858-12.905-2.397-13.449-16.29-.866-.452-1.864-.881-2.761-1.29-2.121-6.4-1.606-10.702-2.368-17.182-.633-5.384-1.062-10.594-1.553-15.991l-4.494-45.292c-.277-2.602-.967-12.091-1.739-13.77l-.29-.039c-.918,1.614-1.511,10.975-1.751,13.358l-1.968,19.02c-.881,8.997-2.03,17.945-2.817,27.024-.174,2.473-.714,8.86-1.237,11.167-.955,6.02-.749,15.097-2.517,21.048-.309,1.04-1.728,1.378-2.757,1.735.046,4.308.637,9.939-1.518,13.53-3.989,1.933-9.801,4.799-13.855,1.776-1.259.315-5.663,2.177-7.336,2.764-6.678,2.386-13.699,3.673-20.79,3.809-3.314.044-11.607-.276-13.508-2.989-6.093-8.693,13.416-16.966,17.088-20.435-.518-.529-1.8-1.482-1.921-2.089-.389-1.951-.667-4.147-.953-6.111-.667-4.512-1.309-9.029-1.923-13.549-1.873-13.218-4.434-27.933-5.593-41.217-2.209-.514-4.69-.759-6.898-1.215-7.739-1.594-20.242-3.906-26.988-7.779.142-10.286,1.481-25.809,2.803-36.054-9.809-1.281-16.949-6.628-20.494-15.94-2.201-5.779-2.205-9.863-2.388-15.894-2.487-.944-4.73-2.426-7.206-3.596-.203-2.724.026-7.728.373-10.493-.12-1.738.896-12.745,1.346-14.486.61-9.933,3.607-22.266,5.837-32.048.666-1.667,1.927-6.738,2.602-8.85,6.487-20.518,18.433-44.151,34.223-59.053-24.206-4.527-33.255-28.464-25.913-50.355,1.337-3.986,2.744-7.345,4.462-11.184,1.655-3.387,3.018-6.886,4.517-10.347,1.975-7.137,3.64-13.163,4.293-20.686.134-.339.436-3.23.499-3.748Z" stroke="#fff" stroke-miterlimit="10"/><path d="M362.606,155.978c2.635,1.552,6.483,4.879,9.002,6.936,5.92,5.115,10.113,9.268,15.616,14.821,1.826,1.562,4.505,4.446,5.773,6.494-2.256,3.156-4.805,5.915-7.309,8.856-.666.782-2.535,2.819-3.011,3.542-6.16,6.536-11.877,13.2-18.76,19.045-1.082.92-2.451,2.131-3.451,3.133-2.243,1.562-4.837,3.965-6.949,5.779-12.661,10.876-26.601,20.019-40.209,29.633-1.175.831-2.439,1.686-3.777,2.214l-.605-.464c-.076,2.24,1.355,8.276,1.324,11.518,4.552,40.633,8.429,81.337,11.63,122.098-23.302,7.495-47.761,10.745-72.212,9.596-.326-7.491-1.356-16.543-1.838-24.346-1.137-18.52-1.769-37.068-1.897-55.622-.051-8.566-.186-18.096.292-26.614-.073-1.551-.235-2.123.729-3.24l-.379-.283c3.158-7.746,7.929-14.162,12.287-21.182,4.628-7.454,9.904-14.435,14.63-21.772-1.479-1.728-8.496-9.622-8.851-11.195.28-.754.049-.448.761-.912.988-.128,1.176-.334,1.882.037.402,1.101.243,1.228,1.012,1.84,2.516-1.582,10.572-5.148,13.578-6.604.589-2.49-5.277-18.271-6.59-21.451.284-2.048,1.83-1.885,3.594-1.806,9.414.421,17.088-3.533,25.22-7.762,1.525-.793,4.617-1.783,5.894-2.99,8.93-2.042,12.663-4.626,19.936-9.936,11.82-8.705,22.765-18.54,32.679-29.366Z" fill="#f3f5f4"/><path d="M387.224,177.735c1.826,1.562,4.505,4.446,5.773,6.494-2.256,3.156-4.805,5.915-7.309,8.856-.666.782-2.535,2.819-3.011,3.542-6.16,6.536-11.877,13.2-18.76,19.045-1.082.92-2.451,2.131-3.451,3.133-2.243,1.562-4.837,3.965-6.949,5.779-12.661,10.876-26.601,20.019-40.209,29.633-1.175.831-2.439,1.686-3.777,2.214l-.605-.464c-.076,2.24,1.355,8.276,1.324,11.518-.639-.954-.607-1.127-.631-2.282l-.193-.025c-.741,7.168.326,16.915.556,24.145-.041.805-.006,2.66-.372,3.265-.439-4.002-1.692-8.388-2.295-12.443-1.142-7.686-2.633-15.458-3.102-23.226-.227-3.763-.184-7.832-.236-11.635-.045-3.311-.329-7.987.004-11.185-.178-1.229-.338-1.998-.27-3.25,1.064,5.127,2.641,10.178,3.751,15.324,5.43-6.854,10.61-14.428,16.201-21.565-1.813,5.107-3.017,8.506-5.239,13.498,5-3.398,10.315-6.349,15.257-9.885,5.308-3.832,11.139-7.362,16.247-11.441,10.54-8.416,19.677-18.663,28.639-28.689,2.734-3.058,5.619-7.829,8.656-10.356Z" fill="#b4b5c1"/><path d="M303.981,234.1c-.178-1.229-.338-1.998-.27-3.25,1.064,5.127,2.641,10.178,3.751,15.324l.871,5.028c-1.129-2.926-3.773-13.837-4.353-17.102Z" fill="#6e6f77"/><path d="M313.448,244.462c.342,2.375-.772,7.001-2.229,8.868-.9-3.279.041-6.341,2.229-8.868Z" fill="url(#b)"/><path d="M265.401,234.014c.988-.128,1.176-.334,1.882.037.402,1.101.243,1.228,1.012,1.84.892.881,1.352,1.409,2.143,2.375,1.935,2.065,4.869,5.337,6.346,7.754-.486.95-.903,1.853-1.528,2.717.061,1.056.205,1.274.698,2.22.021,2.364-2.533,3.669-2.748,5.419l17.229-.737c2.328,0,5.395-.401,7.118.937l.146.444c-5.508,1.133-20.256,1.298-26.202,1.433-1.058.016-1.931-.089-2.847.385-2.692,3-7.797,10.754-10.212,14.228-3.606,5.188-8.074,11.069-11.484,16.293l-.379-.283c3.158-7.746,7.929-14.162,12.287-21.182,4.628-7.454,9.904-14.435,14.63-21.772-1.479-1.728-8.496-9.622-8.851-11.195.28-.754.049-.448.761-.912Z" fill="url(#c)"/><path d="M275.255,248.737c.061,1.056.205,1.274.698,2.22.021,2.364-2.533,3.669-2.748,5.419l-3.376.277c1.852-2.431,3.64-5.355,5.426-7.916Z" fill="#b4b5c1"/><path d="M246.954,289.358c3.41-5.224,7.878-11.104,11.484-16.293,2.414-3.474,7.519-11.228,10.212-14.228.916-.474,1.789-.369,2.847-.385-1.498,2.367-2.359,3.767-3.62,6.273,1.6-.042,3.591-.151,5.146-.012l-.299.031c-1.739.17-5.065-.175-6.012.697l-.137.595c-2.19,3.24-16.697,25.328-18.918,26.99-.862-.009-.778-.243-1.432-.428-.073-1.551-.235-2.123.729-3.24Z" fill="#b4b5c1"/><path d="M273.023,264.714c6.072-.04,19.814-1.57,24.646-.025-7.949,1.491-23.032,1.783-31.094,1.347l.137-.595c.947-.872,4.273-.527,6.012-.697l.299-.031Z" fill="url(#d)"/><path d="M268.295,235.891c2.516-1.582,10.572-5.148,13.578-6.604-.065.971-.091,1.753-.088,2.726-2.757,2.573-7.817,4.63-11.347,6.253-.792-.966-1.252-1.494-2.143-2.375Z" fill="#b4b5c1"/><path d="M290.434,255.639c1.922-.359,6.094-.209,8.215-.197.356,2.366,1.171,7.051.321,9.187l-.383.265c-1.259-.963-.321-6.197-.889-7.874l-.146-.444c-1.723-1.338-4.79-.936-7.118-.937Z" fill="url(#e)"/><path d="M309.981,289.324c.265,2.156.5,6.273.342,8.405-.241-1.55-.622-3.623-.714-5.14.366-.605.331-2.46.372-3.265Z" fill="#efe8e3"/><path d="M259.287,29.347c9.593-.454,17.095,2.822,24.995,7.916-.062-.722-.159-.874-.493-1.485l.17-.273c2.316.662,3.208,3.272,6.51,2.582,12.901,10.92,22.165,25.515,26.556,41.836,3.582,12.803,3.643,26.048,7.08,38.638,3.319,12.161,11.529,23.156,12.195,36.309.769,10.274-1.486,16.755-5.567,25.696,7.516-5.291,15.676-13.303,22.374-19.603,2.496-2.348,6.421-6.816,8.874-8.745,2.295.695,2.93,1.311,4.71,2.819.769-2.749,1.54-5.554,2.066-8.317,1.058-5.562-.692-17.308,8.557-15.481,2.684.53,4.753,5.453,5.086,7.877,3.342-3.882,5.716-6.401,10.015-9.397,4.235-2.95,10.856-5.527,11.445,2.215l.06.777c7.135-2.408,10.583,1.464,7.304,8.211,6.598,1.52,5.335,5.817,2.629,10.6,1.077.672,1.571.944,2.519,1.817.887,5.202-1.633,8.044-5.137,11.402-1.785.403-2.113,1.565-3.426,2.193l-.152-.593c-.563-.22-.746-.131-1.367-.076-.452-.433-.3-.678-.198-1.314-6.54,5.077-9.536,7.292-17.462,9.708-5.149-5.397-8.788-8.779-14.376-13.714-.796.58-1.92,1.346-2.645,1.966-2.518-2.057-6.366-5.384-9.002-6.936-9.915,10.826-20.859,20.661-32.679,29.366-7.273,5.311-11.006,7.894-19.936,9.936l-1.75-.077c.537-.186,1.075-.369,1.614-.549.346-.591.255-.269.193-1.017-.964-1.163-2.554-1.39-3.898-1.705.277-1.012,2.24-3.01,2.893-3.98,4.394-6.52,5.806-10.513,5.612-18.091-.687,1.854-1.282,4.274-1.978,6.285-2.881,8.554-9.058,15.604-17.16,19.583-8.142,3.905-18.255,2.693-25.571-2.272-1.623-1.102-6.3-7.014-7.132-8.781.445-1.192,23.026-10.524,27.363-30.884l.073-.348c4.368.061,7.406-.457,10.933-3.218.926-.725,1.86-1.677,2.84-2.249,1.934-.816,3.659-3.386,4.736-5.074,3.515-6.22,4.49-9.651,4.143-17.062-.207-4.437-1.909-7.802-5.252-10.726,2.572-9.184-2.42-25.678-6.12-34.566l.704,3.511c.069,2.792,1.728,11.982.847,14.468l-.246,1.194-.262-.065.659,2.042c.106.022-7.852-11.346-8.576-12.437-1.031-.588-1.37-1.948-2.291-3.185l-.311.283c1.66,4.275,5.323,12.876,7.8,16.507-1.622-.998-3.28-1.932-4.893-2.941-15.152-9.509-27.575-22.79-36.051-38.543-1.734-3.291-6.412-11.805-4.39-15.768.291-.57,1.363-1.026,2.037-1.054,5.657-.232,10.996,2.68,15.326,6.048-2.242-3.745-7.231-7.518-11.44-8.592-.86-.541-2.454-.4-3.197-1.105l.19-.388c1.894-1.424,5.71-1.265,8.1-1.291-2.632-.684-4.831-.397-7.491.2l.338-.139c-1.347.296-1.558.46-2.734,1.207l-.17.65c-1.565-3.728,2.493-3.994,5.046-5.032-1.108-.06-1.669.261-2.754-.335l-.143-.535c1.065-3.4,3.4-1.089,5.098-2.328l-1.534-.185-.09-.212c1.144-.92,3.978-.611,5.563-.962-1.351-.538-6.987-1.569-7.376-2.216Z" fill="url(#f)"/><path d="M259.287,29.347c9.593-.454,17.095,2.822,24.995,7.916-.062-.722-.159-.874-.493-1.485l.17-.273c2.316.662,3.208,3.272,6.51,2.582,12.901,10.92,22.165,25.515,26.556,41.836,3.582,12.803,3.643,26.048,7.08,38.638,3.319,12.161,11.529,23.156,12.195,36.309.769,10.274-1.486,16.755-5.567,25.696,7.516-5.291,15.676-13.303,22.374-19.603,2.496-2.348,6.421-6.816,8.874-8.745,2.295.695,2.93,1.311,4.71,2.819.769-2.749,1.54-5.554,2.066-8.317,1.058-5.562-.692-17.308,8.557-15.481,2.684.53,4.753,5.453,5.086,7.877,3.342-3.882,5.716-6.401,10.015-9.397,4.235-2.95,10.856-5.527,11.445,2.215l.06.777c7.135-2.408,10.583,1.464,7.304,8.211,6.598,1.52,5.335,5.817,2.629,10.6,1.077.672,1.571.944,2.519,1.817.887,5.202-1.633,8.044-5.137,11.402-1.785.403-2.113,1.565-3.426,2.193l-.152-.593c-.563-.22-.746-.131-1.367-.076-.452-.433-.3-.678-.198-1.314-6.54,5.077-9.536,7.292-17.462,9.708-5.149-5.397-8.788-8.779-14.376-13.714-.796.58-1.92,1.346-2.645,1.966-2.518-2.057-6.366-5.384-9.002-6.936-9.915,10.826-20.859,20.661-32.679,29.366-7.273,5.311-11.006,7.894-19.936,9.936l-1.75-.077c.537-.186,1.075-.369,1.614-.549.346-.591.255-.269.193-1.017-.964-1.163-2.554-1.39-3.898-1.705,5.666-.371,11.984-2.005,16.035-6.27.119-.608.388-1.006.684-1.549.585-.452,1.127-1.17,1.612-1.753,2.994-4.396,4.158-7.235,5.59-12.318,2.158-12.575-.673-23.499-5.413-35.167-1.633-4.019-3.694-7.796-4.818-12.012-1.266-4.748-1.622-9.52-2.464-14.337-3.035-18.923-6.52-32.426-17.257-48.669-.599-2.664-3.594-6.133-5.946-7.484-4.748-8.803-18.128-17.925-27.511-20.81-1.351-.538-6.987-1.569-7.376-2.216Z" fill="#795437"/><path d="M382.869,143.988c1.878-4.094,12.272-14.695,17.169-13.561,1.524,1.389-1.224,4.355-2.172,5.567l-.084.22c-.657,1.673-2.972,5.106-2.366,6.549-.338.403-.695.85-1.043,1.239l2.423,1.949c.413,1.95,1.314,2.048,1.347,3.72.203.255.423.557.648.783l.155-.334.817-.039c.544,2.131.968,2.523,1.93,4.447l.358.322c.487.854.505.988.167,2.003l-.068.283c.37.675.448,1.158.989,1.343,1.554-.749,9.244-5.742,10.348-3.319-.075.801-.475,1.853-.882,2.516-2.538,4.782-4.236,4.478-6.514,7.277-6.54,5.077-9.536,7.292-17.462,9.708-5.149-5.397-8.788-8.779-14.376-13.714l-2.2-1.884c.977-1.62,1.059-1.814.793-3.708-.248.818-.069.607-.585,1.183-.702-.716-.755-5.949-.861-7.317.823-3.781.569-10.268,1.892-13.273.835,1.295,2.767,1.845,3.589,2.927.807,1.063,1.262,4.002,2.292,4.827.796-.106.973-.302,1.151-1.153.174,2.204,3.29,5.294,4.204,8.559.861,3.076.085,5.857.582,7.779,1.657-.046,1.99-3.815,1.976-5.12-.109-1.298-.255-2.627-.383-3.927-.738-2.613-1.958-4.047-3.834-5.855Z" fill="#f8d6b5"/><path d="M372.846,155.356c.091-1.442.222-2.659.399-4.093.558,1.039.09,3.742.961,5.541,1.816,3.75,9.837,10.202,13.557,11.749,3.291,1.37,8.784-.956,11.678-2.563,2.578-1.431,5.54-3.167,8.071-4.777,1.499-.953,3.578-3.008,5.093-3.537-2.538,4.782-4.236,4.478-6.514,7.277-6.54,5.077-9.536,7.292-17.462,9.708-5.149-5.397-8.788-8.779-14.376-13.714l-2.2-1.884c.977-1.62,1.059-1.814.793-3.708Z" fill="url(#g)"/><path d="M391.067,153.455c2.668,2.505,2.776,3.948,3.732,7.323-.727-.865-1.49-1.841-2.318-2.595-1.25-.273-4.22-2.434-4.884-3.402l.021-1.367c1.293.269,2.336.679,3.449.041Z" fill="#cea07e"/><path d="M398.144,149.671c-1.262-1.559-7.657-7.304-7.887-7.904.806-.046,1.204.352,1.896.811.745.435,1.596.86,2.22,1.423l2.423,1.949c.413,1.95,1.314,2.048,1.347,3.72Z" fill="#815743"/><path d="M397.865,135.994l-.084.22c-.657,1.673-2.972,5.106-2.366,6.549-.338.403-.695.85-1.043,1.239-.624-.563-1.475-.988-2.22-1.423,3.198-2.936,3.151-3.676,5.712-6.585Z" fill="#a56940"/><path d="M386.703,149.843c1.722,1.089,2.989,2.107,4.363,3.612-1.113.639-2.156.228-3.449-.041-.015-.695.022-.968-.231-1.628-.153.722-.216,1.26-.301,1.984-.109-1.298-.255-2.627-.383-3.927Z" fill="#c28b6c"/><path d="M398.792,150.454l.155-.334.817-.039c.544,2.131.968,2.523,1.93,4.447l-.512-.008c-.848-1.261-1.637-2.731-2.391-4.066Z" fill="#cea07e"/><path d="M401.694,154.528l.358.322c.487.854.505.988.167,2.003-.464-.78-.706-1.49-1.036-2.334l.512.008Z" fill="#815743"/><path d="M259.287,29.347c9.593-.454,17.095,2.822,24.995,7.916,2.739,2.475,5.602,4.334,8.422,7.038,14.081,13.5,21.445,31.575,24.107,50.647,1.312,8.534,2.107,17.283,4.551,25.596,3.634,12.366,11.232,22.805,11.858,36.03.405,8.571-2.48,20.547-8.632,26.806l-.106-1.02c2.994-4.396,4.158-7.235,5.59-12.318,2.158-12.575-.673-23.499-5.413-35.167-1.633-4.019-3.694-7.796-4.818-12.012-1.266-4.748-1.622-9.52-2.464-14.337-3.035-18.923-6.52-32.426-17.257-48.669-.599-2.664-3.594-6.133-5.946-7.484-4.748-8.803-18.128-17.925-27.511-20.81-1.351-.538-6.987-1.569-7.376-2.216Z" fill="url(#h)"/><path d="M395.416,142.763c1.956-2.086,10.379-9.486,13.303-7.311.923,2.363-1.928,5.809-3.487,7.443-1.6,2.283-5.488,5.541-6.284,7.226l-.155.334c-.225-.227-.445-.528-.648-.783-.033-1.672-.934-1.77-1.347-3.72l-2.423-1.949c.347-.389.705-.836,1.043-1.239Z" fill="#f8d6b5"/><path d="M398.568,147.605c2.001-1.371,4.473-4.167,6.664-4.71-1.6,2.283-5.488,5.541-6.284,7.226l-.155.334c-.225-.227-.445-.528-.648-.783-.033-1.672-.934-1.77-1.347-3.72.988.529,1.062.733,1.771,1.654Z" fill="#f5cbac"/><path d="M399.764,150.082c2.395-1.69,9.418-6.83,12.204-5.843,1.362,1.531.236,3.63-.819,5.039-2.998.717-7.3,5.286-9.097,5.573l-.358-.322c-.962-1.924-1.386-2.316-1.93-4.447Z" fill="#f8d6b5"/><path d="M373.292,135.95c2.974-5.017,6.024,2.14,6.672,4.858.137.577.257,1.159.36,1.743-.178.851-.355,1.047-1.151,1.153-1.029-.825-1.485-3.764-2.292-4.827-.822-1.083-2.753-1.632-3.589-2.927Z" fill="url(#i)"/><path d="M402.052,154.851c1.797-.287,6.099-4.856,9.097-5.573-1.16,1.87-7.062,7.109-8.998,7.86l.068-.283c.338-1.016.32-1.149-.167-2.003Z" fill="#f5cbac"/><path d="M371.4,149.223c.106,1.368.16,6.601.861,7.317.516-.576.336-.366.585-1.183.266,1.894.184,2.088-.793,3.708-.801-.625-1.679-1.42-2.46-2.09.368-2.582,1.04-5.259,1.808-7.751Z" fill="#f5cbac"/><path d="M324.482,182.36l.106,1.02c-.799,1.037-1.4,1.458-2.402,2.282.119-.608.388-1.006.684-1.549.585-.452,1.127-1.17,1.612-1.753Z" fill="#c28b6c"/><path d="M304.024,147.978c1.934-.816,3.659-3.386,4.736-5.074,1.125,4.25.655,5.521.709,9.542.128,9.482-1.967,17.028-6.799,25.375-.7,1.202-1.432,2.386-2.193,3.551,2.148-1.924,4.54-3.498,6.642-5.376,5.063-4.523,7.612-13.974,7.383-20.538.08-.493.167-.983.261-1.473l.352-.178c2.883,7.572,3.067,9.487,2.939,17.812,1.449-1.806,3.943-4.801,4.151-7.239,1.867-5.634,2.63-12.047.968-17.831-.369-1.117-.745-2.224-1.07-3.355,3.074,4.577,4.17,10.948,4.508,16.383.102,1.641-.186,4.417.214,5.801.168-2.035-.312-5.376.682-6.566l.5-.19c.979,1.146-.173,5.139.945,6.722,1.078,1.527.966,2.589.887,4.237l.234.461c-1.432,5.083-2.597,7.922-5.59,12.318-.485.583-1.027,1.301-1.612,1.753-.296.543-.565.941-.684,1.549-4.051,4.265-10.369,5.899-16.035,6.27.277-1.012,2.24-3.01,2.893-3.98,4.394-6.52,5.806-10.513,5.612-18.091-.687,1.854-1.282,4.274-1.978,6.285-2.881,8.554-9.058,15.604-17.16,19.583-8.142,3.905-18.255,2.693-25.571-2.272-1.623-1.102-6.3-7.014-7.132-8.781.445-1.192,23.026-10.524,27.363-30.884l.073-.348c4.368.061,7.406-.457,10.933-3.218.926-.725,1.86-1.677,2.84-2.249Z" fill="url(#j)"/><path d="M322.869,184.113c.3-1.241,3.226-4.253,3.48-5.41.764-3.482,2.221-5.509,3.489-9.122l.234.461c-1.432,5.083-2.597,7.922-5.59,12.318-.485.583-1.027,1.301-1.612,1.753Z" fill="#a56940"/><path d="M297.262,156.256c2.231,4.739-.388,15.503-3.406,19.748-6.089,8.564-8.621,12.498-19.148,14.797-.146-.024-.399-.148-.549-.212.465-.541,2.56-1.183,3.364-1.527,9.985-4.274,16.806-13.231,18.58-23.907.465-2.8.613-5.8,1.112-8.639l.048-.261Z" fill="url(#k)"/><path d="M300.12,59.857c-.051,1.649.855,3.695.003,5.2l-.503.118c-2.707-.921-6.203-5.684-7.775-8.008-.897-1.326-3.924-5.223-1.952-6.394,1.748-.095,2.752.713,4.28,1.6,2.351,1.351,5.347,4.82,5.946,7.484Z" fill="#f5cbac"/><path d="M279.695,65.387c2.148.386,5.839,6.591,7.135,8.443.491,2.292,4.212,6.91,5.785,9.018,1.069,1.649,2.789,4.136,3.727,5.776,2.277,2.92,5.544,6.511,6.739,9.905l-.246,1.194-.262-.065.659,2.042c.106.022-7.852-11.346-8.576-12.437-1.031-.588-1.37-1.948-2.291-3.185l-.311.283c-1.908-3.998-4.725-7.517-6.571-11.615l-.684-.881c-1.638-3.176-3.231-5.468-5.105-8.479Z" fill="#603b33"/><path d="M296.342,88.624c2.277,2.92,5.544,6.511,6.739,9.905l-.246,1.194-.262-.065c-2.062-3.409-4.565-6.719-6.37-10.253.046-.26.092-.521.138-.781Z" fill="url(#l)"/><path d="M285.484,74.747c2.768,1.482,7.24,11.296,9.173,14.517-1.031-.588-1.37-1.948-2.291-3.185l-.311.283c-1.908-3.998-4.725-7.517-6.571-11.615Z" fill="#795437"/><path d="M275.768,67.547c.046-1.061.029-4.243.899-4.724.95.475,2.122,1.784,3.027,2.563,1.874,3.011,3.467,5.303,5.105,8.479l-.273.484c-1.903.31-3.848-2.976-5.834-2.454-1.725.453-2.756-1.492-3.605-2.675.229-.655.444-.777.681-1.673Z" fill="#cea07e"/><path d="M260.524,36.121c6.075.064,11.896,1.781,16.403,5.988-3.534-.916-7.953-2.843-11.392-2.875-2.632-.684-4.831-.397-7.491.2l.338-.139c-1.347.296-1.558.46-2.734,1.207l-.17.65c-1.565-3.728,2.493-3.994,5.046-5.032Z" fill="url(#m)"/><path d="M322.205,164.38c-.848-1.426-.474-12.797-.119-15.268.108-.753.672-1.892,1.087-2.563,1.663,5.784.899,12.197-.968,17.831Z" fill="#c28b6c"/><path d="M286.83,73.83c1.972,1.61,5.459,6.315,5.785,9.018-1.573-2.109-5.294-6.727-5.785-9.018Z" fill="#946b55"/><path d="M275.087,69.22c-.719-.758-1.492-1.384-1.761-2.352l.215-.246c1.016.085,1.319.377,2.226.925-.237.896-.452,1.018-.681,1.673Z" fill="#c28b6c"/><path d="M314.502,155.459c-.059-1.012-.369-3.529.005-4.279.472.916.48,1.61.607,2.627l-.352.178c-.093.49-.181.981-.261,1.473Z" fill="#946b55"/><path d="M286.349,54.866c2.259.683,4.462,4.267,5.872,6.115,2.445,3.203,3.955,6.403,5.093,10.239-1.349-1.129-5.448-5.341-6.889-5.46-.504,1.122-.359,2.977-1.111,3.643-1.775-.389-8.054-8.244-8.34-9.825,1.342-.718,5.093,1.189,6.191.755.346-.905.023-2.742-.261-3.659l-.555-1.809Z" fill="#f5cbac"/><path d="M266.39,64.374c.726.867,1.068.475,1.802,1.057,3.698,2.927,5.736,6.637,6.834,11.166-3.83-1.042-7.983-8.454-8.637-12.223Z" fill="#cea07e"/><path d="M138.576,96.376c.665-4.932,1.273-9.127,2.538-13.949,5.741-22.249,20.262-41.217,40.242-52.564,14.734-8.547,37.338-13.823,53.911-9.411,7.433,1.381,14.06,4.904,19.763,9.846l4.257-.951c.389.647,6.026,1.679,7.376,2.216-1.585.351-4.419.042-5.563.962l.09.212,1.534.185c-1.698,1.24-4.033-1.072-5.098,2.328l.143.535c1.086.596,1.646.275,2.754.335-2.553,1.038-6.611,1.304-5.046,5.032l.17-.65c1.177-.747,1.387-.911,2.734-1.207l-.338.139c2.661-.598,4.859-.884,7.491-.2-2.39.025-6.206-.133-8.1,1.291l-.19.388c.743.706,2.336.564,3.197,1.105,4.21,1.074,9.198,4.847,11.44,8.592-4.33-3.368-9.669-6.28-15.326-6.048-.673.028-1.746.484-2.037,1.054-2.022,3.964,2.656,12.477,4.39,15.768,8.476,15.753,20.898,29.034,36.051,38.543,1.614,1.009,3.272,1.943,4.893,2.941-2.476-3.631-6.14-12.232-7.8-16.507l.311-.283c.921,1.236,1.26,2.597,2.291,3.185.724,1.091,8.682,12.459,8.576,12.437l-.659-2.042.262.065.246-1.194c.881-2.486-.778-11.676-.847-14.468l-.704-3.511c3.701,8.888,8.692,25.382,6.12,34.566-4.007-2.415-5.46-2.96-9.92-1.164l.098.285c-1.252.537-2.147,1.538-3.751,2.092l-.475-.352c-.538-1.229-2.304-7.28-2.073-8.392,1.441-.12,5.391,2.714,8.058,3.406l.076-.236c-.597-.677-1.801-1.992-2.588-2.367l-5.494-2.585c-.77-.371-.627-1.389-1.755-2.304-4.558-3.697-15.513-11.846-17.948-17.069-7.267-8.141-14.127-19.621-17.968-29.856-1.181-3.147-1.801-7.23-3.145-10.76l-.159-.412c-3.31,6.208-7.308,12.343-12.269,17.379-7.63,7.847-16.649,14.211-26.599,18.771-2.615,1.229-6.222,2.872-9.148,2.892,1.741-2.108,8.769-9.439,9.418-11.28l1.612-1.613c2.939-2.701,5.374-5.251,7.637-8.539.843-1.225,2.134-3.141,3.376-3.852,1.211-2.036,3.465-5.804,3.967-7.988-1.929,3.053-3.515,4.957-5.868,7.594-1.032,3.898-17.307,16.771-21.414,19.698-4.005,2.844-8.139,5.5-12.389,7.962-2.927,1.707-6.961,3.905-10.034,5.343-7.571,3.541-17.828,7.604-22.728,14.646,3.566-1.624,5.995-3.842,9.306-5.733-1.545,4.142-3.102,8.153-3.928,12.509-.248,1.31-.161,2.445-.745,3.654-.617-.506-.956-1.152-1.516-1.748-1.482-1.579-3.592-2.668-5.801-2.426-1.782.195-3.567,1.42-5.199,2.232-3.292,2.445-5.138,5.99-5.751,10.007-.581,4.051-.178,8.182,1.176,12.044-1.832,2.768-2.286,5.788-3.073,8.912-2.396,9.509-3.235,16.89-2.299,26.614l-.174-.3c-1.761-2.972-3.316-3.5-5.015-5.807-2.148-2.915-2.868-8.746-2.916-12.273-.019-1.381.062-3.123-.147-4.474-3.511,10.003-2.809,20.47.592,30.376l-.654.057c.53,1.206,1.111,2.451,1.548,3.688-.933-1.032-1.697-1.916-2.569-3.002-.345-.98-3.121-5.847-3.816-7.518-8.939-21.5,5.066-36.77,10.226-56.422.823-3.132,1.285-6.373,1.746-9.521.314-2.138.732-9.175,1.418-10.907Z" fill="#815743"/><path d="M168.34,90.019c3.594-.749,7.968-2.847,11.417-4.252,10.523-4.288,21.206-9.596,30.425-16.277,4.266-3.091,8.429-7.292,12.551-10.723-1.032,3.898-17.307,16.771-21.414,19.698-4.005,2.844-8.139,5.5-12.389,7.962-2.927,1.707-6.961,3.905-10.034,5.343-7.571,3.541-17.828,7.604-22.728,14.646,3.566-1.624,5.995-3.842,9.306-5.733-1.545,4.142-3.102,8.153-3.928,12.509-.248,1.31-.161,2.445-.745,3.654-.617-.506-.956-1.152-1.516-1.748-1.482-1.579-3.592-2.668-5.801-2.426-1.782.195-3.567,1.42-5.199,2.232-1.273-8.446-.878-18.821,2.188-26.799,1.006-2.617,4.014-11.067,6.47-12.183,1.431-3.009,5.382-8.742,7.598-11.299l.244.774c.647-.803,1.577-2.083,2.476-2.469l.338.47c-6.146,7.685-11.368,21.841-12.902,31.437,5.632-7.616,22.603-17.976,31.426-21.313l-.823,1.06c-4.305,5.559-12.237,10.546-16.962,15.437Z" fill="#603b33"/><path d="M156.943,75.921c1.431-3.009,5.382-8.742,7.598-11.299l.244.774c-1.514,1.927-2.085,3.526-3.31,5.495-4.762,7.651-8.203,15.965-10.059,24.791-.317,1.508-.927,3.178-1.453,4.646.414-7.073,1.383-11.998,4.249-18.641.625-1.449,2.297-4.586,2.731-5.766Z" fill="#39160e"/><path d="M173.659,80.992c-.337,1.005-6.701,6.034-8.051,7.226-5.744,5.071-8.357,10.32-10.994,17.472-.192-1.097.601-3.987.974-5.051,2.381-6.796,7.165-11.62,12.776-15.866,1.658-1.255,3.394-2.855,5.294-3.78Z" fill="#39160e"/><path d="M138.576,96.376c.665-4.932,1.273-9.127,2.538-13.949,5.741-22.249,20.262-41.217,40.242-52.564,14.734-8.547,37.338-13.823,53.911-9.411,1.004,1.697,1.993,2.142,3.65,3.182-18.511-4.328-40.555.878-56.518,10.801-17.263,10.553-30.645,26.411-38.145,45.203-.713,1.841-4.284,13.748-4.481,14.02-.055-.557,1.15-5.255,1.454-5.818l-.051-.36c-.301.032-.638-.027-.754.271-1.012,2.606-1.033,5.883-1.645,8.71l-.2-.085Z" fill="#c28b6c"/><path d="M175.166,55.462l.279-.176c2.889-1.848,10.642-8.853,13.442-8.867l.451-.005.29.163c-1.825,2.04-4.07,4.18-5.515,6.461,1.674,3.047,1.603,2.812,5.038,3.101l.082.29-1.06,1.096.174.155c2.909-.763,4.199-1.337,7.211-1.678-.271,1.032-.494,1.9-.696,2.953,8.046-1.358,6.934-2.681,13.431-5.762-3.103,6.557-12.205,13.741-18.878,16.18,1.056-1.89,1.707-2.843,3.098-4.528-1.074.045-3.156.329-4.005-.481-.261-.249-.11-.85-.15-1.324-1.794-.422-9.844,4.842-12.455-2.043l-.351-.144c-2.134.979-6.386,4.764-8.57,6.423.457-1.381.939-2.754,1.446-4.118,1.666-2.581,4.464-5.669,6.738-7.696Z" fill="#c28b6c"/><path d="M130.023,180.059c-2.878-6.723-4.003-12.987-3.036-20.3.261-1.974,1.804-9.845,3.016-11.07l.229.152-.147.784c-3.511,10.003-2.809,20.47.592,30.376l-.654.057Z" fill="#39160e"/><path d="M271.88,86.43c1.99,1.781,3.6,4.084,5.483,5.903,5.972,5.771,12.478,11.193,19.527,15.607,1.242.777,2.419,1.509,3.254,2.756l.025.523c-1.798.496-6.757-2.657-8.604-3.653.828,2.842,1.6,5.7,2.315,8.573,1.232-.749,2.546-1.612,3.853-2.187l.098.285c-1.252.537-2.147,1.538-3.751,2.092l-.475-.352c-.538-1.229-2.304-7.28-2.073-8.392,1.441-.12,5.391,2.714,8.058,3.406l.076-.236c-.597-.677-1.801-1.992-2.588-2.367l-5.494-2.585c-.77-.371-.627-1.389-1.755-2.304-4.558-3.697-15.513-11.846-17.948-17.069Z" fill="#603b33"/><path d="M171.982,56.364c.252.891-.076,1.178-.539,2.131.431-.207,2.265-2.277,3.445-3.132l.279.098c-2.273,2.027-5.071,5.115-6.738,7.696l-.828.238-.338-.47c-.899.387-1.829,1.667-2.476,2.469l-.244-.774c.9-1.539,4.858-5.479,6.291-7.207l1.149-1.05Z" fill="#522a1d"/><path d="M213.62,71.551c2.939-2.701,5.374-5.251,7.637-8.539.843-1.225,2.134-3.141,3.376-3.852-.723,2.18-8.603,12.977-10.453,13.637-.203-.524-.164-.325-.148-.883l-.412-.363Z" fill="#603b33"/><path d="M170.833,57.415l-.17-.427c.568-2.087,5.163-7.612,7.634-7.178l.256.396c-1.651,2.047-4.553,3.548-6.57,6.159l-1.149,1.05Z" fill="#c28b6c"/><path d="M255.478,41.152l.17-.65c1.177-.747,1.387-.911,2.734-1.207l-.338.139c2.661-.598,4.859-.884,7.491-.2-2.39.025-6.206-.133-8.1,1.291l-.19.388c.743.706,2.336.564,3.197,1.105-.727.617-2.659-.926-4.239-.054l.025.358c1.308.386,2.613.779,3.916,1.181l-.081.264c-1.277-.101-3.714-.56-4.833-1.168l-.102-.352.371-.632-.021-.462Z" fill="#795437"/><path d="M302.235,84.061c1.003,2.018,1.9,14.171,1.517,15.991l-.304.289c-.54-.269-.319-.087-.612-.618l.246-1.194c.881-2.486-.778-11.676-.847-14.468Z" fill="#946b55"/><path d="M175.698,42.1c.944-.12,1.528-.267,2.326.364,1.777,3.293-8.104,11.446-10.634,13.114-1.513.997-1.758,1.001-3.531.758l-.156-.849-.34-.103c-.572.422-1.075.842-1.619,1.294,2.001-6.933,7.466-11.793,13.955-14.578Z" fill="#c28b6c"/><path d="M224.97,27.055c5.764-.683,18.454.881,22.539,6.203.797,1.038,1.748,2.549,2.615,3.683-.863.033-3.8-3.303-5.818-4.362-3.984-2.09-7.717-3.405-12.114-4.374-1.821-.401-5.676-.454-7.221-1.15Z" fill="#522a1d"/><path d="M214.436,58.159c.522.068.282-.031.712.318l-.014.632c-1.615,3.149-6.764,6.656-9.994,8.112l-.464-.187c-.939-2.425,7.701-7.919,9.76-8.875Z" fill="#c28b6c"/><path d="M231.234,56.801c1.233,1.543-2.514,5.634-3.842,6.569-2.101-2.87,1.856-5.348,3.842-6.569Z" fill="#a56940"/><path d="M143.71,136.954c.167.422.827,2.004.89,2.347l1.041,2.125c5.214,7.246,10.039,11.425,19.055,12.383,1.411,3.882,2.575,6.937,4.681,10.577,4.728,8.17,13.706,15.52,22.264,19.497.493.228.993.441,1.5.639-5.764,6.907-10.008,12.486-19.606,13.309-17.691,1.517-31.544-14.331-33.259-30.924-.055-.559.046-2.93-.186-3.15-.366,1.553.329,1.715-.379,3.956-.795,4.53,1.437,10.408,3.11,14.564.887,2.205,2.872,4.438,4.194,6.331.51.73,2.216,2.437,2.194,3.098-2.769,1.249-10.849-3.07-13.317-4.699-2.52-2.602-3.265-3.904-5.212-7.004-3.401-9.907-4.103-20.374-.592-30.376.209,1.351.128,3.093.147,4.474.048,3.527.768,9.358,2.916,12.273,1.7,2.307,3.255,2.835,5.015,5.807l.174.3c-.936-9.723-.097-17.105,2.299-26.614.787-3.124,1.241-6.144,3.073-8.912Z" fill="#603b33"/><path d="M158.72,183.269c-14.183-8.93-18.887-23.086-15.303-39.149.322-1.444.556-3.561,1.183-4.82l1.041,2.125c.069,3.937.445,7.863,1.124,11.741,1.085,5.885,4.827,17.116,7.181,22.816.743,1.801,3.521,5.559,4.774,7.287Z" fill="#795437"/><path d="M253.262,213.098c2.118-1.03,4.69-1.823,6.926-2.695,3.859-1.503,7.177-3.716,11.363-3.905,2.451,6.549,5.727,14.729,7.309,21.399-2.953,1.261-10.753,4.576-13.459,6.117-.712.463-.481.157-.761.912.355,1.573,7.372,9.467,8.851,11.195-4.725,7.338-10.002,14.319-14.63,21.772-4.358,7.02-9.128,13.436-12.287,21.182-.334-1.514.04-8.494.122-10.462.907-21.743,3.581-43.947,6.565-65.516Z" fill="#f3f5f4"/><path d="M297.732,113.952c4.459-1.796,5.913-1.251,9.92,1.164,3.343,2.924,5.045,6.289,5.252,10.726.347,7.411-.628,10.842-4.143,17.062-1.078,1.688-2.802,4.258-4.736,5.074.263-.76,1.589-1.736,2.263-2.406,1.091-1.085,1.351-1.582,2.116-2.918-.172-1.494.074-.932-.984-2.097l-.271-.016c-1.696,2.178-6.014,7.84-8.795,8.211-3.067,1.381-3.635,1.399-7.064,1.676.727-2.815,1.153-5.327,1.653-8.19.055-1.655,1.02-6.548,1.466-8.185.513-.75,1.375-2.307,1.867-3.137l-.344-.506c-.66-.15-.893-.403-1.483-.794l-.211-.692c.176-3.063.326-6.044.67-9.094-.823-1.23,2.829-4.582,3.25-5.526l-.328-.065-.098-.285Z" fill="url(#n)"/><path d="M301.732,123.643c1.238.499,2.74,1.726,3.6,1.812l.37-.412c.985,6.313-.937,10.426-3.302,16.18-.834,2.03-2.372,3.853-3.492,5.73-.27.44.066.545-.446,1.275l-.022.218-.087.306c-3.067,1.381-3.635,1.399-7.064,1.676.727-2.815,1.153-5.327,1.653-8.19.055-1.655,1.02-6.548,1.466-8.185.513-.75,1.375-2.307,1.867-3.137l-.344-.506.912-.911c1.534-2.688,2.204-4.199,4.889-5.855Z" fill="#eaaa92"/><path d="M295.931,130.409l.912-.911c3.097.965,3.765,3.225,4.136,6.24.909,1.429-1.948,10.329-8.037,6.5.055-1.655,1.02-6.548,1.466-8.185.513-.75,1.375-2.307,1.867-3.137l-.344-.506Z" fill="#cea07e"/><path d="M295.931,130.409l.912-.911c3.097.965,3.765,3.225,4.136,6.24-.021.05-.043.1-.065.15-.434,2.993-1.499,4.623-3.853,6.559,1.21-3.797,4.567-8.961-.786-11.532l-.344-.506Z" fill="#815743"/><path d="M297.732,113.952c4.459-1.796,5.913-1.251,9.92,1.164,3.343,2.924,5.045,6.289,5.252,10.726.347,7.411-.628,10.842-4.143,17.062-1.078,1.688-2.802,4.258-4.736,5.074.263-.76,1.589-1.736,2.263-2.406,1.091-1.085,1.351-1.582,2.116-2.918-.172-1.494.074-.932-.984-2.097l-.271-.016c-1.696,2.178-6.014,7.84-8.795,8.211l.087-.306c3.182-1.612,5.138-4.162,7.346-6.828,4.96-5.987,6.665-19.965-.925-24.842-1.493-.979-3.331-1.28-5.058-.827-2.372.622-3.739,1.786-4.895,3.88-.823-1.23,2.829-4.582,3.25-5.526l-.328-.065-.098-.285Z" fill="url(#o)"/><path d="M301.759,121.647c2.269.792,3.026,1.146,3.943,3.397l-.37.412c-.86-.086-2.362-1.313-3.6-1.812-2.686,1.656-3.355,3.166-4.889,5.855l-.912.911c-.66-.15-.893-.403-1.483-.794,2.14-4.028,3.044-6.025,7.31-7.969Z" fill="#815743"/><path d="M298.736,117.185c.534.529.725,1.001.677,1.703l-.722.549c-.828-.253-.522-.026-1.042-.572.134-.834.43-.911,1.087-1.68Z" fill="#f5cbac"/><path d="M259.703,185.662c5.606,5.074,9.141,13.897,11.848,20.837-4.186.189-7.504,2.401-11.363,3.905-2.236.871-4.808,1.664-6.926,2.695.372-6.794,2.307-13.746,1.758-20.615-.123-1.542-.197-3.104-.301-4.649,1.667-.711,3.328-1.435,4.983-2.172Z" fill="#b4b5c1"/><path d="M302.321,195.136c1.973.075,3.947.097,5.921.066l1.75.077c-1.277,1.206-4.37,2.196-5.894,2.99-8.132,4.229-15.806,8.182-25.22,7.762-1.764-.079-3.31-.241-3.594,1.806-1.407-3.245-2.705-6.665-4.027-9.959,1.813.767,3.929,1.605,5.82,2.101,6.807,1.736,14.007,1.028,20.346-1.999,1.78-.853,3.204-1.853,4.898-2.844Z" fill="#b4b5c1"/><path d="M212.008,73.164c-.649,1.84-7.676,9.171-9.418,11.28-1.975,1.828-8.57,2.779-11.677,4.222l-.554-.488c6.15-2.545,16.517-10.657,21.649-15.013Z" fill="#946b55"/><path d="M312.269,258.591c.402-.844,3.431-2.709,4.382-3.358,3.248-2.198,6.479-4.424,9.69-6.676,2.038-1.438,8.282-6.753,10.382-6.774-2.029,1.683-23.191,16.554-24.454,16.808Z" fill="#161416"/><path d="M360.465,218.805c1.001-1.002,2.369-2.213,3.451-3.133,6.884-5.845,12.6-12.509,18.76-19.045-.935,2.882-12.794,14.076-15.342,16.578-.94.616-.503,1.379-.996,1.934-.127.143-.741.229-.918.273-1.826.455-3.023,3.072-4.956,3.393Z" fill="#603b33"/><path d="M285.382,440.767c-.076,1.741-.29,3.474-.64,5.181-.702,4.979-1.308,10.342-2.197,15.301-.117.654-.554,1.025-1.088,1.39,1.896-5.102,2.245-18.591,3.926-21.872Z" fill="#161416"/><path d="M130.677,180.002c1.948,3.1,2.692,4.402,5.212,7.004-2.716-.521-6.159-3.63-6.887-6.261.872,1.086,1.636,1.97,2.569,3.002-.438-1.237-1.018-2.482-1.548-3.688l.654-.057Z" fill="#522a1d"/><path d="M219.698,442.018c-.96-2.557.662-9.94.567-12.92.143-.137.285-.274.428-.411.313.597.228,1.429.241,2.165-.174,2.473-.714,8.86-1.237,11.167Z" fill="#161416"/><path d="M104.664,294.832l.334.335c-.434,2.835-1.12,7.636-1.099,10.443.023,3.198.22,6.071.071,9.427l-.199.078c-.413-1.36.532-3.219-.453-5.798-.12-1.738.896-12.745,1.346-14.486Z" fill="#39160e"/><path d="M294.408,134.053c-.501-1.11-.774-4.136-.171-5.129l.211.692c.59.391.823.643,1.483.794l.344.506c-.492.83-1.354,2.388-1.867,3.137Z" fill="#603b33"/><path d="M190.913,88.666c-.864.211-1.618.596-2.414.388.489-.524,1.154-.644,1.86-.876l.554.488Z" fill="#522a1d"/><path d="M195.904,185.946c1.9.779,3.795,1.57,5.687,2.371-.006,1.154.125,4.624-.434,5.459l-.662-.327c-.621,1.036,1.314,17.071,1.494,19.532,2.245,16.528,4.015,33.118,5.306,49.748.477,6.144,1.12,12.916,1.369,19.01.821,26.219.509,52.461-.936,78.653-.332,7.895-.758,15.785-1.276,23.67-.251,4.14-.634,11.173-1.219,15.233-12.062.07-24.403-.347-36.387-1.759-1.775-.21-7.166-.985-8.664-1.48-7.58-.714-19.583-4.196-26.784-6.692.101-6.293,1.082-15.211,1.645-21.582l3.489-38.585c2.233-25.104,4.342-50.244,8.155-75.165.384-2.506.518-5.549,1.124-7.973.221-3.026.807-8.192.797-11.015-1.927,4.412-2.959,10.619-3.955,15.41l-.593,3.099c.012.695.076.594-.106,1.228-.502,2.323-.837,4.815-1.199,7.174-2.261,13.75-3.995,27.582-5.198,41.465-.569,5.925-1.158,15.673-2.07,21.261-1.946-.075-7.686-.493-9.384-1.068-7.217-1.133-13.271-2.733-19.901-5.91l.128-4.213c1.354-38.935,14.899-89.396,44.195-116.743.781-.627,1.627-1.339,2.424-1.928,9.969,7.289,20.235,7.781,31.371,3.015-.562,1.325-2.467,6.019-3.087,7.097-2.452,5.477-7.572,18.209-8.277,23.919,1.807,1.731,11.079,5.332,13.932,6.708l-2.115,2.378c-2.148,2.486-4.988,5.413-6.437,8.329.623,1.091,1.267,2.17,1.93,3.237,3.15,4.379,25.272,37.379,27.65,38.665-.581-2.723-3.051-6.431-4.552-8.951-4.719-7.821-9.681-15.493-14.879-23.005-2.227-3.273-4.764-6.691-6.859-9.972,1.588-1.747,8.755-9.968,8.473-11.82-1.491-1.453-11.059-5.663-13.698-7.01,2.344-7.802,5.024-15.499,8.033-23.069,2.857-6.581,5.773-13.723,11.469-18.393Z" fill="#f3f5f4"/><path d="M147.81,246.059c1.555-1.294,2.891-7.939,3.793-10.11-2.946,25.846-3.899,53.8-4.533,79.812-.509,20.865-.863,42.505.544,63.321.183,2.704.159,9.493,1.702,11.406,2.167,2.687,8.491,3.959,10.866,5.568-7.58-.714-19.583-4.196-26.784-6.692.101-6.293,1.082-15.211,1.645-21.582l3.489-38.585c2.233-25.104,4.342-50.244,8.155-75.165.384-2.506.518-5.549,1.124-7.973Z" fill="#b4b5c1"/><path d="M126.103,323.612l.6-.275c.648-1.427,1.474-9.127,1.741-11.101,1.813-13.309,4.151-26.541,7.009-39.666,1.099-5.208,2.516-10.278,3.635-15.445.747-3.45,1.281-7.614,1.8-11.15l.889,1.225.199.116.685-1.194c.242,1.792.428,7.691,1.293,8.658-.502,2.323-.837,4.815-1.199,7.174-2.261,13.75-3.995,27.582-5.198,41.465-.569,5.925-1.158,15.673-2.07,21.261-1.946-.075-7.686-.493-9.384-1.068Z" fill="#b4b5c1"/><path d="M141.777,247.2l.199.116.685-1.194c.242,1.792.428,7.691,1.293,8.658-.502,2.323-.837,4.815-1.199,7.174-.75-2.103-1.332-12.532-.978-14.754Z" fill="url(#p)"/><path d="M195.904,185.946c1.9.779,3.795,1.57,5.687,2.371-.006,1.154.125,4.624-.434,5.459l-.662-.327c-.621,1.036,1.314,17.071,1.494,19.532-5.855-2.142-12.355-5.182-17.553-8.642,2.857-6.581,5.773-13.723,11.469-18.393Z" fill="#b4b5c1"/><path d="M180.266,249.502c3.15,4.379,25.272,37.379,27.65,38.665.85,2.176.399,4.334.16,6.663-5.572-6.61-10.314-15.823-15.857-22.789-1.847-2.32-13.813-19.366-14.06-20.917.397-.762,1.165-.901,1.85-1.422l.257-.199Z" fill="#b4b5c1"/><path d="M152.95,194.819c9.969,7.289,20.235,7.781,31.371,3.015-.562,1.325-2.467,6.019-3.087,7.097-2.236.097-4.444.706-6.519.85-5.905.408-13.607-1.555-18.632-4.688-1.86-1.16-3.847-2.948-5.557-4.347.781-.627,1.627-1.339,2.424-1.928Z" fill="#b4b5c1"/><path d="M172.956,228.85c1.807,1.731,11.079,5.332,13.932,6.708l-2.115,2.378c-3.559-1.713-7.897-2.788-11.096-5.279-.613-.477-.64-3.064-.721-3.807Z" fill="#b4b5c1"/><path d="M141.692,240.098c.024-.915.015-2.014.161-2.901.576,2.67,1.676,8.299,1.745,10.981l.591,2.045c.154.077.308.154.463.231l-.593,3.099c.012.695.076.594-.106,1.228-.865-.967-1.051-6.866-1.293-8.658l-.685,1.194-.199-.116-.889-1.225c.362-1.997.334-3.783.804-5.877Z" fill="#423e48"/><path d="M141.692,240.098c.675,1.476.838,4.347.969,6.025l-.685,1.194-.199-.116-.889-1.225c.362-1.997.334-3.783.804-5.877Z" fill="#969a9b"/><path d="M143.598,248.177l.591,2.045c.154.077.308.154.463.231l-.593,3.099c-.366-1.214-.397-3.977-.461-5.375Z" fill="#b4b5c1"/><path d="M211.863,327.004c11.216,1.38,19.842.615,30.803.475.333,9.075,2.055,71.884,5.247,74.366,2.395,1.863,28.189.213,33.221-.269,2.156-.206,4.276-.57,6.408-.943-.134,1.154-.937,8.591-1.211,9.328-.64,5.248-6.206,49.424-7.057,50.064-.466.35-1.099.465-1.654.619-5.717,1.67-16.584,2.542-22.513,2.397-4.93.015-9.844-.579-14.629-1.766-2.198-22.971-4.584-45.923-7.156-68.855-.885-7.99-2.007-16.199-2.819-24.132,1.682.144,3.445.236,5.136.349l-.183-.117c-5.832-3.664-9.38-3.344-16.039-3.108,1.977,1.779,2.551,2.088,5.057,2.522-.453,6.855-2.065,16.473-2.855,23.683-1.723,16.281-3.335,32.573-4.835,48.876-.639,6.656-2.001,14.604-2.108,21.129-5.809,1.335-9.281,1.488-15.172,1.428-7.355.307-14.46-.941-21.677-2.147-.641-.189-1.384-.329-1.896-.779-.786-.69-6.524-44.234-7.299-50.045-.502-1.781-1.16-7.516-1.424-9.502,11.94,1.384,28.885,3.029,40.712,1.333.52-2.562.934-8.382,1.197-11.252.832-9.725,1.474-19.465,1.925-29.214.18-3.997.808-12.402.536-15.89.271-6.179.366-12.364.287-18.549Z" fill="#333339"/><path d="M208.908,412.505c2.043-3.711,2.361-6.691,3.944-10.486l.316,1.698-2.845,37.281c-.384,5.016-.789,15.196-1.711,19.481-2.018.99-6.833,2.283-9.108,2.571-7.355.307-14.46-.941-21.677-2.147-.641-.189-1.384-.329-1.896-.779-.786-.69-6.524-44.234-7.299-50.045.814.13,2.417.721,3.036,1.199,7.932,1.416,29.845,3.222,37.241,1.226Z" fill="#47474a"/><path d="M168.631,410.08c.814.13,2.417.721,3.036,1.199,1.59,7.798,2.651,18.833,3.52,26.814.798,7.322,2.016,15.608,2.64,22.811-.641-.189-1.384-.329-1.896-.779-.786-.69-6.524-44.234-7.299-50.045Z" fill="#6e6f77"/><path d="M243.543,404.682c.844,2.456,1.659,4.923,2.444,7.398,8.404.834,19.53.361,28.009-.121,2.588-.147,8.808-1.724,10.309-1.728.729-.12,1.284-.238,2.026-.27-.64,5.248-6.206,49.424-7.057,50.064-.466.35-1.099.465-1.654.619-5.717,1.67-16.584,2.542-22.513,2.397-2.082-.324-5.952-1.853-7.779-3.031-1.004-4.932-1.209-14.194-1.514-19.45l-2.272-35.878Z" fill="#47474a"/><path d="M284.306,410.232c.729-.12,1.284-.238,2.026-.27-.64,5.248-6.206,49.424-7.057,50.064-.466.35-1.099.465-1.654.619.589-15.539,3.457-31.831,5.723-47.226.091-.622,1.325-1.958,1.775-2.545l-.594-.136-.22-.505Z" fill="#9f8d7d"/><path d="M212.851,402.019l.229-.846.195-.021c.068,1.123.045,1.449-.107,2.566l-.316-1.698Z" fill="#423e48"/><path d="M233.854,333.277l3.611-.074-.043,24.347c-3.879,1.706-12.895,3.557-16.825,2.263-1.335-.698-2.898-1.201-4.075-1.984-.302-1.791-.15-6.934-.135-9.008.057-5.092.062-10.185.015-15.277,5.376.36,12.077.069,17.452-.266Z" fill="#47474a"/><path d="M219.296,119.298c4.85-2.916,11.25-3.346,15.98.077.286,1.364.472,2.383.652,3.767,1.252,5.056,2.4,7.086,5.668,11.091,10.55,9.43,26.703,10.477,37.224.462l.768-.859c3.07-3.044,4.574-6.901,5.467-11.046.183-1.55.241-2.86.305-4.421,1.918-.433,3.757-.639,5.715-.749.122.77.141,1.63.179,2.418.517,9.95.021,14.593-1.716,24.185-1.432,9.06-5.512,19.393-11.987,25.959-8.796,8.92-19.64,13.665-31.481,17.238-5.184,1.534-12.173,3.845-17.604,3.525-16.536-.976-37.385-8.239-49.485-19.534-11.575-10.805-15.196-29.809-15.48-44.815-.311-2.771-.082-5.886.043-8.69,1.503.091,4.171.302,5.572.653.056,1.106.149,2.246.225,3.355.829,4.519,2.304,8.367,5.493,11.784l.937,1.029c5.462,5.149,11.999,7.121,19.468,6.95,6.88-.157,11.674-2.33,17.067-6.369,4.438-5.069,4.807-5.908,6.457-12.231l.533-3.779Z" fill="#f5cbac"/><path d="M163.501,126.596c.463,1.12,1.06,2.46,1.43,3.591,2.211,16.238,5.696,29.939,19.716,40.577,2.639,2.012,5.448,3.792,8.395,5.318,6.337,3.224,21.06,8.613,27.876,9.726,4.186.725,8.462.767,12.662.123,6.87-.991,10.846-2.951,16.812-5.071,15.111-5.368,28.925-13.165,35.462-28.683.728-1.729,2.357-7.124,3.271-8.212l.412.26c-1.432,9.06-5.512,19.393-11.987,25.959-8.796,8.92-19.64,13.665-31.481,17.238-5.184,1.534-12.173,3.845-17.604,3.525-16.536-.976-37.385-8.239-49.485-19.534-11.575-10.805-15.196-29.809-15.48-44.815Z" fill="#dd9885"/><path d="M279.587,133.836c1.339,3.503,4.715,4.86,2.9,9.173-2.377,5.647-12.111,6.275-17.027,4.055-1.601-.723-2.6-1.599-3.774-2.838,4.115-.873,8.815-.368,12.582-2.831,1.853-1.211,4.465-3.611,4.9-5.855l.532-.306c-.318-.488-.154-.268-.881-.539l.768-.859Z" fill="#eaaa92"/><path d="M174.834,133.697l.937,1.029c-1.028,3.291,2.505,5.029,4.852,6.485,4.247,2.638,9.573,3.221,14.484,3.088-3.788.434-4.126,4.184-10.605,4.056-3.713-.073-7.73-.309-10.71-3.3-.871-.858-1.489-1.939-1.786-3.125-.889-3.669,1.536-4.11,2.844-6.771-.006-.583-.011-1.07-.016-1.463Z" fill="#eaaa92"/><path d="M261.686,144.226c-1.021.132-2.748-.001-3.809-.097-6.357-.575-13.417-4.888-17.391-9.792-.303-.374-.241-.188-.187-.66l.897.661.399-.104c10.55,9.43,26.703,10.477,37.224.462.727.271.563.05.881.539l-.532.306c-.435,2.244-3.047,4.644-4.9,5.855-3.767,2.463-8.467,1.958-12.582,2.831Z" fill="#dd9885"/><path d="M175.771,134.726c5.462,5.149,11.999,7.121,19.468,6.95,6.88-.157,11.674-2.33,17.067-6.369-1.724,4.122-12.76,6.778-16.948,6.707-.024.655-.106,1.179.119,1.788,2.745,1.147,12.705-3.458,14.778-5.829.345-.394.943-.741,1.38-1.047l.034.201c-4.235,4.198-10.596,7.051-16.563,7.172-4.911.133-10.237-.45-14.484-3.088-2.346-1.457-5.88-3.195-4.852-6.485Z" fill="#dd9885"/><path d="M219.296,119.298c4.85-2.916,11.25-3.346,15.98.077.286,1.364.472,2.383.652,3.767-5.857-4.387-11.22-5.049-17.165-.066l.533-3.779Z" fill="#eaaa92"/><path d="M163.544,117.906c1.503.091,4.171.302,5.572.653.056,1.106.149,2.246.225,3.355-1.696-.523-3.506-1.2-5.088-2.006.18,3.065.308,7.32.678,10.28-.371-1.131-.968-2.471-1.43-3.591-.311-2.771-.082-5.886.043-8.69Z" fill="#eaaa92"/><path d="M285.359,118.37c1.918-.433,3.757-.639,5.715-.749.122.77.141,1.63.179,2.418-.273.089-6.173,2.73-6.199,2.751.183-1.55.241-2.86.305-4.421Z" fill="#eaaa92"/><path d="M205.642,152.227c1.841.195,2.103,1.414,3.506,2.236,1.535.852,3.429,1.538,5.121,2.004,10.173,2.8,23.725,2.814,32.842-3.152,1.186-.776,2.138-1.639,3.151.103-.093.887-.002.567-.751,1.335-12.373,7.881-29.964,8.058-42.773,1.135-.997-.539-1.982-1.045-2.193-2.25.358-.973.228-.66,1.096-1.412Z" fill="url(#q)"/><path d="M223.656,124.363c-.65,3.254-.97,3.986-2.486,6.993.569,1.762.466,1.99.539,3.791,5.114,5.843,9.637.228,12.898,1.842,3.623,5.06-11.375,9.573-13.507,4.275-6.051-4.789-.57-11.931,2.556-16.901Z" fill="#eaaa92"/><path d="M223.656,124.363c-.65,3.254-.97,3.986-2.486,6.993-1.518,3.697-1.678,6.092,1.793,8.641l.091.397c.528.258.585.292,1.151.434l-.691.218.379.206-1.212.651-1.582-.639c-6.051-4.789-.57-11.931,2.556-16.901Z" fill="#815743"/><path d="M222.963,139.997l.328.09c2.135.577,4.284,1.091,6.491.712.837-.144,2.528-.497,3.282-.437-.517,2.297-5.588,2.758-7.594,2.445l-2.789-.904,1.212-.651-.379-.206.691-.218c-.566-.141-.623-.176-1.151-.434l-.091-.397Z" fill="#9f5643"/><path d="M223.893,141.252c.78.223,2.157.495,2.658,1.032-.513.559-.213.323-1.081.523l-2.789-.904,1.212-.651Z" fill="#802f1a"/><path d="M234.837,165.895l.164.281c-2.417,4.032-9.02,4.15-12.786,1.815l-2.096-1.819c5.833,1.259,8.993,1.38,14.719-.276Z" fill="#cea07e"/><path d="M205.589,147.779c-.489.415-1.015.713-1.559,1.052-.164,1.597-1.732,3.024-2.672,4.397-1.225,1.789-2.215,3.562-3.263,5.457l-.244-.029c-.205-1.079-.252-2.152.16-3.199.874-4.404,3.687-6.256,7.578-7.677Z" fill="#c28b6c"/><path d="M205.589,147.779c-.489.415-1.015.713-1.559,1.052-2.538,1.664-2.977,2.305-4.711,4.879-.405.601-.765,1.282-1.307,1.746.874-4.404,3.687-6.256,7.578-7.677Z" fill="#815743"/><path d="M249.431,147.855c1.061.359,1.432.419,2.314,1.064,3.689,2.058,5.368,4.705,5.123,8.926l-.145.145-.403-.946c-2.838-3.843-3.505-5.23-6.89-9.189Z" fill="#c28b6c"/><path d="M251.746,148.919c3.689,2.058,5.368,4.705,5.123,8.926l-.145.145-.403-.946c.032-3.502-2.25-5.705-4.662-7.832l.086-.293Z" fill="#802f1a"/><path d="M227.168,131.749c1.586-.052,3.835.248,4.18,2.082-.438.965-.236.638-1.196,1.302-1.549-.019-4.082-.121-4.261-2.072.412-.771.574-.824,1.276-1.312Z" fill="#f8d6b5"/><path d="M205.323,216.008c1.489.95,3.049,1.903,4.442,2.981,12.294,6.202,23.673,6.688,35.947,0,1.367-.883,2.83-1.82,4.167-2.738-2.383,19.174-4.574,38.44-5.952,57.71-1.202,16.8-1.117,33.347-1.294,50.135-9.119.588-21.501.952-30.571-.222-.223,1.327-.212,1.809-.197,3.13.08,6.185-.016,12.37-.287,18.549-.701-1.542-.293-10.815-.277-13.183l.029-21.303c0-9.838-.354-19.879-.283-29.646l.152-.09.393,1.28c.119-2.735-.402-7.298-.54-10.107-.387-7.844-1.266-15.621-2.03-23.428-.673-7.29-1.427-14.571-2.264-21.844-.404-3.546-.746-7.8-1.435-11.224Z" fill="#969a9b"/><path d="M205.323,216.008c1.489.95,3.049,1.903,4.442,2.981-.552.855-.339,2.348-.263,3.402.725,10.111,1.801,20.224,2.618,30.327,1.226,15.855,2.128,31.735,2.705,47.627.21,4.872.744,10.335.861,15.037,8.778,3.594,11.605,5.773,21.181,1.648.662-.285,1.036-.455,1.705-.828.521-5.577.634-12.179.85-17.822.332-11.423.912-22.837,1.737-34.235.673-9.407,1.535-18.8,2.584-28.173l1.395-11.812c.118-.986.61-4.437.574-5.171,1.367-.883,2.83-1.82,4.167-2.738-2.383,19.174-4.574,38.44-5.952,57.71-1.202,16.8-1.117,33.347-1.294,50.135-9.119.588-21.501.952-30.571-.222-.223,1.327-.212,1.809-.197,3.13.08,6.185-.016,12.37-.287,18.549-.701-1.542-.293-10.815-.277-13.183l.029-21.303c0-9.838-.354-19.879-.283-29.646l.152-.09.393,1.28c.119-2.735-.402-7.298-.54-10.107-.387-7.844-1.266-15.621-2.03-23.428-.673-7.29-1.427-14.571-2.264-21.844-.404-3.546-.746-7.8-1.435-11.224Z" fill="#6e6f77"/><path d="M211.577,345.553c-.701-1.542-.293-10.815-.277-13.183l.029-21.303c0-9.838-.354-19.879-.283-29.646l.152-.09.393,1.28c.386,9.9.562,19.807.528,29.714-.002,3.534.105,8.069-.059,11.549-.223,1.327-.212,1.809-.197,3.13.08,6.185-.016,12.37-.287,18.549Z" fill="#161416"/><path d="M249.852,51.957c4.173,15.432,13.556,30.414,24.99,41.426,2.56,2.466,4.801,4.773,7.626,6.977.996.052,5.073,3.542,5.608,4.225,1.88,2.396.288,4.745,3.154,7.096.912,3.493-3.927,2.871-5.676,3.287l-.614-.197c-.615-1.766-.915-3.464-1.539-5.171l.174-.211-.813-1.814c-.154-.117-.416-.502-.512-.659-9.198-15.078-34.617-14.661-43.592.358-1.786,2.989-2.456,5.426-2.995,9.073-5.566-3.293-10.851-2.733-16.618-.301-2.214-12.404-10.387-18.994-22.805-20.189l.05-.244c1.167-1.024,8.15-1.93,9.971-2.079,1.618.053,1.947-.604,2.475-1.923-1.346-2.272-4.033-3.054-6.387-3.749,14.218-4.162,24.255-10.525,35.318-20.342,5.66-6.134,7.92-7.649,12.187-15.565Z" fill="url(#r)"/><path d="M237.666,67.522c-1.086,1.953-4.12,4.286-5.925,5.659-7.859,5.982-16.852,11.407-26.37,14.23-.591.175-.359.059-.923.404l.046.235.304.106c2.169.78,2.748,1.386,4.415,2.948,1.242-.674,2.386-1.413,3.752-1.699-1.358.906-2.77,1.479-4.23,2.207-1.346-2.272-4.033-3.054-6.387-3.749,14.218-4.162,24.255-10.525,35.318-20.342Z" fill="#c28b6c"/><path d="M282.763,107.577c2.46-.42,5.999,5.651,7.422,6.043-.316.669-4.172.78-5.06.85-.297-1.516-.643-3.864-1.549-5.079l-.813-1.814Z" fill="#f8d6b5"/><path d="M282.468,100.361c.996.052,5.073,3.542,5.608,4.225,1.88,2.396.288,4.745,3.154,7.096.912,3.493-3.927,2.871-5.676,3.287l-.614-.197c-.615-1.766-.915-3.464-1.539-5.171l.174-.211c.905,1.215,1.252,3.563,1.549,5.079.888-.069,4.744-.18,5.06-.85-.11-1.841-1.671-6.629-2.262-8.59-1.512-1.511-4.039-3.087-5.454-4.669Z" fill="#603b33"/><path d="M254.433,87.222c.462-.049.926-.08,1.39-.095,5.936-.216,12.295,1.853,16.842,5.849.728.64,1.135,1.259,1.137,2.228-.429.822-.126.567-.791.969-.804-.168-4.028-1.848-5.6-2.411-5.533-1.957-10.331-2.325-16.084-.952-1.764.421-4.168,1.359-5.173-.477-.056-3.708,5.446-4.728,8.278-5.111Z" fill="#522a1d"/><path d="M261.913,138.927c-.858.037-1.718.04-2.576.009-5.934-.219-12.117-2.779-16.138-7.216-3.52-3.902-5.319-9.057-4.992-14.301.743-12.837,13.394-20.198,25.205-18.905,6.056.499,11.185,3.197,15.215,7.714,6.605,7.404,5.455,21.016-2.307,27.3-3.913,3.465-9.23,5.217-14.407,5.4Z" fill="#f8d6b5"/><path d="M261.913,138.927c3.675-5.8,8.464-5.587,14.407-5.4-3.913,3.465-9.23,5.217-14.407,5.4Z" fill="#eaaa92"/><path d="M245.422,117.235c-1.023-7.601,7.756-13.405,14.669-12.847,6.238.503,8.73,2.575,12.797,6.932l3.867-.947c-1.138,1.85-1.576,1.995-2.606,3.467l.972,2.768c1.156-.033,2.083-.185,3.115.278l.365.435c-.511,1.337-2.03,1.553-3.319,1.973-1.107,1.455-1.865,2.544-3.225,3.76-1.477,2.332-2.351,3.113-4.338,5.04l.658.624-.004.401c-.864.383-1.815.037-2.653-.28l-.228-.089c-1.562.14-3.277.332-4.831.348-4.2.333-9.624,1.468-12.561-2.483-1.458-1.962-2.381-5.225-2.014-7.646l-.663-1.734Z" stroke="#fff" stroke-miterlimit="10"/><path d="M245.422,117.235c-1.023-7.601,7.756-13.405,14.669-12.847,6.238.503,8.73,2.575,12.797,6.932l3.867-.947c-1.138,1.85-1.576,1.995-2.606,3.467l.972,2.768c1.156-.033,2.083-.185,3.115.278l.365.435c-.511,1.337-2.03,1.553-3.319,1.973-1.107,1.455-1.865,2.544-3.225,3.76l.052-1.964-.044-.34c-1.041-2.36-3.935-7.033-6.787-6.826-.219-.212-.989-1.532-1.198-1.875-5.789-6.272-13.098-3.152-15.155,4.42-1.299-.309-2.183,1.484-2.839,2.5l-.663-1.734Z" fill="url(#s)"/><path d="M245.422,117.235c.299-.504.606-1.003.923-1.496,5.276-8.157,12.871-9.943,20.944-4.534-1.562.726-2.234.357-3.21.843-5.789-6.272-13.098-3.152-15.155,4.42-1.299-.309-2.183,1.484-2.839,2.5l-.663-1.734Z" fill="#cdc5c8"/><path d="M267.289,111.205c2.452,2.119,4.55,5.067,4.751,8.398.02.382.028.765.024,1.147-1.041-2.36-3.935-7.033-6.787-6.826-.219-.212-.989-1.532-1.198-1.875.977-.486,1.649-.117,3.21-.843Z" fill="#efe8e3"/><path d="M274.149,113.84l.972,2.768c1.156-.033,2.083-.185,3.115.278l.365.435c-.511,1.337-2.03,1.553-3.319,1.973-1.107,1.455-1.865,2.544-3.225,3.76l.052-1.964c.235.415.073.24.505.508.802-.935.567-2.297.502-3.532h.471c.61-.553.657-.933.921-1.713-.303-1.059-.473-1.431-.357-2.513Z" fill="#946b55"/><path d="M265.277,113.924c2.852-.207,5.747,4.466,6.787,6.826l.044.34-.052,1.964c-1.477,2.332-2.351,3.113-4.338,5.04l.658.624-.004.401c-.864.383-1.815.037-2.653-.28l-.228-.089c-1.562.14-3.277.332-4.831.348l-.051-.524.786-.818c4.989-3.343,5.6-8.528,3.881-13.832Z" fill="#f3f5f4"/><path d="M267.718,128.094l.658.624-.004.401c-.864.383-1.815.037-2.653-.28l-.228-.089c.738-.187,1.495-.433,2.227-.657Z" fill="#946b55"/><path d="M246.085,118.969c.656-1.016,1.54-2.808,2.839-2.5-.507,8.17,3.83,14.091,12.472,11.287l-.786.818.051.524c-4.2.333-9.624,1.468-12.561-2.483-1.458-1.962-2.381-5.225-2.014-7.646Z" fill="url(#t)"/><path d="M253.503,120.574c1.848,2.382,4.26,3.422,6.975,1.596.822-.986.485-.876,1.529-1.17,1.874.509,1.663,1.758.739,3.077-1.492,3.876-6.835,3.485-9.565,1.357-.86-.671-1.539-1.655-2.185-2.523l2.508-2.338Z" fill="#946b55"/><path d="M260.477,122.17c.822-.986.485-.876,1.529-1.17,1.874.509,1.663,1.758.739,3.077-1.388-.352-1.619-.67-2.268-1.907Z" fill="#f8d6b5"/><path d="M252.448,111.72c1.391-.669,3.061-.085,3.732,1.305.671,1.39.089,3.061-1.301,3.734-1.391.674-3.066.091-3.738-1.302-.672-1.392-.087-3.066,1.306-3.736Z" fill="#f3f5f4"/><path d="M253.484,101.602c.859-.059.871-.038,1.673.116-.457.471-6.647,4.135-7.642,4.736-.698.404-.405.422-.956.283.361-2.192,5.094-4.362,6.924-5.134Z" fill="#c28b6c"/><path d="M182.229,101.213c11.548-5.824,26.399-2.807,32.502,9.277,2.176,4.307,2.283,10.12.693,14.636-1.743,5.103-5.513,9.262-10.421,11.497-2.487,1.154-6.16,2.206-8.915,2.223-5.622.94-12.413-1.43-16.826-4.88-7.29-6.351-9.181-13.561-6.045-22.718,2.169-4.891,4.538-7.238,9.011-10.035Z" fill="#f8d6b5"/><path d="M179.263,133.966c4.944-3.001,10.868,1.469,14.388,4.745.775.04,1.678.063,2.438.135-5.622.94-12.413-1.43-16.826-4.88Z" fill="#eaaa92"/><path d="M173.218,111.248c2.169-4.891,4.538-7.238,9.011-10.035l.8.773c-.297.524-.656,1.036-1.128,1.411-2.785,2.216-4.917,6.188-7.149,8.479-.868-.064-.82-.411-1.534-.629Z" fill="#efe8e3"/><path d="M181.673,111.286c6.356-7.086,15.379-9.674,23.568-3.171,2.185,1.734,4.802,5.974,3.359,8.752.052.671.153.811-.157,1.375-.225,3.046-.949,7.904-3.497,9.977-1.649,1.341-6.166,1.114-8.327,1.101-6.101-.035-10.384-.186-13.854-5.747-1.644-.971-2.433-2.457-3.504-4.045l-.442-.191c-1.129-.491-2.497-.915-2.958-2.083l.221-.402c.979-.481,1.914-.309,3.039-.265.423-1.03.925-2.105,1.38-3.129-1.179-.772-1.917-.846-1.921-2.327l.475-.411c.899-.248,1.714.217,2.619.564Z"/><path d="M181.673,111.286c6.356-7.086,15.379-9.674,23.568-3.171,2.185,1.734,4.802,5.974,3.359,8.752.052.671.153.811-.157,1.375-.69-.956-2.009-1.557-3.05-2.057-1.155-3.762-2.456-5.467-6.047-7.107-1.658-.368-2.176-.381-3.809-.269-2.188.814-3.619,1.334-5.18,3.213-.121.159-1.015,1.349-1.096,1.424-2.21.037-5.224,4.7-6.854,6.246-.113,1.497-.121,2.425.358,3.882-1.644-.971-2.433-2.457-3.504-4.045l-.442-.191c-1.129-.491-2.497-.915-2.958-2.083l.221-.402c.979-.481,1.914-.309,3.039-.265.423-1.03.925-2.105,1.38-3.129-1.179-.772-1.917-.846-1.921-2.327l.475-.411c.899-.248,1.714.217,2.619.564Z" fill="url(#u)"/><path d="M182.406,119.692c.25-3.37,1.852-6.344,4.451-8.476.952.759,2.313.799,3.499.806-.121.159-1.015,1.349-1.096,1.424-2.21.037-5.224,4.7-6.854,6.246Z" fill="#cdc5c8"/><path d="M199.52,108.71c5.697,1.792,6.139,4.2,9.08,8.157.052.671.153.811-.157,1.375-.69-.956-2.009-1.557-3.05-2.057-1.155-3.762-2.456-5.467-6.047-7.107l.175-.368Z" fill="url(#v)"/><path d="M193.385,108.366c1.327.045,1.16-.153,2.15.444-2.188.814-3.619,1.334-5.18,3.213-1.185-.008-2.546-.047-3.499-.806,2.066-1.67,4.012-2.276,6.528-2.85Z" fill="#b4b5c1"/><path d="M193.385,108.366c2.135-.31,4.042-.25,6.135.345l-.175.368c-1.658-.368-2.176-.381-3.809-.269-.99-.597-.823-.399-2.15-.444Z" fill="#9f8d7d"/><path d="M182.406,119.692c1.63-1.546,4.644-6.209,6.854-6.246-2.1,5.448-1.53,12.228,4.693,14.522,2.194.814,4.628.679,6.72-.371,4.33-2.17,5.26-7.014,4.72-11.412,1.041.5,2.36,1.1,3.05,2.057-.225,3.046-.949,7.904-3.497,9.977-1.649,1.341-6.166,1.114-8.327,1.101-6.101-.035-10.384-.186-13.854-5.747-.479-1.456-.472-2.385-.358-3.882Z" fill="#f3f5f4"/><path d="M199.937,121.851c.463-.971.11-.668.993-1.047,1.935.109,2.129,1.606,1.377,3.091-2.874,6.318-12.461,1.124-11.004-1.603.889-.166,1.216-.272,2.027-.674l.369-.185c1.325.379,1.39,1.183,2.861,1.887,1.562.118,2.216-.485,3.377-1.468Z" fill="url(#w)"/><path d="M199.937,121.851c.463-.971.11-.668.993-1.047,1.935.109,2.129,1.606,1.377,3.091-1.504-.366-1.644-.714-2.37-2.044Z" fill="#f8d6b5"/><path d="M192.425,111.584c1.483-.329,2.957.591,3.311,2.069.355,1.478-.541,2.967-2.013,3.346-.974.251-2.007-.043-2.704-.769-.696-.726-.947-1.771-.656-2.734.292-.963,1.079-1.694,2.061-1.912Z" fill="#f3f5f4"/><path d="M198.243,102.156c3.996-.439,7.216,1.488,9.391,4.735-2.121-.686-5.189-3.356-9.391-4.735Z" fill="#cea07e"/><path d="M204.448,189.564l.331-.374c2.304.456,6.868,2.238,9.824,2.968,10.103,2.498,17.65,2.49,27.731-.375,3.125-.887,6.285-2.078,9.317-2.963.01,3.827.337,7.263.52,10.743.096,1.827-1.238,9.866-1.647,12.132-1.304,1.335-2.609,2.624-4.153,3.689-5.56,3.151-7.322,4.208-13.763,5.284-7.24,1.21-17.358-.872-23.213-5.288-2.04-1.055-2.975-2.112-4.505-3.766-.421-3.686-1.021-8.043-1.057-11.725-.019-1.98.705-3.954.646-6.293l-.24.096c-.675-.887-.555-2.896-.227-3.937l.437-.192Z" fill="#dd9885"/><path d="M209.261,202.692c10.239,3.171,20.223,4.504,30.552.893,2.86-.999,5.064-2.26,7.642-3.239-.021,5.323-.511,9.708-1.086,15.039-5.56,3.151-7.322,4.208-13.763,5.284-7.24,1.21-17.358-.872-23.213-5.288-.79-3.928-1.58-8.87-.133-12.689Z" fill="#f5cbac"/><path d="M204.478,193.597l-.24.096c-.675-.887-.555-2.896-.227-3.937l.437-.192c.034,1.357.084,2.675.03,4.033Z" fill="#39160e"/><path d="M275.912,465.177c.916-.276.849-.444,1.81.048.586.3,3.146,2.058,3.471,2.477,2.698,1.483,10.868,6.657,12.306,9.018.559.44,1.828,3.015,1.936,3.657.404,2.408-4.418,2.539-5.759,2.694-6.817.786-13.487-.342-20.123-1.756-4.078.05-10.468-4.004-14.575-4.362-1.184-.103-1.614.453-2.394,1.248-2.013-.167-5.99-.679-7.499-1.919-1.6-1.315-1.78-8.717-.492-10.366,1.269-.636,6.324.426,8.202.558,2.964.194,5.938.195,8.903.003,2.725-.191,12.771-1.684,14.214-1.302Z" fill="#333339"/><path d="M252.583,478.202c-2.013-.167-5.99-.679-7.499-1.919-1.6-1.315-1.78-8.717-.492-10.366,1.269-.636,6.324.426,8.202.558,2.964.194,5.938.195,8.903.003,2.725-.191,12.771-1.684,14.214-1.302-5.081,2.193-11.17,2.576-15.898,5.063-.72,1.401-1.099,2.277-1.668,3.749,3.804,2.009,7.895,4.599,11.206,7.327-4.078.05-10.468-4.004-14.575-4.362-1.184-.103-1.614.453-2.394,1.248Z" fill="#161416"/><path d="M281.192,467.702c2.698,1.483,10.868,6.657,12.306,9.018-.732-.105-4.21-3.082-5.84-3.937-1.761-1.144-3.118-2.093-4.79-3.363-.923-.671-1.032-.778-1.675-1.719Z" fill="#6e6f77"/><path d="M282.868,469.421c1.672,1.27,3.029,2.219,4.79,3.363-2.39.239-5.05-.42-4.79-3.363Z" fill="#47474a"/><path d="M286.217,473.32c1.645.206,3.562.791,4.006,2.529-.217.852-.514,1.016-1.157,1.617-2.439-.042-5.587-1.765-2.849-4.145Z" fill="#9f8d7d"/><path d="M173.93,468.282c6.811-.394,16.238-1.697,22.465,3.038,1.941,1.476,2.197,4.161,3.664,4.81l.052.278c-.775.894-3.231,1.483-4.465,1.929-7.337,2.667-14.774,4.504-22.602,4.902-3.596.183-9.883.625-13.045-1.234-2.364-1.39,1.331-5.414,2.533-6.502,1.514-1.369,3.828-3.382,5.728-4.19,1.901-1.182,3.546-2.316,5.669-3.031Z" fill="#333339"/><path d="M168.26,471.313c1.901-1.182,3.546-2.316,5.669-3.031l.432.367c-1.179.759-4.793,2.739-6.102,2.663Z" fill="#47474a"/><path d="M167.077,473.975c1.273.064,2.293.084,2.672,1.411-.353,1.328-1.131,1.682-2.267,2.392-1.052.012-1.293.087-2.209-.342-.624-.737-.463-.327-.535-1.26.5-1.326,1.061-1.558,2.339-2.202Z" fill="#6e6f77"/><path d="M163.906,150.831c-4.306-.714-7.067-1.824-10.396-4.75-4.443-4.06-7.885-10.201-8.333-16.275-.441-5.972,2.253-13.792,9.335-14.044,1.72-.061,3.049.666,4.259,1.867,2.552,3.405,1.675,7.833,2.083,12.412-.071,1.185.167,1.391-.782,2.195,1.925,2.686,1.636,7.802,2.343,11.396.371,2.287,1.085,4.713,1.491,7.198Z" fill="#dd9885"/><path d="M163.906,150.831c-4.306-.714-7.067-1.824-10.396-4.75-4.443-4.06-7.885-10.201-8.333-16.275-.441-5.972,2.253-13.792,9.335-14.044,1.72-.061,3.049.666,4.259,1.867-.769.664-3.878.663-5.15,1.88-.414.396-1.499.46-2.109.504-1.323,1.161-3.839,4.731-2.543,6.35l.291-.247.012.926c-1.798,2.752,2.974,13.017,6.012,14.614,2.909,1.529,4.298,1.276,7.131,1.976.371,2.287,1.085,4.713,1.491,7.198Z" fill="#f5cbac"/><path d="M158.771,117.63c2.552,3.405,1.675,7.833,2.083,12.412-.071,1.185.167,1.391-.782,2.195-2.674-3.701-2.364-6.42-6.936-8.798-.067.037-.134.073-.201.11l-.329.193c-1.64.947-2.208,1.789-3.336,3.301l-.012-.926-.291.247c-1.295-1.618,1.221-5.189,2.543-6.35.61-.044,1.694-.108,2.109-.504,1.272-1.216,4.381-1.216,5.15-1.88Z" fill="#eaaa92"/><path d="M149.259,126.117c.51-2.203,1.938-4.992,4.667-4.197,4.041,1.179,5,5.165,6.928,8.121-.071,1.185.167,1.391-.782,2.195-2.674-3.701-2.364-6.42-6.936-8.798-.067.037-.134.073-.201.11l-.329.193c-1.64.947-2.208,1.789-3.336,3.301l-.012-.926Z" fill="#522a1d"/><path d="M155.248,132.792c.646,1.269.423,1.899.884,3.011.198,1.865,1.247,4.069,1.955,5.879-3.118-2.32-4.215-5.163-2.838-8.89Z" fill="#802f1a"/><path d="M155.248,132.792c.805-1.686,1.775-2.23,3.45-3.06-1.018,2.221-2.004,3.655-2.567,6.071-.461-1.112-.238-1.742-.884-3.011Z" fill="#9f5643"/><path d="M113.09,323.96c4.82,1.654,9.811,2.758,14.879,3.29,2.212.215,5.193.21,7.213.481l-1.366,16.642c-2.15-1.159-3.337-2.063-4.54-4.33-.934-1.517-1.887-4.808-2.651-5.516l-.323.254c1.424,5.824,1.578,7.995,7.391,10.809-.239,1.958-.476,4.502-.826,6.401-1.035-.165-2.252-.325-3.258-.554-11.763-4.53-15.115-12.536-16.396-24.463-.044-.984-.111-2.035-.122-3.014Z" fill="url(#x)"/><path d="M113.09,323.96c4.82,1.654,9.811,2.758,14.879,3.29,2.212.215,5.193.21,7.213.481l-1.366,16.642c-2.15-1.159-3.337-2.063-4.54-4.33.845-1.369-.218-6.062-.724-7.655-3.875-.883-7.444-1.674-11.175-3.17-1.539-.617-2.969-2.224-4.165-2.244-.044-.984-.111-2.035-.122-3.014Z" fill="#c28b6c"/><path d="M126.301,334.781c1.424,5.824,1.578,7.995,7.391,10.809-.239,1.958-.476,4.502-.826,6.401-1.035-.165-2.252-.325-3.258-.554.459-4.837-4.075-11.808-3.307-16.656Z" fill="#dd9885"/><path d="M169.121,99.431c1.763-.836,10.433-5.111,11.645-5.214-.096.987-.263,1.05.084,1.821,1.429.492,3.513-1.265,4.91-1.808,6.895-2.682,13.421-2.706,20.5-.695-1.82.148-8.804,1.054-9.971,2.079l-.05.244c-8.582.064-12.999,1.039-19.982,6.3-3.725,3.822-5.459,6.981-6.761,12.119l-3.341-.105c-.738,0-1.046.056-1.726-.249-.575-2.168,3.694-12.094,4.691-14.493Z" fill="url(#y)"/><path d="M168.503,106.432c1.178-.995,6.402-4.569,7.754-4.274-3.725,3.822-5.459,6.981-6.761,12.119l-3.341-.105c1.02-2.338,1.182-5.125,2.347-7.741Z" fill="#f5cbac"/><path d="M369.719,118.822c.561.673.37.267.321,1.377l-.345.044.024-1.42Z" fill="rgba(22,20,22,.012)"/><path d="M296.866,429.906c-.859-.131-.929-.117-1.764-.461.377-.37.845-.243,1.55-.276l.214.738Z" fill="rgba(22,20,22,.976)"/><path d="M303.982,327.014c-.955-.096-1.47-.144-2.413-.011-1.073.151-2.155,1.261-2.644,2.162-4.413,8.129-6.515,26.534-4.567,35.298-.263,1.12-1.995,4.151-2.569,5.528-3.173,7.603-4.814,15.331-3.446,23.571-3.108-.419-9.049-.653-11.737.971,3.925.197,8.248.053,11.98.324.894,2.71,1.477,4.261,2.67,6.842-3.587.849-8.983,2.446-11.46,5.178.051-.011.102-.021.153-.032l.254-.057c1.902-.412,4.402-1.529,6.286-2.208,1.885-.679,3.459-1.131,5.4-1.667,6.057,9.068,11.041,12.409,20.662,16.745.245,2.384.065,5.286.212,7.776.628,10.6,2.71,20.914,4.635,31.328.791,4.279,1.852,9.915,1.789,14.265-3.874,5.405-4.105,9.458,3.701,10.644,2.812.427,11.225-.005,12.984-2.176,3.09-3.812,4.469-15.072,4.971-19.857,1.168.39,2.152.711,3.282,1.213.826,2.659,1.475,4.978,1.447,7.784-1.17,1.649-2.484,3.236-2.365,5.388.282,5.1,8.687,4.413,11.986,4.297.147,1.039.222,2.242.741,3.177.708,1.275,2.408,1.915,3.758,2.253,3.415.854,10.243.994,13.33-.983,3.255-2.085,5.545-15.155,6.302-18.897,1.63-.097,3.262-.164,4.895-.2,1.22,2.572,1.64,4.251,1.602,7.045-1.568,2.174-2.978,4.971-1.058,7.358,2.513,3.125,12.624,2.861,15.195.407,3.028-2.89,4.123-11.756,4.447-15.695.088-3.675-.463-5.661-1.031-9.042-.118-.703,1.252-5.969,1.498-7.196,1.338-6.694,1.27-12.584.179-19.3,14.353-1.32,27.45-14.466,28.39-28.945.264-4.063-1.27-10.662-6.611-10.807-9.186-.249-7.823,8.875-9.761,14.948-.924,2.894-2.776,5.984-5.025,8.123-2.606,2.594-7.851,5.066-11.514,4.916l-.2-.01c-2.558-3.779-5.151-6.155-9.078-8.571,1.465-1.907,2.769-3.859,4.202-5.74,1.419.396,2.944.813,4.316,1.326,2.679,1.001,4.877,2.146,7.71,2.72-1.955-2.515-8.416-4.487-11.477-5.314,1.128-2.171,1.869-4.561,2.48-6.925,1.399-.07,10.944.013,11.38-.334-1.457-1.411-8.655-1.015-11.031-1.022,1.384-10.286-.965-19.504-6.025-28.515.149-1.081.304-2.163.388-3.251.224-2.895.374-5.775.261-8.68-.219-5.639-1.947-20.505-5.676-24.661-.804-.896-1.684-1.259-2.88-1.283-5.549-.107-15.894,7.243-20.132,10.697-1.287,1.05-2.463,2.218-3.65,3.377-11.45-3.826-23.382-3.361-34.875-.075-1.246-.964-2.69-2.668-4.087-3.757-4.907-3.823-12.155-9.038-18.175-10.451Z" fill="#401405"/><path d="M324.336,342.807c-3.012-3.199-18.87-15.555-22.791-13.318-4.296,5.524-6.393,24.671-5.177,31.794.168.985.362,2.294.597,3.164.093.344-1.003,2.424-1.224,2.847-2.208,4.225-3.778,8.696-4.754,13.357-.299,1.721-.958,6.067-.635,7.667.064,1.995.253,3.346.669,5.302,2.299.276,6.649.793,8.572,2.051l.114.254c-.906.651-6.596-.687-8.325-.784.636,2.073,1.306,3.947,2.386,5.854,1.437-.198,4.919-.956,6.096-.394l.017.227c-.989.807-2.061.819-3.343,1.027l-2.055.483c.458.662,2.147,3.129,2.643,3.534,7.66,8.718,16.028,11.997,26.943,15.091.881.25,5.073,1.241,5.536,1.632-.126.228-.045.159-.197.251-.772.116-1.071.118-1.856.102-.623,1.736-.962,3.302-1.502,4.995l.063.116.182.017c.946.098,4.157.922,5.478,1.159,3.95.706,7.952,1.075,11.965,1.102,2.625.042,5.16-.126,7.762-.312,1.036-.074,5.312-.792,5.985-.696l.015-.097c-1.049-2.167-2.131-4.176-3.275-6.29.823-.04,2.936-.09,3.637-.268,1.947-.772,5.293-1.435,7.46-2.113,9.751-3.052,18.178-6.324,24.929-14.411.884-1.027,1.814-2.454,2.537-3.595l-2.022-.521c-.847-.148-2.826-.396-3.391-.922l.079-.257c1.072-.713,4.606.085,6.009.29,1.031-1.612,1.858-3.916,2.439-5.726-1.618.099-7.413,1.339-8.247.906l.044-.255c1.806-1.555,5.979-1.698,8.336-2.196l.161-.035c.45-1.91.612-3.204.697-5.166.108-2.918-.113-4.689-.63-7.511-.913-4.237-2.014-7.536-3.754-11.531-.61-1.4-2.291-4.173-2.527-5.45,1.494-1.211,1.178-9.837,1.072-12.009-.234-4.809-2.137-19.64-5.526-22.702-4.652-.955-19.034,9.778-22.486,13.307l1.45,1.038c.41.418.59.434.591.858l-.297.179c-1.724-.698-4.536-1.445-6.347-1.966-2.312-.532-4.478-.973-6.836-1.277-1.201-.184-2.579-.289-3.8-.411-1.529-.167-6.96-.333-8.348-.013-1.271.153-2.574.295-3.841.468-1.88.305-4.874.753-6.683,1.318-2.269.586-4.522,1.236-6.755,1.948-.194-.467.166-.652.472-.971l1.691-1.144Z" fill="#f0af63"/><path d="M386.007,406.263c-8.394.018-18.457-3.273-25.82-7.478-4.969-2.837-10.588-10.033-16.299-10.527-4.392.045-9.001,4.683-12.238,7.188-8.193,6.34-18.597,10.149-29.069,10.56l-1.457-.015c-1.052-.032-3.097-.205-4.001-.118,7.66,8.718,16.028,11.997,26.943,15.091.881.25,5.073,1.241,5.536,1.632-.126.228-.045.159-.197.251-.772.116-1.071.118-1.856.102-.623,1.736-.962,3.302-1.502,4.995l.063.116.182.017c.946.098,4.157.922,5.478,1.159,3.95.706,7.952,1.075,11.965,1.102,2.625.042,5.16-.126,7.762-.312,1.036-.074,5.312-.792,5.985-.696l.015-.097c-1.049-2.167-2.131-4.176-3.275-6.29.823-.04,2.936-.09,3.637-.268,1.947-.772,5.293-1.435,7.46-2.113,9.751-3.052,18.178-6.324,24.929-14.411-.521-.301-3.007-.017-3.944-.01l-.297.118Z" fill="#f8f2d4"/><path d="M301.124,405.993c-1.052-.032-3.097-.205-4.001-.118,7.66,8.718,16.028,11.997,26.943,15.091.881.25,5.073,1.241,5.536,1.632-.126.228-.045.159-.197.251-.772.116-1.071.118-1.856.102-.623,1.736-.962,3.302-1.502,4.995l.063.116.182.017c.946.098,4.157.922,5.478,1.159,3.95.706,7.952,1.075,11.965,1.102,2.625.042,5.16-.126,7.762-.312,1.036-.074,5.312-.792,5.985-.696l.015-.097c-1.049-2.167-2.131-4.176-3.275-6.29.823-.04,2.936-.09,3.637-.268,1.947-.772,5.293-1.435,7.46-2.113,9.751-3.052,18.178-6.324,24.929-14.411-.521-.301-3.007-.017-3.944-.01l-.297.118c-1.466,1.396-3.977,3.082-5.709,4.124-8.663,5.214-18.97,7.976-29.006,8.736-14.128,1.069-28.962-.856-41.615-7.521-3.082-1.623-5.531-3.087-8.169-5.357.201-.167.752-.189,1.073-.238l-1.457-.015Z" fill="#e1bca4"/><path d="M345.511,392.976c-1.393-.098-3.251-.16-4.557.346-3.531,1.369.7,4.301,2.047,5.369-.082.428-.152.888-.301,1.298-.383,1.052-1.41,1.973-2.431,2.387-3.737,1.518-4.726-2.131-5.791-2.503-.253-.089-.255-.028-.475.079-1.184,3.167,4.68,5.452,7.018,3.858.595-.405.964-.57,1.568-1.061l1.099-1.197c4.784,5.968,10.974.765,9.51-1.714-1.176-.127-1.714,2.642-3.737,2.786-2.909.207-4.469-1.415-4.884-4.099,2.292-1.45,5.842-4.548.933-5.549Z" fill="#401405"/><path d="M345.132,394.255c-1.097-.054-3.36-.373-3.801.806.2.849.834,1.231,1.51,1.79.4.282.368.272.845.373,1.053-.183,2.925-1.268,2.632-2.568-.327-.334-.705-.323-1.186-.401Z" fill="#e67a76"/><path d="M347.8,341.202c-1.529-.167-6.96-.333-8.348-.013.261.596.206,1.122.216,1.782l.041.067c.011,1.631.767,24.079,5.553,18.751,1.592-1.773,2.373-12.527,2.441-15.9.136-.918.104-1.9.106-2.833l-.009-1.854Z" fill="#c8743a"/><path d="M347.8,341.202c-1.529-.167-6.96-.333-8.348-.013.261.596.206,1.122.216,1.782l.041.067c2.218-.465,5.712-.166,8.022-.034-.015.824-.075,2.097-.028,2.884.136-.918.104-1.9.106-2.833l-.009-1.854Z" fill="#d68653"/><path d="M358.435,342.889c-2.312-.532-4.478-.973-6.836-1.277.047.595.117,1.261.129,1.851.014.157.043.611.08.736.135,1.577.484,16.545,4.626,11.837,1.66-1.888,2.134-8.794,2.002-11.485-.034-.518-.008-1.135-.001-1.662Z" fill="#c8743a"/><path d="M358.435,342.889c-2.312-.532-4.478-.973-6.836-1.277.047.595.117,1.261.129,1.851.014.157.043.611.08.736l.124-.558c.606-.228,5.448.79,6.504.91-.034-.518-.008-1.135-.001-1.662Z" fill="#d68653"/><path d="M335.612,341.656c-1.88.305-4.874.753-6.683,1.318.22.523.147.926.125,1.506-.018.936.437,15.213,4.685,12.054,1.658-1.233,1.8-10.17,1.885-12.962l.035-.103-.046-1.814Z" fill="#c8743a"/><path d="M335.612,341.656c-1.88.305-4.874.753-6.683,1.318.22.523.147.926.125,1.506,1.509-.28,5.25-1.111,6.569-.908l.035-.103-.046-1.814Z" fill="#d68653"/><path d="M290.985,380.652c-.299,1.721-.958,6.067-.635,7.667,3.207,1.083,9.789,1.767,12.565-.554,2.187-1.829-3.725-3.727-4.399-4.024-1.561-.689-6.614-2.136-7.53-3.089Z" fill="#c8743a"/><path d="M396.889,388.677c.108-2.918-.113-4.689-.63-7.511l-.166.083c-3.251,1.574-7.125,2.426-10.267,4.052-3.696,1.913.118,3.907,2.418,4.099,2.854.237,5.939.157,8.645-.723Z" fill="#c8743a"/><path d="M324.336,342.807c-3.012-3.199-18.87-15.555-22.791-13.318.363.378,4.13,1.889,4.963,2.323,4.676,2.435,12.995,7.992,16.137,12.139l1.691-1.144Z" fill="#e1bca4"/><path d="M385.524,329.473c-4.652-.955-19.034,9.778-22.486,13.307l1.45,1.038c4.348-4.211,9.248-7.812,14.565-10.705,2.047-1.122,4.127-2.116,6.193-3.192.093-.149.185-.299.278-.448Z" fill="url(#z)"/><path d="M392.785,402.559l-2.022-.521c-1.505,1.604-3.353,2.921-4.459,4.106.937-.007,3.422-.292,3.944.01.884-1.027,1.814-2.454,2.537-3.595Z" fill="#d68653"/><path d="M296.535,401.857l-2.055.483c.458.662,2.147,3.129,2.643,3.534.904-.087,2.949.086,4.001.118-1.747-1.434-3.041-2.475-4.588-4.135Z" fill="#d68653"/><path d="M328.928,342.974c-2.269.586-4.522,1.236-6.755,1.948l.211.439c.643.256,5.585-.738,6.669-.881.022-.58.095-.983-.125-1.506Z" fill="#e1bca4"/><path d="M358.435,342.889c-.007.527-.033,1.145.001,1.662,1.106.172,5.606,1.066,6.262.665l.084-.361c-1.724-.698-4.536-1.445-6.347-1.966Z" fill="#e1bca4"/><path d="M339.452,341.189c-1.271.153-2.574.295-3.841.468l.046,1.814c1.233-.233,2.687-.234,4.011-.499-.01-.66.045-1.186-.216-1.782Z" fill="#e1bca4"/><path d="M351.6,341.613c-1.201-.184-2.579-.289-3.8-.411l.009,1.854c1.306.145,2.612.28,3.919.407-.012-.59-.082-1.256-.129-1.851Z" fill="#e1bca4"/><path d="M375.786,390.999c1.185-.837,1.767-2.425,1.992-3.815.959-5.915-3.389-11.872-9.346-12.681-2.904-.411-5.852.363-8.18,2.148-4.544,3.531-5.719,11.173-2.102,15.712,1.438,1.829,3.559,2.992,5.875,3.219,1.259.127,2.184-.002,3.408-.313.293.158.446.208.787.145,3.296-.609,5.576-1.767,7.566-4.416Z" fill="#401405"/><path d="M376.003,384.732c-1.129-.513-2.584-4.15-4.779-4.081,3.267,5.109,2.022,12.051-3.791,14.618.293.158.446.208.787.145,3.296-.609,5.576-1.767,7.566-4.416.53-2.312.718-3.961.217-6.267Z" fill="#f8f2d4"/><path d="M376.003,384.732c-.3-1.433-.73-2.69-1.514-3.936-1.332-2.125-3.452-3.636-5.897-4.201-3.112-.7-5.41.107-7.988,1.756,4.338-1.543,7.324-1.173,10.62,2.3,2.195-.07,3.649,3.567,4.779,4.081Z" fill="#ccc4c3"/><path d="M368.483,380.455c-.966-.363-2.053-.178-2.845.482-.792.661-1.169,1.697-.986,2.712.183,1.016.898,1.855,1.871,2.197,1.483.521,3.11-.248,3.647-1.726.537-1.478-.216-3.112-1.688-3.665Z" fill="#f8f2d4"/><path d="M360.827,388.681c-.627-.06-1.19.383-1.28,1.007-.089.623.328,1.207.946,1.325.427.082.864-.078,1.137-.416.273-.337.339-.798.171-1.198-.168-.401-.543-.676-.975-.718Z" fill="#f8f2d4"/><path d="M320.112,394.987c1.368.381,2.438.523,3.863.345,2.245-.265,4.284-1.436,5.644-3.241,3.695-4.835,2.331-12.177-2.466-15.748-2.248-1.69-5.079-2.41-7.862-2.001-5.981.911-10.412,6.835-9.301,12.872.191,1.035.854,2.901,1.873,3.335.894,2.533,5.278,4.754,7.919,4.595.084-.005.25-.111.329-.158Z" fill="#401405"/><path d="M316.701,380.366c-2.073-.066-3.665,3.139-4.956,4.031-.508,2.592-.433,3.542.119,6.153.894,2.533,5.278,4.754,7.919,4.595.084-.005.25-.111.329-.158-5.911-2.574-6.612-9.55-3.411-14.621Z" fill="#f8f2d4"/><path d="M326.27,377.751c-6.378-3.704-12.732-.215-14.525,6.646,1.292-.892,2.883-4.097,4.956-4.031,2.92-2.839,5.65-3.642,9.569-2.615Z" fill="#ccc4c3"/><path d="M326.607,380.28c-1.535-.305-3.029.683-3.348,2.215-.32,1.532.655,3.035,2.184,3.369,1.549.338,3.076-.652,3.4-2.204.324-1.552-.681-3.07-2.236-3.379Z" fill="#f8f2d4"/><path d="M319.58,388.812c-.415-.13-.868-.019-1.176.289-.308.308-.418.761-.287,1.176.131.415.482.723.91.799.606.107,1.191-.275,1.337-.872.146-.598-.197-1.206-.784-1.391Z" fill="#f8f2d4"/><path d="M312.476,349.919c-.711-.909-1.944-1.61-2.087-2.181.942-.965,4.632.312,6.01-.083l.152-.311c-.144-3.471-9.43-14.28-13.208-14.578-.544.21-.314.041-.656.598-3.066,3.1-3.446,20.871-1.118,24.737.333.158.165.156.512.053,1.382-1.063,3.257-2.844,4.589-4.075,1.928-1.782,3.877-2.632,5.806-4.16Z" fill="#f39684"/><path d="M312.476,349.919c-.711-.909-1.944-1.61-2.087-2.181.942-.965,4.632.312,6.01-.083l.152-.311c-.144-3.471-9.43-14.28-13.208-14.578-.544.21-.314.041-.656.598l1.201.662c.39.965,1.032,1.823,1.567,2.73.815,1.392,1.581,2.813,2.295,4.26.798,1.633,1.134,3.589,1.918,5.195-2.404,1.201-1.167,2.252.366,3.464-2.972,1.895-6.602,5.176-7.954,8.479,1.382-1.063,3.257-2.844,4.589-4.075,1.928-1.782,3.877-2.632,5.806-4.16Z" fill="#a5542d"/><path d="M314.419,345.978c-1.92-4.074-6.651-9.528-10.531-11.953.39.965,1.032,1.823,1.567,2.73.815,1.392,1.581,2.813,2.295,4.26.798,1.633,1.134,3.589,1.918,5.195,2.039-.266,2.65-.393,4.751-.233Z" fill="#e67a76"/><path d="M384.879,333.569c-.171-.186-.495-.597-.776-.543-4.194.802-12.882,10.92-13.019,14.58l.14.322c2.588.013,3.391-.608,6.12-.087-.651.591-2.071,1.63-2.154,2.345,1.018,1.314,6.063,3.876,7.302,5.697.255.375,2.361,2.248,2.806,2.298,1.7.118,1.906-7.842,1.915-9.213.036-5.222-.184-10.56-2.334-15.399Z" fill="#f39684"/><path d="M384.879,333.569c-.171-.186-.495-.597-.776-.543-4.194.802-12.882,10.92-13.019,14.58l.14.322c2.588.013,3.391-.608,6.12-.087-.651.591-2.071,1.63-2.154,2.345,1.018,1.314,6.063,3.876,7.302,5.697.255.375,2.361,2.248,2.806,2.298-1.581-3.276-5.03-6.433-8.063-8.367,1.412-.929,2.716-2.048.721-3.313.301-1.996,1.932-6.195,3.049-7.999.601-.971,2.013-2.938,2.361-3.942l1.512-.99Z" fill="#a5542d"/><path d="M383.367,334.559c-3.68,2.066-8.564,7.746-10.212,11.571,1.846.016,2.986-.012,4.802.37.301-1.996,1.932-6.195,3.049-7.999.601-.971,2.013-2.938,2.361-3.942Z" fill="#e67a76"/><path d="M379.378,393.7c-7.377-.8-11.638,5.804-2.957,7.38,2.136.083,4.002.104,5.966-.936,1.466-.776,2.853-2.621,1.661-4.232-1.058-1.429-2.982-1.954-4.67-2.212Z" fill="#f39684"/><path d="M310.241,393.424c-8.057-.824-10.03,6.704-1.963,7.393,2.062.163,4.365.059,6.143-1.159,1.38-.946,2.029-2.743.805-4.115-1.235-1.385-3.19-1.914-4.986-2.12Z" fill="#f39684"/><path d="M389.382,410.722c-.541.533-1.098,1.05-1.671,1.548-.604.497-1.622,1.382-2.234,1.786-1.758,1.243-3.283,2.239-5.2,3.261-5.888,2.844-11.718,4.997-18.318,5.492-1.227.092-2.942.318-4.1-.13-.701.177-2.814.228-3.637.268,1.144,2.114,2.226,4.123,3.275,6.29l-.015.097c2.336,6.125,3.673,11.483.84,17.818-.633,1.416-2.283,4.396-3.412,5.487,2.271,6.503,4.195,17.002,4.105,23.903-.842,1.585-1.252,2.171-1.586,3.912.054,1.307.644,2.357,1.953,2.786l.409-.054c.302-.413.197-.374.206-1.007.131-.774.546-3.228,1.593-2.994.078.428-.329,2.067-.344,2.82l.033,1.621c1.545.172,2.758.258,4.318.259l.071-1.651c.151-.747.61-2.21,1.305-2.585l.184.169c.14.636-.087,1.248-.247,1.902-.055.552-.021,1.479-.019,2.062,4.012-.047,5.295-.452,6.637-4.269,1.122-3.131,2.068-7.136,2.774-10.362.122-.766.425-1.932.604-2.719.399-2.046.761-4.1,1.085-6.159.245-.953.418-2.026.597-3.003.407-2.489.827-4.976,1.26-7.46.195-1.165,1.001-7.171,1.719-7.605l.14.321c.033,3.011-.062,5.449-.422,8.457-.403,3.758-.922,8.961-1.7,12.574,4.656-.059,10.618-.746,15.1-2.104l.917-.102.034.105c-.399.945-1.845,1.482-2.803,1.876-2.011.825-4.097,1.458-6.228,1.888,1.082,2.584,2.034,5.554,1.351,8.372-1.369,2.062-3.238,4.452-.108,5.881.134-1.11.39-3.016,1.304-3.766l.355-.044c.374.667-1.107,3.849.189,4.114.864.177,2.453.198,3.378.188l.222-.152.046-.711c.229-1.039.344-1.738,1.008-2.605l.203.033c.248.623.07,1.362-.004,2.062-.008.551.006.767.085,1.312,1.348-.236,2.681-.397,3.784-1.278.66-.754.981-1.486,1.388-2.379,1.28-3.681,3.017-11.253,2.284-14.937-1.084-5.447-1.32-4.935-.03-10.639.376-1.638.686-3.29.929-4.952,1.341-9.186.303-20.359-5.384-27.97-1.169-2.479-5.805-5.713-8.223-7.03Z" fill="#f0af63"/><path d="M380.276,417.317c-5.888,2.844-11.718,4.997-18.318,5.492-1.227.092-2.942.318-4.1-.13-.701.177-2.814.228-3.637.268,1.144,2.114,2.226,4.123,3.275,6.29.467-.176,1.379-.309,1.898-.406,7.978-1.488,15.581-4.616,21.799-9.971-.308-.482-.624-1.045-.918-1.542Z" fill="#d68653"/><path d="M371.867,477.72c-.913-.789-1.956-1.413-3.082-1.844-3.309-1.273-6.617-.726-9.769.666-.842,1.585-1.252,2.171-1.586,3.912.054,1.307.644,2.357,1.953,2.786l.409-.054c.302-.413.197-.374.206-1.007.131-.774.546-3.228,1.593-2.994.078.428-.329,2.067-.344,2.82l.033,1.621c1.545.172,2.758.258,4.318.259l.071-1.651c.151-.747.61-2.21,1.305-2.585l.184.169c.14.636-.087,1.248-.247,1.902-.055.552-.021,1.479-.019,2.062,4.012-.047,5.295-.452,6.637-4.269l-1.543-1.829-.119.034Z" fill="#f8f2d4"/><path d="M371.985,477.686l-.119.034c-.268,1.576-3.006,4.316-4.658,4.489-.29-.27-.177-.118-.298-.488-.055.552-.021,1.479-.019,2.062,4.012-.047,5.295-.452,6.637-4.269l-1.543-1.829Z" fill="#e1bca4"/><path d="M361.247,482.006l.033,1.621c1.545.172,2.758.258,4.318.259l.071-1.651c-1.267.422-3.139.005-4.422-.229Z" fill="#e1bca4"/><path d="M359.998,482.18c-1.198-.536-1.57-.892-2.568-1.725.054,1.307.644,2.357,1.953,2.786l.409-.054c.302-.413.197-.374.206-1.007Z" fill="#e1bca4"/><path d="M389.382,410.722c-.541.533-1.098,1.05-1.671,1.548,1.325.524,2.989,4.346,3.563,5.572,1.885,4.029,2.446,8.626,3.992,12.733.81,2.152,2.763.081,3.021-1.579.494-3.186.38-6.275-.514-9.391-.18-.651-.764-1.437-.168-1.853-1.169-2.479-5.805-5.713-8.223-7.03Z" fill="#c8743a"/><path d="M383.071,450.902l-1.787.083c-.403,3.758-.922,8.961-1.7,12.574,4.656-.059,10.618-.746,15.1-2.104-.874-.434-2.252-.984-3.063-1.404-1.831-.95-8.674-7.01-8.428-9.089l-.122-.059Z" fill="#e1bca4"/><path d="M385.476,414.056c-1.758,1.243-3.283,2.239-5.2,3.261.295.498.61,1.06.918,1.542,2.481,2.413,3.752,11.881,5.653,13.006.339.201.529.161.895.076.575-.461.903-1.014,1.084-1.732,1.431-5.664-.848-11.317-3.351-16.154Z" fill="#c8743a"/><path d="M394.229,454.189l-.139-.137c-3.082-3.012-6.82-3.127-10.897-3.092-.246,2.079,6.597,8.139,8.428,9.089.81.421,2.189.97,3.063,1.404l.917-.102c1.003-.82.653-2.41.561-3.577-.417-1.69-.859-2.331-1.933-3.586Z" fill="#f8f2d4"/><path d="M393.203,472.665c-1.865-.043-3.564,0-5.248.928-1.369,2.062-3.238,4.452-.108,5.881.134-1.11.39-3.016,1.304-3.766l.355-.044c.374.667-1.107,3.849.189,4.114.864.177,2.453.198,3.378.188l.222-.152.046-.711c.229-1.039.344-1.738,1.008-2.605l.203.033c.248.623.07,1.362-.004,2.062-.008.551.006.767.085,1.312,1.348-.236,2.681-.397,3.784-1.278.66-.754.981-1.486,1.388-2.379-2.176-2.348-3.412-3.036-6.602-3.584Z" fill="#f8f2d4"/><path d="M393.203,472.665c-1.865-.043-3.564,0-5.248.928-1.369,2.062-3.238,4.452-.108,5.881.134-1.11.39-3.016,1.304-3.766l.355-.044c.374.667-1.107,3.849.189,4.114.864.177,2.453.198,3.378.188l.222-.152.046-.711c-3.342-.142-3.442-.93-1.781-3.64.531-.866,1.156-1.907,1.643-2.798Z" fill="#e1bca4"/><path d="M398.417,478.627c-1.126-.776-2.289.554-3.702.275l-.168-.31c-.008.551.006.767.085,1.312,1.348-.236,2.681-.397,3.784-1.278Z" fill="#e1bca4"/><path d="M393.203,472.665c.72-1.863,3.461-9.547,3.45-11.013-.362-.284-.441-.18-1.018-.195-.399.945-1.845,1.482-2.803,1.876-2.011.825-4.097,1.458-6.228,1.888,1.082,2.584,2.034,5.554,1.351,8.372,1.683-.928,3.383-.971,5.248-.928Z" fill="#d68653"/><path d="M379.848,449.811c-3.158,2.066-6.784,3.337-10.132,5.038-.664.337-1.974,1.342-1.209,2.085,2.209,2.143,7.618.995,10.081.338.407-2.489.827-4.976,1.26-7.46Z" fill="#c8743a"/><path d="M377.991,460.275c-1.4.417-2.808.808-4.222,1.172-1.342.332-6.178,1.013-5.942,2.906,1.078,1.992,7.053,2.273,9.08,2.082.399-2.046.761-4.1,1.085-6.159Z" fill="#c8743a"/><path d="M376.302,469.153c-.73.764-1.512,3.378-2.094,4.546-.638,1.281-1.338,2.83-2.222,3.987l1.543,1.829c1.122-3.131,2.068-7.136,2.774-10.362Z" fill="#d68653"/><path d="M383.071,450.902c-.63-1.951,0-6.553-1.365-8.374.033,3.011-.062,5.449-.422,8.457l1.787-.083Z" fill="#d68653"/><path d="M396.162,457.775c.732-1.351-.272-3.521-1.933-3.586,1.074,1.255,1.516,1.896,1.933,3.586Z" fill="#e1bca4"/><path d="M329.406,422.85c-5.335-.083-9.319-.583-14.452-2.256l.075,3.011c.097,8.878,1.445,17.425,3.013,26.142.357,2.331.88,4.628,1.24,6.934l.59,2.978c.232,1.413.661,4.686.986,5.957.34,2.854.635,5.2.671,8.067-.735,1.643-1.857,2.282-2.689,4.471-.011,1.597.459,1.932,1.89,2.586l.055-1.586c.172-.85.554-1.815,1.239-2.377l.241.067c.178.469-.013,1.021-.124,1.537-.173,1.549-.404,2.79,1.681,2.937.849.06,1.714.073,2.566.1l.043-1.544c.157-.696.847-2.775,1.645-2.866.364.473-.113,1.71-.196,2.654l-.013.169c-.04.443-.015,1.061-.012,1.518,1.605-.122,3.953-.359,5.402-1.048,1.502-.715,1.816-1.515,2.303-2.932,1.526-5.766,2.707-10.92,3.059-16.905-2.355-1.237-10.275-6.214-10.691-8.887.042.02.084.041.126.061,6.742,4.396,13.686,8.67,21.675,10.361,1.924.407,3.775.739,5.724,1.029-.178-1.178-.589-4.272-.897-5.329-.188-1.453-.541-3.15-.808-4.61-.175-.753-.615-2.183-.271-2.862l.261.096c.577.696.825,1.473,1.173,2.316,1.128-1.092,2.778-4.071,3.412-5.487,2.834-6.335,1.496-11.693-.84-17.818-.673-.097-4.949.622-5.985.696-2.602.185-5.137.354-7.762.312-4.012-.027-8.015-.396-11.965-1.102-1.321-.237-4.532-1.061-5.478-1.159l-.182-.017-.063-.116c.54-1.693.879-3.259,1.502-4.995.785.016,1.084.014,1.856-.102Z" fill="url(#aa)"/><path d="M357.482,429.333c-.673-.097-4.949.622-5.985.696-2.602.185-5.137.354-7.762.312-4.012-.027-8.015-.396-11.965-1.102-1.321-.237-4.532-1.061-5.478-1.159l-.182-.017c-1.389,6.457-1.154,13.127,2.503,18.827,1.3,2.027,3.461,4.405,5.591,5.59,3.814,1.6,9.583,2.276,13.801,2.266,1.344-.082,2.424-.218,3.724-.553,1.028-.245,1.279-.356,2.017-1.104-.175-.753-.615-2.183-.271-2.862l.261.096c.577.696.825,1.473,1.173,2.316,1.128-1.092,2.778-4.071,3.412-5.487,2.834-6.335,1.496-11.693-.84-17.818Z" fill="#f8f2d4"/><path d="M333.135,475.074c-2.67-1.783-8.808-3.607-11.607-1.391-.735,1.643-1.857,2.282-2.689,4.471-.011,1.597.459,1.932,1.89,2.586l.055-1.586c.172-.85.554-1.815,1.239-2.377l.241.067c.178.469-.013,1.021-.124,1.537-.173,1.549-.404,2.79,1.681,2.937.849.06,1.714.073,2.566.1l.043-1.544c.157-.696.847-2.775,1.645-2.866.364.473-.113,1.71-.196,2.654l-.013.169c-.04.443-.015,1.061-.012,1.518,1.605-.122,3.953-.359,5.402-1.048,1.502-.715,1.816-1.515,2.303-2.932-.885-1.15-1.179-1.516-2.424-2.294Z" fill="#f8f2d4"/><path d="M333.135,475.074c-.4,2.213-3.011,4.668-5.269,4.757-.04.443-.015,1.061-.012,1.518,1.605-.122,3.953-.359,5.402-1.048,1.502-.715,1.816-1.515,2.303-2.932-.885-1.15-1.179-1.516-2.424-2.294Z" fill="#e1bca4"/><path d="M322.14,478.381c-.173,1.549-.404,2.79,1.681,2.937.849.06,1.714.073,2.566.1l.043-1.544c-1.186-.055-2.971.205-3.971-.447-.356-.232-.281-.587-.319-1.045Z" fill="#e1bca4"/><path d="M318.838,478.154c-.011,1.597.459,1.932,1.89,2.586l.055-1.586c-.574-.132-1.415-.683-1.945-1Z" fill="#e1bca4"/><path d="M327.927,451.577l-.186.066-.036.169-.549.29c-.019.236-.039.48.099.689,1.446,2.186,3.028,4.365,4.564,6.488,1.724,2.384,3.201,4.901,3.085,7.938-.057,1.957-.388,3.772-1.045,5.627-.189.564-.609,1.698-.723,2.231,1.246.778,1.539,1.144,2.424,2.294,1.526-5.766,2.707-10.92,3.059-16.905-2.355-1.237-10.275-6.214-10.691-8.887Z" fill="#d68653"/><path d="M329.406,422.85c-5.335-.083-9.319-.583-14.452-2.256l.075,3.011c2.856,1.615,7.825,3.464,11.018,4.342.54-1.693.879-3.259,1.502-4.995.785.016,1.084.014,1.856-.102Z" fill="#d68653"/><path d="M319.281,456.68l.617.108c.902.157,7.945,1.419,7.966-1.024.009-1.076-2.874-2.223-3.87-2.748-1.814-.955-3.98-1.95-5.778-3.152l-.175-.119c.357,2.331.88,4.628,1.24,6.934Z" fill="#c8743a"/><path d="M319.871,459.659c.232,1.413.661,4.686.986,5.957.092-.263.014-.139.263-.352,5.354.361,12.055-2.235,2.719-4.451-1.286-.305-2.692-.763-3.967-1.154Z" fill="#c8743a"/><path d="M348.006,454.746c-4.218.011-9.987-.666-13.801-2.266.583,1.379,2.764,3.719,4.227,4.098l.161-.094c-.158-.171-.284-.257-.364-.476.219-.097.451-.136.69-.126,1.13.048,2.968-.969,3.865-1.081,1.737-.217,3.352.478,5.222-.057Z" fill="#e1bca4"/><path d="M353.747,453.089c-.739.748-.989.858-2.017,1.104.641,1.363,2.043,1.869,2.557,3.043.044.099.216.375.268.463-.188-1.453-.541-3.15-.808-4.61Z" fill="#e1bca4"/><path d="M429.578,407.105c.4-.983.732-1.991.995-3.019.767-3.086,1.116-7.152-.63-10-1.369-2.232-4.031-3.179-6.302-1.608-3.309,2.289-2.904,6.493-3.608,10.008-.466,2.298-.909,3.343-1.78,5.513-.31.587-.804,1.59-1.142,2.116-1.175,1.768-2.161,2.884-3.622,4.404,1.871,1.396,3.674,3.169,4.288,5.519l.059.049c.165.498.354,1.134.537,1.611,2.051-1.506,3.459-2.77,5.165-4.638,1.042-1.178,1.863-2.152,2.698-3.482,1.364-2.019,2.486-4.191,3.343-6.472Z" fill="#c8743a"/><path d="M429.578,407.105c.4-.983.732-1.991.995-3.019.767-3.086,1.116-7.152-.63-10-1.369-2.232-4.031-3.179-6.302-1.608-3.309,2.289-2.904,6.493-3.608,10.008,2.96-.061,5.037.327,7.366,2.389.438.388,1.931,2.137,2.179,2.231Z" fill="#f8f2d4"/><path d="M417.111,410.114c-1.175,1.768-2.161,2.884-3.622,4.404,1.871,1.396,3.674,3.169,4.288,5.519l.059.049c.165.498.354,1.134.537,1.611,2.051-1.506,3.459-2.77,5.165-4.638l-.384-.828-.019-.129c-1.296-3.007-2.989-4.757-6.023-5.988Z" fill="#c8743a"/><path d="M423.154,416.231c-.427.078-1.377.891-1.703,1.216-.799.797-3.048,1.922-3.615,2.64.165.498.354,1.134.537,1.611,2.051-1.506,3.459-2.77,5.165-4.638l-.384-.828Z" fill="#a5542d"/><path d="M425.938,413.386c-1.364-2.821-4.638-4.911-7.684-5.387-.31.587-.804,1.59-1.142,2.116,3.035,1.23,4.727,2.981,6.023,5.988l.019.129.384.828c1.042-1.178,1.863-2.152,2.698-3.482l-.298-.191Z" fill="#f0af63"/><path d="M426.235,413.577l-.298-.191c-.747.156-2.333,2.052-2.803,2.716l.019.129.384.828c1.042-1.178,1.863-2.152,2.698-3.482Z" fill="#d68653"/><path d="M355.761,465.383c-3.468-.418-5.526-.822-8.924-1.637.716,2.416,1.355,5.184,1.033,7.716-.892,1.482-3.461,4.087-1.629,5.611.742-.453.582-2.923,2.088-3.144l.176.089c-.048.384-.107.524-.269.873-.414.895-.45,1.755-.48,2.72,1.23.321,2.152.443,3.428.547.088-.884.442-4.053,1.884-3.621-.001.371-.045.441-.184.781-.343.841-.338,1.867-.35,2.779,1.313.049,1.815.056,3.128-.168,1.276-2.167,1.114-2.795.853-5.364.01-1.651-.535-5.486-.754-7.184Z" fill="#e1bca4"/><path d="M355.761,465.383c-3.468-.418-5.526-.822-8.924-1.637.716,2.416,1.355,5.184,1.033,7.716,3.28-1.164,5.691-.537,8.645,1.104.01-1.651-.535-5.486-.754-7.184Z" fill="#c8743a"/><path d="M413.489,414.519c-1.327,1.101-2.347,1.914-3.849,2.775-1.926,1.044-3.057,1.374-5.162,1.946.681.791.851,1.164,1.178,2.16l.206.544c.392,1.825.502,3.14.189,4.987,1.723-.346,4.543-.995,6.062-1.798,2.37-.983,4.16-1.994,6.258-3.434-.183-.477-.372-1.113-.537-1.611l-.059-.049c-.614-2.35-2.417-4.123-4.288-5.519Z" fill="#f0af63"/><path d="M409.64,417.294c-1.926,1.044-3.057,1.374-5.162,1.946.681.791.851,1.164,1.178,2.16l.206.544c.392,1.825.502,3.14.189,4.987,1.723-.346,4.543-.995,6.062-1.798-.144-.436.037-1.783-.112-2.696l.028-.094c-.578-2.341-.935-3.142-2.39-5.048Z" fill="#c8743a"/><path d="M412.003,422.435c-.656-.035-1.666.073-2.526.004-.744-.059-3.34-.556-3.614-.496.392,1.825.502,3.14.189,4.987,1.723-.346,4.543-.995,6.062-1.798-.144-.436.037-1.783-.112-2.696Z" fill="#a5542d"/><path d="M417.777,420.038c-1.104.606-4.474,2.364-5.747,2.304l-.028.094c.148.913-.033,2.261.112,2.696,2.37-.983,4.16-1.994,6.258-3.434-.183-.477-.372-1.113-.537-1.611l-.059-.049Z" fill="#d68653"/><path d="M404.479,419.24c-.791.156-1.504.286-2.302.404l-.383.117c.06.419,1.093,2.639,1.332,3.239.544,1.368,1.008,2.767,1.392,4.188.493-.085,1.045-.195,1.536-.259.312-1.847.203-3.162-.189-4.987l-.206-.544c-.328-.996-.497-1.368-1.178-2.16Z" fill="#d68653"/><path d="M404.479,419.24c-.791.156-1.504.286-2.302.404.5.424,2.831,1.775,3.48,1.756-.328-.996-.497-1.368-1.178-2.16Z" fill="#f0af63"/></svg>