<?xml version="1.0" encoding="UTF-8"?>
<svg id="Layer_1" xmlns="http://www.w3.org/2000/svg" version="1.1" viewBox="0 0 64 64">
  <!-- Generator: Adobe Illustrator 30.0.0, SVG Export Plug-In . SVG Version: 2.1.1 Build 123)  -->
  <defs>
    <style>
      .st0 {
        fill: #fff;
      }

      .st1 {
        fill: #c1c1c1;
        stroke: #000;
        stroke-miterlimit: 10;
      }
    </style>
  </defs>
  <rect class="st1" x="0" y="0" width="64" height="64" rx="32" ry="32"/>
  <g>
    <g>
      <path class="st0" d="M15.5,51.7c-1,0-1.7-.8-1.7-1.7v-27c0-.3.2-.6.4-.7l17.4-9.9c.1,0,.3-.1.4-.1s.3,0,.4.1l17.4,9.9c.3.2.4.4.4.7v27c0,1-.8,1.7-1.7,1.7H15.5Z"/>
      <path class="st0" d="M32,12.8c0,0,.1,0,.2,0l17.4,9.9c.1,0,.2.2.2.3v27c0,.7-.5,1.2-1.2,1.2H15.5c-.7,0-1.2-.5-1.2-1.2v-27c0-.1,0-.2.2-.3l17.4-9.9c0,0,.1,0,.2,0M32,11.8c-.2,0-.5,0-.7.2l-17.4,9.9c-.4.2-.7.7-.7,1.2v27c0,1.2,1,2.2,2.2,2.2h33.1c1.2,0,2.2-1,2.2-2.2v-27c0-.5-.3-.9-.7-1.2l-17.4-9.9c-.2-.1-.4-.2-.7-.2h0Z"/>
    </g>
    <g>
      <g>
        <path d="M40.4,50.5c-.6,0-1.1-.5-1.1-1.1v-1.3c0-.6.5-1.1,1.1-1.1s.2,0,.2,0h-6.8c-.9,0-1.3-.4-1.4-1.3v-1.1c0-.4-.4-.6-.7-.6s-.4,0-.5.4l-2.4,4.9c-.5,1.1-.9,1.3-2,1.3h-1.8l4.7-9.7c0-.2,0-.4,0-.5l-.9-2c-.1-.3-.4-.4-.6-.4s-.4,0-.5.2l-.6.7c-.4.5-.6.6-1.2.6s-1,0-1,0c-.4,0-.6.3-.6.6v9.3c0,.6-.5,1.1-1.1,1.1h-7.4c-.6,0-1.1-.5-1.1-1.1v-25.6c0-.4.2-.8.6-1l16-9.1c.2,0,.4-.1.6-.1s.4,0,.6.1l16,9.1c.3.2.6.6.6,1v25.6c0,.6-.5,1.1-1.1,1.1h-7.6ZM34.1,35.7c-.2,0-.4.1-.5.3-.1.2-.1.4,0,.6l1,2.3c.2.5.4.9.5,1.8l.2,3.2c0,.3.3.6.6.6h2.7c1.1,0,1.5.2,2,.8l.5,1.1c0,0,0-.2,0-.2l-.4-.8c-.2-.3-.4-.4-.6-.6-.4-.2-.6-.6-.6-1v-15.4c0-.3-.3-.6-.6-.6h-13.6c-.3,0-.6.3-.6.6v8.3c0,.3.3.6.6.6,0,0,.1,0,.1,0,.2,0,.4,0,.5-.2l1.8-2.4c.4-.6,1-1.1,2.3-1.1h4.6c1,0,1.5,0,2.1,1l1.6,2.9c0,.2.1.4.1.5,0,.6-.5,1.1-1.1,1.1s-.8-.2-1-.6l-1.3-2.3c-.1-.2-.3-.3-.5-.3h-.3Z"/>
        <path class="st0" d="M32,13.8c.1,0,.3,0,.4.1l16,9.1c.3.2.4.4.4.8v25.6c0,.5-.4.9-.9.9h-7.6c-.5,0-.9-.4-.9-.9v-1.3c0-.5.4-.9.9-.9s1.1-.7.8-1.3l-.4-.8h0c-.2-.3-.4-.5-.7-.7-.3-.2-.5-.4-.5-.8v-15.4c0-.5-.4-.9-.9-.9h-13.6c-.5,0-.9.4-.9.9v8.3c0,.5.4.9.8.9h.1s0,0,0,0c.3,0,.5-.1.7-.3l1.8-2.4c.5-.6,1-1,2.1-1h4.3c.1,0,.3,0,.4,0,.9,0,1.4,0,1.9.9l1.6,2.9c0,.1.1.3.1.4,0,.5-.4.9-.9.9s-.6-.2-.8-.5l-1.3-2.3c-.2-.3-.4-.4-.8-.4h-.3c-.6,0-1,.6-.8,1.2l.9,2c.2.6.5,1,.6,2l.2,3.2c0,.5.4.8.9.8h2.7c1,0,1.4.2,1.8.7l.6,1.3h-7.1c-.7,0-1.1-.3-1.1-1.1v-1.1c0-.5-.5-.8-.9-.8-.3,0-.6.2-.8.5l-2.4,4.9c-.5,1-.8,1.1-1.7,1.1h-1.4l4.5-9.4c.1-.2.1-.5,0-.7l-.9-2c-.1-.3-.5-.5-.8-.5-.3,0-.5.1-.7.3l-.6.7c-.3.4-.5.5-1,.5s-.2,0-.3,0h-.6s0,0,0,0c-.5,0-.9.4-.9.9v9.3c0,.5-.4.9-.9.9h-7.4c-.5,0-.9-.4-.9-.9v-25.6c0-.3.2-.6.4-.8l16-9.1c.1,0,.3-.1.4-.1M32,13.3c-.2,0-.5,0-.7.2l-16,9.1c-.4.2-.7.7-.7,1.2v25.6c0,.8.6,1.4,1.4,1.4h7.4c.8,0,1.4-.6,1.4-1.4v-9.3c0,0,0-.2.1-.3,0,0,.2-.1.3-.1h.6c.1,0,.2,0,.3,0,.8,0,1-.2,1.4-.7l.6-.8c0-.1.2-.1.3-.1.1,0,.3,0,.3.2l.9,2c0,0,0,.2,0,.3l-4.5,9.4-.3.7h2.2c1.1,0,1.6-.2,2.2-1.4l2.4-4.9c0-.2.2-.2.3-.2s.4,0,.4.3v1.1c.1,1,.7,1.6,1.7,1.6h5.5c-.2.2-.4.6-.4.9v1.3c0,.8.6,1.4,1.4,1.4h7.6c.8,0,1.4-.6,1.4-1.4v-25.6c0-.5-.3-.9-.7-1.2l-16-9.1c-.2-.1-.4-.2-.7-.2h0ZM25.2,36.9h-.1c-.2,0-.4-.2-.4-.4v-8.3c0-.2.2-.4.4-.4h13.6c.2,0,.4.2.4.4v15.4c0,.2,0,.4.1.6-.2,0-.4,0-.6,0h-2.7c-.2,0-.4-.2-.4-.3l-.2-3.2c-.1-1-.3-1.5-.5-1.9,0,0,0-.2-.1-.3l-.9-2.1c0-.2,0-.3,0-.3,0,0,.1-.2.3-.2h.3c.1,0,.3,0,.3.2l1.3,2.3c.2.5.7.7,1.2.7.8,0,1.4-.6,1.4-1.4s0-.5-.2-.7l-1.6-2.9c-.7-1.1-1.3-1.1-2.3-1.1h-.2s-.2,0-.2,0h-4.3c-1.4,0-2,.6-2.5,1.2l-1.8,2.4c0,0-.2.1-.3.1h0Z"/>
      </g>
      <g>
        <path d="M28.8,33.5c-1.1,0-2-.9-2-2s.9-2,2-2,2,.9,2,2-.9,2-2,2Z"/>
        <path class="st0" d="M28.8,29.6c1,0,1.9.9,1.9,1.9s-.9,1.9-1.9,1.9-1.9-.8-1.9-1.9.8-1.9,1.9-1.9M28.8,29.3c-1.2,0-2.1,1-2.1,2.1s1,2.1,2.1,2.1,2.1-1,2.1-2.1-1-2.1-2.1-2.1h0Z"/>
      </g>
    </g>
  </g>
</svg>