<?xml version="1.0" encoding="UTF-8"?><svg id="a" xmlns="http://www.w3.org/2000/svg" width="500" height="500" xmlns:xlink="http://www.w3.org/1999/xlink" viewBox="0 0 500 500"><defs><linearGradient id="b" x1="283.186" y1="156.165" x2="294.514" y2="159.231" gradientTransform="translate(0 500) scale(1 -1)" gradientUnits="userSpaceOnUse"><stop offset="0" stop-color="#5d301a"/><stop offset="1" stop-color="#7a4a3b"/></linearGradient><linearGradient id="c" x1="156.539" y1="327.152" x2="135.812" y2="333.629" gradientTransform="translate(0 500) scale(1 -1)" gradientUnits="userSpaceOnUse"><stop offset="0" stop-color="#f39487"/><stop offset="1" stop-color="#f8b490"/></linearGradient><linearGradient id="d" x1="381.537" y1="264.078" x2="381.658" y2="261.13" gradientTransform="translate(0 500) scale(1 -1)" gradientUnits="userSpaceOnUse"><stop offset="0" stop-color="#583631"/><stop offset="1" stop-color="#6a4c3d"/></linearGradient><linearGradient id="e" x1="322.517" y1="285.494" x2="321.431" y2="279.65" gradientTransform="translate(0 500) scale(1 -1)" gradientUnits="userSpaceOnUse"><stop offset="0" stop-color="#63464e"/><stop offset="1" stop-color="#512e16"/></linearGradient><linearGradient id="f" x1="420.024" y1="165.862" x2="420.859" y2="173.672" gradientTransform="translate(0 500) scale(1 -1)" gradientUnits="userSpaceOnUse"><stop offset="0" stop-color="#50392e"/><stop offset="1" stop-color="#6e4b40"/></linearGradient><linearGradient id="g" x1="393.86" y1="234.846" x2="397.52" y2="225.622" gradientTransform="translate(0 500) scale(1 -1)" gradientUnits="userSpaceOnUse"><stop offset="0" stop-color="#571d21"/><stop offset="1" stop-color="#706946"/></linearGradient><linearGradient id="h" x1="310.095" y1="338.191" x2="310.745" y2="333.409" gradientTransform="translate(0 500) scale(1 -1)" gradientUnits="userSpaceOnUse"><stop offset="0" stop-color="#543330"/><stop offset="1" stop-color="#674c3a"/></linearGradient><linearGradient id="i" x1="383.211" y1="256.761" x2="382.516" y2="252.215" gradientTransform="translate(0 500) scale(1 -1)" gradientUnits="userSpaceOnUse"><stop offset="0" stop-color="#7f5c4e"/><stop offset="1" stop-color="#5d3b2a"/></linearGradient><linearGradient id="j" x1="381.71" y1="268.547" x2="384.328" y2="275.275" gradientTransform="translate(0 500) scale(1 -1)" gradientUnits="userSpaceOnUse"><stop offset="0" stop-color="#503921"/><stop offset="1" stop-color="#6f524e"/></linearGradient><linearGradient id="k" x1="106.944" y1="218.389" x2="100.503" y2="213.156" gradientTransform="translate(0 500) scale(1 -1)" gradientUnits="userSpaceOnUse"><stop offset="0" stop-color="#2c1612"/><stop offset="1" stop-color="#4a423a"/></linearGradient></defs><path d="M235.824,159.583c3.765-3.889,8.957-9.134,13.527-12.658,7.488-5.775,21.167-15.746,30.984-15.259,3.062.152,5.538,3.912,7.271,6.196.858.617.583.416.864,1.794.848,1.369,2.152,4.302,2.617,5.846.254.867.231,1.023.807,1.731.729,2.321,1.438,4.476,1.958,6.86.166.696.266,1.248.567,1.903.294,1.445,1.162,5.904,1.073,7.249.148.815.108,1.041.489,1.757.944,3.369.882,8.505,1.619,11.472.352.938.685,1.169.104,2.081-.058,2.568.221,10.436-.191,12.329-.219,1.579-.15,2.426-.08,3.989l.038,2.967-.054.563c1.358.402.964,1.245,2.92,1.635l-1.375.058.079.288c.406,1.19.78,2.342,1.268,3.502-.213.633-.248.804-.597,1.368l.217.416c2.849.655,7.118.688,10.105.732,2.366.068,9.636.116,11.553.446,1.132.579,1.754.716,3.019.905l-.176-.1.312.146c-1.168.165-1.707.109-2.658.782-6.641.207-12.658-.028-19.171.002.421,1.225.858,2.462,1.264,3.69-1.232.115-2.743.212-3.943.381l-.776.126c-.188.621-.165.403-.12,1.024l.201.113.841.092c1.877,5.479,3.121,9.869,4.257,15.514l3.889-.049c-.399-1.415-.884-2.756-.879-4.209.519-.041,3.865-.883,4.667-1.073,3.946-.933,12.339-1.776,16.215-.664,8.894.844,17.412,4.005,24.703,9.168,1.399.976,4.023,3.489,4.959,4.07l2.203,2.364c.966-.778,3.151-.981,4.322-.607,1.327,1.463,4.499,4.927,5.257,6.533.297.904.686,1.504,1.428,2.137,2.145,3.859,5.861,10.219,7.011,14.258.202.6.335,1.216.697,1.693.659,1.645,1.065,2.761,1.565,4.458-.319,2.227-.329,2.302,1.137,4.002.769,2.189,1.324,4.449,1.658,6.745.511,1.006.506.947,1.451,1.606l-.711.188c-.296,1.112.632,5.018.89,6.251,4.53,1.346,6.866,2.654,9.395,7.006.376.647,1.773,3.369,1.907,3.98.39.743.624,1.297,1.138,1.96,1.129,2.529,5.098,9.713,5.476,11.742.247.603.511,1.404.883,1.896.862,1.893,2.323,5.314,2.766,7.316.137.94.101,1.063.54,1.926.248,1.109.315,1.301.284,2.416.062.975.131,1.931.149,2.908-.243,1.378-.593,2.696-1.351,3.896-.659.696-1.034,1.534-1.54,2.382-6.578,7.144-17.6,5.381-24.048-.817-2.33-2.24-4.09-4.729-5.84-7.423-10.747,6.378-20.651,3.802-30.158-3.425l-1.282,1.638c4.152,6.922,10.355,15.891,8.36,24.284-.669,2.865-2.465,5.339-4.981,6.864-3.368,2.066-7.212,2.049-10.939,1.144-7.479-1.817-13.26-9.173-18.028-14.946-12.382,6.149-28.793,9.538-42.615,9.617-1.853,1.367-3.649,2.947-5.408,4.443-1.112.945-1.453.975-1.711,2.254-3.05.288-4.508,2.702-6.931,3.878-1.159.25-1.666,1.126-1.562,2.278-3.139.336-3.841,1.023-6.539,2.575-5.469,3.148-10.479,6.851-16.955,7.446-8.73.802-21.762-2.28-22.507-12.947-.414-6.521,4.536-11.566,8.57-16.147-6.966-2.146-13.54-4.166-19.62-8.425-4.002.995-8.735,2.961-12.876,4.239-15.322,4.729-59.947,17.5-67.859-3.733-1.147-3.176-.989-6.678.44-9.737,4.746-9.933,20.983-11.428,30.505-15.002-2.303-1.306-4.802-2.348-7.116-3.688-9.639-5.582-19.04-12.997-24.387-22.974-.739-1.378-1.412-2.806-2.261-4.116l-.73-.056c-.055-.869-.023-1.1-.387-1.913.408-.588-1.004-3.891-1.216-5.722-5.982.117-15.641.934-21.138.384,5.92-1.694,14.576-2.139,20.805-2.467-.06-1.979-.172-3.688.094-5.655-3.708-.411-7.903-1.298-11.628-1.982-4.78-.877-10.478-1.61-15.086-2.909,5.317-.423,21.315,1.714,27.071,2.959.787-3.646,1.877-5.633,3.884-8.707-1.955-15.809,1.876-37.854,8.887-52.006,1.84-3.715,3.909-6.602,5.71-10.082l.12-.236c-2.169-10.15-1.689-28.212-.07-38.483.93-4.909,2.666-15.629,7.1-18.432,6.293-3.979,20.439,5.844,26.195,8.773,2.512,1.279,4.39,3.68,7.289,4.182.078.01.156.02.234.03l-.158.499c.484.824.442.824,1.256,1.419l.291-.013c1.443,1.212,3.198,2.845,4.657,3.918l1.812,1.872c.925.774,2.571,2.56,3.479,3.499,15.142-4.1,33.158-4.95,48.356-.394Z" fill="#f4ae64"/><path d="M235.824,159.583c3.765-3.889,8.957-9.134,13.527-12.658,7.488-5.775,21.167-15.746,30.984-15.259,3.062.152,5.538,3.912,7.271,6.196.858.617.583.416.864,1.794.848,1.369,2.152,4.302,2.617,5.846.254.867.231,1.023.807,1.731.729,2.321,1.438,4.476,1.958,6.86.166.696.266,1.248.567,1.903.294,1.445,1.162,5.904,1.073,7.249.148.815.108,1.041.489,1.757.944,3.369.882,8.505,1.619,11.472.352.938.685,1.169.104,2.081-.058,2.568.221,10.436-.191,12.329-.219,1.579-.15,2.426-.08,3.989l.038,2.967-.054.563c1.358.402.964,1.245,2.92,1.635l-1.375.058.079.288c.406,1.19.78,2.342,1.268,3.502l-4.533.051-1.446-.003c-.819-.871-1.333-1.705-1.927-2.739-1.951-3.398-3.982-6.558-6.451-9.601l-.244-.411c.616-4.28,1.423-6.653,1.648-11.344-.24-2.308.066-6.476-.165-9.168-.842-9.853-2.421-20.081-7.421-28.71l-.051-.177c-.931-.853-1.773-1.558-2.557-2.552l2.253-1.401,1.192.166c-6.504-2.923-26.927,13.429-32.102,18.635-1.083,1.089-6.865,7.572-7.51,7.648-.863-.584-.814-.572-1.828-.783-.544.103-1.379-.117-1.979-.22-4.488-1.011-9.026-1.782-13.597-2.31-1.331-.179-2.729-.216-4.076-.284-3.065.132-2.945.655-4.321,3.389l-.237.189c-4.081-.44-13.34.366-17.415,1.166.435-.993,1.795-3.14,2.41-4.241-1.796.272-3.897.538-5.634.963-.991,1.433-1.784,2.605-2.669,4.105l-.397.362c-3.578.219-10.261,1.954-13.688,2.998.136-.539.85-2.205,1.092-2.818l-.3-.369c-1.476.51-3.286,1.193-4.753,1.629-1.499.791-3.95,1.982-5.55,2.49-.783.384-1.792.921-2.593,1.175-1.154.651-2.611,1.523-3.765,2.109l-.851.447-1.187.74c-6.488,4.756-9.968,7.74-15.932,13.167-1.097,1.299-3.138,3.79-4.333,4.886-8.837,14.846-14.783,28.832-15.202,46.516l2.331.277-.022.323c-.248,2.451-.903,9.551-.414,11.781-1.176-.184-1.111-.389-1.847.093-.345,1.199.056,1.828-.197,3.299-.37,1.15-.482,1.643-1.084,2.668l1.337,1.034c-1.023,2.142-1.613,3.522-2.41,5.751,1.779.377,3.495.551,4.91,1.652l.057.453c-1.222.613-3.926.003-5.24-.371-.107.853-.331,2.098-.193,2.895.497.765.426.814.425,1.708,1.676-.095,2.914-.311,4.436.414l.128.45c-.872.892-1.965,1.001-3.163,1.007-.974-.002-1.947-.012-2.921-.031.969.339.946.148,1.462,1.284.66,1.453,1.115,2.335,2.024,3.656,1.795-.322,3.166-.789,4.804.049l-.038.382c-.918.713-1.836.778-2.996,1.023-.913.24-2.158.434-2.831.972.443,2.39,5.624,8.784,7.4,10.708,2.92,3.586,6.696,6.717,10.469,9.397,15.814,11.231,34.761,17.143,53.89,19.166,23.165,2.448,42.224-.313,64.443-6.031,1.458-.831,5.272-2.253,7.031-3.049,1.676-.757,5.66-2.812,7.171-3.306,8.969-4.343,18.593-13.243,24.916-20.798-3.335-1.246-8.245-2.545-11.703-3.544-2.091-.756-7.87-1.818-9.188-3.432l.518-.233-.427.37.629-.395c2.969-.105,6.937,1.157,9.893,1.928.807-1.281,1.654-2.309,2.592-3.485-4.111-.745-18.173-2.474-19.041-7.406-.889-5.054,10.379-5.968,13.753-6.164,2.536-.342,8.207-.266,11.173-.405.697-1.772,2.765-6.605,2.604-8.222l-.579-.237c.179-.094,1.216-.175,1.704-.291,2.164-.186,4.326-.394,6.485-.624.114-3.549.289-12.322-.399-15.658-.191-1.631-.395-3.821-.919-5.329-.595-1.158-.153-.749-1.412-1.226.616-.115,1.222-.263,1.833-.405,4.519-.312,11.174-.279,15.78-.344,1.525.11,3.518-.004,4.806.369l.223.292c-1.706.908-5.851.874-7.755,1.454,4.229-.124,5.964,2.644,9.405,5.087,3.39-.013,9.636-.252,12.792-.04,1.361-.169,4.229-.177,5.705-.223-2.542-3.023-5.064-6.096-8.062-8.673-.5-.157-2.851-1.284-3.466-1.563-1.279-.939-6.298-3.503-6.854-4.256l.367-.261c8.894.844,17.412,4.005,24.703,9.168,1.399.976,4.023,3.489,4.959,4.07l2.203,2.364c.966-.778,3.151-.981,4.322-.607,1.327,1.463,4.499,4.927,5.257,6.533.297.904.686,1.504,1.428,2.137,2.145,3.859,5.861,10.219,7.011,14.258.202.6.335,1.216.697,1.693.659,1.645,1.065,2.761,1.565,4.458-.319,2.227-.329,2.302,1.137,4.002.769,2.189,1.324,4.449,1.658,6.745.511,1.006.506.947,1.451,1.606l-.711.188c-.296,1.112.632,5.018.89,6.251,4.53,1.346,6.866,2.654,9.395,7.006.376.647,1.773,3.369,1.907,3.98.39.743.624,1.297,1.138,1.96,1.129,2.529,5.098,9.713,5.476,11.742.247.603.511,1.404.883,1.896.862,1.893,2.323,5.314,2.766,7.316.137.94.101,1.063.54,1.926.248,1.109.315,1.301.284,2.416.062.975.131,1.931.149,2.908-.243,1.378-.593,2.696-1.351,3.896-.659.696-1.034,1.534-1.54,2.382-6.578,7.144-17.6,5.381-24.048-.817-2.33-2.24-4.09-4.729-5.84-7.423-10.747,6.378-20.651,3.802-30.158-3.425l-1.282,1.638c4.152,6.922,10.355,15.891,8.36,24.284-.669,2.865-2.465,5.339-4.981,6.864-3.368,2.066-7.212,2.049-10.939,1.144-7.479-1.817-13.26-9.173-18.028-14.946-12.382,6.149-28.793,9.538-42.615,9.617-1.853,1.367-3.649,2.947-5.408,4.443-1.112.945-1.453.975-1.711,2.254-3.05.288-4.508,2.702-6.931,3.878-1.159.25-1.666,1.126-1.562,2.278-3.139.336-3.841,1.023-6.539,2.575-5.469,3.148-10.479,6.851-16.955,7.446-8.73.802-21.762-2.28-22.507-12.947-.414-6.521,4.536-11.566,8.57-16.147-6.966-2.146-13.54-4.166-19.62-8.425-4.002.995-8.735,2.961-12.876,4.239-15.322,4.729-59.947,17.5-67.859-3.733-1.147-3.176-.989-6.678.44-9.737,4.746-9.933,20.983-11.428,30.505-15.002-2.303-1.306-4.802-2.348-7.116-3.688-9.639-5.582-19.04-12.997-24.387-22.974-.739-1.378-1.412-2.806-2.261-4.116l-.73-.056c-.055-.869-.023-1.1-.387-1.913.408-.588-1.004-3.891-1.216-5.722-5.982.117-15.641.934-21.138.384,5.92-1.694,14.576-2.139,20.805-2.467-.06-1.979-.172-3.688.094-5.655-3.708-.411-7.903-1.298-11.628-1.982-4.78-.877-10.478-1.61-15.086-2.909,5.317-.423,21.315,1.714,27.071,2.959.787-3.646,1.877-5.633,3.884-8.707-1.955-15.809,1.876-37.854,8.887-52.006,1.84-3.715,3.909-6.602,5.71-10.082l.12-.236c-2.169-10.15-1.689-28.212-.07-38.483.93-4.909,2.666-15.629,7.1-18.432,6.293-3.979,20.439,5.844,26.195,8.773,2.512,1.279,4.39,3.68,7.289,4.182.078.01.156.02.234.03l-.158.499c.484.824.442.824,1.256,1.419l.291-.013c1.443,1.212,3.198,2.845,4.657,3.918l1.812,1.872c.925.774,2.571,2.56,3.479,3.499,15.142-4.1,33.158-4.95,48.356-.394Z" fill="#431d12"/><path d="M328.529,223.529c8.894.844,17.412,4.005,24.703,9.168,1.399.976,4.023,3.489,4.959,4.07l2.203,2.364c10.153,11.995,14.787,21.957,18.709,37.187.985,3.826,1.507,8.539,2.987,12.132.844,2.047,4.756,2.12,6.194,3.346,2.545,2.17,8.156,12.79,9.192,15.787-1.705.779-.675,2.43-2.543,2.637-.787,1.954-2.181,4.914-3.618,6.453l-.214.009c-1.045-2.785-1.849-4.397-3.458-6.873-4.093.09-2.941.413-6.315,1.346l-.358.096c-.993,1.079.491.442-.745,1.222-1.822.084-5.405,2.87-9.541,3.317l-1.171.748c-9.721,1.065-13.028-.27-21.407-4.632-.78-1.205-4.652-2.772-6.326-5.641-1.05,1.565-1.798,3.298-3.884,3.34-3.128,1.567-6.223,4.379-9.479,6.022-8.959,4.519-19.011,8.329-29.126,8.852-.325.015-.242.013-.569.093-2.257.196-2.015-.309-4.656.264-.286.999-.628,2.435-1.06,3.33l-.348-.059c-2.452,2.713-5.058,5.819-7.555,8.4-7.281,7.495-15.289,14.248-23.905,20.16-2.234,1.563-7.93,5.371-10.346,6.595-.495-1.925-1.369-3.666-2.197-5.472l-.141-.058c-6.355-9.392-11.35-11.378-22.14-12.245,2.293-2.581,4.714-5.023,7.122-7.497,1.264-1.423,2.442-2.729,3.77-4.09,2.115-2.335,4.207-4.692,6.276-7.068l1.452-1.735c.255-.317.475-.492.775-.769,1.742-2.279,3.134-4.486,4.684-6.892,1.703-.662,7.781-2.61,8.501-3.838,1.458-.831,5.272-2.253,7.031-3.049,1.676-.757,5.66-2.812,7.171-3.306,8.969-4.343,18.593-13.243,24.916-20.798-3.335-1.246-8.245-2.545-11.703-3.544-2.091-.756-7.87-1.818-9.188-3.432l.518-.233-.427.37.629-.395c2.969-.105,6.937,1.157,9.893,1.928.807-1.281,1.654-2.309,2.592-3.485-4.111-.745-18.173-2.474-19.041-7.406-.889-5.054,10.379-5.968,13.753-6.164,2.536-.342,8.207-.266,11.173-.405.697-1.772,2.765-6.605,2.604-8.222l-.579-.237c.179-.094,1.216-.175,1.704-.291,2.164-.186,4.326-.394,6.485-.624.114-3.549.289-12.322-.399-15.658-.191-1.631-.395-3.821-.919-5.329-.595-1.158-.153-.749-1.412-1.226.616-.115,1.222-.263,1.833-.405,4.519-.312,11.174-.279,15.78-.344,1.525.11,3.518-.004,4.806.369l.223.292c-1.706.908-5.851.874-7.755,1.454,4.229-.124,5.964,2.644,9.405,5.087,3.39-.013,9.636-.252,12.792-.04,1.361-.169,4.229-.177,5.705-.223-2.542-3.023-5.064-6.096-8.062-8.673-.5-.157-2.851-1.284-3.466-1.563-1.279-.939-6.298-3.503-6.854-4.256l.367-.261Z" fill="#f0b56d"/><path d="M305.587,231.687c4.519-.312,11.174-.279,15.78-.344,1.525.11,3.518-.004,4.806.369l.223.292c-1.706.908-5.851.874-7.755,1.454,4.229-.124,5.964,2.644,9.405,5.087,3.39-.013,9.636-.252,12.792-.04,4.554.35,10.584-.386,14.888.277-.551.197-.69.202-1.27.312l-.181.184c-2.252.247-4.681.341-6.804.593,3.606,5.311,6.101,10.483,7.199,17.081.377,2.268,1.607,13.262-3.51,12.425-1.962-.321-4.171-4.782-5.122-6.659-.726.031-2.029.134-2.706.052l-11.057.64c-2.617-.077-7.693.692-10.828.82-.71,1.602.041,1.938-.767,3.404,1.076,2.179,4.23,9.163,4.71,11.489.411.576.419.434.573,1.064l-11.86-1.542c-.441.092-.945.057-1.117.43-1.443,3.131-2.301,5.754-4.378,8.603,3.382,1.271,10.64,3.743,13.26,5.659l.382.277c-4.748-1.068-10.055-2.803-14.667-4.361-1.884-.607-4.264-1.448-6.141-1.935-6.122,7.608-12.256,12.89-21.09,17.305-1.854.926-5.149,2.631-7.198,2.621,8.969-4.343,18.593-13.243,24.916-20.798-3.335-1.246-8.245-2.545-11.703-3.544-2.091-.756-7.87-1.818-9.188-3.432l.518-.233-.427.37.629-.395c2.969-.105,6.937,1.157,9.893,1.928.807-1.281,1.654-2.309,2.592-3.485-4.111-.745-18.173-2.474-19.041-7.406-.889-5.054,10.379-5.968,13.753-6.164,2.536-.342,8.207-.266,11.173-.405.697-1.772,2.765-6.605,2.604-8.222l-.579-.237c.179-.094,1.216-.175,1.704-.291,2.164-.186,4.326-.394,6.485-.624.114-3.549.289-12.322-.399-15.658-.191-1.631-.395-3.821-.919-5.329-.595-1.158-.153-.749-1.412-1.226.616-.115,1.222-.263,1.833-.405Z" fill="#431d12"/><path d="M318.642,233.458c4.229-.124,5.964,2.644,9.405,5.087,3.39-.013,9.636-.252,12.792-.04,4.554.35,10.584-.386,14.888.277-.551.197-.69.202-1.27.312l-.181.184c-2.252.247-4.681.341-6.804.593,3.606,5.311,6.101,10.483,7.199,17.081.377,2.268,1.607,13.262-3.51,12.425-1.962-.321-4.171-4.782-5.122-6.659-.726.031-2.029.134-2.706.052l-.033-.414c-1.048-.581-9.789-.297-11.789-.369l-1.415.037-9.006.322c-.059-4.812-.611-7.41-1.988-12.08-1.459-.009-8.045-.287-8.809.41l-.297,2.049c-.133-2.277-.108-7.239-.002-9.47l.008-3.173c-.59-.2-1.081-.393-1.657-.619l.086-.286,1.311-.417c-.01-1.485-.996-3.64-.197-4.71l.992-.071c2.705-.128,5.407-.302,8.105-.521Z" fill="#a5653a"/><path d="M318.642,233.458c4.229-.124,5.964,2.644,9.405,5.087,3.39-.013,9.636-.252,12.792-.04,4.554.35,10.584-.386,14.888.277-.551.197-.69.202-1.27.312l-.181.184c-2.252.247-4.681.341-6.804.593-5.578.266-11.604.161-17.002.56l-.01.397c2.136,1.867,5.849,5.366,7.16,7.874l.135.461c-2.495.489-8.941.764-11.747.953l-.554-.265c-2.274.278-4.053.343-6.353.415-1.459-.009-8.045-.287-8.809.41l-.297,2.049c-.133-2.277-.108-7.239-.002-9.47l.008-3.173c-.59-.2-1.081-.393-1.657-.619l.086-.286,1.311-.417c-.01-1.485-.996-3.64-.197-4.71l.992-.071c2.705-.128,5.407-.302,8.105-.521Z" fill="#f0b56d"/><path d="M318.642,233.458c4.229-.124,5.964,2.644,9.405,5.087,3.39-.013,9.636-.252,12.792-.04,4.554.35,10.584-.386,14.888.277-.551.197-.69.202-1.27.312l-.181.184c-2.252.247-4.681.341-6.804.593-5.578.266-11.604.161-17.002.56l-.01.397c-3.542.356-9.046.894-12.461,1.536l-.33-.696-1.265-.515.072-.811c-2.004-.19-4.432-.2-6.475-.26-.59-.2-1.081-.393-1.657-.619l.086-.286,1.311-.417c-.01-1.485-.996-3.64-.197-4.71l.992-.071c2.705-.128,5.407-.302,8.105-.521Z" fill="#faeecb"/><path d="M318.642,233.458c4.229-.124,5.964,2.644,9.405,5.087-4.403-.052-8.758-.125-13.163.009-1.486.091-3.734.291-5.142.206-.01-1.485-.996-3.64-.197-4.71l.992-.071c2.705-.128,5.407-.302,8.105-.521Z" fill="#f0b56d"/><path d="M309.742,238.76c-.01-1.485-.996-3.64-.197-4.71l.992-.071c1.398,1.696,2.792,3.037,4.347,4.575-1.486.091-3.734.291-5.142.206Z" fill="#874a2b"/><path d="M316.476,240.342c5.066.15,8.93.259,13.994.089l-.01.397c-3.542.356-9.046.894-12.461,1.536l-.33-.696-1.265-.515.072-.811Z" fill="#c47c4b"/><path d="M310.002,240.082c2.042.06,4.471.07,6.475.26l-.072.811,1.265.515-1.263.541c.207,1.324,1.678,4.584,2.274,6.053l.512.226c.669-.004,1.783-.048,2.399.045.793.08,1.881.156,2.632.309l.039.102c-.88.247-1.123.282-2.038.397,1.724.662,2.126.152,3.231.509-2.274.278-4.053.343-6.353.415-1.459-.009-8.045-.287-8.809.41l-.297,2.049c-.133-2.277-.108-7.239-.002-9.47l.008-3.173Z" fill="#874a2b"/><path d="M309.994,243.254l.177.013.037,5.409c1.744.025,7.512.176,8.984-.187.669-.004,1.783-.048,2.399.045.793.08,1.881.156,2.632.309l.039.102c-.88.247-1.123.282-2.038.397,1.724.662,2.126.152,3.231.509-2.274.278-4.053.343-6.353.415-1.459-.009-8.045-.287-8.809.41l-.297,2.049c-.133-2.277-.108-7.239-.002-9.47Z" fill="#6d321d"/><path d="M310.002,240.082c2.042.06,4.471.07,6.475.26l-.072.811-.326.436c-1.548.188-5.378.247-5.908,1.679l-.177-.013.008-3.173Z" fill="#6d321d"/><path d="M317.669,241.668l.33.696c1.401,1.528,3.87,4.095,4.673,5.887l-1.081.283c-.616-.093-1.729-.05-2.399-.045l-.512-.226c-.595-1.469-2.066-4.729-2.274-6.053l1.263-.541Z" fill="#a5653a"/><path d="M322.672,248.251c2.578.305,12.233.53,14.949.45l.135.461c-2.495.489-8.941.764-11.747.953l-.554-.265c-1.105-.357-1.507.153-3.231-.509.915-.114,1.158-.15,2.038-.397l-.039-.102c-.751-.153-1.839-.229-2.632-.309l1.081-.283Z" fill="#874a2b"/><path d="M337.756,249.162c2.048,1.279,6.82,10.406,7.935,12.745-3.638-.116-10.921-.479-14.18.079l-1.415.037-9.006.322c-.059-4.812-.611-7.41-1.988-12.08,2.3-.072,4.079-.137,6.353-.415l.554.265c2.806-.19,9.252-.465,11.747-.953Z" fill="#f0b56d"/><path d="M325.455,249.851l.554.265-1.512.261c.35,1.05,1.496,2.486,2.067,3.54,1.309,2.413,2.851,5.458,3.531,8.107l-9.006.322c-.059-4.812-.611-7.41-1.988-12.08,2.3-.072,4.079-.137,6.353-.415Z" fill="#a5653a"/><path d="M290.386,277.652c-4.111-.745-18.173-2.474-19.041-7.406-.889-5.054,10.379-5.968,13.753-6.164l.39.08c3.295.664,4.646.159,7.503.372l-2.225.436.014.288-.346.107c-3.058.923-6.232.766-9.391,2.501l-.091.348c2.383.588,10.432-.904,13.355-1.272l.559.233c.114,1.318-1.469,6.242-2.713,6.703-2.434-.239-10.888-1.444-12.393-.32.567,1.249,3.515,1.373,4.83,1.499,4.835.463,9.636,1.108,14.442,1.797,1.332.192,3.491.273,4.635.781-.146.648-.047.463-.435.947-.4-.163-11.136-.726-12.846-.929Z" fill="#a5653a"/><path d="M316.798,264.638c.748-.21,3.608-.319,4.65-.409-.71,1.602.041,1.938-.767,3.404,1.076,2.179,4.23,9.163,4.71,11.489-3.868-.816-7.829-1.751-11.738-2.251,1.461-4.196.947-5.095,1.29-9.447.43-.064.861-.124,1.291-.18-.231-.745-.636-.749-1.521-1.292l-.028-.405c.463-.564,1.007-.648,1.716-.885l.397-.023Z" fill="#f0b56d"/><path d="M316.798,264.638c.748-.21,3.608-.319,4.65-.409-.71,1.602.041,1.938-.767,3.404-1.701-2.482-.554-2.88-3.882-2.995Z" fill="#a5653a"/><path d="M294.307,266.942c1.497-.403,4.262-.819,5.796-.863l-.065.353c-.101-.049,7.333,2.089,7.214,2.073-.547,2.764-1.08,4.311-2.33,6.849-1.901-.201-11.524-.984-12.768-1.477,1.245-.461,2.827-5.385,2.713-6.703l-.559-.233Z" fill="#874a2b"/><path d="M299.999,254.928c2.164-.186,4.326-.394,6.485-.624-.045,3.479.214,5.546.637,8.979l-16.341,1.974-.014-.288,2.225-.436c-2.857-.213-4.208.292-7.503-.372l-.39-.08c2.536-.342,8.207-.266,11.173-.405.697-1.772,2.765-6.605,2.604-8.222l-.579-.237c.179-.094,1.216-.175,1.704-.291Z" fill="#c47c4b"/><path d="M309.995,252.725l.297-2.049c.764-.697,7.35-.418,8.809-.41,1.377,4.67,1.929,7.268,1.988,12.08-1.115.103-2.021.207-3.153.171-1.512-1.836-6.137-8.287-7.552-9.424l-.437.35.047-.718Z" fill="#874a2b"/><path d="M290.386,277.652c1.71.203,12.447.766,12.846.929-1.259,2.218-2.36,4.035-3.905,6.081-3.844-1.232-7.634-2.476-11.534-3.525.807-1.281,1.654-2.309,2.592-3.485Z" fill="#c47c4b"/><path d="M310.593,265.164c1.925-.189,3.878-.404,5.808-.503-.709.238-1.253.321-1.716.885l.028.405c.884.543,1.289.547,1.521,1.292-.431.056-.861.116-1.291.18-.343,4.352.172,5.251-1.29,9.447-2.035-.239-3.467-.482-5.477-.894,1.975-4.023,2.349-6.412,2.418-10.812Z" fill="#c47c4b"/><path d="M307.517,277.955c1.792.312,4.679.486,6.588.689-.441.092-.945.057-1.117.43-1.443,3.131-2.301,5.754-4.378,8.603-1.016-.208-4.748-1.518-5.938-1.903,1.814-2.659,3.22-5.044,4.845-7.819Z" fill="#c47c4b"/><path d="M309.949,253.443l.437-.35c1.415,1.137,6.04,7.588,7.552,9.424l-7.362.589c-.422-3.204-.632-6.432-.626-9.663Z" fill="#a5653a"/><path d="M300.102,266.079c2.202-.254,5.411-1.224,6.855-.368.564,1.009.337,1.453.294,2.794.119.015-7.315-2.122-7.214-2.073l.065-.353Z" fill="#a5653a"/><path d="M301.443,287.315c1.877.487,4.257,1.328,6.141,1.935-9.423,11.328-18.636,19.072-32,25.389-2.09.988-16.917,7.078-16.976,7.488l-1.184-.349c-2.817-.281-6.745-1.105-8.556.848-.386.417-2.231,1.941-2.73,2.031l-.37-.332c1.742-2.279,3.134-4.486,4.684-6.892,1.703-.662,7.781-2.61,8.501-3.838,1.458-.831,5.272-2.253,7.031-3.049,1.676-.757,5.66-2.812,7.171-3.306,2.049.01,5.344-1.695,7.198-2.621,8.834-4.414,14.967-9.697,21.09-17.305Z" fill="#c47c4b"/><path d="M248.653,357.788c2.058-.776,6.338-4.11,8.433-5.581,9.932-6.858,19.091-14.773,27.316-23.607,3.328-3.633,6.82-8.512,10.074-11.817l.273-.275-.049,4.992-.636,3.334c-.286.999-.628,2.435-1.06,3.33l-.348-.059c-2.452,2.713-5.058,5.819-7.555,8.4-7.281,7.495-15.289,14.248-23.905,20.16-2.234,1.563-7.93,5.371-10.346,6.595-.495-1.925-1.369-3.666-2.197-5.472Z" fill="#c47c4b"/><path d="M328.529,223.529c8.894.844,17.412,4.005,24.703,9.168,1.399.976,4.023,3.489,4.959,4.07l2.203,2.364c10.153,11.995,14.787,21.957,18.709,37.187.985,3.826,1.507,8.539,2.987,12.132.844,2.047,4.756,2.12,6.194,3.346,2.545,2.17,8.156,12.79,9.192,15.787-1.705.779-.675,2.43-2.543,2.637.091-.254.467-1.448.408-1.666-.809-3.056-5.545-11.801-8.073-13.475-9.388-6.216-7.257-8.299-10.043-18.588-3.63-13.406-10.171-27.297-20.47-37.149-.874.015-1.605-.019-2.478-.064l.181-.184c.58-.11.718-.116,1.27-.312-4.304-.663-10.334.073-14.888-.277,1.361-.169,4.229-.177,5.705-.223-2.542-3.023-5.064-6.096-8.062-8.673-.5-.157-2.851-1.284-3.466-1.563-1.279-.939-6.298-3.503-6.854-4.256l.367-.261Z" fill="#f9ecb3"/><path d="M338.482,229.609c4.1.404,13.611,6.335,17.352,8.649l-9.29.024c-2.542-3.023-5.064-6.096-8.062-8.673Z" fill="#f0b56d"/><path d="M299.852,320.316c3.5-2.658,12.755-4.7,17.617-6.452,5.773-2.064,11.413-4.482,16.888-7.24,2.973-1.523,6.056-4.428,8.794-6.501.274.002.549.004.823.006-.035,2.003-1.313,4.321-2.196,6.136-1.05,1.565-1.798,3.298-3.884,3.34-3.128,1.567-6.223,4.379-9.479,6.022-8.959,4.519-19.011,8.329-29.126,8.852-.325.015-.242.013-.569.093-2.257.196-2.015-.309-4.656.264l.636-3.334c2.809.343,2.3-.431,4.912-1.124l.24-.061Z" fill="#faeecb"/><path d="M294.7,321.502c2.809.343,2.3-.431,4.912-1.124l.24-.061c-.08.119-.967,1.435-.967,1.435-.842.52-1.255.166-1.491,1.037.487.9.621,1.017,1.326,1.783-2.257.196-2.015-.309-4.656.264l.636-3.334Z" fill="#e9c298"/><path d="M343.974,300.128c-.035,2.003-1.313,4.321-2.196,6.136-1.05,1.565-1.798,3.298-3.884,3.34,2.77-2.242,4.6-6.274,6.08-9.476Z" fill="#874a2b"/><path d="M245.768,324.326l.37.332c.499-.09,2.343-1.614,2.73-2.031,1.811-1.954,5.739-1.13,8.556-.848l1.184.349c5.777,1.422,10.992,4.763,14.158,9.875.982,1.587,3.225,6.173.483,7.197-4.21,1.571-7.777-2.718-10.795-4.976-1.56-1.167-2.979-2.404-4.69-3.364-3.315-1.876-7.182-2.969-10.899-3.709-1.087-.216-2.16-.114-3.326-.32l1.452-1.735c.255-.317.475-.492.775-.769Z" fill="#a5653a"/><path d="M245.768,324.326l.37.332c.499-.09,2.343-1.614,2.73-2.031,1.811-1.954,5.739-1.13,8.556-.848-.548,1.078-10.128,4.34-11.662,4.109l-.77-.792c.255-.317.475-.492.775-.769Z" fill="#874a2b"/><path d="M321.448,264.229c3.135-.128,8.211-.896,10.828-.82-.506.146-.882.264-1.375.446,1.01,4.78,3.887,13.543,1.158,18.467-1.704,3.076-5.191.995-6.096-2.137-.155-.63-.163-.488-.573-1.064-.481-2.325-3.635-9.309-4.71-11.489.809-1.466.058-1.802.767-3.404Z" fill="#a5653a"/><path d="M237.265,333.898c7.322-.04,13.003,1.15,18.378,6.401,1.727,1.687,4.669,5.96,3.223,8.347-3.314,1.9-9.717-5.51-13.332-7.246-5.007-2.405-7.05-2.347-12.04-3.412,1.264-1.423,2.442-2.729,3.77-4.09Z" fill="#a5653a"/><path d="M370.683,315.789c2.262-2.825,3.951-5.254,5.637-8.495,1.632-3.138,2.987-6.534,5.046-9.4,1.095-.342.58-.363,1.599-.033,3.187,3.236-.237,10.089-1.997,13.388-.993,1.079.491.442-.745,1.222-1.822.084-5.405,2.87-9.541,3.317Z" fill="#a5653a"/><path d="M369.966,280.108c7.499.152,3.371,14.103,1.804,18.009-2.34,5.831-8.083,13.924-14.143,16.156-2.751.516-2.925.006-4.217-2.301,1.672-5.457,6.424-10.73,8.829-16.101,1.954-4.363,3.315-8.86,5.28-13.193.573-1.264,1.322-1.797,2.448-2.571Z" fill="#a5653a"/><path d="M341.778,306.264c1.674,2.869,5.546,4.436,6.326,5.641.366,2.558,4.597,6.571,6.676,8.172,2.188,1.684,5.255,2.912,6.38,5.205-7.291-.675-12.832-4.556-18.043-9.381-.906-.838-3.206-3.024-4.201-3.512-1.405,1.642,2.585,5.874,3.664,7.174-13.894,12.848-25.861,19.725-44.493,24.307-6.241,1.535-12.284,2.702-18.766,2.911.996-1.021,1.688-1.814,2.867-2.635.578-1.051,1.025-1.397,1.89-2.26,3.92-4.549,6.738-8.157,8.927-13.721.432-.895.774-2.331,1.06-3.33,2.641-.573,2.399-.069,4.656-.264.327-.08.244-.078.569-.093,10.115-.523,20.167-4.333,29.126-8.852,3.256-1.642,6.351-4.454,9.479-6.022,2.086-.043,2.834-1.775,3.884-3.34Z" fill="#d4a884"/><path d="M284.078,341.886c4.715.271,9.57-.638,14.074-.394-3.926.908-11.989,2.5-15.964,2.654.578-1.051,1.025-1.397,1.89-2.26Z" fill="url(#b)"/><path d="M144.963,145.036c.345-.37.896-.663,1.344-.947,7.803,1.851,20.573,18.666,21.75,26.459-.783.384-1.792.921-2.593,1.175-1.154.651-2.611,1.523-3.765,2.109l-.851.447-1.187.74c-6.488,4.756-9.968,7.74-15.932,13.167-1.097,1.299-3.138,3.79-4.333,4.886-1.48-6.111-2.346-19.963-1.621-26.264l.213,2.401c.298-3.253.128-12.924,2.446-14.865.207,1.01-.481,2.652-.594,4.132-.261,3.429-.821,7.134-.618,10.567.093-.373.374-5.015.488-6.022.62-5.465,1.293-9.987,2.711-15.345.805-.71,1.791-1.832,2.544-2.64Z" fill="url(#c)"/><path d="M144.963,145.036c.345-.37.896-.663,1.344-.947,7.803,1.851,20.573,18.666,21.75,26.459-.783.384-1.792.921-2.593,1.175-1.154.651-2.611,1.523-3.765,2.109-.367-.481-.876-1.019-1.285-1.48-1.035-.242-1.635-.338-2.69-.472-.643-.699-1.696-1.575-2.431-2.226-.737-.404-.778-.355-1.258-1.02l.198-.391c1.604-.763,3.508-.456,5.212-.232-1.054-2.178-1.927-4.848-3.072-7.195-3.169-6.496-6.61-10.558-11.407-15.781Z" fill="#dd7f6d"/><path d="M146.307,144.089c7.803,1.851,20.573,18.666,21.75,26.459-.783.384-1.792.921-2.593,1.175-1.154.651-2.611,1.523-3.765,2.109-.367-.481-.876-1.019-1.285-1.48-1.035-.242-1.635-.338-2.69-.472-.643-.699-1.696-1.575-2.431-2.226-.737-.404-.778-.355-1.258-1.02l.198-.391c1.604-.763,3.508-.456,5.212-.232,2.249.559,4.511,1.373,6.712,2.118-2.899-7.424-8.979-16.348-14.603-21.864-1.98-1.942-3.276-2.567-5.244-4.177Z" fill="#431d12"/><path d="M160.413,172.352c-.663-.771-1.459-1.54-1.768-2.483,2.367.425,4.527,1.146,6.819,1.854-1.154.651-2.611,1.523-3.765,2.109-.367-.481-.876-1.019-1.285-1.48Z" fill="#cc9865"/><path d="M155.291,169.655c1.041-.264,2.414-.41,3.353.215.31.943,1.105,1.712,1.768,2.483-1.035-.242-1.635-.338-2.69-.472-.643-.699-1.696-1.575-2.431-2.226Z" fill="#6d321d"/><path d="M155.076,175.582c2.302-.911,1.448-1.672,4.583-.562-6.488,4.756-9.968,7.74-15.932,13.167-.396-3.974,8.512-10.674,11.349-12.604Z" fill="#431d12"/><path d="M151.054,174.054c-.555-.405-.359-.13-.654-.791l.417-.537c2.153-1.008,4.557-.864,6.906-.846,1.056.133,1.656.23,2.69.472.409.461.918.999,1.285,1.48l-.851.447-1.187.74c-3.135-1.11-2.281-.349-4.583.562-1.346-.497-2.687-1.006-4.023-1.528Z" fill="#431d12"/><path d="M151.054,174.054c5.663-.937,4.881.011,9.793.225l-1.187.74c-3.135-1.11-2.281-.349-4.583.562-1.346-.497-2.687-1.006-4.023-1.528Z" fill="#874a2b"/><path d="M226.373,345.485c10.79.867,15.785,2.853,22.14,12.245l.141.058c.828,1.806,1.702,3.547,2.197,5.472-5.421,3.267-10.641,6.806-17.245,6.718-.686-.015-2.057-.18-2.486.141-.345-1.679-.312-2.707-.328-4.417-2.346.027-7.523-.548-8.472-2.921.667-1.81,2.001-3.554,2.236-5.013l-.32-.223c-1.881.804-2.26,1.824-3.36,3.574l-3.723-.224c-.069-6.552,4.967-10.918,9.221-15.409Z" fill="#faeecb"/><path d="M248.512,357.73l.141.058c.828,1.806,1.702,3.547,2.197,5.472-5.421,3.267-10.641,6.806-17.245,6.718-.819-1.815-.696-2.77-.624-4.714,3.979-.46,13.416-4.264,15.531-7.534Z" fill="#d4a884"/><path d="M230.79,365.703c.366-1.338,1.716-5.224,3.553-4.822.131.542-1.05,3.391-1.362,4.384-.072,1.944-.196,2.899.624,4.714-.686-.015-2.057-.18-2.486.141-.345-1.679-.312-2.707-.328-4.417Z" fill="#431d12"/><path d="M279.416,137.831l1.192.166c.645.426,1.291.823,1.882,1.321.749.944,1.543,2.104,2.514,2.76l.289-.101c.868,1.204,1.465,2.726,1.983,4.112,6.236,16.675,8.143,35.672,5.8,53.278.75,1.171,2.166,3.316,2.7,4.571l-1.446-.003c-.819-.871-1.333-1.705-1.927-2.739-1.951-3.398-3.982-6.558-6.451-9.601l-.244-.411c.616-4.28,1.423-6.653,1.648-11.344-.24-2.308.066-6.476-.165-9.168-.842-9.853-2.421-20.081-7.421-28.71l-.051-.177c-.931-.853-1.773-1.558-2.557-2.552l2.253-1.401Z" fill="#c47c4b"/><path d="M287.356,179.839c.656,2.431-.328,3.879.394,5.547l.282.08c.166-2.418.294-3.765.715-6.147.173,2.567-.301,9.192-1.838,11.597-.096.15-.818.591-.958.677l-.244-.411c.616-4.28,1.423-6.653,1.648-11.344Z" fill="#874a2b"/><path d="M277.163,139.232l2.253-1.401c1.128,1.476,1.089,2.246.304,3.953-.931-.853-1.773-1.558-2.557-2.552Z" fill="#a5653a"/><path d="M146.016,141.026c11.78,2.715,27.469,12.841,35.971,21.409-2.146,1.058-7.231,3.357-8.361,5.317l-.02.306c-1.499.791-3.95,1.982-5.55,2.49-1.177-7.794-13.946-24.608-21.75-26.459-.448.284-.999.576-1.344.947-.754.808-1.74,1.93-2.544,2.64.643-3.21,1.144-4.492,3.598-6.65Z" fill="#f0b56d"/><path d="M380.969,311.25l.358-.096c3.374-.933,2.222-1.256,6.315-1.346,1.609,2.476,2.414,4.088,3.458,6.873-4.085,5.583-7.727,5.271-12.65,8.004l-.514-.734c.165-.926,6.365-6.782,7.846-12.273-5.376,5.992-15.651,15.47-24.622,13.604-1.125-2.293-4.192-3.521-6.38-5.205-2.079-1.601-6.31-5.614-6.676-8.172,8.379,4.361,11.685,5.697,21.407,4.632l1.171-.748c4.135-.448,7.718-3.233,9.541-3.317,1.236-.78-.248-.143.745-1.222Z" fill="#c47c4b"/><path d="M370.683,315.789c4.135-.448,7.718-3.233,9.541-3.317-2.901,4.504-8.116,11.032-14.041,10.252l-.909-.12c1.581-2.496,2.42-3.725,4.238-6.067l1.171-.748Z" fill="#874a2b"/><path d="M391.1,316.681l.214-.009c-.068,2.012,2.337,5.4,3.758,6.83,2.544,2.56,4.761,4.042,8.387,4.144l.505.01c-1.437,4.834-4.365,1.838-7.439.44l-.193.226c.779,2.491,2.787,3.172,4.999,4.128-5.753,3.975-7.565,1.764-12.303-2.111,1.025,2.18,1.455,2.815,2.952,4.579-6.495-1.621-9.698-4.901-13.528-10.232,4.923-2.733,8.565-2.421,12.65-8.004Z" fill="#d4a884"/><path d="M137.774,166.807c-.03-1.707.184-5.508.568-7.875.895-5.515,2.037-16.128,5.988-20.109.499-.503,2.598-.441,3.335-.209,11.387,3.567,22.373,10.85,31.462,18.507,1.268,1.069,3.819,3.151,4.523,4.281-.378.649-.811.648-1.663,1.033-8.501-8.569-24.191-18.694-35.971-21.409-2.454,2.157-2.955,3.44-3.598,6.65-1.418,5.358-2.091,9.88-2.711,15.345-.114,1.007-.394,5.649-.488,6.022-.203-3.433.357-7.139.618-10.567.113-1.48.802-3.122.594-4.132-2.318,1.941-2.148,11.612-2.446,14.865l-.213-2.401Z" fill="#f9ecb3"/><path d="M394.932,310.22c1.869-.207.838-1.858,2.543-2.637,2.81,5.914,6.835,13.523,6.488,20.074l-.505-.01c-3.626-.102-5.843-1.583-8.387-4.144-1.421-1.43-3.826-4.818-3.758-6.83,1.436-1.539,2.831-4.499,3.618-6.453Z" fill="#faeecb"/><path d="M239.169,163.497c-.567-.712-.458-.329-.453-1.146,1.344-1.929,4.597-4.996,6.439-6.725,8.137-7.64,17.562-14.434,27.896-18.762,1.856-.778,4.472-1.713,6.497-1.604,1.346.072,2.476,1.602,3.345,2.608-.059,1.122.149.688-.403,1.451-.591-.498-1.237-.895-1.882-1.321-6.504-2.923-26.927,13.429-32.102,18.635-1.083,1.089-6.865,7.572-7.51,7.648-.863-.584-.814-.572-1.828-.783Z" fill="#f9ecb3"/><path d="M199.954,161.187c2.258-.713,17.357-1.176,19.563-.503-3.065.132-2.945.655-4.321,3.389l-.237.189c-4.081-.44-13.34.366-17.415,1.166.435-.993,1.795-3.14,2.41-4.241Z" fill="#d4a884"/><path d="M178.359,166.429c2.876-1.335,12.714-3.733,15.961-4.279-.991,1.433-1.784,2.605-2.669,4.105l-.397.362c-3.578.219-10.261,1.954-13.688,2.998.136-.539.85-2.205,1.092-2.818l-.3-.369Z" fill="#d4a884"/><path d="M222.318,362.782c.948,2.372,6.125,2.947,8.472,2.921.017,1.71-.017,2.738.328,4.417-.811-.054-1.618-.149-2.419-.285-5.331-.85-7.355-1.337-6.381-7.053Z" fill="#d4a884"/><path d="M124.193,239.588l2.331.277-.022.323c-.248,2.451-.903,9.551-.414,11.781-1.176-.184-1.111-.389-1.847.093-.345,1.199.056,1.828-.197,3.299-.322-4.023-.09-11.717.149-15.772Z" fill="#d4a884"/><path d="M121.888,264.814c-1.021-.274-.657-.001-1.274-.647-.199-2.029,1.342-4.29,2.347-6.138l1.337,1.034c-1.023,2.142-1.613,3.522-2.41,5.751Z" fill="#e9c298"/><path d="M217.151,360.895l3.723.224c-.782,1.873-.89,2.955-1.141,4.91-1.577-2.089-1.919-2.712-2.582-5.134Z" fill="#e9c298"/><path d="M120.327,272.99c.969.339.946.148,1.462,1.284.66,1.453,1.115,2.335,2.024,3.656-.31.092-.621.184-.931.277-2.126.481-2.416-3.518-2.555-5.216Z" fill="#e9c298"/><path d="M121.846,271.15c-1.094.07-1.031.263-1.676-.252-.547-1.449-.995-3.303.302-4.522l1.142.171c-.107.853-.331,2.098-.193,2.895.497.765.426.814.425,1.708Z" fill="#e9c298"/><path d="M282.894,137.867c1.077,1.612,1.57,2.366,2.399,4.11l-.289.101c-.971-.656-1.765-1.816-2.514-2.76.553-.763.345-.329.403-1.451Z" fill="#e9c298"/><path d="M154.887,314.943l2.37-1.124c3.539,1.721,7.579,2.325,9.868,3.498,7.445,2.2,12.365,3.531,20.025,4.566.183,1.977,3.009,2.388,4.091,4.237,1.131,2.423,5.486,5.743,7.658,7.532-12.328,3.995-24.727,8.044-37.624,9.787-4.12.659-12.189,1.758-16.264,1.698-2.135.221-6.387-.183-8.385-.939-4.42-1.086-6.429-1.998-9.255-5.58l.309.06c-.297-.781-.243-.57-.821-1.254-.65-.12-.35-.025-.907-.269-1.783-2.741-2.138-6.253-.398-9.104,3.589-5.88,11.112-7.658,17.259-9.423,3.113-.927,6.269-1.716,9.407-2.663l2.665-1.023Z" fill="#faeecb"/><path d="M154.887,314.943l2.37-1.124c3.539,1.721,7.579,2.325,9.868,3.498,7.445,2.2,12.365,3.531,20.025,4.566.183,1.977,3.009,2.388,4.091,4.237,1.131,2.423,5.486,5.743,7.658,7.532-12.328,3.995-24.727,8.044-37.624,9.787.537-1.84-2.212-7.947-3.009-9.96,2.024-.801,6.613-2.412,7.972-3.855-4.254-6.584-7.031-10.154-14.017-13.659l2.665-1.023Z" fill="#c47c4b"/><path d="M154.887,314.943l2.37-1.124c3.539,1.721,7.579,2.325,9.868,3.498.139.736.28.837.748,1.339,2.383,2.554,8.59,13.841,5.481,17.071-3.23,1.438-5.648-3.501-6.811-5.97l-.304-.132c-4.254-6.584-7.031-10.154-14.017-13.659l2.665-1.023Z" fill="#874a2b"/><path d="M154.887,314.943c4.864,2.034,12.752,7.294,16.014,11.357-1.225,1.264-2.831,2.584-4.358,3.458l-.304-.132c-4.254-6.584-7.031-10.154-14.017-13.659l2.665-1.023Z" fill="#a5653a"/><path d="M136.847,332.423c.573.869.911,1.568,1.782,2.121l.367-.177c.203-.733.175-.757.166-1.53,8.312,2.474,10.544,3.687,18.918.68l.187-.037c.797,2.013,3.546,8.12,3.009,9.96-4.12.659-12.189,1.758-16.264,1.698-2.135.221-6.387-.183-8.385-.939-4.42-1.086-6.429-1.998-9.255-5.58l.309.06c-.297-.781-.243-.57-.821-1.254-.65-.12-.35-.025-.907-.269.927-1.04,1.913-2.022,1.954-3.365.798,1.157,1.146,1.734,2.338,2.425l.333-.101c.263-1.368-.359-2.364-.899-3.711,1.448-.007,6.375.3,7.168.019Z" fill="#d4a884"/><path d="M136.627,344.198c-.458-.427-2.638-2.234-2.941-2.684-2.982-4.441-.124-5.848,4.121-6.022,4.129-.168,14.462,5.065,8.251,9.004-.345.22-.694.434-1.046.641-2.135.221-6.387-.183-8.385-.939Z" fill="#bd554e"/><path d="M152.222,315.966c6.986,3.505,9.763,7.075,14.017,13.659-1.359,1.443-5.948,3.054-7.972,3.855l-.187.037c-4.144-8.361-7.489-10.748-15.265-14.888,3.113-.927,6.269-1.716,9.407-2.663Z" fill="#f0b56d"/><path d="M127.908,333.791c-1.006-3.74-.224-6.123,2.41-8.907l.514.033c.277,1.782-1.458,3.633-1.184,7.126l.031.361c.54,1.347,1.162,2.343.899,3.711l-.333.101c-1.192-.691-1.539-1.268-2.338-2.425Z" fill="#431d12"/><path d="M136.847,332.423c-.231-2.359.982-8.362,4.224-7.594-.129,1.977-2.846,4.46-1.909,8.008.009.772.037.797-.166,1.53l-.367.177c-.871-.553-1.209-1.251-1.782-2.121Z" fill="#431d12"/><path d="M187.151,321.883c21.774,3.235,38.669,1.669,59.763-3.248-7.079,7.915-14.658,15.302-21.583,23.025-13.984-4.174-21.446-7.692-34.089-15.541-1.082-1.848-3.908-2.26-4.091-4.237Z" fill="#d4a884"/><path d="M340.811,325.94c.922,1.398,2.188,3.586,2.801,5.121,2.481,4.546,6.101,10.765,4.746,16.196-.199.798-.89,2.574-1.654,3-2.152-.643-3.939-2.179-5.896-2.646l-.248.22c1.014,2.227,3.122,3.166,5.203,4.137-2.782,1.183-4.589,1.894-7.545.518-.744-.772-2.387-2.768-3.426-2.63.005,1.014.578,1.783,1.089,2.682-5.311-2.353-7.627-4.731-11.466-8.931-1.089-1.156-2.363-2.904-3.359-4.197,4.889-2.471,8.396-4.426,12.84-7.851,2.383-1.836,4.574-3.819,6.915-5.619Z" fill="#d4a884"/><path d="M340.811,325.94c.922,1.398,2.188,3.586,2.801,5.121-3.215,5.24-9.19,9.948-15.21,11.622-.874.243-3.306.604-3.986.924-1.089-1.156-2.363-2.904-3.359-4.197,4.889-2.471,8.396-4.426,12.84-7.851,2.383-1.836,4.574-3.819,6.915-5.619Z" fill="#874a2b"/><path d="M125.582,279.383c.766,1.211,1.343,1.865,2.912,2.107,13.97,2.027,28.307-2.326,40.339-9.377,4.809-2.818,7.393-6.124,11.578-10.097,3.824-3.63,9.657-16.367,15.296-16.232,3.441.082,8.681,8.226,10.605,10.877,10.838,14.697,27.39,24.421,45.054,28.458,7.262,1.659,15.279,1.889,22.694,1.504,1.986-.108,8.015-.666,9.542-.557.842-.778,2.031-2.257,2.766-3.167,3.458.999,8.368,2.299,11.703,3.544-6.323,7.554-15.947,16.455-24.916,20.798-1.511.494-5.494,2.549-7.171,3.306-1.76.796-5.574,2.218-7.031,3.049-22.219,5.718-41.278,8.479-64.443,6.031-19.129-2.023-38.076-7.934-53.89-19.166-3.773-2.68-7.55-5.811-10.469-9.397-1.775-1.925-6.956-8.318-7.4-10.708.673-.538,1.918-.732,2.831-.972Z" fill="#faeecb"/><path d="M286.368,282.899c3.458.999,8.368,2.299,11.703,3.544-6.323,7.554-15.947,16.455-24.916,20.798-1.511.494-5.494,2.549-7.171,3.306-1.76.796-5.574,2.218-7.031,3.049-22.219,5.718-41.278,8.479-64.443,6.031-19.129-2.023-38.076-7.934-53.89-19.166-3.773-2.68-7.55-5.811-10.469-9.397,1.264.14,4.197,2.506,5.389,3.338,2.661,1.87,5.427,3.587,8.283,5.141,9.476,5.082,22.594,9.797,33.125,11.98,34.32,7.117,81.925,1.544,106.654-25.457.842-.778,2.031-2.257,2.766-3.167Z" fill="#d4a884"/><path d="M189.035,266.317l1.616-.078c2.728-.118,6.412-.304,8.544,1.654,1.233,3.289-5.231,5.313-5.88,7.588.508,2.585,3.463,5.266,6.055,5.756,3.661.693,5.297-2.151,7.852-3.923l.358.158c.528,5.46-5.733,7.185-10.213,5.992-2.173-.991-3.201-2.008-4.872-3.614-7.125,7.959-13.445.019-11.619-3.117,1.779.638,5.197,8.689,10.324.135,1.13-1.885-1.456-3.305-2.731-4.538-2.559-2.476-3.648-4.624.567-6.015Z" fill="#431d12"/><path d="M188.955,268.234c3.317-.199,4.961-.138,8.231.406-.83,1.149-1.321,1.641-2.308,2.629-.909.688-1.576.993-2.595,1.522-1.162-.841-4.614-3.1-3.327-4.557Z" fill="#dd7f6d"/><path d="M278.489,143.385c.466-.615.745-.88,1.282-1.425,5,8.628,6.578,18.857,7.421,28.71.23,2.693-.076,6.86.165,9.168-.225,4.691-1.033,7.064-1.648,11.344-1.457-.798-3.233-2.167-4.366-3.366-1.441-.596-6.4-4.617-8.048-5.755-3.147-2.175-6.37-4.336-9.564-6.463l-.881-.633c-1.05-.342-1.622-.36-2.093-1.398.227-.926.863-1.289,1.615-1.931,1.076-.926,2.369-1.594,3.216-2.695.58-.275,2.529-.015,3.211.101.488-.516.804-.876,1.249-1.43l-.138-.524c-1.34-.989-5.731-.287-7.6-.127,1.181-7.054,10.463-19.372,16.179-23.575Z" fill="#f7a38e"/><path d="M273.431,174.225c-.04,2.851.576,3.82.712,6.044,3.186,2.767,4.617,4.227,7.199,7.547-1.441-.596-6.4-4.617-8.048-5.755-3.147-2.175-6.37-4.336-9.564-6.463l-.881-.633c3.076-.417,8.506-.091,10.582-.74Z" fill="#431d12"/><path d="M273.431,174.225c-.04,2.851.576,3.82.712,6.044-2.988-2.24-6.566-5.758-10.413-4.671l-.881-.633c3.076-.417,8.506-.091,10.582-.74Z" fill="#dd7f6d"/><path d="M262.372,171.636c.643.274,1.29.541,1.939.802,3.056-.023,6.532-.139,9.12,1.788-2.075.649-7.506.323-10.582.74-1.05-.342-1.622-.36-2.093-1.398.227-.926.863-1.289,1.615-1.931Z" fill="#431d12"/><path d="M265.588,168.941c.58-.275,2.529-.015,3.211.101-1.911,1.228-2.758,1.901-4.488,3.395-.649-.261-1.296-.528-1.939-.802,1.076-.926,2.369-1.594,3.216-2.695Z" fill="#6d321d"/><path d="M197.544,165.429c4.075-.8,13.334-1.606,17.415-1.166-1.538,2.625-2.904,5.077-4.242,7.841-3.555,7.34-5.437,14.978-7.69,22.785-1.163,3.493-3.285,12.075-8.657,8.863-1.509-.903-2.343-4.272-2.518-5.961-1.157-11.172.658-22.133,5.52-32.268l.171-.093Z" fill="#a5653a"/><path d="M223.593,160.968c4.57.528,9.109,1.299,13.597,2.31l-1.019,1.653-.316.264c-1.561,3.565-3.296,6.832-4.815,10.538-2.24,5.64-4.042,10.989-6.922,16.371-1.945,3.635-7.018,4.636-8.037.527-2.27-9.151,1.289-20.261,5.395-28.482v-.127c.688-.916,1.453-2.093,2.117-3.053Z" fill="#a5653a"/><path d="M223.593,160.968c4.57.528,9.109,1.299,13.597,2.31l-1.019,1.653-.316.264c-4.077-.482-10.388-1.255-14.379-1.046v-.127c.688-.916,1.453-2.093,2.117-3.053Z" fill="#cc9865"/><path d="M306.086,238.647c.688,3.336.512,12.109.399,15.658-2.16.23-4.321.438-6.485.624-.488.116-1.525.197-1.704.291-4.315.581-26.632,1.808-21.367-7.521,2.493-4.418,20.114-7.408,25.086-8.141l.128.086c1.505-.038,3.453.442,3.945-.996Z" fill="#a5653a"/><path d="M306.086,238.647c.688,3.336.512,12.109.399,15.658-2.16.23-4.321.438-6.485.624l-.493-.144c.214.513,2.504-14.384,2.635-15.141,1.505-.038,3.453.442,3.945-.996Z" fill="#874a2b"/><path d="M178.359,166.429l.3.369c-.241.613-.956,2.279-1.092,2.818-2.717.691-5.495,1.934-8.03,3.092-13.859,6.331-23.858,17.605-31.381,30.599-6.707,11.584-10.15,23.33-11.632,36.558l-2.331-.277c.419-17.684,6.365-31.67,15.202-46.516,1.195-1.095,3.236-3.586,4.333-4.886,5.964-5.426,9.444-8.411,15.932-13.167l1.187-.74.851-.447c1.155-.586,2.611-1.458,3.765-2.109.801-.254,1.811-.791,2.593-1.175,1.601-.508,4.052-1.699,5.55-2.49,1.467-.436,3.277-1.119,4.753-1.629Z" fill="#f9ecb3"/><path d="M307.646,225.265c.519-.041,3.865-.883,4.667-1.073,3.946-.933,12.339-1.776,16.215-.664l-.367.261c.556.753,5.575,3.317,6.854,4.256.616.279,2.966,1.407,3.466,1.563,2.998,2.577,5.52,5.65,8.062,8.673-1.477.046-4.344.054-5.705.223-3.156-.212-9.402.027-12.792.04-3.441-2.443-5.176-5.211-9.405-5.087,1.904-.58,6.049-.546,7.755-1.454l-.223-.292c-1.289-.373-3.281-.258-4.806-.369,1.205-.22,4.357-.28,5.728-.358,2.736-.155,4.761-.385,7.474-.831-6.711-.855-13.142-.025-19.205-.693-.72-.198-2.09-1.058-2.797-1.466-.744-.081-3.604-2.166-4.921-2.73Z" fill="#a5653a"/><path d="M307.646,225.265c.519-.041,3.865-.883,4.667-1.073,3.946-.933,12.339-1.776,16.215-.664l-.367.261c.556.753,5.575,3.317,6.854,4.256l-.26-.007c-2.98-.101-6.105-.649-9.106-.8-4.452-.223-8.687.13-13.082.757-.744-.081-3.604-2.166-4.921-2.73Z" fill="#cc9865"/><path d="M177.567,169.616c3.427-1.044,10.109-2.78,13.688-2.998-2.848,4.843-4.521,9.275-6.544,14.657-1.167,3.102-3.087,15.82-8.702,12.887-2.592-1.354-2.446-7.075-2.308-9.552.183-5.326,1.775-10.157,3.867-14.994Z" fill="#a5653a"/><path d="M274.356,141.979c.255-.455,2.19-2.63,2.808-2.747.784.994,1.626,1.699,2.557,2.552l.051.177c-.537.544-.816.81-1.282,1.425-5.716,4.204-14.998,16.522-16.179,23.575-1.463.308-6.815,1.477-8.035,1.493,4.239-9.96,11.606-18.073,19.388-25.367.504-.57.358-.394.692-1.108Z" fill="#dd7f6d"/><path d="M307.646,225.265c1.317.564,4.178,2.649,4.921,2.73.707.408,2.077,1.267,2.797,1.466,6.063.668,12.493-.162,19.205.693-2.713.446-4.738.676-7.474.831-1.371.078-4.523.138-5.728.358-4.606.065-11.261.032-15.78.344-.611.141-1.217.29-1.833.405,1.259.476.817.068,1.412,1.226l-3.42-.171c-2.131-.256-8.358-.344-9.961-1.21-3.381-.37-6.406-.346-9.737-1.037,3.998-.476,8.014-.79,12.037-.94,3.161-.112,7.187-.086,10.215-.411l.335-.025,3.889-.049c-.399-1.415-.884-2.756-.879-4.209Z" fill="#faeecb"/><path d="M307.646,225.265c1.317.564,4.178,2.649,4.921,2.73.707.408,2.077,1.267,2.797,1.466l-6.839.013c-.399-1.415-.884-2.756-.879-4.209Z" fill="#f0b56d"/><path d="M291.786,231.936c4.51.083,9.206-.261,13.801-.249-.611.141-1.217.29-1.833.405,1.259.476.817.068,1.412,1.226l-3.42-.171c-2.131-.256-8.358-.344-9.961-1.21Z" fill="#6d321d"/><path d="M284.301,206.31c4.982-.019,9.965-.003,14.947.049,2.79.053,8.149.341,10.786.043,2.366.068,9.636.116,11.553.446,1.132.579,1.754.716,3.019.905l-.176-.1.312.146c-1.168.165-1.707.109-2.658.782-6.641.207-12.658-.028-19.171.002.421,1.225.858,2.462,1.264,3.69-1.232.115-2.743.212-3.943.381l-.234.026c-.722-.161-1.293-.215-2.023-.305-1.153-2.694-.339-3.998-3.634-4.678-2.536-.103-7.823-.225-10.042-1.386Z" fill="#431d12"/><path d="M294.343,207.697c1.015.017,2.369-.004,3.35.084.498,1.103,1.742,4.045,2.307,4.9-.722-.161-1.293-.215-2.023-.305-1.153-2.694-.339-3.998-3.634-4.678Z" fill="#cc9865"/><path d="M124.839,259.178c13.947,2.738,9.634,10.608-3.418,10.264-.138-.797.086-2.042.193-2.895,1.314.374,4.019.985,5.24.371l-.057-.453c-1.415-1.101-3.131-1.275-4.91-1.652.796-2.229,1.387-3.609,2.41-5.751l.542.116Z" fill="#a5653a"/><path d="M274.356,141.979c-.334.713-.189.537-.692,1.108-7.782,7.294-15.149,15.408-19.388,25.367-.866,1.419-1.329,1.202-2.971,1.224-.623-1.857,2.381-6.517,3.426-8.074,5.017-7.47,11.689-15.188,19.625-19.625Z" fill="#431d12"/><path d="M126.502,240.188c2.632,1.312,6.816,3.359,7.64,6.315,1.291,4.631-5.228,5.308-8.053,5.466-.49-2.23.165-9.33.414-11.781Z" fill="#a5653a"/><path d="M295.776,203.937l4.533-.051c-.213.633-.248.804-.597,1.368l.217.416c2.849.655,7.118.688,10.105.732-2.638.297-7.997.01-10.786-.043-4.982-.052-9.965-.068-14.947-.049-.8-.458-7.478-.82-9.547-1.481,1.116-.778,16.899-.666,19.576-.895l1.446.003Z" fill="#faeecb"/><path d="M299.539,213.917l.841.092c1.877,5.479,3.121,9.869,4.257,15.514l-.335.025c-.975-.015-1.865.062-2.741-.336-.523-3.364-1.151-6.712-1.881-10.037-.222-1.025-1.111-4.2-1.121-4.827l.979-.431Z" fill="#c47c4b"/><path d="M262.31,166.961c1.869-.16,6.26-.862,7.6.127l.138.524c-.444.554-.761.914-1.249,1.43-.682-.117-2.631-.376-3.211-.101-4.945.398-9.899,2.219-14.283.737,1.642-.021,2.105.196,2.971-1.224,1.22-.015,6.572-1.185,8.035-1.493Z" fill="#431d12"/><path d="M301.747,233.146l3.42.171c.524,1.508.728,3.698.919,5.329-.492,1.438-2.439.958-3.945.996l-.128-.086c-.012-2.151-.146-4.265-.266-6.411Z" fill="#c47c4b"/><path d="M194.321,162.15c1.737-.425,3.838-.691,5.634-.963-.616,1.102-1.975,3.248-2.41,4.241l-.171.093c-2.01.324-3.693.612-5.722.733.885-1.5,1.678-2.672,2.669-4.105Z" fill="#f9ecb3"/><path d="M215.196,164.073c1.376-2.734,1.256-3.257,4.321-3.389,1.346.068,2.745.105,4.076.284-.664.96-1.429,2.137-2.116,3.053-2.173-.03-4.112-.046-6.281.053Z" fill="#f9ecb3"/><path d="M297.976,212.375c.73.091,1.301.144,2.023.305l.234-.026-.776.126c-.188.621-.165.403-.12,1.024-2.666,1.052-11.797.062-15.024-.289,4.372-.659,9.211-.863,13.663-1.14Z" fill="#faeecb"/><path d="M124.044,255.36c.253-1.471-.148-2.1.197-3.299.736-.482.671-.278,1.847-.093.811,1.998-.491,5.314-1.249,7.21l-.542-.116-1.337-1.034c.602-1.025.714-1.518,1.084-2.668Z" fill="#fbdb9e"/><path d="M239.169,163.497c1.014.211.964.2,1.828.783.329.592.248.284.271.918-1.395.841-3.24-.16-5.097-.268l1.019-1.653c.6.103,1.435.323,1.979.22Z" fill="#fbdb9e"/><path d="M218.07,258.489c-2.2-3.561-1.527-11.641-.648-15.597,2.762-12.428,15.318-21.279,28.144-18.095,5.954,1.429,11.087,5.186,14.25,10.43,3.19,5.34,4.398,11.88,3.05,17.98-.527,2.384-3.588,9.752-6.11,10.316-5.959,7.486-21.23,9.575-29.491,5.245-5.059-2.652-7.22-4.959-9.194-10.279Z" fill="#431d12"/><path d="M250.378,240.684c.866-.144,1.495.484,2.195.982,4.758,3.382,5.879,9.912,7.296,11.07-.203,4.314-.935,7.035-3.114,10.787-5.959,7.486-21.23,9.575-29.491,5.245-5.059-2.652-7.22-4.959-9.194-10.279-.489-3.958-.472-6.671-.05-10.612.725,7.377,2.734,14.896,9.729,18.762,3.566,2.011,7.795,2.492,11.722,1.332,7.495-2.178,12.176-9.613,12.432-17.189.124-3.657-.504-6.623-1.525-10.097Z" fill="#fcfcfb"/><path d="M233.842,229.551c2.467-.425,4.376-.722,6.877-.591,12.482.654,19.479,12.194,19.15,23.776-1.417-1.158-2.539-7.688-7.296-11.07-.7-.498-1.329-1.126-2.195-.982-3.984-7.821-7.781-10.431-16.536-11.133Z" fill="#c8c9ca"/><path d="M240.253,256.252c2.114-5.116,6.483-2.164,5.154,2.742-.059.702-.134.702-.442,1.29-2.314,4.252-7.23,6.06-11.843,5.288-4.091-.685-10.797-5.032-7.085-9.712,1.526-.76,2.699.667,4.1,1.624,3,2.05,8.045,2.313,10.116-1.231Z" fill="#874a2b"/><path d="M240.253,256.252c2.114-5.116,6.483-2.164,5.154,2.742-3.155,1.583-4.506.49-5.154-2.742Z" fill="#fcfcfb"/><path d="M227.675,235.407c2.365-.033,4.363,1.031,5.308,3.268.68,1.653.636,3.515-.122,5.134-.861,1.861-2.018,2.641-3.873,3.269-1.007.038-1.909.115-2.852-.278-1.327-.556-2.353-1.652-2.821-3.013-1.26-3.623.756-7.219,4.359-8.38Z" fill="#fcfcfb"/><path d="M143.778,263.254c-3.212-1.271-5.919-8.846-6.309-12.113-.826-6.295.532-13.621,4.604-18.593,13.151-16.058,31.83-4.047,33.563,13.676.163,1.669.607,7.217-.184,8.217-.357,4.677-.567,8.829-4.576,11.972-7.955,6.236-20.761,4.253-27.098-3.157Z" fill="#431d12"/><path d="M140.499,250.44c.583-3.044,4.222-9.389,7.176-10.671l.41.3c-2.084,7.126-2.337,13.001,1.243,19.833,1.745,3.332,4.887,6.212,8.554,7.266,3.235.941,6.717.475,9.591-1.283,6.033-3.66,7.238-11.58,7.819-11.948l.159.503c-.357,4.677-.567,8.829-4.576,11.972-7.955,6.236-20.761,4.253-27.098-3.157-2.74-4.891-3.334-7.166-3.279-12.814Z" fill="#fcfcfb"/><path d="M140.499,250.44c-.125-8.458,4.327-18.457,13.217-20.648,3.041-.749,5.39-.32,8.348.311-7.531.755-10.836,3.182-13.978,9.967l-.41-.3c-2.955,1.282-6.593,7.626-7.176,10.671Z" fill="#c8c9ca"/><path d="M165.563,255.546c3.133-4.982,7.423-.394,4.091,3.582l.106.627c-2.413,7.375-17.411,5.899-17.227-2.547.033-1.506,1.473-2.471,2.532-3.247,2.163,2.393,6.219,6.032,9.822,3.779.706-.442.604-1.417.677-2.193Z" fill="#a5653a"/><path d="M165.563,255.546c3.133-4.982,7.423-.394,4.091,3.582-3.186.737-3.757-.805-4.091-3.582Z" fill="#fcfcfb"/><path d="M154.62,235.341c7.108-.4,7.687,7.739,2.161,10.836-6.921,1.029-7.401-7.434-2.161-10.836Z" fill="#fcfcfb"/><path d="M347.422,225.288c8.714-12.552,12.469-32.399,9.002-47.056-.791-4.997-3.305-10.291-3.835-15.279-1.473-13.884,9.495-21.641,20.882-11.82,4.275.081,8.545.353,12.796.816,2.72.116,24.138,1.915,25.215,2.717-3.142.508-9.72-.069-13.075-.29-4.796-.316-9.847-.621-14.644-1.001-2.774-.093-5.543-.153-8.306-.413l1.431,3.274c.251.384.915,1.344,1.013,1.747.932,2.875,2.221,6.507,2.866,9.384.135.462.343,1.091.44,1.546.177,2.859,1.061,6.607,1.421,9.665l.153,1.919c.16,2.577.218,4.383.138,6.958-.04.65-.107,1.394-.118,2.035-.054,2.503-.138,6.694-.653,9.046.958.119,1.634.191,2.596.227l-.321.037c-.851.104-1.238.082-1.971.532l-.149.512c.988.27,2.753.131,3.843.1-.662.054-1.881.282-2.539.468l-1.459.15c-.931,1.662-2.141,9.929-3.457,12.978-.371.753-.592,1.042-.599,1.888-.443,1.246-2.172,5.245-2.19,5.994l.322.164c-.736.811-.741.753-.95,1.805-1.394.718-1.485,2.014-2.491,3.449-.609.721-.93,1.004-1.256,1.902-.48,1.489-3.748,6.242-4.904,7.441-2.138.038-6.365.229-8.431.582-.935-.58-3.56-3.093-4.959-4.07-7.292-5.163-15.809-8.324-24.703-9.168-3.876-1.112-12.269-.269-16.215.664-.803.19-4.149,1.032-4.667,1.073-.005,1.453.481,2.794.879,4.209l-3.889.049c-1.137-5.645-2.381-10.035-4.257-15.514,1.373-.021,3.243-.241,4.369.298.374.71.33.686.381,1.501.057,1.032.157,1.549.628,2.506.316,1.04.591,2.162.871,3.218,13.577-3.435,28.37-3.527,40.793,3.755Z" fill="#431d12"/><path d="M386.266,151.949c2.72.116,24.138,1.915,25.215,2.717-3.142.508-9.72-.069-13.075-.29-4.796-.316-9.847-.621-14.644-1.001,3.031-.358,6.895.05,9.994.086,1.684.02,1.226.778,3.585.01-1.531.08-9.633-.996-11.075-1.521Z" fill="#715e59"/><path d="M359.151,174.283c-.814-4.812-3.31-9.176-3.147-14.348.179-5.663,2.725-9.732,8.884-9.332,3.229.209,5.255,2.73,7.059,5.057,2.939,3.659,5.326,11.806,5.791,16.399.63,3.678,1.212,7.166,1.275,10.921.916,3.88-.425,14.214-1.164,18.241-.662,3.009-1.283,6.179-2.225,9.101-.519,2.498-3.676,10.044-4.999,12.282-2.57,5.177-5.241,8.836-8.644,13.442-3.113-3.234-7.319-7.107-11.411-9.08.788-1.139,1.59-2.269,2.407-3.388,1.614-3.277,2.801-5.862,4.014-9.299,1.493-4.022,2.189-6.721,3.137-10.848.57-2.499.811-4.818,1.053-7.362.324-3.647.093-7.333-.1-10.982-.408-3.81-1.088-7.103-1.929-10.804Z" fill="#a5653a"/><path d="M359.151,174.283c-.814-4.812-3.31-9.176-3.147-14.348.179-5.663,2.725-9.732,8.884-9.332,3.229.209,5.255,2.73,7.059,5.057,2.939,3.659,5.326,11.806,5.791,16.399-5.259-4.471-11.4-4.127-16.721.024l-.123.245c-.57.632-1.203,1.306-1.743,1.955Z" fill="#a5653a"/><path d="M359.151,174.283c-.814-4.812-3.31-9.176-3.147-14.348.179-5.663,2.725-9.732,8.884-9.332,3.229.209,5.255,2.73,7.059,5.057-1.269.245-1.694-.804-2.85-1.233-14.68-5.441-9.669,11.72-8.08,17.656l-.123.245c-.57.632-1.203,1.306-1.743,1.955Z" fill="#d4a884"/><path d="M361.017,172.083c5.322-4.151,11.462-4.495,16.721-.024.63,3.678,1.212,7.166,1.275,10.921-.029,1-.034,2-.015,3l-.348.251c-.405-.296-.813-.588-1.223-.877-5.441-2.503-8.115-3.267-14.173-1.615l-.019.128-2.155,1.219c-.408-3.81-1.088-7.103-1.929-10.804.54-.649,1.173-1.323,1.743-1.955l.123-.245Z" fill="#f0b56d"/><path d="M360.894,172.328c.35,1.753,1.919,10.228,2.361,11.411l-.019.128-2.155,1.219c-.408-3.81-1.088-7.103-1.929-10.804.54-.649,1.173-1.323,1.743-1.955Z" fill="#fbdb9e"/><path d="M359.161,214.341c2.937.49,5.59,1.39,7.649,3.708l.188.039c1.369,1.586,2.428,2.806,3.627,4.515-2.57,5.177-5.241,8.836-8.644,13.442-3.113-3.234-7.319-7.107-11.411-9.08.788-1.139,1.59-2.269,2.407-3.388,1.614-3.277,2.801-5.862,4.014-9.299l1.562.07.608-.008Z" fill="#c47c4b"/><path d="M359.161,214.341c2.937.49,5.59,1.39,7.649,3.708-.826,2.364-3.554,5.483-5.256,7.353-1.617-.616-5.164-2.079-6.689-2.472-.533.208-1.362.587-1.888.648,1.614-3.277,2.801-5.862,4.014-9.299l1.562.07.608-.008Z" fill="#f0b56d"/><path d="M356.991,214.279l1.562.07c-.295,1.583-2.514,7.683-3.687,8.581-.533.208-1.362.587-1.888.648,1.614-3.277,2.801-5.862,4.014-9.299Z" fill="#e9c298"/><path d="M356.991,214.279c1.493-4.022,2.189-6.721,3.137-10.848.723-.018,1.5-.015,2.214-.085,4.41-.266,6.619.561,10.153,3.25l.295.289c.497.586,2.491,3.111,2.835,3.437-.519,2.498-3.676,10.044-4.999,12.282-1.199-1.71-2.258-2.929-3.627-4.515l-.188-.039c-2.059-2.318-4.712-3.219-7.649-3.708l-.608.008-1.562-.07Z" fill="#a5653a"/><path d="M372.79,206.885c.497.586,2.491,3.111,2.835,3.437-.519,2.498-3.676,10.044-4.999,12.282-1.199-1.71-2.258-2.929-3.627-4.515,1.83-1.822,4.788-8.748,5.791-11.204Z" fill="#874a2b"/><path d="M356.991,214.279c1.493-4.022,2.189-6.721,3.137-10.848.723-.018,1.5-.015,2.214-.085-.887,3.762-1.673,7.417-3.181,10.995l-.608.008-1.562-.07Z" fill="#cc9865"/><path d="M363.26,195.366c5.352-.447,6.987-.005,11.689,2.601l.22.193c.917.835,2.272,1.919,2.68,3.061-.662,3.009-1.283,6.179-2.225,9.101-.344-.326-2.338-2.851-2.835-3.437l-.295-.289c-3.534-2.689-5.743-3.516-10.153-3.25-.714.07-1.491.067-2.214.085.57-2.499.811-4.818,1.053-7.362l1.941-.529.139-.174Z" fill="#f0b56d"/><path d="M375.169,198.16c.917.835,2.272,1.919,2.68,3.061-.662,3.009-1.283,6.179-2.225,9.101-.344-.326-2.338-2.851-2.835-3.437l-.295-.289c.866-2.204,2.188-6.151,2.675-8.436Z" fill="#c47c4b"/><path d="M363.122,195.539c.306,1.964-.434,5.79-.78,7.806-.714.07-1.491.067-2.214.085.57-2.499.811-4.818,1.053-7.362l1.941-.529Z" fill="#fbdb9e"/><path d="M379.014,182.98c.916,3.88-.425,14.214-1.164,18.241-.408-1.143-1.763-2.227-2.68-3.061l-.22-.193c.979-4.129,1.483-8.651,2.479-12.613.41.289.818.581,1.223.877l.348-.251c-.019-1-.014-2,.015-3Z" fill="#874a2b"/><path d="M361.08,185.087l2.155-1.219c.102,2.71.414,8.898.024,11.498l-.139.174-1.941.529c.324-3.647.093-7.333-.1-10.982Z" fill="#cc9865"/><path d="M287.606,137.862c9.79-.191,25.469.892,35.518,1.595,2.275.032,15.72.835,17.227,1.4l.078.28c-2.059.479-14.274-.046-17.21-.165-2.541.138-5.58-.033-8.137-.172-8.825-.48-17.808-.547-26.612-1.145-.281-1.378-.007-1.177-.864-1.794Z" fill="#5d3f33"/><path d="M323.124,139.457c2.275.032,15.72.835,17.227,1.4l.078.28c-2.059.479-14.274-.046-17.21-.165,1.201-.791,3.881-.122,6.016-.311-1.211-.576-4.352-.536-6.112-1.205Z" fill="#715e59"/><path d="M358.191,236.767c2.066-.353,6.292-.544,8.431-.582,1.788.45,6.064.244,8.111.408,6.717.539,15.71.217,22.186,1.272,1.306.089,7.349.578,8.122,1.047-1.348.697-15.778.163-18.349.075-5.209-.338-16.865-.634-21.976-.464-1.171-.374-3.356-.171-4.322.607l-2.203-2.364Z" fill="url(#d)"/><path d="M396.918,237.865c1.306.089,7.349.578,8.122,1.047-1.348.697-15.778.163-18.349.075,3.12-.484,8.316.46,10.227-1.122Z" fill="#7e706a"/><path d="M261.164,361.336c3.677.381,8.554-.441,12.31-.625,10.512-.512,21.819-2.435,32.32-2.104l.245.317.123-.263.037.182c-2.764.922-11.298,1.601-14.545,1.921l-32.051,2.849c-.104-1.152.402-2.028,1.562-2.278Z" fill="#5d3f33"/><path d="M305.129,215.809c.24.162.48.324.719.487,8.283.382,17.001.162,25.275.258,2.12.025,6.792.014,8.061.526-1.794.492-3.784.502-5.657.695-9.166.948-18.53.508-27.77.54-.471-.957-.571-1.474-.628-2.506Z" fill="url(#e)"/><path d="M434.781,327.392c.758.434.754.371,1.156,1.131-10.485,1.809-20.689,3.328-31.191,5.3.506-.847.882-1.686,1.54-2.382,1.1-.064,2.733-.448,3.882-.628,8.182-1.286,16.401-2.337,24.613-3.421Z" fill="url(#f)"/><path d="M297.471,197.839c2.098,1.547,21.96.187,25.214,1.48.789.302,1.407.35,1.723.912-.88.574-4.837.447-6.285.579l-19.083-.426-.079-.288,1.375-.058c-1.957-.39-1.562-1.233-2.92-1.635l.054-.563Z" fill="#5d3f33"/><path d="M380.674,267.602c.326.91.372,1.57,1.003,2.065,4.96-.13,9.967-.54,14.963-.662,4.123-.1,8.328-.074,12.42-.26l1.186.248.191.478-.101.17.53.215c-3.611.471-9.017.596-12.722.768-5.448.267-10.893.594-16.334.981-1.466-1.7-1.456-1.775-1.137-4.002Z" fill="url(#g)"/><path d="M295.492,163.245c10.586-.076,19.566.834,29.738,1.043-1.16,1.047-1.815.383-3.133.942-3.146.44-22.665.127-26.116-.228-.382-.716-.342-.942-.489-1.757Z" fill="url(#h)"/><path d="M369.973,245.057c2.723-.5,7.682-.366,10.592-.369,4.666.03,9.331-.042,13.994-.216.489.636.515.791,1.256,1.101-4.602.504-9.369.861-13.994,1.129-3.393.196-7.093-.028-10.419.491-.742-.633-1.131-1.232-1.428-2.137Z" fill="url(#i)"/><path d="M396.4,297.381c2.298-.354,8.834-.182,11.356-.124,3.78-.027,13.319.194,16.907.751-3.448.791-13.808,1.434-17.602,1.271-3.174.071-6.348.091-9.523.062-.514-.663-.748-1.216-1.138-1.96Z" fill="#5d3f33"/><path d="M407.756,297.257c3.78-.027,13.319.194,16.907.751-3.448.791-13.808,1.434-17.602,1.271,2.663-.707,2.584-.201,4.678-.511l.225-.408c-.77-1.306-2.605-.278-4.209-1.103Z" fill="#715e59"/><path d="M383.469,278.349c2.402-.475,6.79-.579,9.389-.721l15.572-.872,1.187.207.189.381c-.134.183-.406.583-.555.724-5.089.656-10.681.96-15.818,1.392-1.821.153-6.927.61-8.513.495-.945-.659-.941-.6-1.451-1.606Z" fill="#5d3f33"/><path d="M403.014,311.083c3.602-.143,25.116-1.371,27.592-.559-1.712,1.138-23.391,2.522-26.709,2.455-.372-.491-.635-1.292-.883-1.896Z" fill="#5d3f33"/><path d="M297.6,176.473c5.691.002,11.609.34,17.315.563,2.355.064,7.013.106,9.043.854-1.808.872-8.621.667-10.815.615-5.093.092-10.335.039-15.44.05.581-.912.248-1.143-.104-2.081Z" fill="#5d3f33"/><path d="M314.915,177.036c2.355.064,7.013.106,9.043.854-1.808.872-8.621.667-10.815.615l-.147-.401c1.136-.513,3.32.212,4.543-.346-1.284-.058-2.607-.062-3.858-.32l1.233-.401Z" fill="#715e59"/><path d="M382.147,198.535c2.74-.361,23.291-.715,24.814.327-1.459,1.256-20.448,1.646-23.354,1.55.658-.186,1.877-.414,2.539-.468-1.09.03-2.855.169-3.843-.1l.149-.512c.733-.45,1.12-.429,1.971-.532l.321-.037c-.962-.035-1.638-.108-2.596-.227Z" fill="#5d3f33"/><path d="M378.69,213.541c6.708-.41,20.23-.377,26.897.408-3.221.528-24.521,2.043-27.496,1.481.007-.846.228-1.136.599-1.888Z" fill="#5d3f33"/><path d="M378.412,261.451c5.971-.721,21.252-.866,27.199.199-5.535.897-20.489,1.481-26.502,1.494-.362-.478-.495-1.094-.697-1.693Z" fill="#5d3f33"/><path d="M406.663,320.295c4.167-.223,8.199-.282,12.391-.59,4.302-.316,9.146-.918,13.421-.96-5.978,2.191-18.711,3.302-25.271,3.476-.44-.863-.403-.986-.54-1.926Z" fill="#5d3f33"/><path d="M382.627,178.577c3.616-.369,17.671-.042,20.571,1.356l-.167.266c-2.467.56-16.961.356-20.251.296l-.153-1.919Z" fill="#5d3f33"/><path d="M297.433,194.873c-.07-1.564-.138-2.411.08-3.989l.22,1.844c.5.361.762.453,1.41.425,7.058-.305,14.089.811,21.063,1.095-.798,1.625-19.841.62-22.773.626Z" fill="#5d3f33"/><path d="M407.487,324.637c.912,1.004,4.729.205,6.334.118,5.271-.284,10.831-1.188,16.096-.825-3.068.9-22.159,3.519-22.281,3.615-.018-.977-.087-1.933-.149-2.908Z" fill="#5d3f33"/><path d="M372.782,226.842c4.341-.025,18.575-.379,21.761.39l-.053.266c-1.977.538-20.322,1.198-22.965,1.246.326-.898.648-1.181,1.256-1.902Z" fill="url(#j)"/><path d="M176.131,148.782c6.396.054,18.249.408,24.187,1.605-5.385.503-9.443.418-14.878.218-1.27-.047-6.776-.092-7.92.083l-.291.013c-.814-.595-.771-.595-1.256-1.419l.158-.499Z" fill="#5d3f33"/><path d="M382.918,187.454c3.844.261,9.99-.473,14.809-.303.638.145,1.095.209,1.681.515-.126.353-.171.5-.337.838-5.409.541-10.836.87-16.271.985.011-.642.078-1.385.118-2.035Z" fill="#5d3f33"/><path d="M293.853,154.093c4.709.007,13.477.478,18.155,1.163l.158.728.687-.074.103-.483.633.28c-1.634.734-16.527.427-19.17.288-.3-.655-.4-1.207-.567-1.903Z" fill="#5d3f33"/><path d="M376.223,221.587c4.575-.653,13.504-.074,17.9,1.083-2.518.249-16.988,1.201-18.85.722.209-1.053.215-.995.95-1.805Z" fill="#5d3f33"/><path d="M268.095,357.457c.258-1.28.599-1.309,1.711-2.254,2.061.75,12.905-.482,16.744.088l.297.552-.022-.508.692.264c-1.098.56-17.021,1.806-19.424,1.859Z" fill="#5d3f33"/><path d="M380.766,167.367c4.055-.01,18.081.408,21.454,1.657-7.001.369-14.017.332-21.013-.111-.097-.455-.305-1.084-.44-1.546Z" fill="#5d3f33"/><path d="M291.088,145.502c6.496.179,12.99.398,19.483.659-.723.53-.921.725-1.787,1.033-1.092.237-15.245.104-16.889.038-.576-.708-.553-.864-.807-1.731Z" fill="#5d3f33"/><path d="M376.887,156.236c3.561.025,15.613.533,18.73,1.52-3.905.952-13.449.61-17.717.227-.098-.402-.762-1.363-1.013-1.747Z" fill="#5d3f33"/><path d="M182.177,154.606c5.67.229,16.768.06,21.802.898-4.872.796-14.727.965-19.99.974l-1.812-1.872Z" fill="#5d3f33"/><path d="M321.587,206.848c2.711.01,11.993-.064,13.947.932-1.205.94-11.182.778-13.451.801.951-.673,1.49-.618,2.658-.782l-.312-.146.176.1c-1.265-.189-1.887-.326-3.019-.905Z" fill="#715e59"/><path d="M97.075,285.942c3.776-2.006,7.605-3.125,11.668-4.329.252.747.254,1.048.742,1.619-4.342,1.198-7.897,2.334-12.411,2.71Z" fill="url(#k)"/><path d="M322.685,199.319c3.595.063,9.159.358,12.705.964-4.033.955-13.01.857-17.267.528,1.448-.132,5.405-.005,6.285-.579-.317-.563-.934-.611-1.723-.912Z" fill="#715e59"/><path d="M108.743,281.613l5.535-1.551.919,1.77c-1.9.483-3.804.949-5.712,1.4-.488-.571-.49-.871-.742-1.619Z" fill="#030101"/><path d="M408.431,276.756c3.835-.157,7.671-.286,11.507-.389l.178.177c-2.386.906-8.101,1.243-10.864,1.524.149-.141.421-.54.555-.724l-.189-.381-1.187-.207Z" fill="#7e706a"/><path d="M434.781,327.392c3.162-.384,9.205-1.257,12.086-1.064-3.613.874-7.259,1.607-10.93,2.195-.402-.76-.398-.697-1.156-1.131Z" fill="#715e59"/><path d="M114.279,280.062l3.603-.926c.363.813.332,1.044.387,1.913-1.023.275-2.035.561-3.071.783l-.919-1.77Z" fill="#170303"/><path d="M325.23,164.288c1.614.088,3.485.093,4.998.591-1.235.663-6.6.529-8.13.351,1.318-.559,1.973.106,3.133-.942Z" fill="#715e59"/><path d="M409.061,268.745c2.329-.058,5.087-.209,7.364.048l.185.187c-1.604.548-4.01.73-5.743.876l-.53-.215.101-.17-.191-.478-1.186-.248Z" fill="#7e706a"/><path d="M310.571,146.161c1.773.155,4.034.221,5.688.621-.683.61-6.225.422-7.475.412.865-.308,1.063-.504,1.787-1.033Z" fill="rgba(113,94,89,.988)"/><path d="M394.558,244.472c1.572.018,3.424-.071,4.905.334-.406.67-2.81.707-3.649.767-.741-.31-.766-.465-1.256-1.101Z" fill="#7e706a"/><path d="M397.726,187.151c2.023.006,4.231-.037,6.228.153-1.913.595-2.914.845-4.885,1.2.167-.337.212-.484.337-.838-.586-.306-1.042-.37-1.681-.515Z" fill="#715e59"/></svg>