<?xml version="1.0" encoding="UTF-8"?><svg id="a" xmlns="http://www.w3.org/2000/svg" width="500" height="500" xmlns:xlink="http://www.w3.org/1999/xlink" viewBox="0 0 500 500"><defs><linearGradient id="b" x1="317.561" y1="-958.738" x2="290.593" y2="-964.625" gradientTransform="translate(0 -647.649) scale(1 -1)" gradientUnits="userSpaceOnUse"><stop offset="0" stop-color="#2e0800"/><stop offset="1" stop-color="#452511"/></linearGradient><linearGradient id="c" x1="401.607" y1="-895.759" x2="406.393" y2="-879.764" gradientTransform="translate(0 -647.649) scale(1 -1)" gradientUnits="userSpaceOnUse"><stop offset="0" stop-color="#8b4325"/><stop offset="1" stop-color="#b35331"/></linearGradient></defs><path d="M238.031,187.334c6.989-14.145,13.586-25.643,25.704-36.242,9.652-8.441,14.416-10.024,23.031.965,7.674,9.789,12.408,19.618,17.097,31.017,27.096,3.181,47.886,10.532,67.345,30.488,17.47,1.996,47.651,4.568,61.861,15.43.526,1.73,1.191,3.727,1.644,5.448-4.821,19.21-23.582,34.125-38.67,45.178-.122,14.622-.58,22.348-6.459,35.86,1.08.292,2.386.583,3.393,1.008,4.9,1.193,16.417,4.846,19.62,8.834l-.312.608c-3.382.457-4.43-.374-7.738-1.735-6.126-2.219-10.509-3.93-16.927-4.882-1.703,2.475-3.518,4.872-5.309,7.284,7.781,5.111,13.986,9.415,19.58,17.002-5.825-2.246-15.447-10.589-22.46-14.522-1.644,1.534-2.918,3.209-4.342,4.948-.427,8.937-1.645,14.804-8.729,21.269-12.108,11.049-33.426,14.751-49.24,14.034-8.97-.406-14.994-1.666-21.124-8.389-2.117,2.577-4.304,4.549-7.321,6.021-14.844,7.245-53.725.273-68.622-4.884-11.309,9.748-25.778,13.702-40.542,15.609-35.29,4.561-78.642-.174-107.638-21.941-11.322-8.5-21.567-23.188-23.4-37.358-1.638-8.279-1.21-15.624.53-23.79,1.327-7.808,4.439-11.458,6.609-18.307,1.851-5.843,2.133-13.511,4.088-19.825,19.082-61.641,85.121-89.594,145.43-78.287,12.619,2.365,20.904,5.381,32.901,9.159Z" fill="#43160b"/><path d="M392.977,316.486c4.9,1.193,16.417,4.846,19.62,8.834l-.312.608c-3.382.457-4.43-.374-7.738-1.735l.296-.769c1.39.56,2.212,1.019,3.72,1.039-2.337-4.837-14.048-4.412-15.586-7.977Z" fill="#0b0304"/><path d="M49.002,294.594c.75,4.016.073,19.43-.53,23.79-1.638-8.279-1.21-15.624.53-23.79Z" fill="#310e09"/><path d="M275.607,150.183c2.079,1.245,3.692,2.47,5.078,4.516,7.154,7.531,17.913,28.613,21.021,39.009l2.479-.156.078-.704c.129-1.012.216-1.283.514-2.266l1.301-.332c3.513.053,9.707,1.426,13.3,2.241,3.798.926,6.517,1.592,10.171,2.916,6.509,1.817,12.953,4.923,18.724,8.437,2.708,1.655,4.368,2.684,6.889,4.641,5.344,3.522,7.756,5.609,12.228,10.217,2.538,2.541,6.412,7.637,9.329,7.929l.878-.383c-.713-1.647-1.674-3.267-1.384-4.963,3.927-1.837,28.769,2.98,32.69,4.638,4.987.98,15.207,3.596,18.984,7.276.749.729-.06,2.689-.422,3.547-1.159-.076-2.676-.289-3.862-.423.172,2.119.492,1.283-.613,2.715l-.966.297.09.391c1.645,1.544.75,2.046,1.834,4.033-6.192,10.079-19.252,23.384-29.917,28.908-1.967-.028-1.928.053-3.653.804-.339,9.483-.461,17.074-2.06,26.424-.678,4.046-2.219,7.552-3.792,11.335-2.102,3.768-1.506,2.756-5.762,2.525-3.111-.169-5.169-.966-7.546,1.278l-.15.905c1.17,1.083,7.875,1.518,9.932,1.748-1.597,2.286-2.68,3.962-4.615,6.001-2.224-.968-3.996-2.058-6.332-1.853l-.491.691c.979,1.948,2.691,2.452,4.682,3.705-4.951,4.186-10.434,8.127-16.582,10.345-22.809,10.261-54.284,6.258-77.408-1.645-26.959-9.214-52.132-23.86-63.628-51.287-.583-.975-1.245-3.023-1.667-4.184,3.866.402,7.721.914,11.558,1.535,2.027.377,3.365.768,5.319.017l-.026-.761c-3.638-2.646-5.349-2.608-9.776-3.29-.451-2.931-1.017-5.775-.971-8.73,3.468,1.389,7.853,4.377,11.572,3.708l.149-.749c-2.899-3.388-8.803-5.762-12.954-7.74-2.63-1.036-4.863-1.823-7.546-2.701.227-4.525.597-6.701,1.524-11.142.797-5.313,3.403-12.27,6.077-16.945,1.996-4.167,9.344-16.207,13.664-18.541.939-.441,1.943-.965,2.317-2.045,8.067-23.297,17.361-48.136,39.741-61.892Z" fill="#f4ae64"/><path d="M214.959,279.459c3.866.402,7.721.914,11.558,1.535-1.044,3.964,1.103,4.469,1.813,8.03.533.361,1.021.793,1.577.93,1.072,1.856,1.766,3.223,3.203,4.858,1.01-1.143,2.277-1.72,3.634-2.546,13.036,4.42,22.473,6.617,36.503,4.768,4.859-.652,9.638-1.802,14.263-3.432,12.941-4.431,27.141-11.889,35.842,5.009,2.065,4.011,3.704,9.855,5.496,14.172,4.659,11.23,11.745,16.856,22.624,21.283,2.75.421,4.489.287,6.19,2.509-22.809,10.261-54.284,6.258-77.408-1.645-26.959-9.214-52.132-23.86-63.628-51.287-.583-.975-1.245-3.023-1.667-4.184Z" fill="#fbefd3"/><path d="M214.959,279.459c3.866.402,7.721.914,11.558,1.535-1.044,3.964,1.103,4.469,1.813,8.03.533.361,1.021.793,1.577.93,1.072,1.856,1.766,3.223,3.203,4.858,19.545,24.41,49.175,36.15,79.563,40.504,7.036,1.008,33.696,1.91,38.799-1.25,2.75.421,4.489.287,6.19,2.509-22.809,10.261-54.284,6.258-77.408-1.645-26.959-9.214-52.132-23.86-63.628-51.287-.583-.975-1.245-3.023-1.667-4.184Z" fill="#e2b9a1"/><path d="M214.959,279.459c3.866.402,7.721.914,11.558,1.535-1.044,3.964,1.103,4.469,1.813,8.03-3.384-1.491-8.29-5.217-11.704-5.381-.583-.975-1.245-3.023-1.667-4.184Z" fill="#d98452"/><path d="M305.224,315.107c-5.369,2.206-15.434,2.571-16.99-5.316-.236-1.194.206-2.878,1.019-3.823,3.26,1.313,8.48,14.758,16.947,2.9,1.111.644,1.388.689,2.278,1.544-.313,11.995,7.064,6.215,11.934,7.363l.031,1.03c-4.135,8.125-12.195,2.436-15.219-3.698Z" fill="url(#b)"/><path d="M306.2,308.868c-12.104-17.551,9.889-10.5,11.634-4.528-.781,3.976-5.807,4.842-9.356,6.072-.89-.855-1.167-.9-2.278-1.544Z" fill="#611e13"/><path d="M304.975,300.44c1.995.21,8.724,2.024,9.884,3.524l-.493,1.096c-6.159,3.098-7.501,1.545-9.391-4.62Z" fill="#f6998d"/><path d="M252.748,187.559c3.331-8.384,11.97-29.382,22.634-29.19,5.407,5.118,15.88,32.364,11.448,37.893-2.549.862-6.241-.916-8.389-2.402l.178-.353c-1.303-.874-3.46-1.149-5.109-1.523l-3.49-.622,3.649,5.062c-12.66,1.456-12.639,4.167-22.377,7.824l.775,2.309c-.774.23-2.644.75-2.91-.288-1.27-4.964,2.205-13.99,3.591-18.71Z" fill="#f6998d"/><path d="M252.748,187.559c3.331-8.384,11.97-29.382,22.634-29.19,5.407,5.118,15.88,32.364,11.448,37.893-2.549.862-6.241-.916-8.389-2.402l.178-.353c-1.303-.874-3.46-1.149-5.109-1.523l-.24-.591c1.205-2.688,4.472.861,6.68-.362l2.801.418.532-.494c-.14-6.553-5.815-24.698-9.364-30.236-11.738,10.389-20.458,28.246-22.627,43.529l.775,2.309c-.774.23-2.644.75-2.91-.288-1.27-4.964,2.205-13.99,3.591-18.71Z" fill="#b45b33"/><path d="M270.02,191.362c-.314-.3-.11-.064-.342-.87,2.575-1.827,7.555-.456,10.272.539-2.208,1.223-5.475-2.326-6.68.362l.24.591-3.49-.622Z" fill="#9b2c24"/><path d="M329.549,195.407c6.509,1.817,12.953,4.923,18.724,8.437l.128,3.638.211,1.323c-.004,6.003-.791,11.587-2.179,17.457-1.343,5.679-7.959,30.716-16.98,28.161-1.224-1.553-1.4-2.871-1.179-4.918,1.804-16.686,4.278-30.937,2.514-47.912-.348-.968-.677-1.8-1.055-2.754l-.184-3.432Z" fill="#c7703a"/><path d="M329.549,195.407c6.509,1.817,12.953,4.923,18.724,8.437l.128,3.638c-3.556-.843-14.736-8.572-17.613-5.889-.348-.968-.677-1.8-1.055-2.754l-.184-3.432Z" fill="#d98452"/><path d="M404.448,239.542c6.456-.854,11.155-.842,17.576-.207l.09.391c1.645,1.544.75,2.046,1.834,4.033-6.192,10.079-19.252,23.384-29.917,28.908-.369-2.027-.41-5.087-.506-7.224-.028-3.87-.796-7.847-1.42-11.683l.321-.053.945-3.127-1.767-1.389c-1.053-1.81-1.809-2.471-3.27-4.012,1.245-1.312,1.888-1.728,3.321-2.766,3.945-1.401,8.652-2.271,12.793-2.871Z" fill="#f6998d"/><path d="M422.114,239.726c1.645,1.544.75,2.046,1.834,4.033-6.192,10.079-19.252,23.384-29.917,28.908-.369-2.027-.41-5.087-.506-7.224.476,1.411-.189,1.024.9,2.391l.358-.208c10.664-6.283,15.359-13.206,24.116-21.289,1.971-1.104,3.649-4.439,3.215-6.611Z" fill="#ec9b6f"/><path d="M404.448,239.542c6.456-.854,11.155-.842,17.576-.207l.09.391c.434,2.172-1.244,5.507-3.215,6.611.568-1.855.615-.982-.02-2.715-3.62-3.579-9.987-1.12-13.911.653-.664-2.252-.842-2.485-.52-4.733Z" fill="#f48b76"/><path d="M391.655,242.413c3.945-1.401,8.652-2.271,12.793-2.871-.322,2.248-.144,2.481.52,4.733-.616.28-3.418,1.595-3.897,1.729-1.913.638-2.591.812-4.574,1.161l.169-.626-.943-1.414c-1.277-.528-2.896-1.844-4.068-2.712Z" fill="#ea8178"/><path d="M395.723,245.125c1.87.076,3.803-.067,5.348.879-1.913.638-2.591.812-4.574,1.161l.169-.626-.943-1.414Z" fill="#e35d57"/><path d="M388.334,245.179c1.245-1.312,1.888-1.728,3.321-2.766,1.172.868,2.791,2.184,4.068,2.712l.943,1.414-.169.626-.85.847c.32,1.839.876,3.18,1.102,4.704-1.325-.285-2.317-1.271-3.378-2.136l-1.767-1.389c-1.053-1.81-1.809-2.471-3.27-4.012Z" fill="#9b2c24"/><path d="M393.371,250.58c1.061.865,2.053,1.851,3.378,2.136-1.663,1.205-1.944,1.13-4.323.991l.945-3.127Z" fill="#c64644"/><path d="M219.885,232.661c1.996-4.167,9.344-16.207,13.664-18.541.939-.441,1.943-.965,2.317-2.045,8.067-23.297,17.361-48.136,39.741-61.892-.127,2.727-.202,5.456-.225,8.186-10.664-.192-19.303,20.806-22.634,29.19l-.856-.67c-2.1,1.582-6.709,19.163-8.196,22.234-5.338,11.026-14.893,15.049-18.379,28.582l-.18.021c-1.07-1.315-3.878-3.804-5.252-5.065Z" fill="#d98452"/><path d="M306.078,190.25c3.513.053,9.707,1.426,13.3,2.241.265.983.548,1.961.849,2.934.267.68.874,2.095,1.048,2.729,2.883,9.891,1.83,28.764-5.295,37.066-.753.877-1.441.93-2.453.851-1.316-1.04-2.126-3.167-2.272-4.783-1.11-12.334-.838-24.331-4.041-36.467l-.109-.403-.088-.881.303-1-1.242-2.287Z" fill="#c7703a"/><path d="M306.078,190.25c3.513.053,9.707,1.426,13.3,2.241.265.983.548,1.961.849,2.934-1.559,2.692-10.682-1.651-12.907-2.888l-1.242-2.287Z" fill="#cb7c49"/><path d="M219.885,232.661c1.374,1.261,4.182,3.75,5.252,5.065l.18-.021.672.712c5.487,5.751,16.06,11.863,17.909,18.216-.291,1.711.105,1.013-1.285,2.131-6.79,1.624-15.82-2.481-21.885-5.129l-.308-.278c-2.336-1.158-4.382-2.418-6.612-3.751.797-5.313,3.403-12.27,6.077-16.945Z" fill="#c7703a"/><path d="M219.885,232.661c1.374,1.261,4.182,3.75,5.252,5.065-.387,1.723-4.136,14.703-4.717,15.631-2.336-1.158-4.382-2.418-6.612-3.751.797-5.313,3.403-12.27,6.077-16.945Z" fill="#b45b33"/><path d="M355.162,208.485c5.344,3.522,7.756,5.609,12.228,10.217l-.788.925c-.099,6.813-5.147,30.646-13.581,30.373-3.867-3.465,1.527-23.475,1.645-29.917.056-2.915.045-4.74-.186-7.675l.682-3.923Z" fill="#c7703a"/><path d="M355.162,208.485c5.344,3.522,7.756,5.609,12.228,10.217l-.788.925c-3.401-.621-8.474-4.695-11.417-6.827-.048,1.962.066,5.622-.519,7.283.056-2.915.045-4.74-.186-7.675l.682-3.923Z" fill="#d98452"/><path d="M280.685,154.699c7.154,7.531,17.913,28.613,21.021,39.009l-.076,2.65c-1.627-.066-1.996.078-3.376-.771-3.356-5.968-5.933-14.08-8.884-20.524-2.047-4.471-9.668-16.485-8.685-20.364Z" fill="#fbd6a0"/><path d="M388.334,245.179c-2.286-1.074-4.244-1.503-3.739-4.143,5.996-5.646,30.453-6.706,39.008-4.713.172,2.119.492,1.283-.613,2.715l-.966.297c-6.421-.635-11.12-.647-17.576.207-4.141.6-8.848,1.47-12.793,2.871-1.433,1.038-2.076,1.454-3.321,2.766Z" fill="url(#c)"/><path d="M377.597,226.248c-.713-1.647-1.674-3.267-1.384-4.963,3.927-1.837,28.769,2.98,32.69,4.638l-.494.572-4.939-1.302c-1.658.647-1.223.101-1.848,1.307,2.453,1.089,4.581.325,7.179,1.403-7.204.999-21.383-3.784-31.204-1.655Z" fill="#fbd6a0"/><path d="M270.02,191.362l3.49.622c1.649.374,3.806.649,5.109,1.523l-.178.353c-1.795-.338-2.15-.771-3.315-.065.128,1.722,1.534,3.65,2.289,5.71-14.665,2.053-12.571,2.621-25.348,7.052l-.775-2.309c9.738-3.657,9.717-6.368,22.377-7.824l-3.649-5.062Z" fill="#9f492f"/><path d="M388.318,299.895c-.678,4.046-2.219,7.552-3.792,11.335-2.94-2.182-8.039-4.126-9.053-8.167-1.185-4.722,10.841-3.287,12.845-3.168Z" fill="#c7703a"/><path d="M387.155,251.808c1.338-1.014,2.957-1.813,4.449-2.617l1.767,1.389-.945,3.127-.321.053c.624,3.836,1.392,7.813,1.42,11.683.096,2.137.137,5.197.506,7.224-1.967-.028-1.928.053-3.653.804-.129-7.796-.868-14.236-3.223-21.663Z" fill="#b45b33"/><path d="M387.155,251.808c1.338-1.014,2.957-1.813,4.449-2.617l1.767,1.389-.945,3.127-.321.053c-1.453-.738-3.38-1.378-4.95-1.952Z" fill="#e35d57"/><path d="M213.808,249.606c2.23,1.333,4.276,2.593,6.612,3.751l.308.278c-.227,3.278-.527,6.55-.898,9.814-2.63-1.036-4.863-1.823-7.546-2.701.227-4.525.597-6.701,1.524-11.142Z" fill="#d98452"/><path d="M319.378,192.491c3.798.926,6.517,1.592,10.171,2.916l.184,3.432c-2.133,1.06-5.984-.151-8.458-.685-.174-.634-.781-2.049-1.048-2.729-.301-.973-.584-1.951-.849-2.934Z" fill="#f6c38f"/><path d="M348.273,203.844c2.708,1.655,4.368,2.684,6.889,4.641l-.682,3.923c-1.952-.599-4.173-2.379-5.868-3.603l-.211-1.323-.128-3.638Z" fill="#f6c38f"/><path d="M304.263,192.848c.129-1.012.216-1.283.514-2.266l1.301-.332,1.242,2.287-.303,1,.088.881-.485,1.425c-1.216.554-1.191.458-2.551.368l-2.439.147.076-2.65,2.479-.156.078-.704Z" fill="#f6c38f"/><path d="M304.263,192.848c.129-1.012.216-1.283.514-2.266l1.301-.332,1.242,2.287-.303,1-2.754-.689Z" fill="#ec9b6f"/><path d="M229.907,289.954c2.125.721,4.727,1.677,6.837,2.312-1.357.826-2.624,1.403-3.634,2.546-1.437-1.635-2.131-3.002-3.203-4.858Z" fill="#fbd6a0"/><path d="M252.368,260.9c1.716-1.449,1.028-1.271,2.996-1.533,1.392.749,1.455.686,2.488,1.84,3.524,11.466,12.742,18.106,25.135,16.942,3.101-.292,6.018-1.423,9.17-1.287,1.294,1.325,1.007.564,1.019,2.307-9.552,16.157-44.128.558-40.808-18.269Z" fill="#43160b"/><path d="M252.368,260.9c1.716-1.449,1.028-1.271,2.996-1.533,1.392.749,1.455.686,2.488,1.84-1.928.164-3.797.539-5.484-.307Z" fill="#230603"/><path d="M332.253,292.423c5.12.159,7.267,9.233,13.889,11.787,7.943,3.063,12.283.265,19.729-2.334,1.731-.604,2.192-.634,3.688.111l.265,1.055c-.558,2.237-.683,2.356-1.967,4.327-15.991,14.979-42.553-3.095-35.604-14.946Z" fill="#43160b"/><path d="M163.371,183.023c3.962-.346,24.79-1.209,27.47.034,4.932.234,9.291,1.01,14.146,1.892,5.569.893,10.058,2.096,15.455,3.717.988.296,6.284,1.913,7.034,2.025,2.743,1.066,5.448,2.032,8.054,3.397-.685,1.807-4.01,11.855-4.675,12.626-14.052,16.292-23.566,28.919-24.996,51.997-5.611-1.448-13.771-3.914-19.353-3.027l-.313.579c3.42,2.954,14.768,5.093,19.666,6.7.161,4.864.382,8.3.986,13.119-4.622.2-10.435.351-14.937.949l2.472.506-2.533.33c.849.757,2.121.723,3.471.964-1.102.238-2.524.499-3.579.796l16.041-.051c1.371,4.269,2.369,7.038,4.147,11.139,6.469,11.29,13.437,19.773,23.752,27.999,1.355.923,2.466,1.278,2.876,2.501l-.57.412-.318.551.365.398c.098,1.169.217,2.187.199,3.363l-4.686-1.688-1.698,1.43c-2.625,2.476-6.609,8.1-7.709,11.506-1.084-1.342-2.534-2.788-3.738-4.055-1.776-.853-3.212-1.63-4.927-2.602-3.28-1.297-5.447-1.655-8.9-2.352-3.772-.06-5.971-.072-9.689.35-2.35,1.286-3.468,1.487-6.246,1.324-3.594.671-8.057,1.867-11.636,2.745,4.431-10.886,5.38-13.749,6.503-25.384-.244-28.883-17.969-57.159-49.047-58.071l.695,1.787,2.955.819c8.337,2.693,16.152,7.061,22.475,13.159,5.918,6.11,9.624,11.327,12.841,19.325,2.085,6.152,3.709,11.802,4.117,18.347-.029,3.196.043,6.696-.336,9.849-.981,6.527-3.651,15.523-7.95,20.671-3.254,3.459-10.457,3.081-14.858,3.503-23.251,2.23-49.178-1.611-68.447-15.594-5.168-3.75-8.569-7.5-12.97-11.902-1.478.225-.787-.041-1.955,1.149l3.291,5.941c-3.972.888-7.336,1.563-11.015,3.394l-.165.305c-2.93,2.016-5.06,4.661-7.384,7.354-.651-1.528-1.223-3.09-1.713-4.677-2.642-8.614-3.141-23.949.766-32.473.524-1.144.51-.972,1.321-1.205.716,1.019.958,1.388,1.82,2.272.465-.541,4.084-26.165,4.988-30.072,2.401-7.767,4.659-13.527,8.598-20.554,2.614-4.553,5.553-9.59,8.983-13.582,1.092-1.719,2.674-3.558,3.975-5.167,4.342-4.803,10.616-10.858,15.71-14.572,5.705-4.72,12.127-8.328,18.641-11.768,7.048-3.471,12.592-5.269,20-7.71,6.474-2.134,15.715-3.558,22.53-4.718Z" fill="#f4ae64"/><path d="M64.934,261.094l1.616.994c-.465,14.311,6.568,34.395,16.588,44.895,13.085,13.71,34.413,21.782,53.15,21.764,18.922-.018,29.689-3.828,42.917-16.319-.981,6.527-3.651,15.523-7.95,20.671-3.254,3.459-10.457,3.081-14.858,3.503-23.251,2.23-49.178-1.611-68.447-15.594-5.168-3.75-8.569-7.5-12.97-11.902-1.478.225-.787-.041-1.955,1.149l3.291,5.941c-3.972.888-7.336,1.563-11.015,3.394l-.165.305c-2.93,2.016-5.06,4.661-7.384,7.354-.651-1.528-1.223-3.09-1.713-4.677-2.642-8.614-3.141-23.949.766-32.473.524-1.144.51-.972,1.321-1.205.716,1.019.958,1.388,1.82,2.272.465-.541,4.084-26.165,4.988-30.072Z" fill="#d98452"/><path d="M65.301,319.59c-.164-3.495-.64-8.348-.293-11.686,2.165-2.882,5.942.768,8.017,2.351l3.291,5.941c-3.972.888-7.336,1.563-11.015,3.394Z" fill="#f4ae64"/><path d="M163.371,183.023c3.962-.346,24.79-1.209,27.47.034-5.097.109-4.709-.127-6.918,4.408l-.194.141c-3.723,6.623-5.429,10.493-8.393,17.37-1.86,4.316-6.851,23.84-9.023,25.462-.954.223-2.126.622-2.849-.302-7.581-9.695-5.517-31.988-1.75-41.854l.363-.401c.457-1.585.871-3.257,1.294-4.858Z" fill="#c7703a"/><path d="M163.371,183.023c3.962-.346,24.79-1.209,27.47.034-5.097.109-4.709-.127-6.918,4.408l-.194.141c-2.021-1.897-17.613-.005-21.652.275.457-1.585.871-3.257,1.294-4.858Z" fill="#d98452"/><path d="M204.987,184.949c5.569.893,10.058,2.096,15.455,3.717.988.296,6.284,1.913,7.034,2.025-9.229,8.447-17.377,15.54-23.699,26.489-1.488,2.578-7.134,12.246-9.426,13.224-5.119-.069-4.231-7.445-4.008-11.099.704-11.555,5.172-20.977,11.279-30.595,1.397-1.25,2.178-2.3,3.365-3.761Z" fill="#c7703a"/><path d="M64.934,261.094c2.401-7.767,4.659-13.527,8.598-20.554,2.967,5.202,5.658,8.989,9.988,13.46,4.16,4.295,12.397,7.979,15.643,12.764.346.51.11,1.345.035,2.059-.934,1.187-2.096,1.778-3.61,1.786-11.99.069-19.295-2.293-29.038-8.521l-1.616-.994Z" fill="#c7703a"/><path d="M120.841,195.451c7.048-3.471,12.592-5.269,20-7.71-.349,1.644-.696,3.494-1.175,5.08l-.445,1.756c-.501,4.996-.611,9.096-.602,14.088.008,4.577,1.645,12.517-1.874,15.752-8.073,1.952-13.644-17.468-15.041-23.122l-.16-.566-.703-5.278Z" fill="#c7703a"/><path d="M120.841,195.451c7.048-3.471,12.592-5.269,20-7.71-.349,1.644-.696,3.494-1.175,5.08l-.445,1.756-.724-.668c-3.191.585-15.528,4.593-16.793,7.386l-.16-.566-.703-5.278Z" fill="#ec9b6f"/><path d="M86.49,221.791c4.342-4.803,10.616-10.858,15.71-14.572l1.39,4.366c2.86,8.216,6.601,14.301,11.6,21.376,1.394,1.973,2.553,3.089,2.029,5.425-3.729,3.281-12.873-1.35-16.73-3.45-4.141-2.254-7.924-6.176-11.036-9.709l-2.963-3.436Z" fill="#c7703a"/><path d="M140.108,251.748c8.337,2.693,16.152,7.061,22.475,13.159l-1.625,3.461-.372.081c-1.443,3.312-21.468,20.557-25.676,14.795-1.26-8.003,8.863-17.769,12.426-24.833l-.438-.266c.178-.425.355-.849.533-1.274-1.261-3.822-5.616-2.275-7.323-5.123Z" fill="#c7703a"/><path d="M140.108,251.748c8.337,2.693,16.152,7.061,22.475,13.159l-1.625,3.461-.372.081c-4.409-4.656-7.409-7.299-13.25-10.038l-.438-.266c.178-.425.355-.849.533-1.274-1.261-3.822-5.616-2.275-7.323-5.123Z" fill="#ec9b6f"/><path d="M175.424,284.232c2.085,6.152,3.709,11.802,4.117,18.347l-3.07.836c-5.63,2.229-24.406,5.355-26.3-2.482.714-3.234,3.488-5.055,6.297-6.444,5.578-2.76,10.114-5.459,15.083-9.241l1.869-.15,2.004-.866Z" fill="#c7703a"/><path d="M175.424,284.232c2.085,6.152,3.709,11.802,4.117,18.347l-3.07.836c-1.023-4.945-2.647-13.99-4.92-18.167l1.869-.15,2.004-.866Z" fill="#d98452"/><path d="M185.505,307.213c4.011.949,4.438,3.641,6.858,3.699,2.038-1.201,4.117-4.008,5.728-5.903-.349,2.027-.714,4.652-1.316,6.563l1.068,2.038c-.54,3.532-2.252,12.002-.959,14.918-2.35,1.286-3.468,1.487-6.246,1.324-3.594.671-8.057,1.867-11.636,2.745,4.431-10.886,5.38-13.749,6.503-25.384Z" fill="#d98452"/><path d="M196.775,311.572l1.068,2.038c-.54,3.532-2.252,12.002-.959,14.918-2.35,1.286-3.468,1.487-6.246,1.324.892-7.684,1.549-11.868,6.137-18.28Z" fill="#611e13"/><path d="M211.927,290.715c6.469,11.29,13.437,19.773,23.752,27.999,1.355.923,2.466,1.278,2.876,2.501l-.57.412-.318.551.365.398c.098,1.169.217,2.187.199,3.363l-4.686-1.688c-2.273-1.146-5.136-2.267-6.664-4.152l-.224.045c-5.946-9.649-14.877-17.269-14.73-29.429Z" fill="#d98452"/><path d="M235.679,318.714c1.355.923,2.466,1.278,2.876,2.501l-.57.412-.318.551.365.398c.098,1.169.217,2.187.199,3.363l-4.686-1.688c-2.273-1.146-5.136-2.267-6.664-4.152,2.67-.443,6.266.245,8.975.726l-.177-2.111Z" fill="#611e13"/><path d="M235.679,318.714c1.355.923,2.466,1.278,2.876,2.501l-.57.412-2.129-.802-.177-2.111Z" fill="#cb7c49"/><path d="M226.657,320.144l.224-.045c1.528,1.885,4.391,3.006,6.664,4.152l-1.698,1.43c-2.625,2.476-6.609,8.1-7.709,11.506-1.084-1.342-2.534-2.788-3.738-4.055-1.776-.853-3.212-1.63-4.927-2.602,1.073-2.618,1.352-3.74,3.234-5.892,3.52-2.035,5.616-.015,7.95-4.494Z" fill="#d98452"/><path d="M218.707,324.638c.22,3.789.063,4.995,1.693,8.494-1.776-.853-3.212-1.63-4.927-2.602,1.073-2.618,1.352-3.74,3.234-5.892Z" fill="#c7703a"/><path d="M140.841,187.741c6.474-2.134,15.715-3.558,22.53-4.718-.423,1.601-.837,3.273-1.294,4.858l-.363.401c-2.59.598-20.51,5.135-22.048,4.539.479-1.586.826-3.436,1.175-5.08Z" fill="#fbd6a0"/><path d="M102.2,207.219c5.705-4.72,12.127-8.328,18.641-11.768l.703,5.278c-6.443,3.116-12.054,6.871-17.954,10.856l-1.39-4.366Z" fill="#fbd6a0"/><path d="M183.923,187.465c2.209-4.535,1.821-4.299,6.918-4.408,4.932.234,9.291,1.01,14.146,1.892-1.187,1.461-1.968,2.511-3.365,3.761-4.162-.733-13.106-.969-17.699-1.245Z" fill="#fbd6a0"/><path d="M162.583,264.907c5.918,6.11,9.624,11.327,12.841,19.325l-2.004.866c-.87-.113-.663-.126-1.489-.564-3.034-5.585-7.183-11.034-10.973-16.166l1.625-3.461Z" fill="#fbd6a0"/><path d="M198.374,310.927c1.701,9.242,3.195,10.032,8.199,17.251-3.772-.06-5.971-.072-9.689.35-1.293-2.916.419-11.386.959-14.918l.531-2.683Z" fill="#d98452"/><path d="M86.49,221.791l2.963,3.436c-1.98.679-5.017,1.998-6.938,1.731,1.092-1.719,2.674-3.558,3.975-5.167Z" fill="#f6c38f"/><path d="M198.091,305.009l1.22-.732c1.024,1.289-.349,5.104-.937,6.65l-.531,2.683-1.068-2.038c.602-1.911.967-4.536,1.316-6.563Z" fill="#b45b33"/><path d="M191.739,279.627c-1.656.157-2.14.32-3.723-.262l-.102-.771c1.379-1.262,2.155-1.222,3.994-1.563l2.472.506-2.533.33c.849.757,2.121.723,3.471.964-1.102.238-2.524.499-3.579.796Z" fill="#230603"/><path d="M137.153,250.929c-1.847-.491-2.675-.753-4.441-1.471.972-.612,2.343-.33,3.746-.316l.695,1.787Z" fill="#611e13"/><path d="M186.085,337.588c9.791-2.617,24.472-7.059,31.882,2.653,9.687,17.178-15.102,25.013-26.936,28.235-7.759,1.989-14.242,2.803-22.137,3.684.622-.428.287-.14.916-.957-1.882-2.925-3.217-4.959-4.491-8.207l-.258-.206c-1.641-8.84-1.624-13.306,2.273-21.385,6.274-1.009,12.538-2.462,18.751-3.817Z" fill="#fbefd3"/><path d="M167.334,341.405c6.274-1.009,12.538-2.462,18.751-3.817-4.175,8.31-4.429,13.591-.633,22.197l.004.36c1.852,2.917,3.506,5.558,5.575,8.331-7.759,1.989-14.242,2.803-22.137,3.684.622-.428.287-.14.916-.957-1.882-2.925-3.217-4.959-4.491-8.207l-.258-.206c-1.641-8.84-1.624-13.306,2.273-21.385Z" fill="#c7703a"/><path d="M185.456,360.145c1.852,2.917,3.506,5.558,5.575,8.331-7.759,1.989-14.242,2.803-22.137,3.684.622-.428.287-.14.916-.957-1.882-2.925-3.217-4.959-4.491-8.207,1.804-1.385,15.844-1.856,20.137-2.851Z" fill="#b45b33"/><path d="M217.967,340.241c9.687,17.178-15.102,25.013-26.936,28.235-2.069-2.773-3.723-5.414-5.575-8.331l-.004-.36c6.49-.985,17.334-4.36,23.034-7.748,5.444-3.236,7.931-5.863,9.481-11.796Z" fill="#e2b9a1"/><path d="M149.923,343.259c5.795-.351,11.716-.734,17.411-1.854-3.897,8.079-3.914,12.545-2.273,21.385l.258.206c1.274,3.248,2.609,5.282,4.491,8.207-.629.817-.294.529-.916.957-7.506.352-13.296.603-20.763.114-6.063.098-17.163-.883-22.995-2.295l.339-.23c.608-1.383-.856-6.676-.964-9.576l-.085-.348c.037-11.087,5.418-13.963,5.637-17.423,7.193.807,12.613.975,19.86.857Z" fill="#f4ae64"/><path d="M130.063,342.402c7.193.807,12.613.975,19.86.857-4.835,7.13-7.005,11.137-6.311,20.021l-.053.275c1.291,4.061,2.033,5.081,4.572,8.719-6.063.098-17.163-.883-22.995-2.295l.339-.23c.608-1.383-.856-6.676-.964-9.576l-.085-.348c.037-11.087,5.418-13.963,5.637-17.423Z" fill="#c7703a"/><path d="M124.511,360.173c6.79,1.636,13.924,2.149,19.048,3.382,1.291,4.061,2.033,5.081,4.572,8.719-6.063.098-17.163-.883-22.995-2.295l.339-.23c.608-1.383-.856-6.676-.964-9.576Z" fill="#b45b33"/><path d="M143.612,363.28c6.395.266,14.948-.172,21.449-.49l.258.206c1.274,3.248,2.609,5.282,4.491,8.207-.629.817-.294.529-.916.957-7.506.352-13.296.603-20.763.114-2.539-3.638-3.281-4.658-4.572-8.719l.053-.275Z" fill="#d98452"/><path d="M231.847,325.681l1.698-1.43,4.686,1.688c1.653.651,4.188,1.749,5.801,2.264,3.598,1.364,7.205,2.704,10.82,4.021,4.427,1.498,8.649,3.151,13.021,4.675-8.715,5.343-11.336,8.775-13.196,18.909l-.258,1.124.28,5.861c-10.679-1.501-20.238-2.976-30.623-6.013,1.961-4.309,2.214-5.804,2.899-10.33l.028-.383-.441-1.894c-.773-3.432-.974-3.892-2.424-6.986,1.1-3.406,5.084-9.03,7.709-11.506Z" fill="#f4ae64"/><path d="M226.975,346.45c6.421,6.311,18.679,8.563,27.444,10.482l.28,5.861c-10.679-1.501-20.238-2.976-30.623-6.013,1.961-4.309,2.214-5.804,2.899-10.33Z" fill="#d98452"/><path d="M244.032,328.203c3.598,1.364,7.205,2.704,10.82,4.021-7.821,4.78-9.284,8.47-13.847,16.021-1.392,2.303-3.856,1.882-5.732.27-2.731-6.562,3.047-16.739,8.759-20.312Z" fill="#c7703a"/><path d="M224.138,337.187c1.1-3.406,5.084-9.03,7.709-11.506l-.224.464c-1.733,3.515-3.003,4.156-4.237,8.012l.212-.101c-.303,2.265-.575,9.43-.595,12.011l-.441-1.894c-.773-3.432-.974-3.892-2.424-6.986Z" fill="#ec9b6f"/><path d="M97.3,333.362c6.083,2.713,10.256,4.341,16.68,6.079,5.283,1.372,10.658,2.362,16.083,2.961-.219,3.46-5.6,6.336-5.637,17.423l.085.348c.108,2.9,1.572,8.193.964,9.576l-.339.23c-7.206-1.347-13.038-2.447-20.033-4.887-5.427-1.42-15.399-5.379-19.991-8.569.642-.54,1.763-8.477,2.454-10.885l.336-.183c1.848-4.688,5.817-8.705,9.398-12.093Z" fill="#f4ae64"/><path d="M97.3,333.362c6.083,2.713,10.256,4.341,16.68,6.079-5.653,3.064-9.039,9.018-9.742,15.321.091,1.936.216,3.697.094,5.642l.771,4.688c-5.427-1.42-15.399-5.379-19.991-8.569.642-.54,1.763-8.477,2.454-10.885l.336-.183c1.848-4.688,5.817-8.705,9.398-12.093Z" fill="#c7703a"/><path d="M87.902,345.455c5.592,3.879,9.885,6.104,15.962,9.01.05,1.842-.009,4.212.468,5.939l.771,4.688c-5.427-1.42-15.399-5.379-19.991-8.569.642-.54,1.763-8.477,2.454-10.885l.336-.183Z" fill="#b45b33"/><path d="M104.238,354.762c4.283,1.397,16.279,5.313,20.188,5.063l.085.348c.108,2.9,1.572,8.193.964,9.576l-.339.23c-7.206-1.347-13.038-2.447-20.033-4.887l-.771-4.688c.122-1.945-.003-3.706-.094-5.642Z" fill="#d98452"/><path d="M76.316,316.196c4.09,5.601,6.057,7.373,11.589,11.643,3.419,2.213,5.768,3.738,9.395,5.523-3.581,3.388-7.55,7.405-9.398,12.093l-.336.183c-.691,2.408-1.812,10.345-2.454,10.885-4.876-2.482-10.85-6.658-14.883-10.358-6.229-6.776-8.625-10.564-12.477-18.916,2.324-2.693,4.454-5.338,7.384-7.354l.165-.305c3.679-1.831,7.043-2.506,11.015-3.394Z" fill="#c7703a"/><path d="M87.905,327.839c3.419,2.213,5.768,3.738,9.395,5.523-3.581,3.388-7.55,7.405-9.398,12.093l-.336.183c-.691,2.408-1.812,10.345-2.454,10.885-4.876-2.482-10.85-6.658-14.883-10.358.978-5.22,1.669-6.326,4.378-10.829l.283-.105c3.651-3.928,8.171-5.52,13.015-7.392Z" fill="#f4ae64"/><path d="M74.607,335.336l.283-.105c.626,2.753,9.937,9.309,12.676,10.407-.691,2.408-1.812,10.345-2.454,10.885-4.876-2.482-10.85-6.658-14.883-10.358.978-5.22,1.669-6.326,4.378-10.829Z" fill="#d98452"/><path d="M65.136,319.895c2.225,2.039,4.338,10.767,9.471,15.441-2.709,4.503-3.4,5.609-4.378,10.829-6.229-6.776-8.625-10.564-12.477-18.916,2.324-2.693,4.454-5.338,7.384-7.354Z" fill="#b45b33"/><path d="M267.873,336.899c9.4,2.53,20.932,5.1,24.102,15.424l-2.062.225c-1.219-1.451-1.858-2.516-3.601-3.227l-.64.484c-.01,2.389,1.338,3.705,2.775,5.743.82,1.607,1.066,1.714.819,3.505-1.561,2.912-4.526,3.457-7.672,4.514l-1.024-4.553c-1.2-2.738-3.12-5.241-5.887-6.501l-.453.402c-.061,2.442,1.374,4.078,2.712,6.245.785,1.949.859,2.844,1.212,4.949-8.215.309-15.329.098-23.455-1.316l-.28-5.861.258-1.124c1.86-10.134,4.481-13.566,13.196-18.909Z" fill="#fbefd3"/><path d="M254.677,355.808c.357.85.22,1.223,1.159,1.509,3.705,1.131,18.184,3.631,21.106,1.843.785,1.949.859,2.844,1.212,4.949-8.215.309-15.329.098-23.455-1.316l-.28-5.861.258-1.124Z" fill="#e2b9a1"/><path d="M288.447,355.548c.82,1.607,1.066,1.714.819,3.505-1.561,2.912-4.526,3.457-7.672,4.514l-1.024-4.553c3.602-1.247,4.645-1.249,7.877-3.466Z" fill="#e2b9a1"/><path d="M299.517,355.322c-.214-9.404,2.827-8.883,10.263-7.137,8.94.75,13.808,1.05,22.868.492,1.251,3.269,1.399,4,1.889,7.45-.317,2.078-.604,3.722-.662,5.85-4.239.699-19.267,3.279-21.669-.772.211-1.642.907-2.243,1.936-3.55.981-1.422,2.124-2.495,2.057-3.928l-.978.056c-2.272,1.299-2.566,1.489-4.199,3.521-.968,2.169-.931,3.002-2.67,4.3-2.691.081-3.988-1.124-6.254-2.817-.087-1.138-.184-1.808-.381-2.934-1.279-.955-.574-.765-2.2-.531Z" fill="#fbefd3"/><path d="M314.142,357.655l.733.652c3.554.924,15.764-1.145,19.662-2.18-.317,2.078-.604,3.722-.662,5.85-4.239.699-19.267,3.279-21.669-.772.211-1.642.907-2.243,1.936-3.55Z" fill="#e2b9a1"/><path d="M299.517,355.322c-.214-9.404,2.827-8.883,10.263-7.137-1.212.311-2.695.423-3.305,1.187-2.113,2.962-2.48,3.883-3.905,7.185l-.472,2.23c-.087-1.138-.184-1.808-.381-2.934-1.279-.955-.574-.765-2.2-.531Z" fill="#ecccb7"/><path d="M299.517,355.322c2.915-2.834,2.362-6.151,6.958-5.95-2.113,2.962-2.48,3.883-3.905,7.185l-.472,2.23c-.087-1.138-.184-1.808-.381-2.934-1.279-.955-.574-.765-2.2-.531Z" fill="#611e13"/><path d="M302.098,358.787l.472-2.23c3.552,1.086,4.723,1.521,8.452.747-.968,2.169-.931,3.002-2.67,4.3-2.691.081-3.988-1.124-6.254-2.817Z" fill="#ecccb7"/><path d="M347.066,346.277c9.749-2.305,13.784-3.496,22.593-8.563-6.162,18.362-18.877,20.432-35.784,24.263.058-2.128.345-3.772.662-5.85-.49-3.45-.638-4.181-1.889-7.45,4.926-.449,9.601-1.315,14.418-2.4Z" fill="#d98452"/><path d="M332.648,348.677c4.926-.449,9.601-1.315,14.418-2.4,2.066,1.357,1.624.678,2.611,2.695-.841,4.495-10.976,5.77-15.14,7.155-.49-3.45-.638-4.181-1.889-7.45Z" fill="#ec9b6f"/><path d="M212.371,264.989c3.052,1.055,5.712,1.998,8.692,3.241-.046,2.955.52,5.799.971,8.73l-8.368-.9c-.784-4.131-1.04-6.888-1.295-11.071Z" fill="#d98452"/><path d="M423.603,236.323c1.186.134,2.703.347,3.862.423-1.126,2.447-2.093,4.719-3.517,7.013-1.084-1.987-.189-2.489-1.834-4.033l-.09-.391.966-.297c1.105-1.432.785-.596.613-2.715Z" fill="#d98452"/><path d="M291.975,352.323l-.146,1.946-.52.216-1.396-1.937,2.062-.225Z" fill="#ecccb7"/><path d="M424.488,133.297c5.197-.284,20.487-1.565,24.016,1.917,2.998,6.601-12.66,16.185-14.345,21.063,2.244,1.417,12.333-.231,16.41,3.023,1.274,2.664-.27,3.292-2.599,4.738-5.9.179-20.555,1.248-24.741-1.596-.539-.892-1.01-1.265-.871-2.162.772-4.973,13.014-16.695,16.514-20.135-4.602.125-11.465.868-15.431-.983-1.913-2.414-1.178-4.018,1.047-5.865Z" fill="#43160b"/><path d="M396.217,155.381c4.313-.213,14.762-1.944,16.018,2.959-.732,3.734-8.075,11.09-10.966,14.369,4.198.143,9.728-.965,12.864,1.22.745,1.636.621.791.282,2.637-1.16,1.228-2.179,1.154-3.885,1.403-4.464.266-15.245,2.235-16.809-2.644.614-3.898,7.613-11.038,10.584-14.528-3.648.064-9.207.936-11.824-1.162-.539-1.657-.467-.801.025-2.661,1.58-1.508,1.224-1.049,3.711-1.593Z" fill="#43160b"/><path d="M378.307,175.92c2.176-.126,2.759-.268,4.821.252,1.476,1.28,1.05.501,1.361,2.396-1.143,3.774-5.402,7.303-8.322,10.155,2.898-.022,8.661-.769,9.365,2.935-2.037,2.421-5.055,1.795-8.038,1.774-3.141.057-6.506.88-7.315-2.808.853-3.556,4.973-7.224,7.616-10.006-3.391.03-5.65.584-8.032-1.71.01-3.628,5.975-2.976,8.544-2.988Z" fill="#43160b"/><path d="M385.983,173.56c1.983.024,1.207-.33,2.527.789l-.214.694c-.129.466-.454,1.144-.654,1.612l-.778.265c-1.124-1.468-.76-1.129-.881-3.36Z" fill="rgba(178,181,186,.012)"/></svg>