<?xml version="1.0" encoding="UTF-8"?><svg id="a" xmlns="http://www.w3.org/2000/svg" width="500" height="500" xmlns:xlink="http://www.w3.org/1999/xlink" viewBox="0 0 500 500"><defs><linearGradient id="b" x1="-2283.143" y1="376.213" x2="-2263.193" y2="389.547" gradientTransform="translate(-1934.139 490.088) rotate(-180) scale(.972)" gradientUnits="userSpaceOnUse"><stop offset="0" stop-color="#eac49a"/><stop offset="1" stop-color="#ffe1a6"/></linearGradient><linearGradient id="c" x1="-2144.044" y1="121.792" x2="-2221.187" y2="139.834" gradientTransform="translate(-1934.139 490.088) rotate(-180) scale(.972)" gradientUnits="userSpaceOnUse"><stop offset="0" stop-color="#f5ab51"/><stop offset="1" stop-color="#e0beac"/></linearGradient></defs><path d="M120.677,97.918c-2.088-.211-3.215-.314-5.279-.025-2.346.33-4.714,2.758-5.785,4.729-9.653,17.784-14.253,58.047-9.99,77.219-.575,2.451-4.364,9.082-5.619,12.093-6.941,16.633-10.532,33.538-7.539,51.565-6.8-.916-19.796-1.429-25.676,2.124,8.586.431,18.043.115,26.209.708,1.956,5.929,3.232,9.321,5.842,14.967-7.847,1.857-19.652,5.352-25.07,11.327.112-.023.223-.047.334-.07l.555-.126c4.16-.9,9.63-3.344,13.751-4.829,4.125-1.486,7.567-2.474,11.813-3.646,13.25,19.839,24.154,27.147,45.2,36.633.535,5.215.142,11.564.465,17.012,1.375,23.19,5.928,45.753,10.139,68.534,1.73,9.36,4.052,21.69,3.913,31.208-8.474,11.824-8.98,20.691,8.096,23.286,6.151.934,24.556-.012,28.406-4.76,6.761-8.338,9.776-32.971,10.874-43.441,2.554.853,4.708,1.555,7.181,2.654,1.808,5.817,3.227,10.891,3.165,17.029-2.56,3.607-5.433,7.08-5.173,11.788.616,11.158,19.004,9.655,26.222,9.4.322,2.274.485,4.905,1.621,6.95,1.549,2.79,5.269,4.19,8.221,4.929,7.47,1.868,22.408,2.174,29.161-2.151,7.122-4.561,12.131-33.154,13.786-41.341,3.567-.213,7.137-.359,10.709-.437,2.669,5.627,3.588,9.3,3.505,15.412-3.431,4.756-6.515,10.874-2.315,16.097,5.498,6.836,27.618,6.258,33.242.891,6.625-6.322,9.019-25.719,9.729-34.335.193-8.039-1.012-12.384-2.254-19.782-.258-1.537,2.74-13.058,3.277-15.742,2.928-14.644,2.777-27.529.392-42.222,31.399-2.887,60.051-31.646,62.108-63.323.577-8.888-2.778-23.325-14.463-23.642-20.097-.546-17.115,19.416-21.354,32.701-2.021,6.332-6.073,13.091-10.994,17.771-5.702,5.675-17.175,11.082-25.188,10.755l-.438-.021c-5.596-8.267-11.268-13.465-19.859-18.751,3.206-4.173,6.058-8.443,9.194-12.556,3.103.867,6.44,1.778,9.442,2.9,5.86,2.19,10.67,4.695,16.866,5.95-4.277-5.502-18.411-9.816-25.108-11.625,2.468-4.748,4.088-9.978,5.425-15.15,3.06-.153,23.942.029,24.895-.731-3.188-3.087-18.934-2.22-24.133-2.235,3.027-22.503-2.112-42.667-13.18-62.382.325-2.364.666-4.731.85-7.111.49-6.334.818-12.633.571-18.988-.479-12.337-4.259-44.859-12.418-53.951-1.759-1.961-3.684-2.755-6.3-2.806-12.139-.234-34.77,15.845-44.041,23.402-2.816,2.296-5.389,4.851-7.986,7.388-25.048-8.37-51.153-7.353-76.294-.164-2.726-2.11-5.884-5.836-8.942-8.219-10.735-8.364-26.592-19.773-39.76-22.863Z" fill="#401405"/><path d="M165.203,132.467c-6.589-6.999-41.281-34.028-49.86-29.134-9.399,12.084-13.986,53.972-11.326,69.554.368,2.156.793,5.018,1.306,6.922.203.753-2.194,5.302-2.679,6.229-4.83,9.243-8.265,19.023-10.401,29.22-.653,3.765-2.097,13.272-1.39,16.774.14,4.365.553,7.32,1.464,11.599,5.03.604,14.546,1.735,18.753,4.487l.249.557c-1.982,1.424-14.431-1.502-18.212-1.714,1.391,4.534,2.858,8.636,5.22,12.807,3.143-.433,10.761-2.092,13.336-.861l.036.497c-2.164,1.766-4.508,1.792-7.314,2.246l-4.497,1.057c1.001,1.448,4.696,6.845,5.782,7.732,16.758,19.071,35.063,26.246,58.942,33.015,1.927.546,11.097,2.714,12.111,3.571-.275.498-.097.347-.43.55-1.69.253-2.343.257-4.061.222-1.363,3.798-2.105,7.224-3.286,10.928l.138.253.397.037c2.069.214,9.094,2.017,11.985,2.536,8.641,1.545,17.397,2.351,26.175,2.41,5.743.092,11.289-.276,16.982-.682,2.265-.161,11.621-1.733,13.092-1.522l.033-.212c-2.295-4.741-4.663-9.135-7.165-13.76,1.8-.088,6.423-.198,7.956-.585,4.26-1.688,11.58-3.139,16.32-4.622,21.331-6.676,39.767-13.835,54.535-31.527,1.934-2.246,3.969-5.369,5.55-7.865l-4.424-1.139c-1.853-.323-6.182-.865-7.418-2.017l.173-.563c2.346-1.56,10.076.186,13.145.634,2.256-3.526,4.065-8.566,5.335-12.526-3.54.216-16.216,2.929-18.041,1.982l.096-.558c3.951-3.402,13.08-3.714,18.236-4.805l.352-.077c.984-4.179,1.339-7.009,1.525-11.301.235-6.383-.248-10.259-1.378-16.431-1.996-9.269-4.406-16.486-8.212-25.227-1.334-3.062-5.011-9.129-5.528-11.923,3.268-2.649,2.577-21.52,2.346-26.271-.512-10.521-4.676-42.966-12.09-49.665-10.177-2.09-41.641,21.392-49.192,29.111l3.173,2.27c.897.915,1.29.949,1.294,1.877l-.65.391c-3.771-1.528-9.922-3.162-13.886-4.301-5.057-1.163-9.796-2.128-14.954-2.793-2.626-.402-5.642-.633-8.312-.899-3.345-.365-15.227-.728-18.262-.029-2.782.335-5.632.645-8.402,1.023-4.113.668-10.662,1.647-14.621,2.883-4.964,1.283-9.892,2.704-14.777,4.262-.424-1.022.362-1.426,1.032-2.124l3.699-2.503Z" fill="#f0af63"/><path d="M300.12,271.286c-18.363.04-40.377-7.16-56.486-16.358-10.871-6.207-23.164-21.948-35.657-23.029-9.609.099-19.69,10.244-26.773,15.725-17.922,13.87-40.684,22.203-63.593,23.102l-3.188-.032c-2.302-.069-6.774-.447-8.752-.258,16.758,19.071,35.063,26.246,58.942,33.015,1.927.546,11.097,2.714,12.111,3.571-.275.498-.097.347-.43.55-1.69.253-2.343.257-4.061.222-1.363,3.798-2.105,7.224-3.286,10.928l.138.253.397.037c2.069.214,9.094,2.017,11.985,2.536,8.641,1.545,17.397,2.351,26.175,2.41,5.743.092,11.289-.276,16.982-.682,2.265-.161,11.621-1.733,13.092-1.522l.033-.212c-2.295-4.741-4.663-9.135-7.165-13.76,1.8-.088,6.423-.198,7.956-.585,4.26-1.688,11.58-3.139,16.32-4.622,21.331-6.676,39.767-13.835,54.535-31.527-1.14-.66-6.577-.037-8.627-.021l-.649.259Z" fill="#f8f2d4"/><path d="M114.423,270.695c-2.302-.069-6.774-.447-8.752-.258,16.758,19.071,35.063,26.246,58.942,33.015,1.927.546,11.097,2.714,12.111,3.571-.275.498-.097.347-.43.55-1.69.253-2.343.257-4.061.222-1.363,3.798-2.105,7.224-3.286,10.928l.138.253.397.037c2.069.214,9.094,2.017,11.985,2.536,8.641,1.545,17.397,2.351,26.175,2.41,5.743.092,11.289-.276,16.982-.682,2.265-.161,11.621-1.733,13.092-1.522l.033-.212c-2.295-4.741-4.663-9.135-7.165-13.76,1.8-.088,6.423-.198,7.956-.585,4.26-1.688,11.58-3.139,16.32-4.622,21.331-6.676,39.767-13.835,54.535-31.527-1.14-.66-6.577-.037-8.627-.021l-.649.259c-3.207,3.055-8.7,6.742-12.489,9.022-18.952,11.407-41.501,17.449-63.456,19.111-30.908,2.34-63.358-1.873-91.04-16.454-6.742-3.551-12.1-6.753-17.871-11.719.441-.365,1.645-.414,2.347-.52l-3.188-.032Z" fill="#e1bca4"/><path d="M211.527,242.22c-3.046-.215-7.112-.351-9.969.757-7.724,2.995,1.531,9.409,4.479,11.745-.179.937-.333,1.943-.659,2.839-.837,2.302-3.086,4.317-5.317,5.223-8.176,3.32-10.338-4.663-12.669-5.476-.554-.194-.558-.061-1.04.172-2.591,6.929,10.237,11.927,15.354,8.44,1.301-.887,2.108-1.247,3.431-2.321l2.405-2.618c10.465,13.056,24.007,1.674,20.805-3.751-2.574-.279-3.751,5.78-8.176,6.095-6.364.452-9.778-3.096-10.684-8.966,5.013-3.172,12.781-9.95,2.042-12.139Z" fill="#401405"/><path d="M210.698,245.017c-2.399-.117-7.351-.816-8.315,1.764.438,1.858,1.825,2.693,3.304,3.916.875.616.805.595,1.849.815,2.303-.4,6.399-2.774,5.757-5.619-.715-.731-1.542-.707-2.595-.877Z" fill="#e67a76"/><path d="M216.535,128.955c-3.345-.365-15.227-.728-18.262-.029.571,1.304.451,2.455.473,3.899l.089.147c.023,3.569,1.679,52.678,12.147,41.02,3.483-3.879,5.191-27.405,5.341-34.784.299-2.009.228-4.157.231-6.197l-.019-4.056Z" fill="#c8743a"/><path d="M216.535,128.955c-3.345-.365-15.227-.728-18.262-.029.571,1.304.451,2.455.473,3.899l.089.147c4.852-1.017,12.497-.363,17.549-.074-.034,1.803-.165,4.587-.061,6.31.299-2.009.228-4.157.231-6.197l-.019-4.056Z" fill="#d68653"/><path d="M239.802,132.646c-5.057-1.163-9.796-2.128-14.954-2.793.103,1.303.255,2.758.281,4.049.031.343.094,1.336.175,1.61.296,3.451,1.06,36.195,10.12,25.895,3.632-4.13,4.668-19.238,4.38-25.126-.075-1.132-.017-2.482-.002-3.636Z" fill="#c8743a"/><path d="M239.802,132.646c-5.057-1.163-9.796-2.128-14.954-2.793.103,1.303.255,2.758.281,4.049.031.343.094,1.336.175,1.61l.272-1.221c1.325-.498,11.917,1.729,14.228,1.99-.075-1.132-.017-2.482-.002-3.636Z" fill="#d68653"/><path d="M189.871,129.949c-4.113.668-10.662,1.647-14.621,2.883.481,1.144.322,2.025.273,3.295-.039,2.048.956,33.28,10.249,26.37,3.628-2.698,3.938-22.249,4.123-28.355l.076-.224-.101-3.968Z" fill="#c8743a"/><path d="M189.871,129.949c-4.113.668-10.662,1.647-14.621,2.883.481,1.144.322,2.025.273,3.295,3.3-.612,11.484-2.43,14.372-1.985l.076-.224-.101-3.968Z" fill="#d68653"/><path d="M92.243,215.257c-.653,3.765-2.097,13.272-1.39,16.774,7.016,2.368,21.414,3.865,27.487-1.213,4.784-4.001-8.148-8.153-9.624-8.804-3.415-1.508-14.47-4.673-16.474-6.757Z" fill="#c8743a"/><path d="M323.925,232.814c.235-6.383-.248-10.259-1.378-16.431l-.364.181c-7.113,3.444-15.587,5.307-22.46,8.865-8.085,4.185.259,8.548,5.29,8.966,6.243.519,12.993.344,18.912-1.581Z" fill="#c8743a"/><path d="M165.203,132.467c-6.589-6.999-41.281-34.028-49.86-29.134.795.827,9.036,4.133,10.858,5.082,10.229,5.326,28.43,17.484,35.303,26.556l3.699-2.503Z" fill="#e1bca4"/><path d="M299.063,103.297c-10.177-2.09-41.641,21.392-49.192,29.111l3.173,2.27c9.513-9.212,20.231-17.089,31.863-23.418,4.478-2.455,9.029-4.63,13.549-6.983.203-.327.405-.653.608-.98Z" fill="url(#b)"/><path d="M314.947,263.184l-4.424-1.139c-3.292,3.508-7.335,6.391-9.754,8.983,2.05-.015,7.487-.638,8.627.021,1.934-2.246,3.969-5.369,5.55-7.865Z" fill="#d68653"/><path d="M104.386,261.649l-4.497,1.057c1.001,1.448,4.696,6.845,5.782,7.732,1.978-.189,6.451.189,8.752.258-3.823-3.138-6.652-5.415-10.038-9.046Z" fill="#d68653"/><path d="M175.251,132.832c-4.964,1.283-9.892,2.704-14.777,4.262l.461.96c1.406.56,12.219-1.614,14.59-1.928.049-1.269.208-2.151-.273-3.295Z" fill="#e1bca4"/><path d="M239.802,132.646c-.015,1.154-.072,2.504.002,3.636,2.419.376,12.264,2.332,13.699,1.456l.184-.791c-3.771-1.528-9.922-3.162-13.886-4.301Z" fill="#e1bca4"/><path d="M198.273,128.926c-2.782.335-5.632.645-8.402,1.023l.101,3.968c2.696-.51,5.878-.512,8.775-1.092-.023-1.443.097-2.595-.473-3.899Z" fill="#e1bca4"/><path d="M224.848,129.853c-2.626-.402-5.642-.633-8.312-.899l.019,4.056c2.856.316,5.714.614,8.574.891-.026-1.291-.178-2.747-.281-4.049Z" fill="#e1bca4"/><path d="M277.759,237.894c2.593-1.831,3.865-5.305,4.358-8.346,2.098-12.94-7.414-25.971-20.445-27.742-6.354-.9-12.803.794-17.895,4.699-9.941,7.724-12.512,24.444-4.599,34.373,3.145,4.001,7.787,6.544,12.852,7.043,2.753.278,4.777-.004,7.455-.684.64.346.976.456,1.722.318,7.211-1.331,12.199-3.865,16.553-9.661Z" fill="#401405"/><path d="M278.233,224.184c-2.471-1.123-5.653-9.08-10.454-8.927,7.146,11.176,4.422,26.363-8.294,31.98.64.346.976.456,1.722.318,7.211-1.331,12.199-3.865,16.553-9.661,1.16-5.058,1.57-8.665.474-13.71Z" fill="#f8f2d4"/><path d="M278.233,224.184c-.655-3.134-1.597-5.885-3.313-8.611-2.914-4.65-7.553-7.955-12.9-9.19-6.808-1.531-11.835.234-17.474,3.843,9.489-3.375,16.022-2.566,23.233,5.031,4.802-.153,7.984,7.804,10.454,8.927Z" fill="#ccc4c3"/><path d="M261.782,214.827c-2.113-.793-4.49-.39-6.224,1.055-1.733,1.445-2.557,3.711-2.156,5.933.4,2.222,1.964,4.057,4.094,4.806,3.245,1.141,6.803-.543,7.979-3.776,1.175-3.233-.472-6.809-3.692-8.018Z" fill="#f8f2d4"/><path d="M245.034,232.822c-1.371-.131-2.604.839-2.799,2.203-.195,1.364.717,2.641,2.07,2.899.934.178,1.89-.171,2.488-.91.598-.738.742-1.746.375-2.622-.368-.877-1.187-1.48-2.134-1.57Z" fill="#f8f2d4"/><path d="M155.963,246.618c2.992.834,5.334,1.144,8.451.756,4.911-.58,9.372-3.141,12.348-7.091,8.083-10.578,5.1-26.64-5.394-34.451-4.919-3.696-11.111-5.272-17.199-4.378-13.083,1.993-22.779,14.952-20.347,28.16.417,2.265,1.868,6.346,4.097,7.296,1.956,5.542,11.546,10.401,17.324,10.053.184-.011.546-.243.72-.346Z" fill="#401405"/><path d="M148.501,214.632c-4.535-.143-8.017,6.867-10.842,8.818-1.112,5.671-.946,7.748.261,13.46,1.956,5.542,11.546,10.401,17.324,10.053.184-.011.546-.243.72-.346-12.931-5.631-14.465-20.892-7.463-31.986Z" fill="#f8f2d4"/><path d="M169.434,208.911c-13.952-8.104-27.853-.471-31.776,14.54,2.826-1.951,6.307-8.962,10.842-8.818,6.387-6.212,12.36-7.968,20.934-5.721Z" fill="#ccc4c3"/><path d="M170.171,214.444c-3.357-.668-6.626,1.494-7.325,4.845-.699,3.351,1.432,6.639,4.777,7.369,3.388.739,6.73-1.427,7.438-4.822.708-3.395-1.489-6.716-4.891-7.393Z" fill="#f8f2d4"/><path d="M154.798,233.109c-.908-.285-1.9-.042-2.573.632-.673.674-.915,1.665-.629,2.573.286.908,1.054,1.581,1.991,1.747,1.326.235,2.606-.601,2.926-1.909.32-1.308-.431-2.639-1.716-3.043Z" fill="#f8f2d4"/><path d="M139.259,148.026c-1.555-1.989-4.252-3.523-4.566-4.772,2.061-2.11,10.134.683,13.148-.182l.333-.68c-.316-7.594-20.629-31.239-28.895-31.891-1.19.459-.686.089-1.434,1.307-6.707,6.782-7.539,45.658-2.446,54.117.729.345.36.342,1.119.115,3.022-2.326,7.126-6.222,10.04-8.915,4.219-3.899,8.481-5.757,12.701-9.1Z" fill="#f39684"/><path d="M139.259,148.026c-1.555-1.989-4.252-3.523-4.566-4.772,2.061-2.11,10.134.683,13.148-.182l.333-.68c-.316-7.594-20.629-31.239-28.895-31.891-1.19.459-.686.089-1.434,1.307l2.626,1.447c.854,2.112,2.257,3.988,3.428,5.973,1.784,3.046,3.458,6.154,5.02,9.319,1.746,3.573,2.481,7.851,4.197,11.365-5.259,2.628-2.552,4.927.802,7.577-6.501,4.147-14.443,11.323-17.4,18.55,3.022-2.326,7.126-6.222,10.04-8.915,4.219-3.899,8.481-5.757,12.701-9.1Z" fill="#a5542d"/><path d="M143.51,139.404c-4.2-8.913-14.549-20.845-23.038-26.148.854,2.112,2.257,3.988,3.428,5.973,1.784,3.046,3.458,6.154,5.02,9.319,1.746,3.573,2.481,7.851,4.197,11.365,4.461-.583,5.797-.859,10.394-.509Z" fill="#e67a76"/><path d="M297.652,112.256c-.373-.407-1.084-1.306-1.698-1.188-9.176,1.754-28.182,23.888-28.481,31.896l.305.704c5.661.028,7.418-1.33,13.389-.189-1.425,1.294-4.531,3.567-4.712,5.129,2.227,2.875,13.263,8.479,15.975,12.463.558.82,5.164,4.917,6.139,5.028,3.718.258,4.169-17.156,4.189-20.155.08-11.425-.403-23.101-5.106-33.687Z" fill="#f39684"/><path d="M297.652,112.256c-.373-.407-1.084-1.306-1.698-1.188-9.176,1.754-28.182,23.888-28.481,31.896l.305.704c5.661.028,7.418-1.33,13.389-.189-1.425,1.294-4.531,3.567-4.712,5.129,2.227,2.875,13.263,8.479,15.975,12.463.558.82,5.164,4.917,6.139,5.028-3.458-7.167-11.003-14.073-17.638-18.305,3.089-2.032,5.941-4.479,1.577-7.248.659-4.367,4.227-13.553,6.67-17.5,1.315-2.125,4.405-6.428,5.166-8.624l3.308-2.166Z" fill="#a5542d"/><path d="M294.344,114.422c-8.051,4.519-18.735,16.945-22.341,25.314,4.038.034,6.532-.026,10.505.809.659-4.367,4.227-13.553,6.67-17.5,1.315-2.125,4.405-6.428,5.166-8.624Z" fill="#e67a76"/><path d="M285.618,243.802c-16.139-1.749-25.459,12.697-6.469,16.144,4.674.183,8.755.228,13.052-2.048,3.206-1.698,6.242-5.733,3.634-9.258-2.315-3.127-6.523-4.274-10.217-4.839Z" fill="#f39684"/><path d="M134.37,243.2c-17.627-1.802-21.942,14.665-4.294,16.174,4.512.356,9.55.13,13.439-2.535,3.02-2.069,4.438-6.001,1.762-9.002-2.702-3.031-6.979-4.187-10.907-4.637Z" fill="#f39684"/><path d="M307.502,281.04c-1.183,1.167-2.402,2.297-3.656,3.387-1.32,1.087-3.548,3.022-4.888,3.907-3.847,2.72-7.182,4.898-11.376,7.135-12.882,6.221-25.635,10.932-40.072,12.015-2.685.201-6.435.696-8.969-.285-1.533.387-6.156.498-7.956.585,2.503,4.625,4.87,9.019,7.165,13.76l-.033.212c5.111,13.398,8.036,25.122,1.837,38.98-1.386,3.098-4.995,9.616-7.463,12.005,4.967,14.226,9.178,37.195,8.981,52.292-1.843,3.467-2.739,4.75-3.469,8.559.118,2.86,1.409,5.157,4.272,6.096l.896-.118c.66-.904.43-.819.452-2.203.287-1.694,1.193-7.061,3.484-6.551.17.937-.72,4.521-.753,6.17l.072,3.546c3.379.377,6.033.565,9.446.566l.154-3.612c.33-1.633,1.334-4.834,2.854-5.654l.402.369c.306,1.391-.19,2.73-.54,4.162-.12,1.208-.047,3.235-.042,4.511,8.777-.104,11.585-.989,14.519-9.338,2.455-6.85,4.525-15.611,6.068-22.668.268-1.676.93-4.226,1.321-5.948.873-4.476,1.664-8.969,2.373-13.474.535-2.085.915-4.433,1.307-6.57.89-5.445,1.808-10.885,2.756-16.321.426-2.549,2.189-15.687,3.76-16.638l.306.703c.073,6.588-.135,11.921-.924,18.501-.881,8.22-2.017,19.604-3.719,27.507,10.185-.129,23.229-1.631,33.034-4.604l2.007-.222.075.23c-.873,2.068-4.036,3.243-6.131,4.104-4.4,1.806-8.963,3.189-13.625,4.13,2.366,5.653,4.449,12.15,2.955,18.314-2.995,4.511-7.083,9.739-.237,12.866.294-2.429.853-6.597,2.853-8.239l.776-.096c.819,1.459-2.421,8.419.414,9,1.89.387,5.367.434,7.39.411l.485-.333.101-1.554c.501-2.274.753-3.802,2.205-5.699l.444.072c.542,1.362.154,2.98-.01,4.511-.018,1.204.013,1.678.187,2.87,2.948-.517,5.864-.869,8.278-2.795,1.444-1.649,2.145-3.251,3.037-5.204,2.801-8.052,6.601-24.618,4.997-32.676-2.371-11.917-2.887-10.796-.066-23.274.823-3.583,1.501-7.197,2.033-10.834,2.933-20.097.662-44.538-11.779-61.188-2.558-5.424-12.699-12.499-17.989-15.379Z" fill="#f0af63"/><path d="M287.582,295.469c-12.882,6.221-25.635,10.932-40.072,12.015-2.685.201-6.435.696-8.969-.285-1.533.387-6.156.498-7.956.585,2.503,4.625,4.87,9.019,7.165,13.76,1.021-.386,3.018-.677,4.153-.889,17.452-3.255,34.085-10.098,47.688-21.813-.674-1.054-1.364-2.285-2.009-3.374Z" fill="#d68653"/><path d="M269.185,427.61c-1.997-1.725-4.278-3.09-6.743-4.034-7.239-2.784-14.475-1.588-21.37,1.456-1.843,3.467-2.739,4.75-3.469,8.559.118,2.86,1.409,5.157,4.272,6.096l.896-.118c.66-.904.43-.819.452-2.203.287-1.694,1.193-7.061,3.484-6.551.17.937-.72,4.521-.753,6.17l.072,3.546c3.379.377,6.033.565,9.446.566l.154-3.612c.33-1.633,1.334-4.834,2.854-5.654l.402.369c.306,1.391-.19,2.73-.54,4.162-.12,1.208-.047,3.235-.042,4.511,8.777-.104,11.585-.989,14.519-9.338l-3.375-4.001-.26.075Z" fill="#f8f2d4"/><path d="M269.445,427.535l-.26.075c-.585,3.447-6.577,9.442-10.19,9.821-.634-.591-.388-.259-.653-1.068-.12,1.208-.047,3.235-.042,4.511,8.777-.104,11.585-.989,14.519-9.338l-3.375-4.001Z" fill="#e1bca4"/><path d="M245.952,436.985l.072,3.546c3.379.377,6.033.565,9.446.566l.154-3.612c-2.771.924-6.866.01-9.673-.501Z" fill="#e1bca4"/><path d="M243.221,437.366c-2.622-1.172-3.436-1.952-5.619-3.775.118,2.86,1.409,5.157,4.272,6.096l.896-.118c.66-.904.43-.819.452-2.203Z" fill="#e1bca4"/><path d="M307.502,281.04c-1.183,1.167-2.402,2.297-3.656,3.387,2.898,1.147,6.539,9.507,7.794,12.19,4.125,8.815,5.35,18.871,8.734,27.855,1.772,4.707,6.045.177,6.609-3.455,1.081-6.97.832-13.727-1.125-20.544-.394-1.425-1.672-3.143-.367-4.053-2.558-5.424-12.699-12.499-17.989-15.379Z" fill="#c8743a"/><path d="M293.697,368.941l-3.91.181c-.881,8.22-2.017,19.604-3.719,27.507,10.185-.129,23.229-1.631,33.034-4.604-1.912-.95-4.927-2.152-6.7-3.072-4.006-2.078-18.975-15.336-18.437-19.884l-.268-.128Z" fill="#e1bca4"/><path d="M298.958,288.334c-3.847,2.72-7.182,4.898-11.376,7.135.645,1.089,1.335,2.32,2.009,3.374,5.428,5.279,8.209,25.992,12.366,28.453.741.439,1.157.351,1.959.166,1.258-1.008,1.976-2.218,2.372-3.788,3.132-12.39-1.854-24.757-7.33-35.34Z" fill="#c8743a"/><path d="M318.106,376.132l-.303-.3c-6.743-6.589-14.921-6.842-23.838-6.763-.538,4.547,14.432,17.805,18.437,19.884,1.773.92,4.788,2.122,6.7,3.072l2.007-.222c2.195-1.794,1.429-5.273,1.226-7.825-.912-3.697-1.879-5.099-4.229-7.844Z" fill="#f8f2d4"/><path d="M315.862,416.55c-4.08-.094-7.797,0-11.48,2.03-2.995,4.511-7.083,9.739-.237,12.866.294-2.429.853-6.597,2.853-8.239l.776-.096c.819,1.459-2.421,8.419.414,9,1.89.387,5.367.434,7.39.411l.485-.333.101-1.554c.501-2.274.753-3.802,2.205-5.699l.444.072c.542,1.362.154,2.98-.01,4.511-.018,1.204.013,1.678.187,2.87,2.948-.517,5.864-.869,8.278-2.795,1.444-1.649,2.145-3.251,3.037-5.204-4.76-5.138-7.464-6.642-14.443-7.841Z" fill="#f8f2d4"/><path d="M315.862,416.55c-4.08-.094-7.797,0-11.48,2.03-2.995,4.511-7.083,9.739-.237,12.866.294-2.429.853-6.597,2.853-8.239l.776-.096c.819,1.459-2.421,8.419.414,9,1.89.387,5.367.434,7.39.411l.485-.333.101-1.554c-7.312-.311-7.529-2.036-3.896-7.964,1.162-1.895,2.529-4.173,3.595-6.121Z" fill="#e1bca4"/><path d="M327.269,429.595c-2.464-1.697-5.007,1.211-8.099.603l-.367-.677c-.018,1.204.013,1.678.187,2.87,2.948-.517,5.864-.869,8.278-2.795Z" fill="#e1bca4"/><path d="M315.862,416.55c1.575-4.075,7.571-20.885,7.548-24.092-.791-.621-.965-.395-2.226-.427-.873,2.068-4.036,3.243-6.131,4.104-4.4,1.806-8.963,3.189-13.625,4.13,2.366,5.653,4.449,12.15,2.955,18.314,3.683-2.031,7.4-2.124,11.48-2.03Z" fill="#d68653"/><path d="M286.645,366.555c-6.908,4.52-14.841,7.3-22.165,11.021-1.453.738-4.319,2.935-2.644,4.56,4.832,4.687,16.665,2.177,22.054.739.89-5.445,1.808-10.885,2.756-16.321Z" fill="#c8743a"/><path d="M282.582,389.445c-3.062.913-6.142,1.768-9.237,2.563-2.936.726-13.516,2.216-13,6.356,2.358,4.359,15.429,4.972,19.864,4.555.873-4.476,1.664-8.969,2.373-13.474Z" fill="#c8743a"/><path d="M278.888,408.868c-1.596,1.672-3.308,7.389-4.582,9.946-1.396,2.803-2.927,6.192-4.861,8.722l3.375,4.001c2.455-6.85,4.525-15.611,6.068-22.668Z" fill="#d68653"/><path d="M293.697,368.941c-1.379-4.269,0-14.337-2.986-18.32.073,6.588-.135,11.921-.924,18.501l3.91-.181Z" fill="#d68653"/><path d="M322.336,383.977c1.601-2.955-.596-7.702-4.229-7.844,2.35,2.746,3.317,4.148,4.229,7.844Z" fill="#e1bca4"/><path d="M176.294,307.573c-11.67-.181-20.386-1.274-31.615-4.936l.164,6.588c.213,19.422,3.161,38.12,6.59,57.19.78,5.099,1.926,10.125,2.712,15.169l1.29,6.515c.508,3.092,1.446,10.252,2.156,13.032.744,6.243,1.389,11.375,1.468,17.648-1.609,3.594-4.062,4.992-5.884,9.78-.024,3.493,1.005,4.227,4.134,5.656l.12-3.469c.377-1.859,1.211-3.971,2.71-5.199l.528.147c.39,1.026-.028,2.234-.271,3.362-.379,3.388-.884,6.103,3.677,6.424,1.858.131,3.75.161,5.614.218l.094-3.377c.343-1.522,1.853-6.072,3.599-6.27.796,1.034-.248,3.741-.428,5.807l-.029.37c-.088.968-.034,2.321-.027,3.32,3.51-.266,8.648-.785,11.819-2.294,3.285-1.564,3.972-3.314,5.039-6.414,3.339-12.614,5.923-23.889,6.692-36.981-5.152-2.707-22.477-13.594-23.389-19.441.092.044.183.089.275.134,14.75,9.618,29.941,18.966,47.419,22.665,4.21.891,8.258,1.616,12.521,2.25-.389-2.578-1.288-9.346-1.961-11.657-.412-3.179-1.184-6.891-1.768-10.085-.382-1.646-1.346-4.775-.592-6.262l.572.21c1.263,1.522,1.806,3.222,2.566,5.066,2.468-2.388,6.077-8.906,7.463-12.005,6.199-13.858,3.274-25.581-1.837-38.98-1.472-.211-10.827,1.361-13.092,1.522-5.693.405-11.238.774-16.982.682-8.777-.059-17.534-.865-26.175-2.41-2.891-.519-9.916-2.322-11.985-2.536l-.397-.037-.138-.253c1.181-3.704,1.923-7.13,3.286-10.928,1.718.035,2.371.031,4.061-.222Z" fill="url(#c)"/><path d="M237.717,321.756c-1.472-.211-10.827,1.361-13.092,1.522-5.693.405-11.238.774-16.982.682-8.777-.059-17.534-.865-26.175-2.41-2.891-.519-9.916-2.322-11.985-2.536l-.397-.037c-3.038,14.125-2.523,28.717,5.475,41.187,2.845,4.435,7.572,9.637,12.232,12.229,8.344,3.499,20.965,4.98,30.192,4.957,2.941-.18,5.304-.476,8.146-1.21,2.25-.537,2.797-.778,4.413-2.414-.382-1.646-1.346-4.775-.592-6.262l.572.21c1.263,1.522,1.806,3.222,2.566,5.066,2.468-2.388,6.077-8.906,7.463-12.005,6.199-13.858,3.274-25.581-1.837-38.98Z" fill="#f8f2d4"/><path d="M184.453,421.821c-5.84-3.9-19.269-7.891-25.392-3.043-1.609,3.594-4.062,4.992-5.884,9.78-.024,3.493,1.005,4.227,4.134,5.656l.12-3.469c.377-1.859,1.211-3.971,2.71-5.199l.528.147c.39,1.026-.028,2.234-.271,3.362-.379,3.388-.884,6.103,3.677,6.424,1.858.131,3.75.161,5.614.218l.094-3.377c.343-1.522,1.853-6.072,3.599-6.27.796,1.034-.248,3.741-.428,5.807l-.029.37c-.088.968-.034,2.321-.027,3.32,3.51-.266,8.648-.785,11.819-2.294,3.285-1.564,3.972-3.314,5.039-6.414-1.937-2.517-2.579-3.317-5.304-5.019Z" fill="#f8f2d4"/><path d="M184.453,421.821c-.875,4.842-6.587,10.212-11.527,10.407-.088.968-.034,2.321-.027,3.32,3.51-.266,8.648-.785,11.819-2.294,3.285-1.564,3.972-3.314,5.039-6.414-1.937-2.517-2.579-3.317-5.304-5.019Z" fill="#e1bca4"/><path d="M160.399,429.056c-.379,3.388-.884,6.103,3.677,6.424,1.858.131,3.75.161,5.614.218l.094-3.377c-2.595-.121-6.5.447-8.688-.979-.78-.508-.615-1.284-.697-2.286Z" fill="#e1bca4"/><path d="M153.177,428.559c-.024,3.493,1.005,4.227,4.134,5.656l.12-3.469c-1.257-.289-3.095-1.494-4.254-2.187Z" fill="#e1bca4"/><path d="M173.059,370.418l-.408.145-.079.37-1.201.634c-.041.517-.085,1.049.218,1.507,3.164,4.782,6.625,9.548,9.984,14.193,3.772,5.214,7.002,10.721,6.75,17.365-.126,4.281-.848,8.253-2.287,12.309-.414,1.234-1.333,3.715-1.583,4.88,2.725,1.702,3.367,2.503,5.304,5.019,3.339-12.614,5.923-23.889,6.692-36.981-5.152-2.707-22.477-13.594-23.389-19.441Z" fill="#d68653"/><path d="M176.294,307.573c-11.67-.181-20.386-1.274-31.615-4.936l.164,6.588c6.247,3.534,17.12,7.579,24.104,9.499,1.181-3.704,1.923-7.13,3.286-10.928,1.718.035,2.371.031,4.061-.222Z" fill="#d68653"/><path d="M154.146,381.583l1.35.237c1.974.343,17.38,3.105,17.426-2.24.02-2.355-6.287-4.863-8.465-6.011-3.968-2.09-8.707-4.265-12.639-6.895l-.384-.259c.78,5.099,1.926,10.125,2.712,15.169Z" fill="#c8743a"/><path d="M155.437,388.098c.508,3.092,1.446,10.252,2.156,13.032.2-.576.031-.303.576-.77,11.712.79,26.371-4.889,5.947-9.738-2.813-.668-5.889-1.669-8.679-2.525Z" fill="#c8743a"/><path d="M216.986,377.35c-9.227.023-21.848-1.458-30.192-4.957,1.276,3.017,6.046,8.136,9.246,8.966l.353-.205c-.345-.374-.62-.563-.796-1.041.48-.211.987-.297,1.509-.275,2.471.104,6.494-2.119,8.456-2.364,3.801-.475,7.333,1.045,11.423-.124Z" fill="#e1bca4"/><path d="M229.545,373.726c-1.616,1.636-2.164,1.877-4.413,2.414,1.402,2.981,4.47,4.088,5.594,6.657.096.218.473.819.587,1.013-.412-3.179-1.184-6.891-1.768-10.085Z" fill="#e1bca4"/><path d="M395.438,273.129c.875-2.15,1.602-4.356,2.177-6.605,1.678-6.752,2.442-15.647-1.378-21.877-2.994-4.882-8.818-6.955-13.787-3.518-7.239,5.008-6.354,14.204-7.893,21.894-1.02,5.027-1.989,7.314-3.893,12.06-.677,1.285-1.759,3.478-2.499,4.63-2.571,3.868-4.727,6.31-7.924,9.635,4.093,3.054,8.037,6.934,9.38,12.074l.129.107c.36,1.089.774,2.48,1.174,3.524,4.487-3.295,7.567-6.06,11.299-10.147,2.28-2.577,4.075-4.709,5.901-7.618,2.985-4.416,5.439-9.168,7.313-14.158Z" fill="#c8743a"/><path d="M395.438,273.129c.875-2.15,1.602-4.356,2.177-6.605,1.678-6.752,2.442-15.647-1.378-21.877-2.994-4.882-8.818-6.955-13.787-3.518-7.239,5.008-6.354,14.204-7.893,21.894,6.476-.134,11.019.715,16.114,5.225.958.848,4.225,4.675,4.766,4.881Z" fill="#f8f2d4"/><path d="M368.165,279.712c-2.571,3.868-4.727,6.31-7.924,9.635,4.093,3.054,8.037,6.934,9.38,12.074l.129.107c.36,1.089.774,2.48,1.174,3.524,4.487-3.295,7.567-6.06,11.299-10.147l-.84-1.812-.041-.283c-2.836-6.578-6.538-10.407-13.177-13.099Z" fill="#c8743a"/><path d="M381.383,293.093c-.935.172-3.013,1.95-3.725,2.66-1.749,1.744-6.668,4.204-7.908,5.775.36,1.089.774,2.48,1.174,3.524,4.487-3.295,7.567-6.06,11.299-10.147l-.84-1.812Z" fill="#a5542d"/><path d="M387.474,286.868c-2.983-6.171-10.146-10.743-16.81-11.786-.677,1.285-1.759,3.478-2.499,4.63,6.639,2.691,10.341,6.52,13.177,13.099l.041.283.84,1.812c2.28-2.577,4.075-4.709,5.901-7.618l-.651-.419Z" fill="#f0af63"/><path d="M388.125,287.287l-.651-.419c-1.633.341-5.103,4.488-6.132,5.942l.041.283.84,1.812c2.28-2.577,4.075-4.709,5.901-7.618Z" fill="#d68653"/><path d="M233.952,400.621c-7.586-.915-12.088-1.798-19.522-3.58,1.566,5.285,2.964,11.341,2.26,16.881-1.951,3.242-7.572,8.94-3.564,12.275,1.622-.992,1.273-6.395,4.567-6.877l.386.196c-.105.84-.235,1.147-.588,1.91-.905,1.959-.984,3.839-1.051,5.95,2.691.703,4.708.97,7.499,1.198.193-1.933.967-8.867,4.121-7.922-.002.811-.097.964-.401,1.708-.751,1.839-.739,4.085-.766,6.079,2.872.107,3.97.123,6.843-.367,2.791-4.741,2.436-6.115,1.866-11.734.021-3.613-1.171-12.001-1.65-15.717Z" fill="#e1bca4"/><path d="M233.952,400.621c-7.586-.915-12.088-1.798-19.522-3.58,1.566,5.285,2.964,11.341,2.26,16.881,7.176-2.546,12.451-1.174,18.912,2.416.021-3.613-1.171-12.001-1.65-15.717Z" fill="#c8743a"/><path d="M360.241,289.347c-2.902,2.41-5.134,4.188-8.421,6.071-4.214,2.284-6.687,3.005-11.292,4.258,1.491,1.731,1.861,2.546,2.578,4.725l.451,1.189c.858,3.993,1.097,6.869.414,10.909,3.769-.756,9.939-2.178,13.261-3.934,5.185-2.15,9.1-4.362,13.691-7.512-.4-1.044-.813-2.435-1.174-3.524l-.129-.107c-1.343-5.141-5.287-9.021-9.38-12.074Z" fill="#f0af63"/><path d="M351.821,295.417c-4.214,2.284-6.687,3.005-11.292,4.258,1.491,1.731,1.861,2.546,2.578,4.725l.451,1.189c.858,3.993,1.097,6.869.414,10.909,3.769-.756,9.939-2.178,13.261-3.934-.315-.953.081-3.901-.244-5.898l.061-.205c-1.264-5.121-2.046-6.873-5.229-11.043Z" fill="#c8743a"/><path d="M356.989,306.666c-1.436-.077-3.645.159-5.525.009-1.627-.13-7.307-1.215-7.906-1.086.858,3.993,1.097,6.869.414,10.909,3.769-.756,9.939-2.178,13.261-3.934-.315-.953.081-3.901-.244-5.898Z" fill="#a5542d"/><path d="M369.621,301.421c-2.415,1.325-9.787,5.172-12.571,5.04l-.061.205c.325,1.997-.071,4.945.244,5.898,5.185-2.15,9.1-4.362,13.691-7.512-.4-1.044-.813-2.435-1.174-3.524l-.129-.107Z" fill="#d68653"/><path d="M340.529,299.676c-1.73.341-3.29.625-5.036.884l-.838.257c.131.916,2.392,5.774,2.913,7.087,1.189,2.994,2.205,6.053,3.044,9.163,1.079-.187,2.286-.427,3.36-.568.683-4.04.444-6.916-.414-10.909l-.451-1.189c-.717-2.178-1.087-2.994-2.578-4.725Z" fill="#d68653"/><path d="M340.529,299.676c-1.73.341-3.29.625-5.036.884,1.095.928,6.193,3.882,7.614,3.841-.717-2.178-1.087-2.994-2.578-4.725Z" fill="#f0af63"/></svg>