<?xml version="1.0" encoding="UTF-8"?><svg id="a" xmlns="http://www.w3.org/2000/svg" width="500" height="500" xmlns:xlink="http://www.w3.org/1999/xlink" viewBox="0 0 500 500"><defs><linearGradient id="b" x1="185.015" y1="-875.069" x2="320.158" y2="-697.133" gradientTransform="translate(0 -647.649) scale(1 -1)" gradientUnits="userSpaceOnUse"><stop offset="0" stop-color="#f3b45d"/><stop offset="1" stop-color="#f6a870"/></linearGradient><linearGradient id="c" x1="163.83" y1="-714.652" x2="186.502" y2="-719.541" gradientTransform="translate(0 -647.649) scale(1 -1)" gradientUnits="userSpaceOnUse"><stop offset="0" stop-color="#f5a77d"/><stop offset="1" stop-color="#fd9597"/></linearGradient></defs><path d="M149.264,103.532c1.303-5.311,1.726-11.507,3.298-17.57,3.998-16.349,12.497-43.902,25.122-54.675,13.83-11.801,41.951,31.62,48.021,40.688,19.455-.241,40.748,2.205,58.016,11.69,12.288-11.488,32.742-26.639,49.197-30.329,16.577-3.717,19.658,41.117,20.499,51.604.038,5.361.343,23.277-1.103,27.504-.343,5.146-1.321,9.813-1.578,14.773-.069,1.321,1.318,6.02,1.419,8.015,2.454,9.881,4.667,31.35,1.842,41.05-.448,3.291-.965,5.067-1.858,8.257.933.226,4.187.934,4.895,1.299,3.304.421,10.613,1.932,12.817,4.453-2.078.706-8.444-.066-10.545-1.045-2.879-.395-5.123-.788-7.961-1.377-1.61,6.401-4.654,11.183-7.716,16.982,3.83.755,9.92,4.024,12.955,6.51,1.829.88,3.193,2.065,4.233,3.847l-.392.502c-3.737-.479-4.662-1.335-7.799-3.452-3.598-1.783-6.983-3.475-10.69-5.044-10.946,15.65-22.124,22.736-39.503,30.295,13.671,15.279,25.582,28.324,35.882,46.471,1.887,3.326,5.209,8.637,6.605,11.988,6.299,11.76,15.255,27.768,8.295,41.153-7.234,12.469-21.189,12.189-32.876,6.818.939,6.281,1.648,11.448,2.143,17.772,14.794,4.972,30.546.396,41.326-10.47,12.968-12.443,16.669-30.906,10.499-47.709-4.422-12.045-11.916-25.281-2.999-37.559,8.288-11.412,26.258-7.047,33.915,2.662,10.745,13.624,13.845,32.786,12.349,49.675-3.463,42.576-35.352,78.754-80.032,76.216-5.951-.336-11.632-1.179-17.54-1.738-.774,2.702-1.131,9.486-1.696,12.805-1.213,7.118-2.519,14.161-3.846,21.258,13.437,23.436.985,32.499-22.491,30.537-24.279-2.03-25.298-31.629-38.442-47.575-4.211-.342-11.103-.009-15.594-.077-8.296-.127-13.402-.84-21.34-2.351-2.993,11.029-7.02,29.575-13.549,37.911-8.253,10.538-47.292,14.335-47.529-5.446-.093-7.804,2.931-11.382,7.61-16.542-3.209-7.384-6.769-13.196-9.685-21.192-15.875-43.541-13.674-79.913-3.846-123.772-29.489-15.161-57.283-41.447-72.276-71.584-5.949-11.958-3.629-26.296,8.95-34.543,3.782-2.479,10.207-.403,14.387,1.27,17.658-6.056,19.071,18.025,31.651,22.642.623-2.45-5.263-10.961-6.687-14.307-2.663-6.253-3.572-9.425-4.833-16.08l-.51-2.913-.643-5.896c-7.408-.564-21.163,1.313-25.743-.034l-.141-.547c6.682-3.457,18.381-3.497,25.908-3.336-.021-2.335-.241-6.321.73-8.317-.088-.996-.195-1.578-.387-2.562l-.889-.476c-.101-1.83,0-2.237-1.028-3.786,1.961.555,1.249.733,2.846.299l.978-2.53c.074-1.888,1.616-6.856,2.257-8.748,5.279-15.579,13.981-31.233,25.102-43.363Z" fill="#43160b"/><path d="M344.92,315.967c6.299,11.76,15.255,27.768,8.295,41.153-.418-1.681,2.353-11.363.629-18.296-1.646-6.622-8.392-18.005-8.924-22.857Z" fill="#310e09"/><path d="M352.155,155.231c2.454,9.881,4.667,31.35,1.842,41.05-1.515-4.97.682-9.647.555-14.71-.149-5.9-3.038-21.198-2.397-26.34Z" fill="#310e09"/><path d="M353.416,104.939c.038,5.361.343,23.277-1.103,27.504l-.743-.741c.382-4.892.526-9.8.429-14.707-.047-4.087-.886-8.716,1.417-12.056Z" fill="#310e09"/><path d="M357.033,205.837c3.304.421,10.613,1.932,12.817,4.453-2.078.706-8.444-.066-10.545-1.045l.559-.566c2.313.32,2.761.48,5.005.101l-1.239-.563-.245.69c-.535-1.827-4.037-.831-6.352-3.07Z" fill="#0b0304"/><path d="M121.905,155.643c.819,1.842-.602,7.502-1.416,9.44l-.104-.385c-.088-.996-.195-1.578-.387-2.562l-.889-.476c-.101-1.83,0-2.237-1.028-3.786,1.961.555,1.249.733,2.846.299l.978-2.53Z" fill="#310e09"/><path d="M356.584,231.36c1.829.88,3.193,2.065,4.233,3.847l-.392.502c-3.737-.479-4.662-1.335-7.799-3.452,1.908-.973,2.075,1.165,5.071,1.429l-.178-.919-.801-.493-.134-.914Z" fill="#0b0304"/><path d="M184.772,35.673c6.448,3.979,9.421,6.965,14.627,12.557,8.787,9.505,12.301,14.855,19.501,25.417-4.144.596-6.241,1.189-10.234,2.576-1.938,1.034-1.868.63-2.891,2.236,1.311,1.872,3.866,1.108,5.894.828,15.352-1.947,34.167-.385,49.233,2.854l5.212,1.505c5.603,1.576,11.083,3.559,16.396,5.934l1.581,1.078c3.189-1.354,12.238-9.394,15.649-12.024,7.983-6.154,26.631-19.669,36.943-18.508l1.103,1.377c7.989,12.241,10.518,48.579,9.084,63.463-.744,7.725-2.109,16.854-3.341,24.707,3.734,4.464,4.158,15.597,4.747,21.665.865,6.166.263,17.799-.718,24.115l-1.672,7.666c-4.699-.264-9.393-.612-14.08-1.045-4.164.002-14.607-.416-17.567,2.017,1.309,2.485,12.474,1.886,15.498,1.866l-5.741,9.489c-3.279-1.136-7.609-3.131-10.858-2.017v.813c2.548,2.352,5.594,3.061,8.913,4.234,3.745,1.517,10.862,4.248,14.108,6.058-2.316,2.824-4.92,6.204-7.587,8.616-19.507,17.877-37.801,22.428-63.136,27.776-1.717.363-5.965,1.019-7.115,1.974,1.717.574,2.129.507,3.89.532l.518,8.63-.133.274c-1.796-.372-10.624.513-13.162.571-19.232.438-37.852-2.307-55.803-9.441-4.027-1.6-9.431-4.681-13.535-5.611l-.049-.234c1.342-2.908,1.061-4.943,3.185-6.699l1.491-.278c.095-1.395-7.002-5.387-8.708-6.398-17.461-10.359-35.438-23.925-43.544-43.317-1.978-4.575-2.85-7.243-4.14-12.051l-.488-3.001c-.482-2.345-1.657-6.577-.513-8.591l1.368-.133c2.058.443,2.401.541,4.005-.243l.304-.986c-1.194-1.473-.831-1.017-2.895-1.741-1.375-.1-1.934.018-3.052-.744-1.429-3.34-1.426-5.067.798-7.893,1.525-.213,1.37.07,3.039.933,1.768.814,2.426,1.171,3.979.608l.028-1.106c-.959-1.792-1.759-2.029-3.585-3.134-1.086-.445-2.527-.745-2.979-1.575-1.203-2.209.701-6.947,1.474-9.48,1.593-4.863,2.854-8.603,4.867-13.353,6.307-15.41,13.764-24.422,24.384-36.618-1.131-1.05-1.01-.863-2.377-1.607.466-13.952,11.425-43.448,18.615-55.491,2.465-4.129,4.643-7.749,9.469-9.052Z" fill="url(#b)"/><path d="M130.012,187.007c8.279,5.196,27.398,6.562,37.072,4.015,8.389-2.209,15.433-5.47,23.036-9.873,12.975-7.516,22.995-14.247,37.933-5.33,7.324,4.371,12.21,12.73,17.638,19.169,17.865,21.19,35.127,31.312,62.333,36.544l.411-.017c4.063-4.325,9.726-8.397,13.617-13.038,3.745,1.517,10.862,4.248,14.108,6.058-2.316,2.824-4.92,6.204-7.587,8.616-19.507,17.877-37.801,22.428-63.136,27.776-1.717.363-5.965,1.019-7.115,1.974,1.717.574,2.129.507,3.89.532l.518,8.63-.133.274c-1.796-.372-10.624.513-13.162.571-19.232.438-37.852-2.307-55.803-9.441-4.027-1.6-9.431-4.681-13.535-5.611l-.049-.234c1.342-2.908,1.061-4.943,3.185-6.699l1.491-.278c.095-1.395-7.002-5.387-8.708-6.398-17.461-10.359-35.438-23.925-43.544-43.317-1.978-4.575-2.85-7.243-4.14-12.051l-.488-3.001c.518-.526.82-.534,1.574-.862l.594,1.991Z" fill="#fbefd3"/><path d="M132.471,200.93c3.168.517,6.149,4.764,8.602,7.127,4.957,4.776,9.935,9.573,15.598,13.541,37.602,24.686,89.298,35.542,132.197,19.315,5.164-1.953,15.233-6.074,19.155-9.381l.411-.017c4.063-4.325,9.726-8.397,13.617-13.038,3.745,1.517,10.862,4.248,14.108,6.058-2.316,2.824-4.92,6.204-7.587,8.616-19.507,17.877-37.801,22.428-63.136,27.776-1.717.363-5.965,1.019-7.115,1.974,1.717.574,2.129.507,3.89.532l.518,8.63-.133.274c-1.796-.372-10.624.513-13.162.571-19.232.438-37.852-2.307-55.803-9.441-4.027-1.6-9.431-4.681-13.535-5.611l-.049-.234c1.342-2.908,1.061-4.943,3.185-6.699l1.491-.278c.095-1.395-7.002-5.387-8.708-6.398-17.461-10.359-35.438-23.925-43.544-43.317Z" fill="#e2b9a1"/><path d="M322.051,218.477c3.745,1.517,10.862,4.248,14.108,6.058-2.316,2.824-4.92,6.204-7.587,8.616-1.826-.979-15.651-.819-20.138-1.636,4.063-4.325,9.726-8.397,13.617-13.038Z" fill="#d98452"/><path d="M127.843,185.878c.518-.526.82-.534,1.574-.862l.594,1.991-1.68,1.872-.488-3.001Z" fill="#fbd6a0"/><path d="M206.096,179.444c7.189-3.866,28.102,6.327,6.852,12.652.797,3.77,1.557,6.891,4.785,9.31,7.497,5.617,11.387,2.836,16.247-2.836,1.471-.376,1.363-.36,2.826.069,1.559,3.16-4.788,8.124-7.199,9.651-7.206,25.569-30.716,23.946-32.673-5.702-3.375-2.037-10.572-9.014-6.217-12.601l1.381.2c2.94,2.092,3.077,9.704,9.103,9.026,2.281-.256,4.917-1.186,6.505-2.901,5.852-6.317-3.768-7.733-3.61-14.635.897-1.812.272-1.079,2-2.233Z" fill="#43160b"/><path d="M206.096,179.444c7.189-3.866,28.102,6.327,6.852,12.652-.169-2.109,9.496-3.438,8.722-7.867-4.144,3.764-4.753,3.967-9.774,6.113-1.221-1.307-2.603-2.499-3.092-4.171l-2.022-3.64c-.823-1.285-.548-1.362-.686-3.087Z" fill="#611e13"/><path d="M206.783,182.531c2.433-.774,9.747-.053,11.551,1.871.03,2.719-3.518,3.664-5.805,4.679-.874-.711-2.866-2.413-3.724-2.91l-2.022-3.64Z" fill="#f6998d"/><path d="M199.796,203.245c5.111-.253,6.82-1.113,11.056-3.895,3.812,4.705,5.857,5.729,10.457,9.29l2.839.535c2.588,3.925-11.036,21.903-20.703,6.676-1.826-2.225-2.986-9.413-3.649-12.606Z" fill="#ea8178"/><path d="M199.796,203.245c5.111-.253,6.82-1.113,11.056-3.895,3.812,4.705,5.857,5.729,10.457,9.29-8.334.388-11.885.884-17.864,7.211-1.826-2.225-2.986-9.413-3.649-12.606Z" fill="#611e13"/><path d="M211.67,79.287c15.352-1.947,34.167-.385,49.233,2.854-11.793,7.943-18.94,29.012-28.611,39.411-1.559,1.677-5.709,2.346-6.387.502-3.771-10.248,2.388-23.958,6.094-33.536,1.223-3.16,4.464-6.613,4.977-9.501l-.778-.667c-11.114.747-16.267,27.7-25.342,26.515-5.425-4.011,1.954-19.722,3.804-24.878l-.334-.469-2.656-.231Z" fill="#c7703a"/><path d="M156.689,100.215c.466-13.952,11.425-43.448,18.615-55.491,2.465-4.129,4.643-7.749,9.469-9.052-.378,4.225-2.627,1.865-2.309,6.311.828,4.117,2.569,5.812,3.469,8.978.363,8.765,1.373,14.391,1.23,23.574-2.062.528-3.228.598-4.748,1.969-.701,2.568,1.562,3.731,3.431,5.342-3.893,1.301-10.544,3.377-11.769,7.81l.896.181c-1.346,1.577-1.77,2.002-3.357,3.341l-3.333,1.633c-1.016.794-6.495,4.856-7.375,5.21l-1.842,1.801c-1.131-1.05-1.01-.863-2.377-1.607Z" fill="url(#c)"/><path d="M174.077,89.656l.896.181c-1.346,1.577-1.77,2.002-3.357,3.341l-3.333,1.633c.471-3.252,3.467-2.335,5.794-5.155Z" fill="#d98452"/><path d="M156.689,100.215c1.177-.854,1.863-1.448,3.235-1.986,1.035.743.597.261.984,1.792l-1.842,1.801c-1.131-1.05-1.01-.863-2.377-1.607Z" fill="#611e13"/><path d="M337.786,61.504c7.989,12.241,10.518,48.579,9.084,63.463-.744,7.725-2.109,16.854-3.341,24.707,3.734,4.464,4.158,15.597,4.747,21.665-.094,1.899.256,2.726-1.063,3.946-1.578,1.46-6.549,2.112-8.694,2.376.869-15.089-.966-25.219-2.366-39.843-.518-5.402,2.841-18.331,3.393-25.124,1.439-17.708-.62-33.627-1.76-51.19Z" fill="#d98452"/><path d="M348.277,171.339c.865,6.166.263,17.799-.718,24.115l-1.672,7.666c-4.699-.264-9.393-.612-14.08-1.045.563-2.373,1.474-3.72,1.707-6.239l-.758-.724c-5.21-.347-23.149-4.622-22.249-11.613,2.619-3.57,7.771-3.526,11.84-3.776,5.489-.337,10.516-.942,15.95-1.856l.223-.206c2.145-.264,7.116-.916,8.694-2.376,1.319-1.22.969-2.047,1.063-3.946Z" fill="#c7703a"/><path d="M348.277,171.339c.865,6.166.263,17.799-.718,24.115l-1.672,7.666c-4.699-.264-9.393-.612-14.08-1.045.563-2.373,1.474-3.72,1.707-6.239l-.758-.724,1.8.208c1.701-5.671,2.684-11.628,3.741-17.453l.223-.206c2.145-.264,7.116-.916,8.694-2.376,1.319-1.22.969-2.047,1.063-3.946Z" fill="#b45b33"/><path d="M332.756,195.112l1.8.208c4.268.474,8.697.24,13.003.134l-1.672,7.666c-4.699-.264-9.393-.612-14.08-1.045.563-2.373,1.474-3.72,1.707-6.239l-.758-.724Z" fill="#d98452"/><path d="M266.114,83.646c5.603,1.576,11.083,3.559,16.396,5.934-7.479,5.333-13.946,17.433-20.942,23.349-7.67,6.487-7.728-.399-6.982-6.021,1.276-9.619,8.242-15.561,11.528-23.262Z" fill="#c7703a"/><path d="M182.463,41.984c9.06,4.743,16.386,28.187,17.465,37.65-4.547-.863-7.582-1.448-12.224-1.758l3.313,5.598c-5.851,1.87-10.626,3.327-16.045,6.363l-.896-.181c1.225-4.433,7.876-6.508,11.769-7.81-1.869-1.611-4.132-2.775-3.431-5.342,1.52-1.371,2.686-1.44,4.748-1.969.143-9.183-.867-14.809-1.23-23.574-.9-3.165-2.641-4.86-3.469-8.978Z" fill="#9f492f"/><path d="M185.933,50.962c4.147,6.845,7.294,15.958,9.647,23.651-2.753-.065-5.68-.201-8.417-.077.143-9.183-.867-14.809-1.23-23.574Z" fill="#ea8178"/><path d="M171.616,93.178c.247,1.226.459.973-.457,2.214-4.53,6.14-10.771,11.477-15.421,17.582-6.159,8.088-11.394,17.788-16.527,26.63-2.078-.323-2.534-.457-4.529-1.164,6.307-15.41,13.764-24.422,24.384-36.618l1.842-1.801c.88-.354,6.359-4.416,7.375-5.21l3.333-1.633Z" fill="#fbd6a0"/><path d="M284.092,90.658c3.189-1.354,12.238-9.394,15.649-12.024,7.983-6.154,26.631-19.669,36.943-18.508-1.52,1.693-7.613,4.367-10.065,5.599-9.965,5.005-18.182,11.454-26.781,18.435-3.61,2.93-8.771,8.279-12.747,10.291-2.318-.061-3.365-1.422-2.999-3.793Z" fill="#fbd6a0"/><path d="M129.814,151.793c1.593-4.863,2.854-8.603,4.867-13.353,1.995.707,2.451.841,4.529,1.164l.027.334c8.419,5.532,11.762,13.239-2.031,13.081l-1.576-.027-1.487-.139c-1.339-.878-2.706-.861-4.329-1.06Z" fill="#c7703a"/><path d="M129.814,151.793c1.593-4.863,2.854-8.603,4.867-13.353,1.995.707,2.451.841,4.529,1.164l.027.334c-1.09,2.49-4.834,10.506-4.043,12.696l.436.358-1.487-.139c-1.339-.878-2.706-.861-4.329-1.06Z" fill="#ec9b6f"/><path d="M199.4,48.23c8.787,9.505,12.301,14.855,19.501,25.417-4.144.596-6.241,1.189-10.234,2.576-1.581-12.384-7.522-19.632-9.267-27.993Z" fill="#d98452"/><path d="M129.814,151.793c1.623.199,2.99.182,4.329,1.06-.521,2.03-1.859,9.225-2.824,9.995-1.086-.445-2.527-.745-2.979-1.575-1.203-2.209.701-6.947,1.474-9.48Z" fill="#fbd6a0"/><path d="M130.113,174.184c-1.375-.1-1.934.018-3.052-.744-1.429-3.34-1.426-5.067.798-7.893,1.525-.213,1.37.07,3.039.933-.266,2.467-.638,5.257-.785,7.704Z" fill="#fbd6a0"/><path d="M127.843,185.878c-.482-2.345-1.657-6.577-.513-8.591l1.368-.133c.569,2.246.972,5.544.719,7.862-.754.328-1.056.336-1.574.862Z" fill="#f6c38f"/><path d="M269.569,154.141c24.273-.063,25.165,36.262,2.715,42.425-27.199,1.435-25.239-37.975-2.715-42.425Z" fill="#43160b"/><path d="M262.913,161.697c2.003-.778,4.272-.38,5.89,1.033,1.619,1.414,2.318,3.609,1.816,5.698-.502,2.089-2.123,3.726-4.206,4.25-2.958.744-5.984-.941-6.909-3.846-.926-2.906.567-6.031,3.409-7.135Z" fill="#fefdfd"/><path d="M176.796,136.605c23.555-2.725,24.065,34.343,3.402,41.031-23.024,2.342-25.918-31.996-3.402-41.031Z" fill="#43160b"/><path d="M174.859,142.997c6.638,1.852,6.648,9.225-.329,11.644-6.995-1.093-7.066-9.159.329-11.644Z" fill="#fefdfd"/><path d="M298.502,100.623c3.163-6.723,7.286-11.483,12.367-16.823,7.18-7.546,11.794-12.321,22.137-14.593-1.974,1.903-5.085,3.824-7.434,5.583-.511,2.164-3.249,6.959-4.375,9.269-2.294,4.709-4.044,8.663-5.495,13.749l2.808,1.638.119.622-.112.123c.918,1.213,1.032,1.145,1.179,2.619-.843,1.788-3.065,2.777-4.845,3.856,7.814,6.662,13.682,13.603,16.646,23.531-3.666-5.09-7.843-9.792-12.465-14.032-3.363-3.138-7.513-6.529-10.392-10.002,1.772-1.771,4.915-2.66,4.614-4.656-2.994-1.337-11.075-.917-14.752-.884Z" fill="#9f492f"/><path d="M325.572,74.79c-.511,2.164-3.249,6.959-4.375,9.269-2.294,4.709-4.044,8.663-5.495,13.749l2.808,1.638.119.622-.112.123c-5.268-1.193-3.822-2.979-13.194-3.374,5.415-7.995,12.7-16.068,20.249-22.027Z" fill="#ea8178"/><path d="M287.468,197.167c17.218.092,28.841,16.234,7.769,19.351-19.404-.215-29.318-16.352-7.769-19.351Z" fill="#f48b76"/><path d="M142.186,168.092c3.338-.315,5.667-.598,9.331.448,4.381,1.249,13.955,6.696,11.474,12.658-1.03,2.474-3.959,3.976-6.449,4.939-14.068,3.311-30.008-10.515-14.356-18.045Z" fill="#f48b76"/><path d="M82.509,222.901c-1.098-2.403-4.581-13.411-.604-15.535,4.862-2.596,2.903-7.864,7.07-9.976,2.482-1.258,8.672,1.816,11.124,3.198,10.583-8.065,15.002,9.262,22.041,15.981l.458.43c2.848,2.38,6.37,5.404,9.375,7.541,3.238,2.314,6.242,4.412,9.581,6.575l6.209,3.589c3.212,1.774,7.575,4.353,10.878,5.679.567.344,2.497,1.462,2.904,1.804,7.757,4.623,12.917,6.287,21.688,8.736-2.124,1.756-1.843,3.791-3.185,6.699l.049.234c4.104.93,9.508,4.011,13.535,5.611,17.951,7.134,36.571,9.879,55.803,9.441,2.538-.058,11.366-.943,13.162-.571l.133-.274-.518-8.63c-1.761-.025-2.173.042-3.89-.532,1.15-.955,5.398-1.611,7.115-1.974v1.111c4.055.601,8.883.482,13.385,1.011,5.841-.219,11.131-1.472,16.694-3.23l3.27,3.476c2.641,2.667,5.262,5.355,7.861,8.063,3.473,3.49,7.055,8.183,10.071,12.142,2.741,3.618,4.834,6.648,7.317,10.452,1.584,2.049,6.976,9.869,7.837,12.096,1.267,2.06,3.011,4.719,4.086,6.817,1.568,2.465,4.439,7.986,5.641,10.776l2.686,5.064c3.238,6.864,5.553,12.043,4.764,19.858-.566,2.243-.595,2.763-1.765,4.692l-.774,2.118c-2.22,3.47-3.718,3.849-7.42,5.39-.964.025-2.548-.028-3.393.236-8.117-.668-14.817-3.952-20.259-10.097l-1.247-.971c-8.937-7.625-16.895-17.346-25.995-24.958-3.143-2.629-6.653-5.499-9.553-8.319l-.943.145-.236,1.567c4.516,6.646,14.356,17.642,20.008,23.769,3.811,3.95,7.668,7.857,11.569,11.719l3.935,3.655,1.494,8.577c.63,5.087,1.279,10.089,1.679,15.205.014,5.817.089,10.908-.449,16.713-.576,6.507-1.267,11.891-2.258,18.353l-1.12,6.812c-.949,5.125-2.215,11.131-2.824,16.238-1.095,5.441-3.318,7.473-.48,12.541,5.257,5.082,5.191,10.018,3.994,16.656-1.169-4.87-1.374-7.528-6.177-9.753l.09.468c.808,4.002,2.938,6.547,1.463,9.975-1.901,1.708-4.787,1.767-7.253,1.621-1.258-.176-2.215-.006-3.494.093-2.92.212-8.811-.624-11.509-1.594-6.765-2.433-8.729-7.023-11.411-12.974-5.184-12.487-10.198-22.894-17.831-34.012-16.443,2.201-35.101.89-51.056-3.695-3.272-.94-6.499-1.763-9.812-2.556l-1.173.71c.561,3.817,12.49,8.073,16.123,9.09-3.003,8.899-5.187,17.61-8.027,26.377-2.321,5.668-3.194,9.726-9.106,11.933-4.584,1.711-10.197,3.62-15.079,2.699-1.24-1.08-.74-.406-1.167-2.332,1.205-3.649,1.708-5.53,2.449-9.298-.756.868-2.515,2.874-3.027,3.844-1.448,2.739-1.031,5.589-3.85,7.518-10.754,2.883-4.243-9.132-5.431-11.307-3.828,1.86-4.15,3.681-4.243,7.767l-.01.722-.466-.066c-4.661-6.923,2.178-13.088,6.299-18.114-.226-3.744-.624-5.113-1.874-8.507-1.167-2.876-4.105-8.089-5.669-11.514-1.01-2.569-1.999-5.145-2.97-7.729-2.022-5.256-3.574-11.136-4.788-16.625l-.653-1.817c-6.977-25.67-6.219-57.708-1.231-83.713,1.552-13.04,8.096-29.687,9.277-43.26-1.982,2.72-3.325,4.85-5.076,7.736-1.577,3.999-3.128,8.009-4.655,12.028-17.907-8.259-48.007-34.765-58.568-51.388-3.506-4.514-8.448-12.867-10.598-18.03Z" fill="#f4ae64"/><path d="M180.096,257.856c4.104.93,9.508,4.011,13.535,5.611,17.951,7.134,36.571,9.879,55.803,9.441,2.538-.058,11.366-.943,13.162-.571.014,4.464,1.363,12.946,2.134,17.47,5.048,29.224,16.494,56.917,7.949,86.788-13.577,47.459-83.033,41.726-101.96,1.61-18.478-39.162-3.273-81.921,9.377-120.349Z" fill="#fbefd3"/><path d="M82.509,222.901c-1.098-2.403-4.581-13.411-.604-15.535,4.862-2.596,2.903-7.864,7.07-9.976,2.482-1.258,8.672,1.816,11.124,3.198,10.583-8.065,15.002,9.262,22.041,15.981l.458.43c-4.024,9.608-12.922,22.22-24.207,23.544l-.39.27c-1.499.112-3.358.094-4.894.118-3.506-4.514-8.448-12.867-10.598-18.03Z" fill="#fbefd3"/><path d="M82.509,222.901c3.066,2.011,14.495,14.722,15.882,17.642l-.39.27c-1.499.112-3.358.094-4.894.118-3.506-4.514-8.448-12.867-10.598-18.03Z" fill="#e2b9a1"/><path d="M99.186,211.088c11.571,1.099,12.1,11.254,1.38,15.919-1.369.051-3.046.169-4.337-.28-1.78-.621-3.206-1.981-3.91-3.731-2.126-5.288,1.945-10.21,6.867-11.908Z" fill="#f48b76"/><path d="M91.606,201.803c2.05-.394,4.045.903,4.516,2.937s-.751,4.076-2.766,4.622c-1.372.372-2.837-.035-3.82-1.062-.983-1.027-1.326-2.509-.895-3.863.432-1.355,1.569-2.365,2.965-2.634Z" fill="#f6998d"/><path d="M83.632,210.807c4.949.308,7.075,3.667,3.84,8.016-6.343.567-6.25-3.693-3.84-8.016Z" fill="#f6998d"/><path d="M103.199,202.948c1.812-.727,3.87.151,4.6,1.962.73,1.81-.144,3.87-1.953,4.603-1.814.735-3.88-.141-4.612-1.957-.732-1.815.148-3.879,1.965-4.608Z" fill="#f6998d"/><path d="M344.285,328.705c3.238,6.864,5.553,12.043,4.764,19.858-.566,2.243-.595,2.763-1.765,4.692l-.774,2.118c-2.22,3.47-3.718,3.849-7.42,5.39-.964.025-2.548-.028-3.393.236-8.117-.668-14.817-3.952-20.259-10.097l-1.247-.971c.162-1.593.746-2.255,1.591-3.611l.357-.32c6.104-10.616,16.308-15.935,28.146-17.295Z" fill="#fbefd3"/><path d="M316.139,346c.363.349,1.903,1.772,2.098,2.079,3.866,3.126,9.729,7.062,14.694,7.802l1.064-.387.506-1.408c.773,2.798.898,4.097,1.196,6.913-8.117-.668-14.817-3.952-20.259-10.097l-1.247-.971c.162-1.593.746-2.255,1.591-3.611l.357-.32Z" fill="#e2b9a1"/><path d="M316.139,346c.363.349,1.903,1.772,2.098,2.079l-.926-.002c-.67,1.209-.894,1.902-1.873,2.825l-1.247-.971c.162-1.593.746-2.255,1.591-3.611l.357-.32Z" fill="#ecccb7"/><path d="M337.754,353.198c3.701,1.273,6.251.948,8.755,2.175-2.22,3.47-3.718,3.849-7.42,5.39-.486-1.723-.443-4.418-1.335-7.565Z" fill="#ecccb7"/><path d="M334.501,354.086c-.52-2.171-.903-2.147-.266-3.854,1.618.333,2.475,1.516,3.52,2.966.892,3.147.849,5.842,1.335,7.565-.964.025-2.548-.028-3.393.236-.298-2.816-.423-4.115-1.196-6.913Z" fill="#611e13"/><path d="M347.283,353.255c-.659-3.916-1.618-4.785-2.615-8.505l.379-.433c2.124,1.552,2.382,2.084,4.001,4.246-.566,2.243-.595,2.763-1.765,4.692Z" fill="#633826"/><path d="M93.106,240.931c1.536-.024,3.395-.006,4.894-.118,2.668,1.167,10.312,8.527,12.595,10.859,10.699,10.924,30.705,25.621,45.734,28.619-1.577,3.999-3.128,8.009-4.655,12.028-17.907-8.259-48.007-34.765-58.568-51.388Z" fill="#d98452"/><path d="M302.187,449.021l6.83,2.927c5.257,5.082,5.191,10.018,3.994,16.656-1.169-4.87-1.374-7.528-6.177-9.753l.09.468c.808,4.002,2.938,6.547,1.463,9.975-1.901,1.708-4.787,1.767-7.253,1.621-1.258-.176-2.215-.006-3.494.093-2.92.212-8.811-.624-11.509-1.594-6.765-2.433-8.729-7.023-11.411-12.974,1.434-.771,1.672-.569,3.403-.661,6.859-2.839,16.786-6.469,24.064-6.758Z" fill="#fbefd3"/><path d="M274.72,456.44c1.434-.771,1.672-.569,3.403-.661,5.43,12.517,11.543,7.256,19.504,14.82l.013.409c-2.92.212-8.811-.624-11.509-1.594-6.765-2.433-8.729-7.023-11.411-12.974Z" fill="#ecccb7"/><path d="M300.871,465.295c3.303-.763,5.415-3.114,5.963-6.444l.09.468c.808,4.002,2.938,6.547,1.463,9.975-1.901,1.708-4.787,1.767-7.253,1.621.013-1.787-.157-3.818-.263-5.62Z" fill="#ecccb7"/><path d="M297.627,470.599c.165-2.2-1.039-7.694.563-8.953,1.447.844,1.873,2.124,2.681,3.649.106,1.802.276,3.833.263,5.62-1.258-.176-2.215-.006-3.494.093l-.013-.409Z" fill="#633826"/><path d="M169.314,445.72c7.481-.692,18.97,3.041,26.103,5.347l.658.339c2.463.249,4.439.4,6.87.948-2.321,5.668-3.194,9.726-9.106,11.933-4.584,1.711-10.197,3.62-15.079,2.699-1.24-1.08-.74-.406-1.167-2.332,1.205-3.649,1.708-5.53,2.449-9.298-.756.868-2.515,2.874-3.027,3.844-1.448,2.739-1.031,5.589-3.85,7.518-10.754,2.883-4.243-9.132-5.431-11.307-3.828,1.86-4.15,3.681-4.243,7.767l-.01.722-.466-.066c-4.661-6.923,2.178-13.088,6.299-18.114Z" fill="#fbefd3"/><path d="M195.416,451.067l.658.339c2.463.249,4.439.4,6.87.948-2.321,5.668-3.194,9.726-9.106,11.933-4.584,1.711-10.197,3.62-15.079,2.699-1.24-1.08-.74-.406-1.167-2.332,10.335-1.884,15.153-2.345,17.824-13.587Z" fill="#e2b9a1"/><path d="M188.567,414.053c2.901.656,4.648,1.008,7.454,2.124l-1.173.71c.561,3.817,12.49,8.073,16.123,9.09-3.003,8.899-5.187,17.61-8.027,26.377-2.431-.548-4.407-.699-6.87-.948,1.375-5.434,3.477-16.374,1.568-21.461-1.968-5.244-6.627-10.434-9.075-15.892Z" fill="#d98452"/><path d="M297.471,342.135c3.811,3.95,7.668,7.857,11.569,11.719l3.935,3.655,1.494,8.577c-1.449.867-5.955,3.441-7.093,4.315-1.242-6.387-6.299-9.761-10.002-14.923l-.252-.358-1.497-.766c-1.895-1.975-4.186-4.33-5.2-6.85,2.358-1.983,4.555-3.566,7.046-5.369Z" fill="#d98452"/><path d="M297.471,342.135c3.811,3.95,7.668,7.857,11.569,11.719-3.775.494-8.175,1.188-11.918,1.266l-1.497-.766c-1.895-1.975-4.186-4.33-5.2-6.85,2.358-1.983,4.555-3.566,7.046-5.369Z" fill="#b45b33"/><path d="M152.129,315.815c4.012,3.401,1.16,9.913,1.031,14.867-.304,11.662-1.701,23.36-1.726,35.025.047,5.55,5.158,28.427,3.138,32.715l-1.212,1.106c-6.977-25.67-6.219-57.708-1.231-83.713Z" fill="#f6c38f"/><path d="M306.647,271.358c3.473,3.49,7.055,8.183,10.071,12.142-4.94,2.217-18.911,12.708-23.333,9.409-1.698-5.886,8.894-17.755,13.262-21.551Z" fill="#c7703a"/><path d="M315.699,398.004c-.576,6.507-1.267,11.891-2.258,18.353l-5.404.384c-1.081.351-2.664.29-3.218.533-3.941.387-8.84.574-12.487-1.159-3.795-4.665,12.435-11.491,15.732-13.209l.131-.246c2.52-1.015,5.212-3.078,7.504-4.656Z" fill="#c7703a"/><path d="M315.699,398.004c-.576,6.507-1.267,11.891-2.258,18.353l-5.404.384-.499-.274c-.761-1.613.33-11.075.526-13.561l.131-.246c2.52-1.015,5.212-3.078,7.504-4.656Z" fill="#b45b33"/><path d="M295.515,259.819l3.27,3.476c-10.144,4.455-24.982,8.002-36.056,8.768l-.518-8.63c-1.761-.025-2.173.042-3.89-.532,1.15-.955,5.398-1.611,7.115-1.974v1.111c4.055.601,8.883.482,13.385,1.011,5.841-.219,11.131-1.472,16.694-3.23Z" fill="#d98452"/><path d="M262.212,263.433c-1.761-.025-2.173.042-3.89-.532,1.15-.955,5.398-1.611,7.115-1.974v1.111c4.055.601,8.883.482,13.385,1.011-4.142.782-12.174.471-16.61.384Z" fill="#611e13"/><path d="M314.47,366.086c.63,5.087,1.279,10.089,1.679,15.205-2.448.365-5.374.719-7.756,1.219l-.64.26c-3.653.448-16.95.974-15.002-5.228,3.061-3.153,9.976-4.97,14.626-7.141,1.138-.874,5.644-3.448,7.093-4.315Z" fill="#c7703a"/><path d="M314.47,366.086c.63,5.087,1.279,10.089,1.679,15.205-2.448.365-5.374.719-7.756,1.219-.407-3.453-1.214-8.792-1.016-12.109,1.138-.874,5.644-3.448,7.093-4.315Z" fill="#b45b33"/><path d="M324.035,293.952c1.584,2.049,6.976,9.869,7.837,12.096-3.831,2.331-17.422,8.857-21.518,7.574-3.282-3.612,4.061-11.798,6.682-14.662,1.253-1.37,5.09-3.336,6.999-5.008Z" fill="#c7703a"/><path d="M312.322,423.169c-.949,5.125-2.215,11.131-2.824,16.238l-.352-1.063c-1.724-.635-8.215-.307-10.492-.298-3.07-.102-9.925-.731-8.688-5.239,2.92-3.049,10.52-4.999,14.797-6.43,2.565-1.178,4.877-2.302,7.559-3.208Z" fill="#c7703a"/><path d="M154.012,401.345c5.336,3.62,18.15,9.187,20.321,12.519.427,5.771-12.21,3.074-15.533,4.106-2.022-5.256-3.574-11.136-4.788-16.625Z" fill="#c7703a"/><path d="M277.463,318.366c4.516,6.646,14.356,17.642,20.008,23.769-2.491,1.803-4.688,3.386-7.046,5.369l-.316-.118c-3.864-9.008-12.131-18.251-12.646-29.02Z" fill="#d98452"/><path d="M335.957,312.865c1.568,2.465,4.439,7.986,5.641,10.776-4.916.762-13.016,5.191-16.745,2.814-2.929-5.861,7.226-11.391,11.104-13.59Z" fill="#c7703a"/><path d="M161.77,425.699c3.939.861,22.222,3.646,20.381,9.319-4.142,2.456-10.04,2.399-14.712,2.195-1.167-2.876-4.105-8.089-5.669-11.514Z" fill="#c7703a"/><path d="M308.392,382.51c2.382-.5,5.308-.854,7.756-1.219.014,5.817.089,10.908-.449,16.713-2.292,1.578-4.984,3.641-7.504,4.656.131-3.959.598-16.467-.443-19.89l.64-.26Z" fill="#d98452"/><path d="M278.642,316.654c5.911.686,32.055,24.122,37.139,29.666-.845,1.356-1.429,2.018-1.591,3.611-8.937-7.625-16.895-17.346-25.995-24.958-3.143-2.629-6.653-5.499-9.553-8.319Z" fill="#d98452"/><path d="M147.762,234.704c3.212,1.774,7.575,4.353,10.878,5.679-1.598,3.344-4.478,8.805-7.862,10.416-5.047-.55-3.262-12.247-3.016-16.095Z" fill="#c7703a"/><path d="M131.973,224.54c3.238,2.314,6.242,4.412,9.581,6.575-3.182,3.903-3.495,6.359-8.45,8.624-1.858-.135-1.107.239-2.335-1.145-1.249-4.238.318-9.605,1.204-14.054Z" fill="#c7703a"/><path d="M161.545,242.187c7.757,4.623,12.917,6.287,21.688,8.736-2.124,1.756-1.843,3.791-3.185,6.699-4.016-2.026-16.791-11.01-18.503-15.435Z" fill="#d98452"/><path d="M298.653,438.046c2.277-.009,8.768-.337,10.492.298l.352,1.063c-1.095,5.441-3.318,7.473-.48,12.541l-6.83-2.927c-1.225-3.467-.737-6.277-1.682-9.638-.273-.971-.528-.743-1.852-1.337Z" fill="#ec9b6f"/><path d="M308.038,416.741l5.404-.384-1.12,6.812c-2.682.906-4.994,2.03-7.559,3.208.596-2.407,1.891-6.487,1.357-8.702l-1.3-.401c.554-.243,2.137-.182,3.218-.533Z" fill="#d98452"/><path d="M290.109,347.386l.316.118c1.014,2.52,3.305,4.875,5.2,6.85-3.069-.358-4.605-.216-6.488-2.806-.23-2.386-.135-1.684.972-4.162Z" fill="#c7703a"/><path d="M379.78,317.959c-1.293-2.104-1.887-4.29-3.003-6.418-6.542-12.467-1.782-31.738,15.74-24.292,8.512,3.617,12.569,12.903,15.802,21.522,2.393,6.531,4.192,21.726,2.915,28.474-.301,7.966-2.281,15.066-4.639,22.635-2.379,5.884-5.549,13.079-9.253,18.267l-5.278-5.32-.337-.516c-3.163-4.474-8.499-7.202-13.339-9.443,2.629-5.492,3.415-8.476,4.192-14.41.408-1.857.545-4.135.722-6.058-.095-9.398-.467-15.472-3.522-24.441Z" fill="#c7703a"/><path d="M379.78,317.959c-1.293-2.104-1.887-4.29-3.003-6.418-6.542-12.467-1.782-31.738,15.74-24.292,8.512,3.617,12.569,12.903,15.802,21.522-9.832,8.953-15.667,10.476-28.539,9.188Z" fill="#fbefd3"/><path d="M382.58,348.458c7.177.443,13.428,2.051,19.365,6.319l.154.478,4.496,4.625c-2.379,5.884-5.549,13.079-9.253,18.267l-5.278-5.32-.337-.516c-3.163-4.474-8.499-7.202-13.339-9.443,2.629-5.492,3.415-8.476,4.192-14.41Z" fill="#c7703a"/><path d="M402.098,355.255l4.496,4.625c-2.379,5.884-5.549,13.079-9.253,18.267l-5.278-5.32c-.041-1.08,8.639-15.141,10.035-17.572Z" fill="#b45b33"/><path d="M406.491,335.276c1.606-.871,2.756-1.906,4.218-1.615.547,1.543.483,1.988.525,3.584-.301,7.966-2.281,15.066-4.639,22.635l-4.496-4.625-.154-.478c-5.937-4.268-12.188-5.876-19.365-6.319.408-1.857.545-4.135.722-6.058.679-1.26.409-5.917.382-7.575,8.034,3.227,14.736,3.246,22.807.451Z" fill="#f4ae64"/><path d="M406.491,335.276c1.606-.871,2.756-1.906,4.218-1.615.547,1.543.483,1.988.525,3.584-.301,7.966-2.281,15.066-4.639,22.635l-4.496-4.625-.154-.478c.891-5.7,3.493-12.804,4.546-19.501Z" fill="#d98452"/><path d="M378.387,362.868c4.84,2.241,10.176,4.969,13.339,9.443l.337.516,5.278,5.32c-4.548,6.171-9.798,12.562-15.895,17.284-5.858,3.97-10.878,7.038-17.788,8.981-6.36,2.041-11.709,3.47-18.451,3.724,2.372-6.058,2.139-8.498,1.527-14.784-.428-1.86-.543-2.679-.725-4.585l5.473-1.76,6.787-2.894c6.131-3.54,7.901-5.204,12.734-10.425,3.197-3.605,4.977-6.68,7.384-10.82Z" fill="#c7703a"/><path d="M378.387,362.868c4.84,2.241,10.176,4.969,13.339,9.443l.337.516,5.278,5.32c-4.548,6.171-9.798,12.562-15.895,17.284-1.056-3.558-.748-6.148-2.274-10.007l.062-.289c-2.44-5.307-4.138-7.358-8.231-11.447,3.197-3.605,4.977-6.68,7.384-10.82Z" fill="#f4ae64"/><path d="M379.234,385.135c3.772-2.048,9.504-9.288,12.492-12.824l.337.516,5.278,5.32c-4.548,6.171-9.798,12.562-15.895,17.284-1.056-3.558-.748-6.148-2.274-10.007l.062-.289Z" fill="#d98452"/><path d="M358.27,384.113c2.326,2.017,4.228,6.643,5.552,9.519.767,3.042.555,7.766-.163,10.78-6.36,2.041-11.709,3.47-18.451,3.724,2.372-6.058,2.139-8.498,1.527-14.784-.428-1.86-.543-2.679-.725-4.585l5.473-1.76,6.787-2.894Z" fill="#d98452"/><path d="M358.27,384.113c2.326,2.017,4.228,6.643,5.552,9.519-3.029.711-6.735.429-9.933.415-2.574.076-4.617-.325-7.154-.695-.428-1.86-.543-2.679-.725-4.585l5.473-1.76,6.787-2.894Z" fill="#f4ae64"/><path d="M346.009,388.767l5.473-1.76c1.427,2.853,2.005,3.783,2.406,7.04-2.574.076-4.617-.325-7.154-.695-.428-1.86-.543-2.679-.725-4.585Z" fill="#ec9b6f"/><path d="M379.173,385.424c1.526,3.859,1.218,6.449,2.274,10.007-5.858,3.97-10.878,7.038-17.788,8.981.718-3.014.93-7.738.163-10.78,2.84-1.929,12.13-6.697,15.351-8.208Z" fill="#b45b33"/><path d="M329.819,390.154c6.385-.027,9.901-.335,16.19-1.387.182,1.906.297,2.725.725,4.585.612,6.286.845,8.726-1.527,14.784-4.251.253-12.357.164-16.462-.857-2.185-.275-4.603-.714-6.8-1.061l1.115-17.371c2.181.569,4.528.919,6.759,1.307Z" fill="#b45b33"/><path d="M323.061,388.847c2.181.569,4.528.919,6.759,1.307.92.499,1.462.466,1.631,1.713.373,2.755-.724,13.89-2.705,15.412-2.185-.275-4.603-.714-6.8-1.061l1.115-17.371Z" fill="#d98452"/><path d="M329.738,205.958c5.403.198,9.512.666,14.853,1.245-1.41,4.599-3.96,10.015-6.436,14.143-4.973-2.244-9.025-3.971-14.158-5.899l5.741-9.489Z" fill="#d98452"/><path d="M92.486,152.694c8.866-.268,17.455,1.667,25.595,5.18,1.029,1.549.927,1.956,1.028,3.786-8.096-2.858-19.256-5.713-26.623-8.966Z" fill="#230603"/><path d="M120.783,185.741c-1.464-.175-2.015.405-4.047.239l-.386-.51c1.298-.895,2.606-1.775,3.923-2.642l.51,2.913Z" fill="rgba(11,3,4,.016)"/></svg>