<?xml version="1.0" encoding="UTF-8"?><svg id="a" xmlns="http://www.w3.org/2000/svg" width="500" height="500" xmlns:xlink="http://www.w3.org/1999/xlink" viewBox="0 0 500 500"><defs><linearGradient id="b" x1="256.986" y1="-774.7" x2="251.32" y2="-778.168" gradientTransform="translate(0 -647.649) scale(1 -1)" gradientUnits="userSpaceOnUse"><stop offset="0" stop-color="#fae0ad"/><stop offset="1" stop-color="#f8c59a"/></linearGradient><linearGradient id="c" x1="422.271" y1="-988.226" x2="412.389" y2="-991.027" gradientTransform="translate(0 -647.649) scale(1 -1)" gradientUnits="userSpaceOnUse"><stop offset="0" stop-color="#f27468"/><stop offset="1" stop-color="#e84b49"/></linearGradient></defs><path d="M87.953,222.022c-14.115-7.065-25.659-16.39-32.988-30.683-7.869-15.934-8.419-35.788-2.923-52.507,9.326-28.367,37.905-49.201,68.03-39.765,4.614,1.445,9.98,5.49,11.969,10.025,1.738,3.962,1.965,9.831.221,13.876-6.083,13.11-23.158,10.342-34.009,15.097-7.005,3.317-12.254,10.346-14.85,17.465-1.734,5.305-1.746,11.698-.464,17.124,2.72,11.519,12.825,25.394,25.247,27.099,2.047.28,10.807-4.859,13.463-5.782,7.507-2.609,15.014-4.267,22.959-4.793,18.864-1.281,32.083,4.084,49.114,9.689,1.789-7.9,4.874-13.846,7.32-21.137,1.363-4.063,2.907-12.918,3.898-17.411,3.64-16.9,11.175-33.3,21.957-46.817,3.369-4.224,8.45-11.43,14.598-9.158,11.499,4.249,22.22,19.958,28.008,30.212,16.325-3.631,32.573-2.044,48.81.794,10.215-8.128,35.024-26.295,46.784-24.929,15.522,1.803,9.778,55.124,8.271,65.546,8.715,13.817,12.247,29.379,13.843,45.497.315,3.178.244,11.549.969,14.015l.584,1.684c1.16.2,1.197.136,2.383-.036l.907.579c-1.299.47-3.283,1.115-4.488,1.657l-1.354,7.688c2.91.452,10.024,1.527,12.507,2.451,5.316,1.251,6.222,1.247,10.803,4.031l.388.778c-1.709.836-4.043.062-5.901-.407-6.614-1.466-11.935-2.282-18.689-3.194-6.408,17.343-13.121,24.05-28.194,34.512,8.67,4.312,18.961,8.276,27.296,13.119,2.792,1.623,5.685,6.729,5.748,9.991-1.371,32.974-60.129,15.32-76.317,11.331.68.711,3.074,3.114,3.502,3.77,3.782,4.393,4.816,8.878,3.068,14.499-2.217,13.009-20.981,15.226-31.488,13.483-20.03-3.324-36.993-9.319-55.464-17.299-26.344,5.364-48.967,2.322-74.626-2.971-9.613,4.026-13.329,5.104-23.691,4.034-3.217,5.569-6.721,11.828-12.431,15.219-7.645,4.541-20.39,4.285-24.906-4.58-3.686-7.236-.149-16.024,2.121-23.279-9.321-.616-11.356-.86-20.063-4.248-6.152,6.01-10.681,13.906-19.617,16.717-14.722,4.629-28.587-6.011-23.695-21.756,2.432-7.826,7.581-15.568,11.743-22.625,2.684-4.551,5.776-9.41,9.321-13.311,2.887-3.102,11.601-3.051,13.22-6.731,2.901-6.595,3.701-14.56,5.526-21.534,2.529-9.813,6.561-18.416,11.582-27.029Z" fill="#43160b"/><path d="M317.354,323.433c3.782,4.393,4.816,8.878,3.068,14.499-.981-3.313-1.16-8.769-2.373-12.14-.484-1.346-.386-.809-.696-2.359Z" fill="#310e09"/><path d="M398.719,249.502c5.316,1.251,6.222,1.247,10.803,4.031l.388.778c-1.709.836-4.043.062-5.901-.407l.601-.414c1.295.018,1.32.101,2.503-.359-2.482-1.804-5.941-1.121-8.393-3.628Z" fill="#0b0304"/><path d="M238.434,109.731c11.71,2.323,25.963,27.741,31.976,37.779l2.041-.721c1.44-2.416.477-4.383-.188-6.941,3.321-.568,7.157-.901,10.526-1.036l.793-.047c5.749-1.198,20.816.168,26.743,1.195l4.038.911c4.382.811,8.016,1.945,12.243,3.346.488.162,5.46,1.829,5.697,1.858,1.81.604,4.311,1.505,6.13,1.818-2.03-4.573-9.277-7.519-13.868-9.896,4.535-3.738,38.456-27.363,41.566-19.611,5.52,13.763,4.592,36.222,2.971,51.209-.109,1.1-.548,1.373-1.057,1.828l-.955-.382c-1.399.155-1.467.041-2.74.611,8.974,14.896,12.918,23.998,15.928,41.506l.367,2.142c.578,5.385,1.804,16.914.875,21.833-2.049.874-3.895,1.419-4.788,3.461,1.397,1.279,2.751.559,4.508.091-.914,5.007-.924,4.244-3.637,8.358l1.006,1.477c-.702,2.646-2.388,6.334-3.819,8.68-2.176,3.757-4.486,6.6-7.457,9.783-6.288,7.674-18.423,14.434-27.628,18.037-32.106,12.538-69.054,10.583-100.562-2.757-6.154-2.606-25.331-13.627-27.675-19.643l.933-.845c3.335-1.088,7.556-1.93,11.034-2.72,2.851-.56,15.931-2.611,16.883-4.869-3.651-1.498-15.551,1.174-19.735,1.942-1.185-2.048-6.539-10.032-6.372-11.531,4.163.145,24.844,3.633,26.214,1.535-2.799-3.629-24.125-5.194-29.233-5.576-4.069-.128-8.138-.215-12.21-.258-.699-3.771-1.336-7.555-1.91-11.347-1.173-3.634.01-16.972.564-21.062.729-3.901,4.28-20.984,6.885-22.881l1.214.659c1.259-.937,2.737-14.258,3.244-16.888,2.907-15.096,7.187-29.752,15.408-42.883,5.118-8.385,7.518-10.829,14.043-18.167Z" fill="#f4ae64"/><path d="M230.537,267.338c25.572,5.148,46.905-1.171,67.64-16.773,7.674-5.774,17.387-19.665,28.565-16.937,9.407,2.296,14.425,14.26,22.892,18.491,5.397,2.696,11.036,5.667,17.092,6.566,2.741.403,5.282-.246,8.067.517-2.176,3.757-4.486,6.6-7.457,9.783-6.288,7.674-18.423,14.434-27.628,18.037-32.106,12.538-69.054,10.583-100.562-2.757-6.154-2.606-25.331-13.627-27.675-19.643l.933-.845c3.335-1.088,7.556-1.93,11.034-2.72,1.647,1.458,4.863,3.935,5.649,5.779l1.449.503Z" fill="#fbefd3"/><path d="M212.404,263.776c3.335-1.088,7.556-1.93,11.034-2.72,1.647,1.458,4.863,3.935,5.649,5.779l1.449.503c2.659,3.074,7.151,5.25,10.666,7.213,35.655,19.917,84.663,18.466,119.785-2.139,2.047-1.201,4.066-2.889,6.349-3.427-6.288,7.674-18.423,14.434-27.628,18.037-32.106,12.538-69.054,10.583-100.562-2.757-6.154-2.606-25.331-13.627-27.675-19.643l.933-.845Z" fill="#e2b9a1"/><path d="M212.404,263.776c3.335-1.088,7.556-1.93,11.034-2.72,1.647,1.458,4.863,3.935,5.649,5.779-5.542-1.121-11.103-2.141-16.683-3.059Z" fill="#d98452"/><path d="M328.549,242.363c2.185-.123,3.112-.144,4.745,1.421,1.184,5.09-8.512,10.259-3.048,14.723,5.315,4.342,7.031-4.159,10.725-4.88l.535.679c.653,8.827-8.191,11.864-15.075,5.23-1.304,1.383-2.575,2.483-3.987,3.74-11.306,5.387-18.348-4.979-14.757-7.402,3.309,1.047,8.282,11.523,15.654,1.203,4.446-6.224-8.238-7.593-5.102-12.712,3.276-1.899,6.578-1.811,10.31-2.001Z" fill="#43160b"/><path d="M328.151,245.133c1.649-.229.919-.369,2.298.193l.154,1.127c-1.05,2.424-2.507,4.176-5.333,3.637-1.664-1.136-3.303-1.99-3.776-3.869,1.307-1.231,4.733-1.031,6.657-1.089Z" fill="#ea8178"/><path d="M324.566,137.997c4.535-3.738,38.456-27.363,41.566-19.611,5.52,13.763,4.592,36.222,2.971,51.209-.109,1.1-.548,1.373-1.057,1.828l-.955-.382c-1.399.155-1.467.041-2.74.611-1.135-.889-3.938-4.184-5.051-5.434-.35-.648-2.385-2.77-2.978-3.421-2.22-2.092-6.171-4.82-7.636-6.922-.154-1.249.292-1.719.928-2.84l.252-.437-.335-.449c-2.224-.026-2.478.088-4.669.683-2.39-.338-2.584-.433-3.413-2.708-1.285-.838-1.49-1.265-2.381-2.484l-.299-.415-.336.669c-2.03-4.573-9.277-7.519-13.868-9.896Z" fill="#ec9b6f"/><path d="M341.45,150.124c1.423-1.809,2.895-5.203,4.107-7.263,3.618-6.147,10.466-17.647,17.521-19.929l.512.299c-.425,2.677-3.892,5.726-5.662,7.789-4.678,5.454-8.246,11.358-11.29,17.849-1.167,1.813-1.013,2.381-1.775,3.962-2.39-.338-2.584-.433-3.413-2.708Z" fill="#9f492f"/><path d="M346.638,148.869c2.249.054,4.171-.143,6.137.834,2.527,3.635-2.204,3.886,2.323,7.21.305,1.996.537,2.235,1.531,4.058-.073.951.02.969-.306,1.826-2.22-2.092-6.171-4.82-7.636-6.922-.154-1.249.292-1.719.928-2.84l.252-.437-.335-.449c-2.224-.026-2.478.088-4.669.683.762-1.581.608-2.149,1.775-3.962Z" fill="#e35d57"/><path d="M355.097,156.914c4.589,3.723,9.472,8.727,11.994,14.128-1.399.155-1.467.041-2.74.611-1.135-.889-3.938-4.184-5.051-5.434-.35-.648-2.385-2.77-2.978-3.421.327-.857.233-.875.306-1.826-.994-1.823-1.226-2.062-1.531-4.058Z" fill="#b45b33"/><path d="M283.583,138.766c5.749-1.198,20.816.168,26.743,1.195.211.379,4.712,7.352,4.678,7.32,5.084,4.68,14.484,42.062,5.078,43.341-4.34-2.16-13.477-31.404-19.043-36.881-5.054-4.972-8.2-15.056-17.456-14.976Z" fill="#c7703a"/><path d="M197.641,209.891c2.758,2.018,5.749,3.699,8.908,5.007l.478.344c6.71,2.894,13.183,5.296,20.33,6.972,3.585.84,8.173,1.909,10.075,5.302.089,6.779-21.029,6.483-25.61,6.136l-1.825.206c-1.121,2.401.919,4.91,1.2,8.701-4.069-.128-8.138-.215-12.21-.258-.699-3.771-1.336-7.555-1.91-11.347-1.173-3.634.01-16.972.564-21.062Z" fill="#c7703a"/><path d="M197.641,209.891c2.758,2.018,5.749,3.699,8.908,5.007l.478.344c.016,5.432.293,12.9,1.947,18.152,1.126.042,1.749-.006,2.847.258l-1.825.206c-1.121,2.401.919,4.91,1.2,8.701-4.069-.128-8.138-.215-12.21-.258-.699-3.771-1.336-7.555-1.91-11.347-1.173-3.634.01-16.972.564-21.062Z" fill="#b45b33"/><path d="M197.078,230.953l.546-.916c4.518,1.475,6.448,2.868,11.351,3.356,1.126.042,1.749-.006,2.847.258l-1.825.206c-1.121,2.401.919,4.91,1.2,8.701-4.069-.128-8.138-.215-12.21-.258-.699-3.771-1.336-7.555-1.91-11.347Z" fill="#d98452"/><path d="M224.392,127.897c.488.491.982.751.836,1.244-2.006,6.756-5.162,13.552-7.201,20.38-3.509,11.753-3.508,23.21-5.666,34.487-2.595,13.561-5.742,16.009-5.811,30.89-3.159-1.307-6.15-2.988-8.908-5.007.729-3.901,4.28-20.984,6.885-22.881l1.214.659c1.259-.937,2.737-14.258,3.244-16.888,2.907-15.096,7.187-29.752,15.408-42.883Z" fill="#d98452"/><path d="M272.263,139.848c3.321-.568,7.157-.901,10.526-1.036,1.588,3.09,4.819,6.313,6.939,9.317,3.652,5.173,13.188,23.689,6.828,29.025-6.074.791-14.321-24.95-24.105-30.366,1.44-2.416.477-4.383-.188-6.941Z" fill="#c7703a"/><path d="M314.363,140.872c4.382.811,8.016,1.945,12.243,3.346.488.162,5.46,1.829,5.697,1.858.691,4.201,4.413,10.227,5.073,14.832.444,3.103,2.157,12.087-1.947,12.906-5.174-2.197-8.634-16.752-12.294-21.839-2.868-3.987-5.615-7.356-8.773-11.103Z" fill="#c7703a"/><path d="M359.3,166.218c1.113,1.25,3.916,4.544,5.051,5.434,8.974,14.896,12.918,23.998,15.928,41.506-.281.579-.577.869-.983,1.387l-.468-.238c-1.586-6.055-4.358-13.296-6.991-19.7-3.387-8.237-9.496-18.578-12.821-27.203.095-.396.189-.791.284-1.185Z" fill="#fbd6a0"/><path d="M238.434,109.731c11.71,2.323,25.963,27.741,31.976,37.779-.73.384-2.396.986-2.991.237-7.438-9.368-12.727-20.382-20.8-29.459-2.055-2.311-7.709-6.141-8.186-8.557Z" fill="url(#b)"/><path d="M380.647,215.3c.578,5.385,1.804,16.914.875,21.833-.196-3.257-.198-6.632-.244-9.902-2.794-.485-5.469-.615-6.31-3.716.358-3.489,3.139-5.567,5.679-8.215Z" fill="#b45b33"/><path d="M258.949,243.047c-4.026.688-5.972-7.095-6.39-10.17-.949-6.82.95-13.73,5.253-19.105,13.872-17.594,40.101-6.571,40.889,14.747.409,11.046-2.336,20.295-14.783,22.73-3.17.575-5.697-.954-8.086-.998-4.779.703-15.02-2.718-16.883-7.204Z" fill="#43160b"/><path d="M256.387,229.109c1.405-1.448,1.781-2.947,2.675-4.734,1.978-3.957,6.388-7.575,10.475-9.113,5.967-2.245,9.809-2.05,15.449.214-.108.972-.158.835-.031,1.782l-.038.078c-18.512.387-22.822,23.772-9.084,32.914-4.779.703-15.02-2.718-16.883-7.204-2.336-5.358-2.681-8.232-2.563-13.937Z" fill="#fefdfd"/><path d="M256.387,229.109c2.456-15.991,18.438-25.475,31.672-14.176l-3.073.543c-5.639-2.264-9.482-2.459-15.449-.214-4.088,1.538-8.497,5.156-10.475,9.113-.894,1.788-1.27,3.286-2.675,4.734Z" fill="#d9ccca"/><path d="M288.059,214.933c2.744,2.845,3.458,3.811,5.617,7.158-3.149-2.066-5.164-3.53-8.759-4.754l.038-.078c-.126-.947-.077-.81.031-1.782l3.073-.543Z" fill="#ece0de"/><path d="M287.022,222.718c6.909.154,7.901,6.227,2.916,10.305-6.507-.764-8.439-6.198-2.916-10.305Z" fill="#fefdfd"/><path d="M272.283,243.276l.565-.301.486.251-.105,1.821-1.237-1.125.291-.646Z" fill="#633826"/><path d="M358.717,244.342c-15.699,8.567-21.128-12.431-19.421-24.095,2.562-17.499,18.343-27.331,30.247-10.711,5.279,7.371,6.311,24.445-2.129,29.837-1.871,1.971-5.674,6.113-8.697,4.97Z" fill="#43160b"/><path d="M346.778,211.029c6.591-.703,10.367-2.784,15.602,1.467.768.624,4.009,2.675,5.058,2.971,3.361,9.496,3.302,14.506-.024,23.906-1.871,1.971-5.674,6.113-8.697,4.97,3.75-3.661,5.167-6.521,5.644-12.032.621-7.172-3.268-17.877-11.751-18.237-4.114-.175-6.804,2.518-9.566,5.205.8-3.43,1.916-5.38,3.733-8.249Z" fill="#fefdfd"/><path d="M346.778,211.029c8.055-8.511,15.832-5.536,20.66,4.437-1.049-.295-4.29-2.347-5.058-2.971-5.234-4.251-9.01-2.17-15.602-1.467Z" fill="#d9ccca"/><path d="M355.858,218.555c6.038,1.425,7.221,6.343,1.991,9.972-6.291-1.114-6.102-6.114-1.991-9.972Z" fill="#fefdfd"/><path d="M257.889,150.001l.554.972c-.548,1.32-5.751,2.625-7.636,3.414-5.27,2.209-11.137,5.184-15.771,8.496-2.967,2.122-6.065,5.785-9.421,7.372l-.73-.329c-3.044-8.117,5.385-46.901,13.247-50.898,1.803.066,1.172-.034,2.855,1.457,3.126-.158,6.527,3.335,7.685,5.964,3.102,3.786,9.108,14.864,9.986,19.474.184,1.507.498,2.466-.21,3.77l-.561.308Z" fill="#f6998d"/><path d="M257.889,150.001l.554.972c-.548,1.32-5.751,2.625-7.636,3.414-5.27,2.209-11.137,5.184-15.771,8.496-2.967,2.122-6.065,5.785-9.421,7.372l-.73-.329c-3.044-8.117,5.385-46.901,13.247-50.898,1.803.066,1.172-.034,2.855,1.457-9.816,10.815-12.737,30.484-13.41,44.669,9.617-8.051,17.206-14.333,30.309-15.152Z" fill="#9f492f"/><path d="M248.674,126.449c3.102,3.786,9.108,14.864,9.986,19.474-2.64-2.978-3.946-5.399-5.519-8.989l.259.21c-1.289-3.294-4.09-8.224-4.726-10.696Z" fill="#f48b76"/><path d="M125.832,199.023c6.677-3.191,18.672-3.975,26.052-3.983,5.002,0,8.344.479,13.289,1.351,7.55,1.453,11.585,2.821,18.689,5.42,1.838.708,4.19,1.535,5.934,2.348,1.715.531,1.766.206,2.409,1.362-1.573,11.766-1.919,14.609-1.298,26.495.635,3.6,1.232,7.329,2.098,10.868-2.031.339-4.76.71-6.705,1.181-1.67,1.28-1.151.476-1.667,2.461,2.976.258,6.078-.091,9.067-.316,2.961,7.065,4.673,10.976,8.849,17.539-3.559,1.157-6.806,1.897-9.649,4.328l.081.686c3.33.709,8.122-1.366,11.415-2.53,17.778,18.938,30.616,24.311,55.213,31.435-1.327,1.737-6.325,5.628-9.276,9.24-7.627,2.135-11.39,8.015-14.717,14.711l-.066.328c-1.015,1.264-2.585,3.861-3.54,4.522-4.635-2.094-10.562-6.299-15.006-7.875-.875.391-1.285.563-2.194.811l-.738.197c1.432,3.85,8.465,7.557,12.091,9.709-30.085,4.271-68.75-.468-95-16.323,5.126-3.745,6.781-5.494,10.745-10.504l.034-.256c-1.244-1.91.264-2.26-1.52-4.628l-4.854,4.708c-6.352,7.353-16.214,11.318-25.311,13.913l-1.29.092c-5.879.661-8.428.602-14.328-.064-4.558-.907-12.242-3.436-16.112-3.722l-1.302.329c-2.906,2.312-4.553,4.524-6.827,7.448-5.055,5.375-7.67,7.578-14.653,10.195,1.339-1.415,4.27-4.395,4.255-6.377-6.161,3.488-8.02,9.371-15.325,2.639.305-1.466.393-1.417.019-2.838-6.677-2.104-1.268-11.569.819-15.438,2.366-4.466,4.81-8.889,7.33-13.27,2.64-4.543,7.184-13.508,12.231-15.235,7.995-2.734,9.397-1.017,12.358-9.75l4.37-16.892c4.162-16.649,12.95-35.341,27.439-45.383,5.161-4.018,10.565-6.54,16.591-8.929Z" fill="#f4ae64"/><path d="M141.908,302.483l4.382,1.594c14.337,5.889,42.208,10.736,57.787,11.013l3.549.018c2.707,1.268,5.29,1.923,6.448,4.494,1.432,3.85,8.465,7.557,12.091,9.709-30.085,4.271-68.75-.468-95-16.323,5.126-3.745,6.781-5.494,10.745-10.504Z" fill="#e2b9a1"/><path d="M146.29,304.077c14.337,5.889,42.208,10.736,57.787,11.013,1.399.164,1.7.087,2.921.803.484,1.84-.279,2.936-.961,5.016-17.407.83-43.122-3.624-58.673-11.249l-1.073-5.582Z" fill="#fbefd3"/><path d="M165.173,196.39c7.55,1.453,11.585,2.821,18.689,5.42-7.821,6.972-14.203,15.291-19.212,24.514-4.308,7.933-7.02,16.774-10.227,25.185-.595,1.562-1.834,3.209-3.469,3.657-4.495,1.234-5.135-6.861-5.625-9.821-.863-15.555,5.183-31.847,14.9-43.767,2.443-2.106,2.966-2.646,4.944-5.187Z" fill="#c7703a"/><path d="M125.832,199.023c6.677-3.191,18.672-3.975,26.052-3.983-2.932,2.222-4.123,3.17-6.655,5.801-5.736,5.089-10.373,12.722-14.107,19.366-4.03,7.168-5.276,15.954-9.88,22.737-.518.195-1.038.388-1.556.583-3.203-.694-3.518-3.779-4.111-6.646-1.933-9.34,1.541-24.253,6.733-31.993,1.048-1.991,3.785-3.802,3.525-5.864Z" fill="#c7703a"/><path d="M52.843,295.213c1.281,1.71,1.991,4.64,2.734,6.77,1.771,5.078,3.923,8.388,7.576,12.302l.329.042c2.285,2.456,4.129,4.045,6.916,5.976-5.055,5.375-7.67,7.578-14.653,10.195,1.339-1.415,4.27-4.395,4.255-6.377-6.161,3.488-8.02,9.371-15.325,2.639.305-1.466.393-1.417.019-2.838-6.677-2.104-1.268-11.569.819-15.438,2.366-4.466,4.81-8.889,7.33-13.27Z" fill="#fbefd3"/><path d="M63.154,314.285l.329.042c2.285,2.456,4.129,4.045,6.916,5.976-5.055,5.375-7.67,7.578-14.653,10.195,1.339-1.415,4.27-4.395,4.255-6.377-6.161,3.488-8.02,9.371-15.325,2.639,2.644-1.141,4.614-2.443,6.738-4.39l.345.189c.707-.331.337-.222,1.111-.328.376.437.154.302.632.459,3.807-1.408,7.674-4.889,9.652-8.404Z" fill="#e2b9a1"/><path d="M44.695,323.922c-6.677-2.104-1.268-11.569.819-15.438,1.676,4.736-1.455,9.151-.208,14.447l-.611.992Z" fill="#ecccb7"/><path d="M45.306,322.93c1.731-1.203,5.516-4.805,7.388-4.353.124,1.55-.539,2.392-1.28,3.792-2.124,1.947-4.094,3.249-6.738,4.39.305-1.466.393-1.417.019-2.838l.611-.992Z" fill="#633826"/><path d="M189.796,204.158c1.715.531,1.766.206,2.409,1.362-1.573,11.766-1.919,14.609-1.298,26.495.635,3.6,1.232,7.329,2.098,10.868-2.031.339-4.76.71-6.705,1.181-1.67,1.28-1.151.476-1.667,2.461.171,3.222-2.01,8.769-5.974,7.941-1.939-1.816-2.061-6.231-2.215-8.846-.796-13.428,4.221-31.381,13.353-41.462Z" fill="#c7703a"/><path d="M190.907,232.014c.635,3.6,1.232,7.329,2.098,10.868-2.031.339-4.76.71-6.705,1.181.369-1.924,3.626-10.253,4.607-12.049Z" fill="#ec9b6f"/><path d="M205.588,306.883c12.202,3.977,19.304,10.311,30.029,14.735l-.066.328c-1.015,1.264-2.585,3.861-3.54,4.522-4.635-2.094-10.562-6.299-15.006-7.875-.875.391-1.285.563-2.194.811l-.738.197c-1.158-2.571-3.741-3.226-6.448-4.494-1.001-3.192-1.423-4.934-2.038-8.225Z" fill="#d98452"/><path d="M104.901,310.837c-1.411-2.855-9.317-18.195-2.696-19.063,4.43,3.347,8.631,10.21,15.571,15.547l.167,1.318c-3.679,1.638-9.302,1.715-10.973,3.236.292,1.197,2.341,3.248,3.286,4.344l-1.29.092c-1.013-1.612-2.894-4.026-4.066-5.475Z" fill="#c7703a"/><path d="M77.432,270.228l4.37-16.892c1.39,2.999,2.023,10.498,2.996,14.421,1.097,4.423,4.031,11.881,4.344,15.805l-.654.624c-5.239-.201-9.418-9.579-11.056-13.957Z" fill="#c7703a"/><path d="M79.468,308.929c-.732-3.195-1.034-5.919-.309-9.176l.649-.844c4.283-.004,6.615,8.079,11.977,10.604,1.267,2.235,2.522,4.15,2.853,6.735-4.558-.907-12.242-3.436-16.112-3.722,1.073-.223,1.11-.26,2.104-.74.255-1.426-.044-1.215-1.163-2.857Z" fill="#c7703a"/><path d="M117.777,307.321c6.938,4.925,11.43-4.031,17.791-5.015-6.352,7.353-16.214,11.318-25.311,13.913-.945-1.096-2.995-3.147-3.286-4.344,1.672-1.521,7.294-1.598,10.973-3.236l-.167-1.318Z" fill="#b45b33"/><path d="M151.884,195.04c5.002,0,8.344.479,13.289,1.351-1.978,2.542-2.501,3.081-4.944,5.187-5.149-.21-9.712-.72-15-.737,2.532-2.631,3.723-3.578,6.655-5.801Z" fill="#fbd6a0"/><path d="M63.482,314.326c2.499-2.386,4.063-4.435,7.088-6.153,2.743,3.697,4.011,2.513,6.655,4.682-2.906,2.312-4.553,4.524-6.827,7.448-2.788-1.931-4.632-3.52-6.916-5.976Z" fill="#d98452"/><path d="M91.786,309.513c5.634,1.297,7.4,1.587,13.115,1.324,1.172,1.449,3.053,3.864,4.066,5.475-5.879.661-8.428.602-14.328-.064-.331-2.586-1.587-4.5-2.853-6.735Z" fill="#d98452"/><path d="M125.832,199.023c.26,2.063-2.477,3.874-3.525,5.864-4.888.556-6.77,2.053-11.28,3.626-.659.23-1.274-.209-1.786-.562,5.161-4.018,10.565-6.54,16.591-8.929Z" fill="#f6c38f"/><path d="M140.422,297.598c1.448-2.101,3.475-5.639,5.45-6.949l.822.109c1.239,3.181-2.661,9.068-4.752,11.469-1.244-1.91.264-2.26-1.52-4.628Z" fill="#c7703a"/><path d="M70.57,308.173c3.146-.838,5.886-.532,8.898.756,1.119,1.642,1.418,1.431,1.163,2.857-.994.48-1.031.517-2.104.74l-1.302.329c-2.644-2.169-3.912-.985-6.655-4.682Z" fill="#c7703a"/><path d="M259.61,297.667c6.049.928,8.222.974,13.339,4.462,2.746,1.614,4.913,2.981,7.543,4.776l7.715,4.48c3.878,2.28,7.791,4.501,11.735,6.664,8.196,4.209,14.824,6.079,15.948,16.344.305,2.255-.522,4.3-2.411,5.707-.621.339-4.787,3.352-6.031,4.133l-1.066-4.769c-1.58-1.727-4.648-4.244-7.112-3.834l-.113.775,1.126,1.328c2.075,1.731,3.857,2.846,4.309,5.534-2.421,5.63-19.624,1.216-24.221.19-6.033-1.22-13.945-3.378-19.705-5.251l-2.598-.864c-2.136-.875-6.204-2.088-8.646-2.971l-7.126-2.923c-3.655-1.615-6.73-3.142-10.286-4.98.955-.661,2.525-3.258,3.54-4.522l.066-.328c3.327-6.697,7.09-12.577,14.717-14.711,2.951-3.612,7.949-7.503,9.276-9.24Z" fill="#f4ae64"/><path d="M280.81,338.045c.647-4.245,1.935-8.002,4.552-11.474,3.551-4.647,8.789-7.709,14.58-8.521,8.196,4.209,14.824,6.079,15.948,16.344.305,2.255-.522,4.3-2.411,5.707-.621.339-4.787,3.352-6.031,4.133l-1.066-4.769c-1.58-1.727-4.648-4.244-7.112-3.834l-.113.775,1.126,1.328c2.075,1.731,3.857,2.846,4.309,5.534-2.421,5.63-19.624,1.216-24.221.19l.348-4.978.09-.435Z" fill="#fbefd3"/><path d="M280.81,338.045c3.949,1.256,17.592,5.457,20.966,3.66.014-1.472-.033-1.089-.742-2.486-.247-.496-.497-.992-.751-1.485,2.075,1.731,3.857,2.846,4.309,5.534-2.421,5.63-19.624,1.216-24.221.19l.348-4.978.09-.435Z" fill="#e2b9a1"/><path d="M313.479,340.1c.753-5.701-4.537-7.808-4.843-11.301,3.076.378,5.519,3.28,7.255,5.594.305,2.255-.522,4.3-2.411,5.707Z" fill="#611e13"/><path d="M306.383,339.463c2.573.36,4.514.49,7.096.637-.621.339-4.787,3.352-6.031,4.133l-1.066-4.769Z" fill="#ecccb7"/><path d="M259.61,297.667c6.049.928,8.222.974,13.339,4.462-7.021,2.647-13.587,6.374-19.459,11.045-2.071,1.173-3.284,1.763-5.479,2.69-1.351,2.903-3.333,6.957-4.234,9.931l-.235.002c-.432,1.88-.847,3.763-1.244,5.65-3.655-1.615-6.73-3.142-10.286-4.98.955-.661,2.525-3.258,3.54-4.522l.066-.328c3.327-6.697,7.09-12.577,14.717-14.711,2.951-3.612,7.949-7.503,9.276-9.24Z" fill="#c7703a"/><path d="M235.551,321.946c1.942.839,6.543,2.652,7.991,3.852-.432,1.88-.847,3.763-1.244,5.65-3.655-1.615-6.73-3.142-10.286-4.98.955-.661,2.525-3.258,3.54-4.522Z" fill="#b45b33"/><path d="M248.011,315.864c.525-1.624.759-3.038,1.972-4.165,1.772-.124,1.613.244,3.507,1.475-2.071,1.173-3.284,1.763-5.479,2.69Z" fill="#ec9b6f"/><path d="M280.492,306.905l7.715,4.48c-3.628,2.061-8.417,4.61-11.762,6.945-2.578-.302-6.346.28-7.534-.9,2.447-5.991,6.107-7.904,11.581-10.524Z" fill="#c7703a"/><path d="M259.587,332.085c4.508,1.364,8.956,2.944,13.452,4.386,2.194.704,5.928,1.345,7.681,2.008l-.348,4.978c-6.033-1.22-13.945-3.378-19.705-5.251-2.411-1.993-1.365-3.057-1.08-6.121Z" fill="#d98452"/><path d="M243.777,325.795c2.963,2.531,5.842,2.423,8.982,3.633l.011.304c-1.096,1.56-2.211,3.106-3.346,4.638l-7.126-2.923c.398-1.887.813-3.77,1.244-5.65l.235-.002Z" fill="#d98452"/><path d="M252.769,329.733c2.318.336,3.742.668,5.986,1.23-.177,2.142-.299,4.267-.686,6.379-2.136-.875-6.204-2.088-8.646-2.971,1.135-1.532,2.25-3.078,3.346-4.638Z" fill="#b45b33"/><path d="M252.758,329.428c1.904-2.268,3.262-4.375,5.785-5.84l.994-.074c1.59,2.911-1.021,6.492.05,8.57-.285,3.064-1.331,4.128,1.08,6.121l-2.598-.864c.387-2.113.509-4.237.686-6.379-2.244-.562-3.668-.894-5.986-1.23l-.011-.304Z" fill="#c7703a"/><path d="M268.911,317.429c1.188,1.18,4.956.599,7.534.9-2.076,1.648-5.076,4.614-7.646,2.767-.58-1.586-.309-2.034.112-3.667Z" fill="#cb7c49"/><path d="M93.248,104.8c7.329-1.896,11.278-2.319,18.709-1.464,10.305,1.186,19.735,8.384,13.221,19.119-3.672,6.051-17.046,6.584-23.419,7.955-6.047,2.066-9.277,3.467-14.164,7.73-2.598,2.812-4.559,5.23-6.417,8.623-3.147,5.92-3.926,8.742-4.989,15.445l-.281-.993c-4.11-3.694-16.424-4.102-21.2-1.594l-.311.131c.523-6.236,1.209-14.207,3.703-19.972,3.083-8.894,7.966-16.083,14.5-22.756,2.932-2.698,5.708-5.287,9.341-7.014,3.482-2.309,7.407-3.792,11.308-5.209Z" fill="#c7703a"/><path d="M93.248,104.8c7.329-1.896,11.278-2.319,18.709-1.464,10.305,1.186,19.735,8.384,13.221,19.119-3.672,6.051-17.046,6.584-23.419,7.955-1.197-.484-1.368-.997-2.253-1.866-6.374-6.266-7.118-12.08-6.828-20.578.173-.493.465-2.532.57-3.165Z" fill="#fbefd3"/><path d="M54.395,159.751c.523-6.236,1.209-14.207,3.703-19.972,1.611.575,4.02.233,5.908.236,5.619.01,12.708,3.433,17.17,6.746-3.147,5.92-3.926,8.742-4.989,15.445l-.281-.993c-4.11-3.694-16.424-4.102-21.2-1.594l-.311.131Z" fill="#c7703a"/><path d="M72.599,117.023c2.066,10.243,7.272,14.467,14.995,21.115-2.598,2.812-4.559,5.23-6.417,8.623-4.462-3.313-11.551-6.736-17.17-6.746-1.888-.003-4.297.338-5.908-.236,3.083-8.894,7.966-16.083,14.5-22.756Z" fill="#f4ae64"/><path d="M81.94,110.009c3.482-2.309,7.407-3.792,11.308-5.209-.105.634-.398,2.673-.57,3.165-2.089.674-9.005,3.049-10.738,2.044Z" fill="#ec9b6f"/><path d="M347.009,290.611c2.035-1.006,2.305-1.205,4.489-1.608,3.32,2.197,6.426,3.332,9.643,5.198l3.488,1.543c6.225,2.508,13.736,4.127,17.625,9.171,2.558,4.026,2.483,4.877.875,9.348-1.805,2.492-2.235,2.842-4.541,4.713-3.376,1.658-5.389,2.269-9.236,2.661-1.873.456-5.021.473-6.967.316-3.863.02-7.921-.256-11.775-.508-15.296-1.994-29.323-5.612-43.996-10.226,5.613-3.76,10.046-7.648,15.246-11.711,2.316-1.809,10.591-3.387,13.87-4.537,3.852-1.351,7.432-2.728,11.28-4.361Z" fill="#d98452"/><path d="M351.886,306.77c2.635-6.185,7.091-8.119,12.743-11.025,6.225,2.508,13.736,4.127,17.625,9.171,2.558,4.026,2.483,4.877.875,9.348-1.805,2.492-2.235,2.842-4.541,4.713-3.376,1.658-5.389,2.269-9.236,2.661-1.873.456-5.021.473-6.967.316-3.863.02-7.921-.256-11.775-.508-.72-3.494-1.056-6.229-.005-9.691l.082-.294c.192-1.765.664-2.988,1.199-4.691Z" fill="#fbefd3"/><path d="M360.338,311.8c5.888-2.706,8.904-1.859,13.027,3.008-.679,1.254-3.842,6.159-4.014,6.83-1.873.456-5.021.473-6.967.316-3.863.02-7.921-.256-11.775-.508-.72-3.494-1.056-6.229-.005-9.691l.082-.294c2.473,1.76,5.19.949,8.318,1.324l1.333-.985Z" fill="#ea8178"/><path d="M350.605,311.755l.082-.294c2.473,1.76,5.19.949,8.318,1.324-2.788,6.245,2.697,6.138,3.379,9.17-3.863.02-7.921-.256-11.775-.508-.72-3.494-1.056-6.229-.005-9.691Z" fill="#e2b9a1"/><path d="M361.416,309.912c.704-.736,1.483-1.395,2.326-1.967,2.587-1.72,4.776-1.107,7.558-.461.144,2.228-.215,1.263,1.033,3.034,2.224,1.071,2.909.668,4.94-.42.393.608.745,1.339,1.292,1.728,2.765-.152,2.784.358,4.563,2.437-1.805,2.492-2.235,2.842-4.541,4.713-3.376,1.658-5.389,2.269-9.236,2.661.172-.672,3.335-5.577,4.014-6.83-4.123-4.867-7.139-5.714-13.027-3.008l1.078-1.887Z" fill="#e2b9a1"/><path d="M378.565,311.826c2.765-.152,2.784.358,4.563,2.437-1.805,2.492-2.235,2.842-4.541,4.713-1.071-1.407-2.28-2.657-2.531-4.363.352-1.409,1.311-1.871,2.509-2.788Z" fill="#c67d6c"/><path d="M350.687,311.461c.192-1.765.664-2.988,1.199-4.691,1.915,1.955,6.846,3.565,9.53,3.142l-1.078,1.887-1.333.985c-3.128-.375-5.845.436-8.318-1.324Z" fill="#ecccb7"/><path d="M371.3,307.484c1.3-1.404,1.489-1.792,3.194-2.496,2.328.128,2.521.498,3.869,2.361l-1.089,2.75c-2.031,1.088-2.716,1.491-4.94.42-1.248-1.771-.889-.806-1.033-3.034Z" fill="#c67d6c"/><path d="M382.254,304.916c2.558,4.026,2.483,4.877.875,9.348-1.779-2.079-1.798-2.589-4.563-2.437-.547-.388-.899-1.12-1.292-1.728l1.089-2.75c.361.531.729,1.057,1.104,1.578l.907.123c1.033-.947,1.419-2.723,1.88-4.133Z" fill="#e2b9a1"/><path d="M347.009,290.611c2.035-1.006,2.305-1.205,4.489-1.608,3.32,2.197,6.426,3.332,9.643,5.198l3.488,1.543c-5.652,2.906-10.108,4.84-12.743,11.025-.535,1.703-1.007,2.926-1.199,4.691l-.082.294c-3.782-.932-11.489-2.409-13.015-6.313.048-3.857,7.079-10.771,9.419-14.831Z" fill="#f4ae64"/><path d="M351.498,289.003c3.32,2.197,6.426,3.332,9.643,5.198-5.621,1.764-9.714,5.136-13.345,6.175l-.54-.457c.269-4.806,2.263-6.368,3.876-10.064l.365-.853Z" fill="#cb7c49"/><path d="M54.706,159.62c4.776-2.508,17.09-2.1,21.2,1.594l.281.993c-.078,2.252-.175,3.984.011,6.246l.358,2.637c.589,4.416,1.902,8.126,3.573,12.213,1.84,3.687,3.62,6.758,6.235,9.988,4.376,4.087,6.802,6.029,11.907,9.137l5.22,2.264c-2.595,2.312-7.345,6.274-9.363,8.778-.369.65-1.896,2.568-2.427,3.266-5.233-2.106-9-4.09-13.461-7.481-5.484-4.199-9.072-7.483-13.109-13.057-2.66-3.532-6.882-11.982-8.313-16.013-2.122-6.455-2.688-13.681-2.423-20.433l.311-.131Z" fill="#c7703a"/><path d="M54.706,159.62c4.776-2.508,17.09-2.1,21.2,1.594l.281.993c-.078,2.252-.175,3.984.011,6.246l-.506,1.503c-6.858,1.177-10.304,2.633-15.739,7.543l-.383.721c-.945.7-1.761,1.323-2.753,1.963-2.122-6.455-2.688-13.681-2.423-20.433l.311-.131Z" fill="#f4ae64"/><path d="M54.395,159.751l.311-.131c.255,2.239,4.154,14.912,5.248,17.879l-.383.721c-.945.7-1.761,1.323-2.753,1.963-2.122-6.455-2.688-13.681-2.423-20.433Z" fill="#d98452"/><path d="M86.365,193.292c4.376,4.087,6.802,6.029,11.907,9.137l5.22,2.264c-2.595,2.312-7.345,6.274-9.363,8.778-.369.65-1.896,2.568-2.427,3.266-5.233-2.106-9-4.09-13.461-7.481.661-1.813,1.29-6.619,2.583-10.331,2.103-2.45,3.019-3.606,5.542-5.632Z" fill="#b45b33"/><path d="M98.272,202.428l5.22,2.264c-2.595,2.312-7.345,6.274-9.363,8.778-1.899-2.822.376-9.662,4.143-11.042Z" fill="#cb7c49"/><path d="M80.13,183.303c1.84,3.687,3.62,6.758,6.235,9.988-2.522,2.026-3.438,3.182-5.542,5.632-1.293,3.712-1.922,8.519-2.583,10.331-5.484-4.199-9.072-7.483-13.109-13.057,1.782-1.256,3.32-2.829,4.536-4.64l.2-.147c2.915-3.393,6.557-5.661,10.262-8.107Z" fill="#f4ae64"/><path d="M69.667,191.557l.2-.147c1.604,2.972,7.791,5.744,10.956,7.513-1.293,3.712-1.922,8.519-2.583,10.331-5.484-4.199-9.072-7.483-13.109-13.057,1.782-1.256,3.32-2.829,4.536-4.64Z" fill="#d98452"/><path d="M59.571,178.221c1.882,2.721,7.829,11.713,10.096,13.336-1.216,1.811-2.754,3.384-4.536,4.64-2.66-3.532-6.882-11.982-8.313-16.013.992-.64,1.808-1.263,2.753-1.963Z" fill="#b45b33"/><path d="M125.842,316.617c9.859,6.309,13.918,7.346,24.549,11.796-7.405,2.298-10.747,1.065-18.124.974-2.509,2.234-3.28,4.267-5.069,7.019-2.02,3.079-4.516,6.969-7.619,9.022l-1.014.172c.452-1.557.877-2.742.997-4.368-3.751-.512-4.768,10.413-13.612,4.618-.365-.866-1.325-2.231-1.868-3.076l-.557-.219c-3.237-3.638,1.048-15.575,3.128-19.418.629-1.163,1.394-1.038,2.562-1.325,7.315-1.117,9.964-1.94,16.627-5.196Z" fill="#e2b9a1"/><path d="M125.842,316.617c9.859,6.309,13.918,7.346,24.549,11.796-7.405,2.298-10.747,1.065-18.124.974-2.509,2.234-3.28,4.267-5.069,7.019-1.452-1.081-4.451-2.776-6.121-3.831-5.188-3.283-7.875-6.242-11.862-10.762,7.315-1.117,9.964-1.94,16.627-5.196Z" fill="#d98452"/><path d="M104.083,342.774c2.638-1.042,5.608-3.624,7.444-4.068l.435.434c-.805,3.482-2.994,4.64-6.011,6.71-.365-.866-1.325-2.231-1.868-3.076Z" fill="#633826"/><path d="M200.113,245.866c3.273,0,11.114,0,14.103.732-.167,1.498,5.186,9.483,6.372,11.531-4.273,1.011-7.678,2.024-11.845,3.32-3.857-5.219-6.078-9.679-8.629-15.583Z" fill="#d98452"/><path d="M309.026,300.472c1.101-.232,1.031-.264,2.112.015-1.071,2.542-11.709,8.878-14.921,9.963l-6.853-4.434-8.138-4.871c10.488.135,17.453.218,27.801-.673Z" fill="#e2b9a1"/><path d="M396.404,320.673c6.049-7.545,15.515-11.628,24.965-12.686,10.145-1.235,20.358,1.683,28.321,8.091,26.657,21.424,14.468,65.573-19.926,69.435-11.844,1.329-21.735-2.977-30.774-10.204-.489-.387-1.323-.084-1.826.074-5.913,3.261-13.837,4.088-20.455,2.649-9.931-2.069-17.066-10.399-26.962-12.355-8.565-1.694-13.928,5.36-21.748,5.493-.732.013-2.332-.834-2.595-1.616-2.583-7.688,5.399-11.148,11.227-13.206,8.255-2.142,17.583-2.3,25.121,2.212.548.323,1.084.665,1.606,1.028l.792.397c9.496,4.836,15.693,12.71,27.75,6.656-3.451-7.464-5.188-11.792-5.27-20.24-.087-9.053,3.32-19.218,9.774-25.726Z" fill="#43160b"/><path d="M336.631,356.346c1.226.711,1.1.47,2.282.319,2.564-.328,6.471.329,9.125.674-.935.24-1.867.488-2.797.745l.153.388c4.497.265,7.15.542,11.378,2.139.396.149,3.732,1.453,3.941,1.488,6.969,5.099,15.984,11.055,25.055,10.148,4.074-.408,7.798-4.324,10.306-.179,1.315,1.985,1.147,1.145,1.089,3.312-5.913,3.261-13.837,4.088-20.455,2.649-9.931-2.069-17.066-10.399-26.962-12.355-8.565-1.694-13.928,5.36-21.748,5.493-.732.013-2.332-.834-2.595-1.616-2.583-7.688,5.399-11.148,11.227-13.206Z" fill="#611e13"/><path d="M345.394,358.474c4.497.265,7.15.542,11.378,2.139.396.149,3.732,1.453,3.941,1.488,6.969,5.099,15.984,11.055,25.055,10.148,4.074-.408,7.798-4.324,10.306-.179-1.898,1.547-4.979,2.715-7.347,3.2-16.716,3.431-25.216-11.301-40.086-13.243-9.311-1.216-11.157,3.684-18.725,5.403-.655.149-.637-.029-1.304-.603.3-5.652,12.476-7.544,16.782-8.353Z" fill="#e35d57"/><path d="M396.404,320.673l.241,1.002c-6.465,9.245-10.175,15.699-8.685,28.03.548,4.537,5.524,14.32,4.711,17.251l-.646-.121-.125-.196c-3.451-7.464-5.188-11.792-5.27-20.24-.087-9.053,3.32-19.218,9.774-25.726Z" fill="#310e09"/><path d="M419.043,313.553c3.521-.897,10.435-.415,14.112.11,2.26.154,2.55.319,4.73,1.103,2.671,1.257,3.682,1.805,6.141,3.423l1.757,1.294,4.251,3.741c.871.838,1.819,1.636,2.445,2.653,3.591,4.802,4.695,7.431,6.272,13.231.256,1.963.483,3.569.555,5.56.015,2.145.112,3.792-.268,5.916-.067.766-.222,3.114-.404,3.716-.647,2.197-1.181,3.913-2.005,6.08-.448.904-.958,2.227-1.637,2.838l-.91,1.53c-2.206,3.464-4.436,6.02-7.685,8.566l-2.472,2.197-1.199.659c-1.414.709-3.004,1.553-4.44,2.15-1.806.811-2.518,1.22-4.432,1.583l-1.356.391c-3.279.596-5.919.13-9.085.245-2.684.091-4.514-.342-7.136-.806l-1.746-.666-4.774-1.954c-1.439-.488-2.348-1.294-3.576-2.193l-3.725-3.102c-1.011-.914-1.837-1.883-2.756-2.89-2.202-2.59-2.951-4.26-4.417-7.26-1.263-2.684-2.631-5.756-2.993-8.698l-.513-3.722c-.446-1.256-.176-2.855-.081-4.241l.394-4.753c.328-1.697.425-1.929,1.07-3.554.383-.93.645-1.999.926-2.977.629-1.585.938-2.122,1.814-3.601,1.572-2.681,2.063-3.672,4.228-5.919l3.151-2.77c1.573-1.59,2.528-2.208,4.342-3.494.425-.345,2.798-1.655,3.411-2.006,2.19-1.025,2.997-1.239,5.358-1.84,1.093-.029,1.6-.242,2.65-.541Z" fill="#9b2c24"/><path d="M416.393,314.094c-3.71,18.442.856,33.948,12.084,48.782.778.937,1.526,1.793,2.204,2.81,1.938,1.935,11.505,9.571,12.047,10.484-1.414.709-3.004,1.553-4.44,2.15-1.806.811-2.518,1.22-4.432,1.583l-1.356.391c-3.279.596-5.919.13-9.085.245-2.684.091-4.514-.342-7.136-.806l-1.746-.666-4.774-1.954c-1.439-.488-2.348-1.294-3.576-2.193l-3.725-3.102c-1.011-.914-1.837-1.883-2.756-2.89-2.202-2.59-2.951-4.26-4.417-7.26-1.263-2.684-2.631-5.756-2.993-8.698l-.513-3.722c-.446-1.256-.176-2.855-.081-4.241l.394-4.753c.328-1.697.425-1.929,1.07-3.554.383-.93.645-1.999.926-2.977.629-1.585.938-2.122,1.814-3.601,1.572-2.681,2.063-3.672,4.228-5.919l3.151-2.77c1.573-1.59,2.528-2.208,4.342-3.494.425-.345,2.798-1.655,3.411-2.006,2.19-1.025,2.997-1.239,5.358-1.84Z" fill="#9b2c24"/><path d="M416.393,314.094c-3.71,18.442.856,33.948,12.084,48.782.778.937,1.526,1.793,2.204,2.81-1.256,1.033-3.862,1.832-5.477,2.226l-1.981-2.043c-11.866-12.141-14.996-33.77-12.188-49.934,2.19-1.025,2.997-1.239,5.358-1.84Z" fill="url(#c)"/><path d="M428.477,362.876c.778.937,1.526,1.793,2.204,2.81-1.256,1.033-3.862,1.832-5.477,2.226l-1.981-2.043c2.741-.646,3.59-.814,5.254-2.993Z" fill="#e35d57"/><path d="M407.624,317.94c.425-.345,2.798-1.655,3.411-2.006-2.808,16.164.322,37.793,12.188,49.934l1.981,2.043c1.615-.394,4.221-1.193,5.477-2.226,1.938,1.935,11.505,9.571,12.047,10.484-1.414.709-3.004,1.553-4.44,2.15-1.806.811-2.518,1.22-4.432,1.583l.093-.578c-.563-.672-.493-.726-1.212-1.101-6.435-3.353-10.939-8.697-15.138-14.612-6.573-11.185-10.663-21.636-10.82-35.087-.03-2.615,1.363-8.492.845-10.586Z" fill="#9b2c24"/><path d="M430.681,365.686c1.938,1.935,11.505,9.571,12.047,10.484-1.414.709-3.004,1.553-4.44,2.15-5.26-2.794-9.305-5.692-13.084-10.409,1.615-.394,4.221-1.193,5.477-2.226Z" fill="#c64644"/><path d="M407.624,317.94c.518,2.094-.875,7.971-.845,10.586.157,13.451,4.247,23.903,10.82,35.087-3.483.971-3.808.607-7.063-1.07-8.516-14.552-8.702-25.082-7.255-41.109,1.573-1.59,2.528-2.208,4.342-3.494Z" fill="#e35d57"/><path d="M410.536,362.543c3.255,1.677,3.579,2.042,7.063,1.07,4.198,5.915,8.703,11.258,15.138,14.612.72.375.649.43,1.212,1.101l-.093.578-1.356.391c-9.328-.321-17.383-10.435-21.963-17.752Z" fill="#e35d57"/><path d="M392.092,340.255c2.013.316,6.78,3.947,8.764,5.316l1.562,5.989c-4.181-2.154-7.017-3.614-10.72-6.553l.394-4.753Z" fill="#e35d57"/><path d="M391.78,349.249c1.45-.232,3.374,1.687,4.939,2.814,2.187,1.063,4.51,2.257,6.748,3.173.86,1.416,1.911,2.697,1.781,4.28-1.81,1.345-6.302-2.166-7.387-3.536-1.635-.286-1.792-.449-3.249-1.163-.559-.363-1.744-1.381-2.32-1.845l-.513-3.722Z" fill="#e35d57"/><path d="M396.786,353.321l1.076,2.659c-1.635-.286-1.792-.449-3.249-1.163l2.173-1.495Z" fill="#c64644"/><path d="M402.458,371.82c.252-2.623.22-6.8,2.807-8.2,4.9.506,3.717,8.878.918,11.302l-3.725-3.102Z" fill="#e35d57"/><path d="M411.959,369.903c1.978,2.194,3.471,4.114,5.27,6.447l1.168,1.017-2.118,2.368-1.746-.666-4.774-1.954c.355-1.637,1.655-5.459,2.2-7.211Z" fill="#e35d57"/><path d="M417.229,376.349l1.168,1.017-2.118,2.368-1.746-.666c1.386-.928,1.679-1.437,2.697-2.719Z" fill="#9f492f"/><path d="M394.089,333.723c1.799-.215,3.362-.653,4.882.233,1.241,1.607.935,5.066.997,7.35-3.041-1.716-4.085-2.419-6.805-4.606.383-.93.645-1.999.926-2.977Z" fill="#ea8178"/><path d="M395.285,361.669l1.218-1.444c2.149-.165,3.335.931,5.352,2.12-.381,1.164-1.806,5.906-2.153,6.584-2.202-2.59-2.951-4.26-4.417-7.26Z" fill="#c64644"/><path d="M400.13,324.204c-.193,1.929-.369,4.606-1.611,6.114-.815.31-1.911.378-2.617-.196,1.572-2.681,2.063-3.672,4.228-5.919Z" fill="#e35d57"/><path d="M418.397,377.366c1.875,1.044,3.381,1.77,5.018,3.174-2.684.091-4.514-.342-7.136-.806l2.118-2.368Z" fill="#c64644"/><path d="M445.783,319.483l4.251,3.741c-1.557,1.751-6.169,3.541-8.471,5.137-8.061,5.589-12.923,11.919-18.144,19.948-1.355-3.003-1.923-4.539-2.885-7.692,6.83-9.484,14.145-16.592,25.249-21.133Z" fill="#e35d57"/><path d="M454.744,346.572c.312,1.789-.282,4.097-.619,5.95-6.033,2.256-19.1,6.281-25.928,4.465-1.543-.411-2.695-3.971-3.302-5.574,14.16-.407,16.175.569,29.848-4.841Z" fill="#e35d57"/><path d="M437.884,314.767c2.671,1.257,3.682,1.805,6.141,3.423-.346.171-.78.398-1.139.498-9.971,2.79-17.038,10.503-23.593,18.015-.454-2.308-.698-5.011-.978-7.374,4.636-6.57,12.352-11.308,19.569-14.562Z" fill="#e35d57"/><path d="M449.405,362.259c3.245-.433,4.167-.795,7.225-1.878-.448.904-.958,2.227-1.637,2.838l-.91,1.53c-2.206,3.464-4.436,6.02-7.685,8.566l-2.472,2.197c.265-.614.488-1.153.736-1.78-4.843-2.944-6.872-5.674-11.067-8.698l-.47-.334.169-.591c4.836,2.526,11.075-.294,16.109-1.849Z" fill="#972024"/><path d="M448.03,366.178c2.058-.959,4.923-2.832,6.963-2.959l-.91,1.53c-2.206,3.464-4.436,6.02-7.685,8.566l-1.385-.033-1.653-1.28c1.222-1.73,3.273-4.114,4.669-5.823Z" fill="#c64644"/><path d="M445.015,373.281c3.857-4.345,4.067-5.332,9.069-8.532-2.206,3.464-4.436,6.02-7.685,8.566l-1.385-.033Z" fill="#9f492f"/><path d="M443.708,366.826c.644-.243,3.466-.541,4.322-.649-1.396,1.709-3.447,4.093-4.669,5.823l-1.946-1.241c1.349-1.07,1.908-1.362,2.739-2.895l-.446-1.039Z" fill="#9f492f"/><path d="M443.708,366.826l.446,1.039c-.831,1.533-1.39,1.825-2.739,2.895-1.535-1.111-1.441-.707-2.115-2.208.868-1.082,2.933-1.355,4.408-1.726Z" fill="#c64644"/><path d="M452.479,325.877c3.591,4.802,4.695,7.431,6.272,13.231-.949,2.284-2.282,2.815-4.469,4.402l-1.962.489c-1.427-5.571-2.402-9.858-4.134-15.44,1.314.024.845.149,2.003-.396l.006-.89,2.283-1.396Z" fill="#e35d57"/><path d="M448.186,328.559c1.314.024.845.149,2.003-.396l.006-.89c2.76,6.261,3.511,9.442,4.087,16.237l-1.962.489c-1.427-5.571-2.402-9.858-4.134-15.44Z" fill="#9f492f"/><path d="M443.695,330.877c1.943-1.227,2.375-1.532,4.491-2.317,1.732,5.582,2.707,9.869,4.134,15.44-2.006.969-3.774,1.643-5.839,2.448-.287-5.333-1.513-10.416-2.786-15.571Z" fill="#e35d57"/><path d="M445.98,358.739c1.302,1.651,2.483,1.184,4.257,2.501l-.832,1.018c-5.034,1.554-11.273,4.375-16.109,1.849l-3.09-3.584c6.327-.259,9.518-.591,15.773-1.784Z" fill="#e35d57"/><path d="M419.043,313.553c3.521-.897,10.435-.415,14.112.11-2.406,1.65-5.231,2.936-7.859,4.249-2.488-.621-3.626-.206-5.955-1.337-.885-1.467-.644-.898-.298-3.022Z" fill="#ea8178"/><path d="M452.435,356.755c1.856-.925,4.563-2.742,6.199-2.455-.647,2.197-1.181,3.913-2.005,6.08-3.058,1.083-3.981,1.446-7.225,1.878l.832-1.018c.78-1.462,1.484-2.988,2.198-4.485Z" fill="#c64644"/><path d="M454.744,346.572c1.516-.649,3.037-1.282,4.563-1.904.015,2.145.112,3.792-.268,5.916-1.501.594-3.43,1.431-4.914,1.938.337-1.853.931-4.161.619-5.95Z" fill="#c64644"/><path d="M452.435,356.755c-.714,1.497-1.419,3.023-2.198,4.485-1.774-1.317-2.956-.85-4.257-2.501l6.456-1.984Z" fill="#e35d57"/><path d="M441.123,332.517c1.131,4.658,2.375,9.46,2.743,14.243l-7.174,1.339-1.84.136-6.897-.068c2.096-3.575,3.13-5.079,5.717-8.305l1.967-2.204c1.971-2.044,3.223-3.419,5.485-5.141Z" fill="#e35d57"/><path d="M433.671,339.862c.499,2.691,1.165,5.663,1.18,8.373l-6.897-.068c2.096-3.575,3.13-5.079,5.717-8.305Z" fill="#e35d57"/><path d="M433.671,339.862l1.967-2.204c.851,3.41,1.132,6.931,1.054,10.441l-1.84.136c-.015-2.709-.681-5.682-1.18-8.373Z" fill="#9f492f"/><path d="M418.306,318.528c1.577.359,2.422.506,3.934,1.154l.176.801-1.311,1.353c-.947.969-1.236,1.425-2.531,1.857-.744-1.389-.34-3.335-.268-5.165Z" fill="#ea8178"/><path d="M388.181,235.479c3.497-1.168,22.68-6.664,24.33-1.867-1.508,1.321-16.193,3.012-20.456,4.094l-.907-.579c-1.185.172-1.223.236-2.383.036l-.584-1.684Z" fill="#310e09"/></svg>