<?xml version="1.0" encoding="UTF-8"?><svg id="a" xmlns="http://www.w3.org/2000/svg" width="500" height="500" viewBox="0 0 500 500"><path d="M146.467,171.735c3.676-17.567,11.801-30.248,21.904-44.223,1.368-1.893,2.194-14.458,3.179-17.3,2.533-10.881,15.689-54.912,30.631-50.599,10.908,3.149,27.912,25.113,34.657,35.913,24.896-.29,35.119.234,58.776,10.261,9.884-8.301,37.339-22.588,48.837-22.045,16.429.775,12.507,48.395,10.836,59.531-1.2,7.992-3.755,15.225-4.491,23.182-.086,1.113,2.171,8.876,2.44,10.723,1.536,10.52,1.067,20.977-.568,31.364,3.249.774,6.12,1.407,9.404,2.002-.631,1.587-.579,1.67-1.744,3.005-2.71-.481-5.503-1.015-8.213-1.44-1.176,3.004-5.066,10.976-4.567,13.34,1.326-.046,4.411-1.218,5.94-1.738,5.53-1.883,14.462.112,18.526,4.154,2.763,2.748,6.873,12.404,6.643,16.527-.419,7.487-8.05,15.193-13.176,19.948-11.848,10.988-25.569,19.752-39.44,27.925-1.547.912-6.08,3.566-7.582,3.959.134,1.292.245,2.595.445,3.876,2.48,8.815,8.8,25.727,12.303,34.773,19.627,1.454,39.671-11.807,41.715-32.159,1.477-14.71-1.782-38.722,21.885-36.692,16.496,1.415,18.875,23.249,17.297,36.517-2.755,24.415-18.613,45.382-41.358,54.679-8.33,3.406-18.197,5.238-27.228,5.746-2.682.151-6.677-.976-8.891.763.894,1.784,9.498,7.191,11.992,10.886,6.619,9.981,12.526,24.542,11.154,36.681-1.083,9.59-11.594,15.309-20.582,13.221-9.978-2.318-14.077-9.277-19.155-17.101-15.815,2.028-29.059-2.31-40.245-13.559-6.14,1.617-13.869,1.907-20.229,2.114,1.79,3.853,3.809,9.553,3.881,13.879-.043,8.609,1.11,22.07-4.22,29.556-11.751,16.503-32.582,7.873-34.413-10.704-.341-3.461-.869-7.32-1.559-10.52-10.71-3.978-17.334-7.089-24.68-16.443-19.267-24.529-23.622-60.829-22.022-91.15.33-6.24,1.521-13.215,2.217-19.478-18.597-12.695-46.928-37.09-56.97-57.909-3.275-6.791-.026-12.367,2.267-18.873.847-2.404,3.406-3.765,5.817-4.473,9.956-2.926,10.976-3.992,19.993.618-2.193-8.948-3.254-12.008-3.655-21.467-4.188.019-11.688.972-16.107,1.424-1.921.329-3.231.81-4.93.011l-.121-.695c2.211-1.827,3.989-1.809,6.823-2.218,2.857-1.036,10.97-1.456,14.43-1.768.292-3.534.533-6.982,1.094-10.489-4.523-1.327-18.777-4.466-21.492-6.564l.155-.506c5.676-1.455,16.566,1.956,22.395,3.536Z" fill="#43160b"/><path d="M128.112,190.429c-1.921.329-3.231.81-4.93.011l-.121-.695c2.211-1.827,3.989-1.809,6.823-2.218-1.436,1.226-1.536,1.264-3.419,1.419l-.447.635-.539-.332c1.696.85,2.399-.097,2.632,1.181Z" fill="#0b0304"/><path d="M318.905,300.099c-1.058-.757-1.922-1.985-2.217-3.266l.438-.553,1.333-.057c.134,1.292.245,2.595.445,3.876Z" fill="#310e09"/><path d="M199.444,64.299c6.654,2.669,13.724,10.393,18.2,15.779,2.888,3.068,9.801,12.992,11.943,14.548,1.295,1.176,1.516,1.335,2.219,2.914-.099.873-.145,1.337-.07,2.22,2.218,1.396,3.418.994,6.067,1.654l7.371-.141,4.756.162c7.576.089,13.154.801,20.62,2.348l5.639,1.547c4.346,1.061,10.644,3.434,14.877,5.151,1.337.716,3.119,1.588,4.332,2.43,14.965-10.119,27.588-18.546,45.545-23.131,1.667-.317,2.909-.718,4.411.268,3.277,2.15,4.437,9.686,4.921,13.409,2.59,19.951-.122,42.702-5.917,61.867,1.49,5.248,3.158,10.809,3.379,16.288,1.226,5.313.393,17.049-.344,22.296-.415,2.134-.063,2.119-1.296,3.483-3.47,1.173-6.513-.036-10.57-.056-3.729.016-11.752-.343-14.369,2.061l.247.712c3.8,1.509,7.219,1.056,11.311.957-1.157,3.042-2.859,5.485-3.608,8.456-3.361-1.205-6.093-2.7-9.427-1.642l-.226.771c1.832,2.296,4.435,2.751,7.249,3.645l11.731,4.733c-4.574,6.344-6.755,7.683-13.664,11.37-1.229.655-3.546,2.109-4.729,2.539-12.592,7.885-22.088,17.001-36.662,19.485-2.113.361-12.377,2.703-13.393,3.505.661.519.774.656,1.509,1.052l.497,7.405-.084.374c-1.976-.179-12.14,1.971-15.518,2.142-22.139,1.122-37.174-3.097-56.847-12.087l-.065-.39c1.045-2.643,1.351-3.777,2.005-6.5,2.513.768,5.105.971,7.715,1.272-4.157-2.631-11.174-5.339-15.751-8.114-20.692-12.544-32.122-21.996-40.476-44.342-1.843-6.303-2.411-9.178-2.755-15.727,3.092.139,4.85.557,7.491-1.157l-.084-.74c-1.235-.912-2.208-.867-3.741-1.056-1.582-.098-1.62.15-2.789-.603-1.156-2.886-1.338-4.739.622-7.249,1.589-.146,1.25.027,2.954,1.034,1.705,1.007,2.684,1.946,4.48.802l-.112-1.19c-.846-1.547-2.05-1.901-3.661-2.723-2.081-1.004-2.004-.588-3.141-2.231-.264-1.927,1.161-5.275,1.747-7.393,1.189-3.884,2.757-7.64,4.683-11.215,5.019-11.645,13.745-24.107,22.716-33.074l-.337-2.143-.694-.429c-1.661.638-3.4,3.311-4.6,4.845.467-15.787,11.454-49.985,23.697-60.191Z" fill="#f4ae64"/><path d="M154.633,204.842c13.512,3.486,28.061-1.234,39.282-7.619,16.88-9.603,37.885-34.765,56.092-12.37,16.423,20.201,31.95,44.13,57.643,54.015l.302.016c5.878,2.41,9.249.414,12.089,2.053-12.592,7.885-22.088,17.001-36.662,19.485-2.113.361-12.377,2.703-13.393,3.505.661.519.774.656,1.509,1.052l.497,7.405-.084.374c-1.976-.179-12.14,1.971-15.518,2.142-22.139,1.122-37.174-3.097-56.847-12.087l-.065-.39c1.045-2.643,1.351-3.777,2.005-6.5,2.513.768,5.105.971,7.715,1.272-4.157-2.631-11.174-5.339-15.751-8.114-20.692-12.544-32.122-21.996-40.476-44.342l1.662.103Z" fill="#fbefd3"/><path d="M152.971,204.739l1.662.103c5.882,13.932,29.793,29.569,43.246,35.096,31.936,13.119,68.975,15.36,101.513,3.046,2.167-.823,6.381-2.774,8.258-4.115l.302.016c5.878,2.41,9.249.414,12.089,2.053-12.592,7.885-22.088,17.001-36.662,19.485-2.113.361-12.377,2.703-13.393,3.505.661.519.774.656,1.509,1.052l.497,7.405-.084.374c-1.976-.179-12.14,1.971-15.518,2.142-22.139,1.122-37.174-3.097-56.847-12.087l-.065-.39c1.045-2.643,1.351-3.777,2.005-6.5,2.513.768,5.105.971,7.715,1.272-4.157-2.631-11.174-5.339-15.751-8.114-20.692-12.544-32.122-21.996-40.476-44.342Z" fill="#e2b9a1"/><path d="M224.644,182.759c3.616.135,12.429,1.013,14.833,3.764.843,4.54-6.676,6.321-8.096,9.688.744,5.941,9.896,11.677,15.286,8.704,2.019-1.114,5.225-4.449,7.308-4.383,2.077,2.979-2.097,5.948-4.001,7.891-2.182,10.508-4.518,18.702-13.477,25.279-15.808,8.187-22.171-10.348-22.835-22.465-.136-2.483-.248-4.952-.329-7.438-.55-.403-1.012-.741-1.533-1.179-2.282-1.946-3.665-4.745-3.822-7.74-.074-1.312-.056-1.051.67-1.901,4.281.195,3.013,3.934,5.332,6.392,2.667,2.825,9.555,1.467,11.852-1.138,5.512-6.251-9.727-9.039-1.188-15.474Z" fill="#43160b"/><path d="M216.637,204.86c6.23-.027,7.285-.269,12.373-3.836.467.675.961,1.329,1.484,1.961,4.899,5.844,8.236,6.211,15.455,6.791-.405,1.961-.888,3.446-1.48,5.344-1.286,3.326-2.314,6.052-4.201,9.077-5.903,9.459-14.07,10.803-19.713.244-2.861-3.145-3.835-15.291-3.917-19.58Z" fill="#611e13"/><path d="M220.554,224.44c3.36-6.627,18.465-14.204,23.915-9.32-1.286,3.326-2.314,6.052-4.201,9.077-5.903,9.459-14.07,10.803-19.713.244Z" fill="#ea8178"/><path d="M225.385,185.818c2.722-.029,7.625.397,9.9,1.891l.157.844-1.204,1.297c-4.659,2.656-7.861,1.325-8.853-4.033Z" fill="#f6998d"/><path d="M249.929,101.436c7.576.089,13.154.801,20.62,2.348-9.093,2.13-22.883,39.301-30.585,34.815-5.174-8.851,4.814-29.601,9.965-37.164Z" fill="#c7703a"/><path d="M276.188,105.332c4.346,1.061,10.644,3.434,14.877,5.151-4.899,6.18-12.473,12.585-17.678,18.81-1.504,1.798-4.415,3.284-6.839,3.248-6.769-3.637,6.863-23.244,9.64-27.209Z" fill="#c7703a"/><path d="M326.704,222.296l11.731,4.733c-4.574,6.344-6.755,7.683-13.664,11.37-1.229.655-3.546,2.109-4.729,2.539-2.84-1.64-6.212.357-12.089-2.053.872-.872,4.86-3.752,6.047-4.595,5.378-3.814,8.662-6.772,12.705-11.993Z" fill="#d98452"/><path d="M237.802,101.415l7.371-.141c-2.871,3.553-5.568,7.243-8.082,11.057-2.607,4.039-5.557,10.575-10.285,12.016-6.649-1.325.939-18.621,2.816-22.223.466-.106,7.091-.599,8.181-.709Z" fill="#c7703a"/><path d="M336.34,203.636c-4.794-1.13-8.587-1.683-13.073-3.738-15.125-6.927-2.278-10.851,6.749-10.131,1.612.129,6.092-.452,7.914-.816l.648-.133c-.165,4.725-1.272,9.276-1.667,13.972-.009.11.675.831.822.937l-1.393-.09Z" fill="#c7703a"/><path d="M347.738,181.613c1.226,5.313.393,17.049-.344,22.296-.415,2.134-.063,2.119-1.296,3.483-3.47,1.173-6.513-.036-10.57-.056l.813-3.701,1.393.09c-.147-.106-.831-.826-.822-.937.395-4.696,1.502-9.247,1.667-13.972,3.264-1.263,6.047-.87,8.33-2.458,1.119-1.893.765-2.365.829-4.746Z" fill="#b45b33"/><path d="M337.733,203.726l9.66.183c-.415,2.134-.063,2.119-1.296,3.483-3.47,1.173-6.513-.036-10.57-.056l.813-3.701,1.393.09Z" fill="#d98452"/><path d="M295.398,112.913c14.965-10.119,27.588-18.546,45.545-23.131l.19,1.325c-1.694,2.01-17.13,8.431-20.74,10.083-5.83,2.667-19.168,15.979-24.57,13.393-.685-1.167-.672-.616-.425-1.67Z" fill="#fbd6a0"/><path d="M181.378,122.217c2.636-1.014,3.684-1.863,5.95-3.454-4.709,8.805-8.182,11.818-14.273,19.579-3.824,4.872-8.553,12.923-11.452,18.492-1.137-.478-1.886-.934-2.941-1.544,5.019-11.645,13.745-24.107,22.716-33.074Z" fill="#fbd6a0"/><path d="M158.662,155.29c1.054.61,1.804,1.065,2.941,1.544l.11.234c2.216,2.182,5.168,4.665,5.176,8.04.01,4.849-6.124,3.766-9.134,3.036l-.299.074-3.477-1.713c1.189-3.884,2.757-7.64,4.683-11.215Z" fill="#c7703a"/><path d="M158.662,155.29c1.054.61,1.804,1.065,2.941,1.544l.11.234c-.959,3.737-3.728,8.852-3.958,11.076l-.299.074-3.477-1.713c1.189-3.884,2.757-7.64,4.683-11.215Z" fill="#ec9b6f"/><path d="M217.644,80.078c2.888,3.068,9.801,12.992,11.943,14.548l.654,1.841c-1.453,2.086-5.357,2.055-7.852,2.705-.183-6.77-3.654-11.748-4.745-19.093Z" fill="#d98452"/><path d="M229.587,94.626c1.295,1.176,1.516,1.335,2.219,2.914-.099.873-.145,1.337-.07,2.22,2.218,1.396,3.418.994,6.067,1.654-1.09.11-7.715.603-8.181.709-2.659.509-8.397,1.927-10.696.211l.022-.803c1.038-1.232,2.023-1.605,3.441-2.36,2.495-.65,6.399-.619,7.852-2.705l-.654-1.841Z" fill="#611e13"/><path d="M153.98,166.505l3.477,1.713c-.76,2.619-1.454,5.258-2.082,7.912-2.081-1.004-2.004-.588-3.141-2.231-.264-1.927,1.161-5.275,1.747-7.393Z" fill="#fbd6a0"/><path d="M153.881,186.059c-1.582-.098-1.62.15-2.789-.603-1.156-2.886-1.338-4.739.622-7.249,1.589-.146,1.25.027,2.954,1.034-.588,2.825-.865,3.855-.787,6.818Z" fill="#fbd6a0"/><path d="M315.35,127.342c1.88-1.034,5.009-2.059,6.141-3.533-1.533-2.732-10.014-.912-12.151-1.913-.824-4.807,29.017-29.47,34.108-25.942l.313,1.986c3.395,6.936.656,37.377-2.904,45.305-.729,1.625-1.954,6.513-3.346,7.494-.691-.626-.525-.3-.718-.826-.552.938-.19.524-1.117,1.216-1.169-.894-6.478-9.332-8.031-11.293-4.172-5.269-7.093-8.213-12.294-12.495Z" fill="#f6998d"/><path d="M315.35,127.342c1.88-1.034,5.009-2.059,6.141-3.533-1.533-2.732-10.014-.912-12.151-1.913-.824-4.807,29.017-29.47,34.108-25.942l.313,1.986c-10.626,4.473-20.702,12.423-28.486,20.84,3.444.658,9.695,1.656,9.865,5.953-1.377,2.124-2.351,2.173-4.885,3.039,7.856,6.101,12.639,13.121,16.537,22.141-.552.938-.19.524-1.117,1.216-1.169-.894-6.478-9.332-8.031-11.293-4.172-5.269-7.093-8.213-12.294-12.495Z" fill="#9f492f"/><path d="M278.862,172.283c3.32-.312,6.017-.268,9.252.656,5.776,1.6,10.662,5.461,13.555,10.711,1.903,3.467,4.392,10.642-.384,12.873-5.326-.392-4.421-6.995-10.297-12.343l-.498-.446c-15.731-10.315-20.199,8.199-27.109,7.194-2.76-2.048-1.621-5.54-.131-8.06,3.687-6.235,8.842-9.02,15.613-10.583Z" fill="#43160b"/><path d="M190.74,155.88c16.487-1.41,26.486,18.909,19.192,24.08-5.223.253-5.032-8.755-10.623-13.07-14.204-8.04-16.014,7.81-24.439,6.76-.684-.508-1.363-1.006-1.365-2.002-.013-9.296,9.689-14.147,17.235-15.768Z" fill="#43160b"/><path d="M293.221,201.53c15.552-.711,29.619,13.102,10.587,17.679-15.712.825-30.358-11.839-10.587-17.679Z" fill="#f48b76"/><path d="M168.766,180.145c14.884-1.488,27.233,11.872,10.338,15.886-14.993,2.09-26.835-11.531-10.338-15.886Z" fill="#f48b76"/><path d="M211.276,99.4c-1.306-7.472-5.458-14.813-8.865-21.516-.742-1.462-3.85-5.315-3.117-6.69,5.366,2.277,9.969,13.702,12.268,18.73,1.254,2.74,2.602,8.27,3.641,10.218-.866-.228-2.546-.388-3.928-.741Z" fill="#9f492f"/><path d="M204.41,103.672c1.553.783,1.479.802,2.512,2.092-.467,1.214-14.49,8.365-16.596,8.815l-.283-.486c2.407-4.089,9.489-7.86,13.831-9.424l.535-.996Z" fill="#9f492f"/><path d="M200.691,102.811l-1.215-.669-.163-.762c2.378-2.858,8.637-2.918,11.963-1.979,1.381.353,3.061.513,3.928.741-.157.739-.164,1.677-.65,1.817-3.023.869-6.768.109-10.234.451l-.504.718.595.544-.535.996c-.895-.343-2.312-1.313-3.184-1.857Z" fill="#9b2c24"/><path d="M200.691,102.811c1.603-.502,1.993-.424,3.628-.402l-.504.718.595.544-.535.996c-.895-.343-2.312-1.313-3.184-1.857Z" fill="#9f492f"/><path d="M127.142,223.007c-3.561-9.942,3.57-5.721,6.544-7.447,4.539-2.634,3.905-4.158,10.324-.357,5.001,2.963,9.569,5.094,12.7,10.306,4.155,5.275,7.045,8.28,11.958,12.863l7.274,5.71c2.649,1.658,5.288,3.335,7.913,5.03,5.456,2.706,11.643,5.732,17.627,6.812-.654,2.723-.96,3.857-2.005,6.5l.065.39c19.673,8.99,34.708,13.209,56.847,12.087,3.378-.171,13.543-2.321,15.518-2.142l.084-.374-.497-7.405c7.452-.11,13.798-1.442,21.104-2.324.503-.06,1.284,1.313,1.61,1.763,5.685-4.124,11.516-8.045,17.479-11.754,1.148-.97,7.898-4.892,9.577-5.906l3.263-1.837c.918-.708,6.92-3.879,8.291-4.63l6.606-3.63c3.486-1.854,16.403-8.593,20.543-7.83.674.124,1.893,1.583,2.418,2.195,3.337.966,6.428.774,8.047,3.356.141,2.348-1.38,4.274-2.775,6.047,1.934-.163,2.784-.438,4.452.363,1.509,1.905.572,3.655-.019,5.871-.68,1.672-.861,2.33-1.921,3.752-3.432,5.084-9.064,9.88-13.622,14.099-7.679,6.059-14.222,10.186-22.069,15.489-5.771,3.9-23.443,13.737-26.577,17.957,1.302,1.924,1.98,1.14,4.126.353,1.959.722,1.644,1.694,1.737,3.685,1.184,5.215,2.061,9.145,4.163,14.038l2.197,5.177c1.654,4.535,3.253,8.794,4.584,13.441,1.027,3.831,1.892,7.284,2.719,11.161.954,7.399,1.787,16.949,1.164,24.439-.071,2.969-.509,4.784,1.413,7.064,3.461.621,3.89-4.175,4.465-6.724,4.446,2.753,6.133,4.919,8.498,9.74,1.323,2.576,2.552,4.911,3.661,7.591-.732.521-1.776,1.206-2.418,1.786-2.158,3.784-5.977,9.739-9.581,12.152.271-.867.813-2.106,1.163-2.984-2.465-.804-2.627-.716-5.211-.265.307-1.22.284-1.245.27-2.513-.698-.443-1.337-.656-2.131-.142-13.197,8.542-29.044,8.362-42.155-2.501-5.865-4.557-8.088-7.323-15.065-9.928,1.29,1.586,2.234,3.068,3.356,4.764-15.48,3.679-32.968,1.5-48.461-1.033,1.225,1.121,2.654,2.263,3.938,3.334,2.39,3.383,5.867,5.274,8.453,8.67-2.614,2.574-7.168,5.133-10.795,5.361-.653-.897-.47-.399-.362-1.579-1.455,5.639-6.556,4.577-10.535,7.22-4.733-1.911-8.965-5.057-12.581-8.616-2.768-2.802-5.286-5.575-7.293-8.981-.32-.405-.931-1.606-1.213-2.12-2.413-3.684-3.968-7.43-5.638-11.483-8.854-18.762-11.575-50.599-9.761-70.982.955-10.733,3.079-22.998,4.484-33.877l-2.005.06-.985,1.743c-1.087,3.25-2.151,6.508-3.19,9.773-10.348-7.507-39.845-32.439-46.058-43.211-2.502-3.33-4.2-5.616-6.31-9.172-.846-1.088-.999-1.796-1.528-3.091-.541-1.962-1.478-4.146-.738-5.89,1.343-.816,1.141-.525,3.031-.461l-.169-.954Z" fill="#f4ae64"/><path d="M199.543,262.814c19.673,8.99,34.708,13.209,56.847,12.087,3.378-.171,13.543-2.321,15.518-2.142.373,29.327,24.009,64.111,3.706,90.862-18.605,24.512-62.43,15.838-76.265-9.941-15.475-28.836-8.153-61.077.194-90.865Z" fill="#fbefd3"/><path d="M339.425,236.662c3.486-1.854,16.403-8.593,20.543-7.83.674.124,1.893,1.583,2.418,2.195,3.337.966,6.428.774,8.047,3.356.141,2.348-1.38,4.274-2.775,6.047,1.934-.163,2.784-.438,4.452.363,1.509,1.905.572,3.655-.019,5.871-.68,1.672-.861,2.33-1.921,3.752-3.432,5.084-9.064,9.88-13.622,14.099-1.191-1.047-2.177-1.543-3.535-2.326l-.205-.545c-11.466-7.921-13.019-10.814-13.384-24.982Z" fill="#fbefd3"/><path d="M366.677,250.81c1.589-.833,1.694-1.192,3.494-.394-3.432,5.084-9.064,9.88-13.622,14.099-1.191-1.047-2.177-1.543-3.535-2.326l-.205-.545c2.478-1.458,12.522-8.804,13.868-10.834Z" fill="#e2b9a1"/><path d="M367.609,243.375c3.716,1.138,1.767,1.286,4.483,3.288-.68,1.672-.861,2.33-1.921,3.752-1.799-.799-1.905-.439-3.494.394-1.271-.645-1.274-.68-2.35-1.634-1.116-3.254.727-4.118,3.282-5.8Z" fill="#f6998d"/><path d="M367.609,243.375c.686-.601,1.858-.461,3.316-1.731-1.609-.551-1.708.134-3.309-.168l.043-1.047c1.934-.163,2.784-.438,4.452.363,1.509,1.905.572,3.655-.019,5.871-2.716-2.002-.767-2.15-4.483-3.288Z" fill="#f6c38f"/><path d="M354.469,239.374c8.807.636,9.172,9.819,1.58,14.13-6.816-2.794-11.888-11.907-1.58-14.13Z" fill="#f48b76"/><path d="M362.813,234.653c2.423-.161,3.509-.148,4.447,2.111-.124,1.86-.536,2.129-1.721,3.702-1.106.402-1.26.265-2.463.141-2.53-1.863-1.751-3.739-.263-5.953Z" fill="#f6998d"/><path d="M356.346,231.67c1.002-.364,2.123-.162,2.934.529.812.692,1.189,1.767.987,2.814s-.95,1.904-1.961,2.246c-1.536.519-3.204-.296-3.74-1.826-.537-1.53.256-3.207,1.78-3.762Z" fill="#f6998d"/><path d="M127.142,223.007c-3.561-9.942,3.57-5.721,6.544-7.447,4.539-2.634,3.905-4.158,10.324-.357,5.001,2.963,9.569,5.094,12.7,10.306-1.317,10.093-7.304,19.061-18.026,20.577-2.005-1.349-3.603-2.54-5.827-3.511-2.502-3.33-4.2-5.616-6.31-9.172-.846-1.088-.999-1.796-1.528-3.091-.541-1.962-1.478-4.146-.738-5.89,1.343-.816,1.141-.525,3.031-.461l-.169-.954Z" fill="#fbefd3"/><path d="M125.017,230.312c.855-1.505,1.055-2.254,2.634-2.909,3.792-.033,5.582,3.572,2.958,6.237-2.686.667-2.073-.859-4.064-.237-.846-1.088-.999-1.796-1.528-3.091Z" fill="#f6998d"/><path d="M128.152,222.23c-.163-1.904-.445-1.155.436-2.453,1.756-.746,1.671-.78,3.544-.748,3.331,1.708,2.866,6.01-.729,6.529-1.685-.692-1.592-.732-2.757-2.208l-.495-1.121Z" fill="#f6998d"/><path d="M128.152,222.23l.495,1.121-1.337.61-.169-.954,1.011-.777Z" fill="#e2b9a1"/><path d="M138.883,223.853c10.238.007,11.046,6.631,3.98,12.807-8.263,2.631-11.164-8.947-3.98-12.807Z" fill="#f48b76"/><path d="M137.28,216.439c1.416-.876,3.273-.447,4.16.961.887,1.409.472,3.269-.929,4.168-1.418.908-3.303.488-4.2-.937-.897-1.424-.462-3.307.969-4.192Z" fill="#f6998d"/><path d="M326.651,371.278c.886-.992.422-.553,1.942-1.023-.071,2.969-.509,4.784,1.413,7.064,3.461.621,3.89-4.175,4.465-6.724,4.446,2.753,6.133,4.919,8.498,9.74,1.323,2.576,2.552,4.911,3.661,7.591-.732.521-1.776,1.206-2.418,1.786-2.158,3.784-5.977,9.739-9.581,12.152.271-.867.813-2.106,1.163-2.984-2.465-.804-2.627-.716-5.211-.265.307-1.22.284-1.245.27-2.513-.698-.443-1.337-.656-2.131-.142-13.197,8.542-29.044,8.362-42.155-2.501,3.562.17,6.748,3.128,11.699,3.489,6.924.505,12.643-.128,18.089-5.066,7.162-6.495,9.476-11.239,10.296-20.604Z" fill="#d98452"/><path d="M340.665,387.107c1.345.309,2.485,1.623,3.547,2.606-2.158,3.784-5.977,9.739-9.581,12.152.271-.867.813-2.106,1.163-2.984,2.001-4.252,3.367-7.342,4.872-11.773Z" fill="#f6c38f"/><path d="M342.969,380.336c1.323,2.576,2.552,4.911,3.661,7.591-.732.521-1.776,1.206-2.418,1.786-1.062-.982-2.202-2.297-3.547-2.606.385-2.086.857-5.272,2.304-6.771Z" fill="#ec9b6f"/><path d="M132.856,242.575c2.225.971,3.822,2.162,5.827,3.511,15.16,12.07,25.388,21.3,43.421,29.927-1.087,3.25-2.151,6.508-3.19,9.773-10.348-7.507-39.845-32.439-46.058-43.211Z" fill="#d98452"/><path d="M353.013,262.189c1.358.783,2.344,1.279,3.535,2.326-7.679,6.059-14.222,10.186-22.069,15.489-5.771,3.9-23.443,13.737-26.577,17.957l-.371.167-.172.892-1.117-1.469c-.745-5.023-.138-6.005,4.48-9.034,13.356-8.762,29.862-16.249,42.29-26.329Z" fill="#d98452"/><path d="M327.429,345.817c.954,7.399,1.787,16.949,1.164,24.439-1.52.469-1.055.03-1.942,1.023-3.004,2.083-9.024,5.964-12.65,3.928-1.227-4.382,5.937-11.083,7.705-15.505,1.118-2.796,1.286-4.015,1.851-6.925,1.348-2.799,2.073-4.422,3.872-6.959Z" fill="#c7703a"/><path d="M320.126,321.215c1.654,4.535,3.253,8.794,4.584,13.441-1.544.831-3.099,1.639-4.667,2.424l-.106.253c-.974.421-1.958.815-2.953,1.183-3.201,1.162-8.627,2.558-11.77,1.112-2.433-3.559,7.143-11.158,9.765-13.671l.255.014c1.342-1.523,3.376-3.329,4.893-4.757Z" fill="#c7703a"/><path d="M320.126,321.215c1.654,4.535,3.253,8.794,4.584,13.441-1.544.831-3.099,1.639-4.667,2.424-1.989-3.55-3.336-7.318-4.809-11.109,1.342-1.523,3.376-3.329,4.893-4.757Z" fill="#b45b33"/><path d="M313.766,301.999c1.184,5.215,2.061,9.145,4.163,14.038-2.167,1.134-2.863,1.38-5.217,2.082l-.44.201c-1.975.392-15.189,2.896-14.742-2.672.281-3.502,8.093-6.737,11.116-9.495l.654-.049c1.631-1.327,3.205-2.437,4.466-4.105Z" fill="#c7703a"/><path d="M313.766,301.999c1.184,5.215,2.061,9.145,4.163,14.038-2.167,1.134-2.863,1.38-5.217,2.082-2.484-1.141-3.934-9.308-3.413-12.015,1.631-1.327,3.205-2.437,4.466-4.105Z" fill="#b45b33"/><path d="M190.371,379.068c1.065.453,2.222.799,3.027,1.528,6.791,2.936,13.46,5.169,20.392,7.687,1.79.651,1.965,2.035,1.386,3.534-4.431,4.036-15.839.074-17.953.854-.32-.405-.931-1.606-1.213-2.12-2.413-3.684-3.968-7.43-5.638-11.483Z" fill="#c7703a"/><path d="M190.371,379.068c1.065.453,2.222.799,3.027,1.528,1.668,3.17,2.65,4.998,3.141,8.648l-.529,1.306c-2.413-3.684-3.968-7.43-5.638-11.483Z" fill="#d98452"/><path d="M204.515,401.652c5.232.705,9.256.363,14.499-.021,2.585-.189,6.749-.637,8.616,1.417-1.455,5.639-6.556,4.577-10.535,7.22-4.733-1.911-8.965-5.057-12.581-8.616Z" fill="#b45b33"/><path d="M271.495,264.98c7.452-.11,13.798-1.442,21.104-2.324.503-.06,1.284,1.313,1.61,1.763-3.725,2.524-17.464,6.969-22.217,7.965l-.497-7.405Z" fill="#d98452"/><path d="M311.688,252.665c1.148-.97,7.898-4.892,9.577-5.906.31,3.703,2.228,14.824-2.495,15.76-4.017-1.329-5.577-6.386-7.082-9.854Z" fill="#c7703a"/><path d="M183.855,249.112c5.456,2.706,11.643,5.732,17.627,6.812-.654,2.723-.96,3.857-2.005,6.5-4.33-1.143-15.599-9.019-17.224-13.246l1.601-.067Z" fill="#d98452"/><path d="M324.527,244.922c.918-.708,6.92-3.879,8.291-4.63.204,3.816.83,9.28-1.46,12.381-5.494,2.878-5.499-6.497-6.832-7.751Z" fill="#ec9b6f"/><path d="M168.667,238.372l7.274,5.71c-1.613,2.48-4.618,6.645-7.827,6.403-2.662-2.688-.315-8.951.552-12.112Z" fill="#c7703a"/><path d="M320.043,337.08c1.568-.785,3.123-1.593,4.667-2.424,1.027,3.831,1.892,7.284,2.719,11.161-1.799,2.537-2.524,4.16-3.872,6.959-.966-5.502-.507-10.224-3.62-15.443l.106-.253Z" fill="#d98452"/><path d="M312.712,318.12c2.354-.702,3.049-.949,5.217-2.082l2.197,5.177c-1.516,1.428-3.55,3.234-4.893,4.757l-.255-.014-2.707-7.637.44-.201Z" fill="#d98452"/><path d="M306.244,297.551l1.117,1.469.172-.892.371-.167c1.302,1.924,1.98,1.14,4.126.353,1.959.722,1.644,1.694,1.737,3.685-1.261,1.669-2.835,2.779-4.466,4.105l-.654.049c-.588-1.392-1.933-6.854-2.402-8.603Z" fill="#d98452"/><path d="M185.854,268.28c-.22,2.007-.404,3.939-.76,5.93l-2.005.06c.897-2.021,1.757-4.02,2.764-5.99Z" fill="#611e13"/><path d="M379.118,299.951c.193-7.427-.622-18.644,4.833-24.297,5.476-5.676,11.062-5.251,16.602-.325,7.322,8.889,6.593,22.821,4.555,33.464-1.113,6.254-4.804,14.138-8.374,19.39-3.844,5.424-8.61,11.148-14.017,15.091-.373-3.142-.666-4.971-1.38-8.047l-.136-.555c-2.713-5.438-5.888-8.011-11.311-10.281,1.037-1.502,2.103-2.983,3.196-4.443l3.094-6.382.079-.353c1.692-4.819,2.164-8.175,2.858-13.262Z" fill="#c7703a"/><path d="M379.118,299.951c.193-7.427-.622-18.644,4.833-24.297,5.476-5.676,11.062-5.251,16.602-.325,7.322,8.889,6.593,22.821,4.555,33.464-1.603-1.5-3.183-3.025-4.735-4.577l-.333-.491-.453-.227c-7.214-3.585-11.811-5.845-19.608-3.251l-.86-.296Z" fill="#fbefd3"/><path d="M400.554,275.329c7.322,8.889,6.593,22.821,4.555,33.464-1.603-1.5-3.183-3.025-4.735-4.577l-.333-.491c2.291-6.913,1.659-21.063.514-28.396Z" fill="#e2b9a1"/><path d="M376.26,313.213l3.549.274c4.991,1.5,9.847,3.226,12.297,8.309l.291.017c1.79,2.141,3.201,3.742,4.337,6.371-3.844,5.424-8.61,11.148-14.017,15.091-.373-3.142-.666-4.971-1.38-8.047l-.136-.555c-2.713-5.438-5.888-8.011-11.311-10.281,1.037-1.502,2.103-2.983,3.196-4.443l3.094-6.382.079-.353Z" fill="#f4ae64"/><path d="M392.106,321.795l.291.017c1.79,2.141,3.201,3.742,4.337,6.371-3.844,5.424-8.61,11.148-14.017,15.091-.373-3.142-.666-4.971-1.38-8.047l-.136-.555c4.653-3.217,7.957-8.162,10.904-12.877Z" fill="#d98452"/><path d="M376.181,313.566l1.96.309c1.181,2.653-2.354,5.606-4.707,6.253l-.347-.179,3.094-6.382Z" fill="#f6c38f"/><path d="M392.397,321.813c.158-.627,7.637-17.046,7.976-17.596,1.553,1.551,3.132,3.077,4.735,4.577-1.113,6.254-4.804,14.138-8.374,19.39-1.137-2.628-2.547-4.23-4.337-6.371Z" fill="#b45b33"/><path d="M379.118,299.951l.86.296c2.1,3.26.462,9.081-.17,13.24l-3.549-.274c1.692-4.819,2.164-8.175,2.858-13.262Z" fill="#d98452"/><path d="M230.334,390.596c7.971,3.02,12.989,4.281,21.493,5.519,2.338,9.792,4.451,7.723,4.304,19.759-.07,4.691-.678,23.048-6.542,24.194-1.051-.621-2.131-2.03-2.575-3.114-.653-1.53-1.321-3.053-2.004-4.568l-.49-.007c-1.016,4.093.505,4.623,1.557,8.661-1.282,1.159-4.011,1.449-5.711,1.405-2.672-1.28-3.98-5.354-5.255-8.155l-.412.057c-.548,2.952-.383,3.734-.042,6.612-5.147-6.312-5.709-9.485-6.762-17.29-.336-1.465-.582-4.375-.255-5.893,2.243-.9,5.299-.039,6.456-2.447-1.443-1.828-12.225-3.229-17.001-5.06,3.979-2.643,9.079-1.58,10.535-7.22-.109,1.18-.291.683.362,1.579,3.627-.228,8.181-2.787,10.795-5.361-2.586-3.396-6.063-5.288-8.453-8.67Z" fill="#d98452"/><path d="M256.13,415.874c-.07,4.691-.678,23.048-6.542,24.194-1.051-.621-2.131-2.03-2.575-3.114-.653-1.53-1.321-3.053-2.004-4.568l-.49-.007c-1.016,4.093.505,4.623,1.557,8.661-1.282,1.159-4.011,1.449-5.711,1.405-2.672-1.28-3.98-5.354-5.255-8.155l-.412.057c-.548,2.952-.383,3.734-.042,6.612-5.147-6.312-5.709-9.485-6.762-17.29,1.7-.533,9.994.506,14.814-.496l4.248-1.537c4.083-2.061,5.477-3.042,9.172-5.76Z" fill="#fbefd3"/><path d="M256.13,415.874c-.07,4.691-.678,23.048-6.542,24.194-1.051-.621-2.131-2.03-2.575-3.114,1.309-2.135,1.321-13.587-.056-15.32,4.083-2.061,5.477-3.042,9.172-5.76Z" fill="#e2b9a1"/><path d="M227.895,423.667c-.336-1.465-.582-4.375-.255-5.893h.592s.322.526.322.526l-.013-.426.256.357-.567.913.354.844c2.781-1.302,11.711.784,14.124,3.183-4.82,1.002-13.115-.037-14.814.496Z" fill="#ec9b6f"/><path d="M369.891,324.392c5.423,2.27,8.597,4.843,11.311,10.281l.136.555c.715,3.076,1.007,4.904,1.38,8.047-5.212,3.889-8.713,6.393-14.79,8.815-4.679,1.651-8.509,2.97-13.446,3.926-5.211.808-9.726.745-15.002.671l-5.259-.147c-.09-5.134-.655-10.247-1.683-15.277l6.373-.189c4.53-.907,6.642-1.33,11.217-2.677,3.572-1.209,6.501-2.937,9.761-4.795,4.529-3.158,6.414-5.002,10.001-9.21Z" fill="#c7703a"/><path d="M338.912,341.073c4.53-.907,6.642-1.33,11.217-2.677,1.539,2.784,2.109,3.748,3.099,6.793.014,2.038-.227,9.302.516,10.619l.739.207c-5.211.808-9.726.745-15.002.671l-5.259-.147c-.09-5.134-.655-10.247-1.683-15.277l6.373-.189Z" fill="#b45b33"/><path d="M332.539,341.262l6.373-.189c1.295,4.442,1.439,11.076.569,15.613l-5.259-.147c-.09-5.134-.655-10.247-1.683-15.277Z" fill="#d98452"/><path d="M350.128,338.396c3.572-1.209,6.501-2.937,9.761-4.795,3.954,3.496,5.225,5.071,6.734,10.385l.164.185c.528,2.766,1.049,5.095,1.14,7.918-4.679,1.651-8.509,2.97-13.446,3.926l-.739-.207c-.743-1.316-.502-8.581-.516-10.619-.991-3.046-1.56-4.01-3.099-6.793Z" fill="#d98452"/><path d="M350.128,338.396c3.572-1.209,6.501-2.937,9.761-4.795,3.954,3.496,5.225,5.071,6.734,10.385-4.839,1.054-8.446,1.255-13.396,1.203-.991-3.046-1.56-4.01-3.099-6.793Z" fill="#f4ae64"/><path d="M366.788,344.172c.55-.437.351-.326.96-.632,4.753-2.383,9.109-5.459,13.589-8.312.715,3.076,1.007,4.904,1.38,8.047-5.212,3.889-8.713,6.393-14.79,8.815-.091-2.823-.613-5.152-1.14-7.918Z" fill="#b45b33"/><path d="M346.63,387.927c2.426,5.525,7.564,17.044,5.176,23.112-.876,1.059-.886,1.261-.697,2.822-8.615,10.92-10.976-1.383-15.014-1.565-.319,2.11,1.497,5.354,2.485,7.268-5.133-2.091-7.112-3.41-10.609-7.524l-2.95-3.74c-.333-.406-.92-1.317-1.247-1.79.267-2.599,3.991-4.613,6.409-7.421l.4-.473c2.584-.451,2.746-.54,5.211.265-.35.878-.892,2.117-1.163,2.984,3.604-2.413,7.423-8.368,9.581-12.152.643-.58,1.686-1.264,2.418-1.786Z" fill="#fbefd3"/><path d="M330.582,398.616c2.584-.451,2.746-.54,5.211.265-.35.878-.892,2.117-1.163,2.984l-2.231,3.344c-1.075,1.52-3.95,5.337-4.429,6.832l-2.95-3.74c-.333-.406-.92-1.317-1.247-1.79.267-2.599,3.991-4.613,6.409-7.421l.4-.473Z" fill="#ec9b6f"/><path d="M325.021,408.3c1.986-2.091,4.621-2.795,7.378-3.091-1.075,1.52-3.95,5.337-4.429,6.832l-2.95-3.74Z" fill="#e2b9a1"/><path d="M343.826,404.928c3.151,2.769,4.266,4.133,7.98,6.111-.876,1.059-.886,1.261-.697,2.822-5.224-1.886-5.507-3.978-7.283-8.933Z" fill="#611e13"/><path d="M332.716,211.067c4.438.064,8.686.103,13.122.418-1.672,4.598-2.999,8.171-5.27,12.581-4.017-1.768-7.326-3.058-11.46-4.543.749-2.971,2.451-5.414,3.608-8.456Z" fill="#d98452"/><path d="M362.072,210.543c2.843.843,4.167.778,6.391,2.56l.166.75c-2.418,1.186-5.68.228-8.301-.306,1.165-1.335,1.113-1.418,1.744-3.005Z" fill="#0b0304"/><path d="M367.938,221.875c.655.226,1.25.5,1.887.772l-.263.522c-1.104.664-.583.65-1.576.425l-.048-1.72Z" fill="rgba(178,181,186,.012)"/></svg>