<?xml version="1.0" encoding="UTF-8"?><svg id="a" xmlns="http://www.w3.org/2000/svg" width="500" height="500" xmlns:xlink="http://www.w3.org/1999/xlink" viewBox="0 0 500 500"><defs><linearGradient id="b" x1="318.231" y1="-885.322" x2="323.291" y2="-912.959" gradientTransform="translate(0 -647.649) scale(1 -1)" gradientUnits="userSpaceOnUse"><stop offset="0" stop-color="#4e0d06"/><stop offset="1" stop-color="#432814"/></linearGradient><linearGradient id="c" x1="236.37" y1="-1050.308" x2="233.535" y2="-1050.782" gradientTransform="translate(0 -647.649) scale(1 -1)" gradientUnits="userSpaceOnUse"><stop offset="0" stop-color="#491a10"/><stop offset="1" stop-color="#623d2c"/></linearGradient></defs><path d="M188.504,199.005c-12.632-3.048-25.804-9.056-33.72-20.194-4.523-6.363.738-11.941,6.466-14.843,6.235-3.246,12.627-6.497,18.477-10.386,14.763-9.813,30.006-23.871,47.02-29.315,9.657-3.09,18.044-7.806,27.238-10.962,23.567-8.09,50.953-9.778,74.986-2.872,8.325,2.401,16.107,6.489,24.131,9.59,6.077,2.096,12.723,3.258,18.446,6.296,20.252,10.751,38.879,24.882,59.102,35.728,14.787,7.93-7.027,23.447-14.783,26.599-5.083,2.066-9.47,3.83-14.603,5.593,3.1,12.919,6.151,24.002,5.556,37.556,9.298-.839,19.249-2.167,28.115,1.045-8.757,1.77-18.48.521-28.424,2.919-.749,3.273-1.449,6.558-2.099,9.852,6.317,2.01,19.442,5.145,23.436,9.739l-.318.617c-5.434.31-17.958-5.254-24.399-6.595-9.247,25.341-28.318,35.396-51.809,45.254-.699,24.99-2.837,48.951-6.97,73.645-.885,5.286-1.538,10.749-1.91,16.093,12.392,18.943-5.696,30.418-23.189,25.397-4.315-1.239-6.515-2.842-10.171-5.306-7.211,16.319-27.14,14.402-39.014,4.591-4.029-3.33-4.249-10.206-11.206-8.572-1.774,1.997-1.907,4.532-3.015,5.915-8.826,11.022-28.66,6.627-40.032,5.437-.386,6.161-.79,11.181-6.053,15.234-21.086,16.235-67.71,7.275-83.603-12.019-5.832-7.036-8.597-16.117-7.677-25.209,2.156-21.135,22.835-31.565,41.237-36.362-.546-29.899,6.164-50.843,27.185-73.47,4.513-4.858,10.837-9.887,16.59-13.212-1.9-2.438-3.959-4.987-5.788-7.457-1.603.706-7.018,3.221-8.489,3.351-4.269,2.311-8.313,3.621-12.955,4.904,3.532-4.635,5.78-5.761,10.922-8.054,1.761-1.156,6.22-2.716,8.232-3.4-2.138-4.355-4.128-11.152-6.002-14.49l-2.598-3.161,1.335-.462c.253-.823-1.259-9.966-1.357-12.407-.349-8.734.084-18.002,1.71-26.607Z" fill="#43160b"/><path d="M176.262,267.586c3.532-4.635,5.78-5.761,10.922-8.054l-.593.704c-.93,1.081-1.375,1.34-2.532,2.165l-.301.686c1.403-.056,4.527-.452,5.459-.405-4.269,2.311-8.313,3.621-12.955,4.904Z" fill="#0b0304"/><path d="M284.421,113.223c4.211-1.353,24.105-.725,28.67.384,3.653.61,6.918,1.08,10.477,2.131,4.431,1.15,14.537,3.87,18.156,6.217,9.638,4.247,12.074,7.094,19.994,11.817l3.017-.769-4.184-4.225c11.914,3.35,38.003,22.016,50.266,29.373,4.835,2.342,14.981,7.586,18.558,11.204-7.432,11.14-17.751,14.776-30.123,18.403-.799-3.177-1.633-6.991-2.879-9.957-.822-1.653-1.534-3.785-2.193-5.549-2.297-5.288-6.517-10.606-10.189-14.964-.819,1.267-.898,1.49-2.017,2.558l1.435,3.129c10.367,16.885,11.439,32.29,16.199,50.719l.842,6.638c.153,2.041.319,3.905.305,5.958.096,2.306.473,4.598-.499,6.582-1.049.739-1.058.661-2.335.936l1.851.779c.49,1.599.35.779-.242,2.72-.37,2.841-.798,4.828-1.422,7.61-2.183-.375-3.473-.812-5.546-.174l-.84.753c.757,2.211,3.199,2.264,5.29,2.645-3.156,7.092-4.99,9.296-9.626,15.447-16.87,20.788-44.822,28.663-69.694,34.983,6.679.809,12.79.694,19.398-.862l-1.118,9.322-.466,1.228c-.633,4.376-1.191,8.074-2.148,12.419-1.622,3.476-4.321,9.931-6.191,12.817l-1.544,1.844c-7.611,10.624-15.501,19.711-27.02,26.133-.721-4.795-1.529-9.703-2.017-14.518-.712-3.54-.111-7.928-2.077-10.064l-1.59.062c-.847-.462-4.277-10.305-5.101-12.191-2.06-4.722-4.406-9.313-7.024-13.749l-.741-.588c-1.865-3.466-7.237-10.251-8.224-12.524-1.9-.028-3.223-.231-5.114-.487,2.48-.036,5.351.303,7.411-.702-5.517-2.188-12.319-3.969-18.059-5.95-12.988-4.481-31.581-13.031-41.343-22.641-2.908-1.716-7.839-7.934-9.912-10.609,4.045-1.229,8.172-2.169,12.351-2.813,2.899-.611,5.147-.693,7.205-2.664l-.022-.928c-2.806-1.867-6.22-.649-9.569.011-1.271-2.078-3.113-6.127-4.237-8.434,5.129.267,7.344,1.538,12.581.209l.271-.682c-3.244-2.404-10-2.855-14.146-3.363-.484-1.952-1.383-4.35-2.048-6.293,2.092-.14,3.613-.315,5.686-.633-2.405-.101-6.321.477-7.551.223-2.042-.334-9.133-1.848-10.55-1.359l-.341.923c-1.166-3.87-1.07-16.577-.466-20.756.538-5.713,2.472-12.363,2.686-17.54-9.41-.523-20.316-3.751-27.832-9.622l-.503.052c-2.719-2.665-4.868-4.923-7.406-7.763-1.411-4.297,3.893-6.461,7.21-8.353,5.254-2.998,10.386-5.917,15.548-9.077,2.421-2.079,9.043-6.465,11.908-8.382,8.577-5.74,20.294-14.706,29.75-18.505,11.135-4.474,13.006-2.524,23.717-9.398,1.457-.954,4.5-2.07,6.224-2.769,6.436-2.065,13.823-4.365,20.46-5.236,3.323-.647,5.296-.866,8.683-1.136Z" fill="#f4ae64"/><path d="M236.462,270.305c17.919,1.1,36.638-10.026,50.471-20.725,4.816-3.726,11.156-11.421,16.406-15.498,26.201-20.342,34.977,5.56,53.286,18.339,9.962,6.953,16.863,9.019,28.248,10.058l2.513,1.109c-16.87,20.788-44.822,28.663-69.694,34.983,6.679.809,12.79.694,19.398-.862l-1.118,9.322-.466,1.228c-.633,4.376-1.191,8.074-2.148,12.419-1.622,3.476-4.321,9.931-6.191,12.817l-1.544,1.844c-7.611,10.624-15.501,19.711-27.02,26.133-.721-4.795-1.529-9.703-2.017-14.518-.712-3.54-.111-7.928-2.077-10.064l-1.59.062c-.847-.462-4.277-10.305-5.101-12.191-2.06-4.722-4.406-9.313-7.024-13.749l-.741-.588c-1.865-3.466-7.237-10.251-8.224-12.524-1.9-.028-3.223-.231-5.114-.487,2.48-.036,5.351.303,7.411-.702-5.517-2.188-12.319-3.969-18.059-5.95-12.988-4.481-31.581-13.031-41.343-22.641,4.494.069,11.444,2.165,17.479,2.445,1.785.433,2.556-.239,4.259-.26Z" fill="#fbefd3"/><path d="M384.873,262.479l2.513,1.109c-16.87,20.788-44.822,28.663-69.694,34.983,6.679.809,12.79.694,19.398-.862l-1.118,9.322-.466,1.228c-.633,4.376-1.191,8.074-2.148,12.419-1.622,3.476-4.321,9.931-6.191,12.817l-1.544,1.844c-7.611,10.624-15.501,19.711-27.02,26.133-.721-4.795-1.529-9.703-2.017-14.518-.712-3.54-.111-7.928-2.077-10.064l-1.59.062c-.847-.462-4.277-10.305-5.101-12.191-2.06-4.722-4.406-9.313-7.024-13.749l-.741-.588c-1.865-3.466-7.237-10.251-8.224-12.524-1.9-.028-3.223-.231-5.114-.487,2.48-.036,5.351.303,7.411-.702-5.517-2.188-12.319-3.969-18.059-5.95-12.988-4.481-31.581-13.031-41.343-22.641,4.494.069,11.444,2.165,17.479,2.445,1.785.433,2.556-.239,4.259-.26l-1.236.81c.113.153.225.306.338.459,13.278,9.446,40.266,16.047,55.12,17.177,33.204,2.526,68.638-5.084,94.189-26.272Z" fill="#e2b9a1"/><path d="M280.794,311.012c1.568-.27,10.646.996,12.958,1.218,4.443.451,8.909.63,13.373.537,6.143-.135,12.257-.883,18.252-2.231,2.627-.593,6.676-1.839,9.156-2.16l.973-.117c-.633,4.376-1.191,8.074-2.148,12.419-1.622,3.476-4.321,9.931-6.191,12.817l-1.544,1.844c-7.611,10.624-15.501,19.711-27.02,26.133-.721-4.795-1.529-9.703-2.017-14.518-.712-3.54-.111-7.928-2.077-10.064l-1.59.062c-.847-.462-4.277-10.305-5.101-12.191-2.06-4.722-4.406-9.313-7.024-13.749Z" fill="#fbefd3"/><path d="M300.904,351.51c4.348-1.876,6.571-3.019,10.478-5.639,4.153-2.786,9.911-9.264,14.241-10.532-7.611,10.624-15.501,19.711-27.02,26.133-.721-4.795-1.529-9.703-2.017-14.518l4.318,4.556Z" fill="#e2b9a1"/><path d="M274.126,296.711l1.804.605-.138.347c-1.414.127-2.528.226-3.963.237-1.9-.028-3.223-.231-5.114-.487,2.48-.036,5.351.303,7.411-.702Z" fill="#633826"/><path d="M317.501,236.978c4.166-.158,10.165-.805,13.611,1.312,2.741,4.794-5.926,7.539-6.014,15.309l-.006.761c2.608,1.67,10.176,7.529,7.829,11.118-3.345-.237-6.064-5.452-9.99-7.178-3.643,1.753-9.359,8.903-12.392,7.751-1.954-4.089,4.875-8.098,7.849-10.103,10.304-6.949-5.51-9.792-4.432-16.378,1.221-1.712,1.53-1.71,3.545-2.592Z" fill="url(#b)"/><path d="M323.63,239.566l5.967.067c-1.949,3.165-2.581,3.955-5.706,5.958-2.215-.928-6.112-2.248-5.652-5.014,1.461-1.158,3.44-.946,5.391-1.011Z" fill="#f48b76"/><path d="M284.421,113.223c4.211-1.353,24.105-.725,28.67.384-.466,1.85,1.457,3.748,2.618,5.303l.301.353c5.671,11.699,9.634,24.944,9.223,38.091-.109,3.456.053,12.18-3.72,13.381-4.982-1.52-8.86-13.957-10.437-18.928-4.287-13.51-10.568-22.766-18.689-34.244l-.65-.35c-2.836-3.428-2.631-3.952-7.316-3.99Z" fill="#c7703a"/><path d="M284.421,113.223c4.211-1.353,24.105-.725,28.67.384-.466,1.85,1.457,3.748,2.618,5.303-6.867-1.214-16.11-1.187-23.322-1.347l-.65-.35c-2.836-3.428-2.631-3.952-7.316-3.99Z" fill="#d98452"/><path d="M162.123,174.942c25.584,3.979,49.125,2.946,72.328-9.718-1.62,2.901-1.954,3.366-4.149,5.866-1.919,1.11-6.565,3.934-8.379,4.624-1.376.566-3.453,1.211-4.194,2.5-1.107,2.393-9.579,6.945-12.063,8.044l-.782-.043c-1.496,1.735-1.438,1.114-1.358,2.85,1.207,1.244,2.963,1.652,4.642,2.237-4.629,2.316-7.224,1.243-11.506,2.11-9.41-.523-20.316-3.751-27.832-9.622l-.503.052c-2.719-2.665-4.868-4.923-7.406-7.763l1.202-1.137Z" fill="#9b2c24"/><path d="M168.83,183.79c5.134-2.607,17.113,2.351,22.937,2.723,2.936.188,11.017-1.19,13.117-.298-1.496,1.735-1.438,1.114-1.358,2.85,1.207,1.244,2.963,1.652,4.642,2.237-4.629,2.316-7.224,1.243-11.506,2.11-9.41-.523-20.316-3.751-27.832-9.622Z" fill="#f6998d"/><path d="M217.729,178.214c-1.107,2.393-9.579,6.945-12.063,8.044l-.782-.043c-2.1-.892-10.181.486-13.117.298-5.824-.372-17.803-5.33-22.937-2.723l-.503.052c.271-2.732-.216-2.94,1.278-4.328,15.748,4.031,32.511,1.64,48.124-1.3Z" fill="#ea8178"/><path d="M160.921,176.079l1.202-1.137c2.368,2.468,4.264,3.434,7.482,4.572-1.494,1.388-1.007,1.596-1.278,4.328-2.719-2.665-4.868-4.923-7.406-7.763Z" fill="#c67d6c"/><path d="M255.278,119.595c6.436-2.065,13.823-4.365,20.46-5.236.622,1.644,3.166,3.196,4.7,4.345,6.889,7.362,10.997,15.138,14.255,24.647,1.324,3.863,3.95,12.997.458,16.237-4.716,1.109-8.347-5.842-10.558-9.436-7.442-12.093-13.362-19.374-24.813-28.015l-.521-.211c-1.232-.937-2.609-1.592-3.981-2.331Z" fill="#c7703a"/><path d="M255.278,119.595c6.436-2.065,13.823-4.365,20.46-5.236.622,1.644,3.166,3.196,4.7,4.345-7.543.857-13.239,2.103-20.658,3.433l-.521-.211c-1.232-.937-2.609-1.592-3.981-2.331Z" fill="#d98452"/><path d="M230.302,171.09c-2.648,6.586-4.519,11.096-9.172,16.625-9.975,11.852-16.888,9.999-16.309,27.401-2.342-.411-9.688-2.135-10.845-4.164.538-5.713,2.472-12.363,2.686-17.54,4.282-.867,6.877.206,11.506-2.11-1.679-.585-3.435-.993-4.642-2.237-.08-1.736-.138-1.115,1.358-2.85l.782.043c2.484-1.099,10.956-5.651,12.063-8.044.741-1.289,2.818-1.934,4.194-2.5,1.814-.69,6.46-3.514,8.379-4.624Z" fill="#d98452"/><path d="M217.729,178.214c.741-1.289,2.818-1.934,4.194-2.5,5.235,7.481-9.933,8.569-12.926,11.243,1.57.49,3.617.88,4.565,2.08-1.128,1.285-3.469,1.653-5.394,2.265-1.679-.585-3.435-.993-4.642-2.237-.08-1.736-.138-1.115,1.358-2.85l.782.043c2.484-1.099,10.956-5.651,12.063-8.044Z" fill="#9b2c24"/><path d="M194.442,231.708c-1.166-3.87-1.07-16.577-.466-20.756,1.157,2.029,8.503,3.753,10.845,4.164l.366.288c6.308,2.008,20.835,4.669,24.24,9.01,1.185,5.662-12.499,7.474-16.543,7.507-2.405-.101-6.321.477-7.551.223-2.042-.334-9.133-1.848-10.55-1.359l-.341.923Z" fill="#c7703a"/><path d="M194.442,231.708c-1.166-3.87-1.07-16.577-.466-20.756,1.157,2.029,8.503,3.753,10.845,4.164l.366.288c-.068,3.919,1.666,15.116,1.463,16.215l-1.317.525c-2.042-.334-9.133-1.848-10.55-1.359l-.341.923Z" fill="#b45b33"/><path d="M323.568,115.738c4.431,1.15,14.537,3.87,18.156,6.217-.001,2.37.129,2.674,1.062,4.866l1.091,1.028c2.25,5.682,6.532,29.437-2.127,29.956-1.385-.631-2.667-1.772-3.127-3.23-3.716-11.779-7.049-22.208-12.14-33.527l-.529-.274-2.386-5.036Z" fill="#c7703a"/><path d="M323.568,115.738c4.431,1.15,14.537,3.87,18.156,6.217-.001,2.37.129,2.674,1.062,4.866-4.466-1.333-11.623-4.147-16.303-5.773l-.529-.274-2.386-5.036Z" fill="#ec9b6f"/><path d="M183.679,158.649c2.421-2.079,9.043-6.465,11.908-8.382,8.577-5.74,20.294-14.706,29.75-18.505,11.135-4.474,13.006-2.524,23.717-9.398,1.072,1.435,1.291,1.728,2.098,3.304-8.934,5.02-18.701,7.762-27.884,12.173-6.399,3.075-34.466,22.618-39.03,21.041-.191-.066-.372-.156-.559-.233Z" fill="#fbd6a0"/><path d="M381.967,166.43c-.363-4.014-2.967-5.989-3.646-9.405,2.814,1.974,2.126,4.19,5.088,5.95,10.367,16.885,11.439,32.29,16.199,50.719l-2.27.368-.903-.326c-1.821-2.197-5.849-22.87-7.642-28.07-2.303-6.678-3.687-12.113-6.826-19.236Z" fill="#fbd6a0"/><path d="M204.812,257.511c4.045-1.229,8.172-2.169,12.351-2.813,3.38,5.099,10.289,11.358,15.196,15.064l-.156.803c-6.035-.28-12.985-2.376-17.479-2.445-2.908-1.716-7.839-7.934-9.912-10.609Z" fill="#d98452"/><path d="M360.551,128.778c11.914,3.35,38.003,22.016,50.266,29.373-.577,1.236-.379.868-1.291,1.921-4.879-.343-40.008-23.201-44.791-27.069l-4.184-4.225Z" fill="#fbd6a0"/><path d="M394.18,172.252c5.51.745,11.079.954,16.629.625,3.312-.191,11.367-1.481,13.889-.97l.164.587c-7.873,9.005-22.388,2.783-28.489,5.307-.822-1.653-1.534-3.785-2.193-5.549Z" fill="#9b2c24"/><path d="M399.608,213.694l.842,6.638c.153,2.041.319,3.905.305,5.958l-1.084-.339c-8.884,1.34-10.946-7.207-2.815-11.784l.482-.105,2.27-.368Z" fill="#c7703a"/><path d="M399.608,213.694l.842,6.638c.153,2.041.319,3.905.305,5.958l-1.084-.339c-.34-1.122-.478-1.928-.705-3.068-.685-3.125-1.512-5.302-2.11-8.716l.482-.105,2.27-.368Z" fill="#d98452"/><path d="M400.45,220.332c.153,2.041.319,3.905.305,5.958l-1.084-.339c-.34-1.122-.478-1.928-.705-3.068l.949-.283.535-2.268Z" fill="#d98452"/><path d="M341.724,121.955c9.638,4.247,12.074,7.094,19.994,11.817-.537.72-.597.663-1.325,1.232-3.315-.132-12.848-5.38-16.516-7.155l-1.091-1.028c-.933-2.192-1.063-2.496-1.062-4.866Z" fill="#fbd6a0"/><path d="M284.421,113.223c4.685.038,4.48.562,7.316,3.99-3.944.667-7.315,1.075-11.299,1.491-1.534-1.149-4.078-2.701-4.7-4.345,3.323-.647,5.296-.866,8.683-1.136Z" fill="#fbd6a0"/><path d="M313.091,113.607c3.653.61,6.918,1.08,10.477,2.131l2.386,5.036c-3.323-.446-6.638-.949-9.944-1.511l-.301-.353c-1.161-1.555-3.084-3.453-2.618-5.303Z" fill="#fbd6a0"/><path d="M381.967,166.43c-1.564-2.361-6.95-10.584-4.266-12.735l1.445.179c2.082.499,3.295,1.856,4.845,3.414-.819,1.267-.898,1.49-2.017,2.558l1.435,3.129c-2.962-1.76-2.274-3.976-5.088-5.95.679,3.416,3.283,5.391,3.646,9.405Z" fill="#f6c38f"/><path d="M379.146,153.874c2.082.499,3.295,1.856,4.845,3.414-.819,1.267-.898,1.49-2.017,2.558-1.556-2.208-1.917-3.487-2.828-5.972Z" fill="#834013"/><path d="M255.278,119.595c1.372.739,2.749,1.394,3.981,2.331-2.758,1.509-5.367,2.386-8.107,3.742-.807-1.576-1.026-1.869-2.098-3.304,1.457-.954,4.5-2.07,6.224-2.769Z" fill="#f6c38f"/><path d="M399.53,237.307c-2.472.708-5.004,1.897-6.937-.026l.316-1.104c1.51-1.487,2.971-1.721,5.012-2.369l1.851.779c.49,1.599.35.779-.242,2.72Z" fill="#43160b"/><path d="M247.221,246.737c-2.84-4.268-6.011-17.955-6.978-23.489-.766-4.387,3.856-9.433-1.836-10.642-.896-1.293-.58-.563-.483-2.435,1.191-1.624,9.985-3.718,12.285-3.759,10.579-.186,24.512-13.203,32.503-14.547l1.062.373c.291.833.021.792-.43,2.04l.224-.158c-1.141,1.99-1.463,2.332-3.079,3.975,6.957,3.984,11.537,8.586,13.754,16.611,2.05,7.616.946,15.737-3.062,22.53-3.611,6.035-9.46,10.398-16.274,12.139-4.928,1.257-8.842.928-13.783.224-5.916-2.048-5.997,1.395-13.903-2.862Z" fill="#43160b"/><path d="M253.651,233.678c3.657.576,6.533.66,9.344,3.085l2.759,3.281c6.037,1.738,11.087-.905,16.079-.458,2.152-1.306,4.975-3.277,7.03-4.383-4.237,6.099-7.87,9.39-15.552,11.194-2.258.531-8.95.452-10.93-.304-7.372-1.894-11.028,3.448-15.653-5.942.156-1.687-.329-3.232-.041-5.814,2.827.192,4.245.016,6.964-.659Z" fill="#94d1e0"/><path d="M281.833,239.586c2.152-1.306,4.975-3.277,7.03-4.383-4.237,6.099-7.87,9.39-15.552,11.194-2.258.531-8.95.452-10.93-.304.317-.147.634-.294.951-.441l.26.027c-.864-.218-1.349-.363-2.186-.666.816-1.617,1.075-1.855,2.22-3.175,1.156.02,2.278.028,3.433.11l-1.305-1.904c6.037,1.738,11.087-.905,16.079-.458Z" fill="#8cc1cf"/><path d="M265.754,240.044c6.037,1.738,11.087-.905,16.079-.458-5.186,2.747-9.1,2.663-14.774,2.362l-1.305-1.904Z" fill="#0b0304"/><path d="M253.651,233.678c3.657.576,6.533.66,9.344,3.085l-1.394,1.155c-1.918-.536-3.275-.499-5.279-.6-2.292-.057-4.761-.36-6.812.469l-.979,1.253c-.701.49-1.03.82-1.803,1.111.156-1.687-.329-3.232-.041-5.814,2.827.192,4.245.016,6.964-.659Z" fill="#8cc1cf"/><path d="M248.531,239.04l.979-1.253c2.051-.829,4.52-.526,6.812-.469,1.758,1.215,2.145,1.079,2.397,3.459-2.719,1.572-7.702-.275-10.188-1.737Z" fill="#d6fafd"/><path d="M256.322,237.318c2.004.101,3.361.064,5.279.6,1.149,1.088,1.294.928,1.722,2.249-1.302-.133-2.603-.274-3.903-.426l-.701,1.036c-.252-2.38-.639-2.244-2.397-3.459Z" fill="#aeeef8"/><path d="M265.982,207.351c10.213-.092,12.125,10.588,1.579,15.513-10.465.209-12.644-10.656-1.579-15.513Z" fill="#fefdfd"/><path d="M246.567,212.613l6.619-1.199c-2.293,5.685-2.429,7.061-2.69,13.117.871,3.698,1.489,5.665,3.155,9.147-2.719.675-4.137.851-6.964.659-1.012-2.538-1.568-3.669-2.018-6.399-1.025-5.144.144-10.488,1.898-15.325Z" fill="#fefdfd"/><path d="M246.567,212.613l6.619-1.199c-2.293,5.685-2.429,7.061-2.69,13.117-.277-1.742-.4-2.722-.489-4.479-1.997,1.026-3.211,1.666-5.061,2.923l-.277,4.963c-1.025-5.144.144-10.488,1.898-15.325Z" fill="#d9ccca"/><path d="M279.772,223.129c1.269-.777,2.864-.784,4.14-.019s2.021,2.176,1.934,3.661-.992,2.799-2.348,3.409c-1.924.866-4.188.088-5.174-1.777-.985-1.865-.351-4.174,1.448-5.274Z" fill="#fefdfd"/><path d="M352.899,196.844c-1.813-1.695-2.964-2.348-2.63-4.902,2.945-2.277,14.182,6.473,18.2,8.471,4.347,2.161,18.867,3.539,21.011,6.256-.035,2.298-2.181,2.474-1.883,3.511,2.95,10.258.955,21.815-4.72,31.99,3.686,1.311,4.858,2.251,8.027,4.542.001,2.946.387,4.997-2.016,7.186-3.28,2.988-7.583,3.689-11.859,3.404-3.481-.232-10.122-2.753-9.342-7.198.137-.783.618-2.162.884-2.971l-.235-.999c-2.459.242-4.629.377-7.101.053-6.402-.895-12.156-4.38-15.915-9.639-4.274-5.995-5.998-13.44-4.794-20.704,1.394-8.631,5.458-14.062,12.373-19Z" fill="#43160b"/><path d="M368.336,246.134c6.746-1.624,8.436.11,14.541-3.964,3.686,1.311,4.858,2.251,8.027,4.542.001,2.946.387,4.997-2.016,7.186-3.28,2.988-7.583,3.689-11.859,3.404-3.481-.232-10.122-2.753-9.342-7.198.137-.783.618-2.162.884-2.971l-.235-.999Z" fill="#f48b76"/><path d="M371.006,230.995c2.226-.503,4.255-.898,6.412-1.664,2.251,1.106,2.932,1.231,5.405,1.777-2.074,13.809-4.351,10.511-16.558,11.27-3.268.204-4.581.593-8.025-.233-.861-.907-1.325-1.173-2.321-1.908l.002-.463,2.26-1.062c8.224.865,8.028-1.955,12.825-7.717Z" fill="#94d1e0"/><path d="M374.894,232.702c1.752.459,2.196.514,2.733,2.107-.484,1.636-1.458,2.302-2.704,3.5-1.922-.388-2.466-.302-2.995-2.088.661-1.661,1.638-2.313,2.966-3.519Z" fill="#d6fafd"/><path d="M354.847,204.563c4.042-.122,7.467,2.955,7.777,6.988.31,4.033-2.604,7.597-6.618,8.094-2.768.344-5.501-.863-7.112-3.14-1.611-2.277-1.84-5.255-.596-7.752,1.245-2.496,3.761-4.106,6.549-4.19Z" fill="#fefdfd"/><path d="M379.154,217.597c2.665.316,3.349.683,5.848,1.746-.165,5.29-.313,6.559-2.179,11.765-2.473-.546-3.154-.671-5.405-1.777,1.433-4.312,1.733-7.221,1.736-11.734Z" fill="#fefdfd"/><path d="M379.154,217.597c-.705-2.845-1.517-5.661-2.435-8.444,2.271-1.086,6.059.731,6.928,3.032.815,2.159,1.107,4.868,1.355,7.158-2.499-1.063-3.183-1.43-5.848-1.746Z" fill="#d9ccca"/><path d="M367.784,221.143c1.893-.186,3.606,1.126,3.921,3.001.315,1.876-.876,3.675-2.726,4.118-1.314.314-2.694-.13-3.578-1.153-.884-1.022-1.124-2.452-.623-3.707.502-1.255,1.661-2.126,3.006-2.259Z" fill="#fefdfd"/><path d="M347.335,234.233c4.136,2.17,6.292,3.438,10.846,4.479l-2.26,1.062-.002.463c.996.735,1.46,1.001,2.321,1.908-5.776-1.547-7.398-3.441-10.905-7.912Z" fill="#b2b5ba"/><path d="M247.221,246.737c7.906,4.257,7.987.814,13.903,2.862-1.186,3.067,2.001,3.265,2.268,7.206-7.437,15.112-49.738-2.033-16.171-10.068Z" fill="#f48b76"/><path d="M344.604,172.219c2.785.093,4.85,1.961,6.663,3.998,1.778,1.995,8.689,5.089,9.512,6.318-.254,1.657.004.84-1.346,2.374-6.905.95-19.323-4.786-14.829-12.69Z" fill="#611e13"/><path d="M287.169,172.736c4.426.452,5.51,3.248,2.482,6.423-4.159,4.36-7.324,6.041-13.239,6.486-1.325-.558-2.655-1.136-2.939-2.595,1.482-2.003,4.287-2.2,6.362-3.673,2.571-1.825,4.99-4.451,7.334-6.641Z" fill="#611e13"/><path d="M204.647,273.918l4.244-2.652c12.564,12.684,40.534,25.282,57.824,26.147,1.891.256,3.214.459,5.114.487.987,2.273,6.359,9.058,8.224,12.524l.741.588c2.618,4.436,4.964,9.027,7.024,13.749.824,1.886,4.254,11.729,5.101,12.191-1.181,18.56.356,34.602,4.602,52.747,2.863,6.196,8.273,7.328,4.685,15.414l-.656-.247c-.842-2.002-1.37-4.441-2.844-5.626l-1.485-.332c-2.911,3.957,7.796,9.252-4.517,11.906-2.462.386-3.872-.049-6.187.141-8.869-1.607-12.001-5.608-16.67-12.642-3.443-4.967-5.622-10.25-7.993-15.759-1.228-2.705-2.713-7.298-3.759-10.219l-2.291-7.538c-1.218-4.96-2-8.74-2.888-13.759-1.193-3.716-3.772-17.229-6.073-18.764-.173.304-.424.692-.447,1.051-1.307,20.085,5.201,41.185,13.641,59.223.597,1.276.574.449.557,2.033-6.75.348-5.402-3.812-9.685-7.474-1.709-1.461-6.734-3.098-9.015-3.887,9.116-19.235,2.493-43.361-15.693-54.656l-1.327,1.877,2.035,1.853c6.09,5.93,9.281,11.23,12.201,19.306.504,2.154,1.223,4.709,1.325,6.875.498,1.809.46,2.628.544,4.528.63,7.806-1.241,12.756-4.635,19.634l-5.352,1.231-3.672.955c-1.81.556-4.309,1.239-5.99,1.973-1.734,1.268-3.433,2.225-4.464,4.046l.195.824c2.632.607,5.304-.868,7.836-1.907-.214.588-.428,1.176-.642,1.763-4.558,2.925-8.303,4.582-12.456,8.065l-.938,1.337c-11.072-9.758-22.237-4.941-30.35-13.046-10.306-10.295-14.03-25.028-14.405-39.053-1.006-3.611.668-14.415,1.289-18.215,1.325-5.707,2.539-9.91,4.665-15.348,1.463-5.369,7.632-15.849,11.021-20.375,3.11-3.937,5.026-6.269,8.568-9.82,2.155-3.386,9.723-8.864,12.998-11.149Z" fill="#f4ae64"/><path d="M204.647,273.918l4.244-2.652c12.564,12.684,40.534,25.282,57.824,26.147,1.891.256,3.214.459,5.114.487.987,2.273,6.359,9.058,8.224,12.524-12.045,3.135-65.577-20.058-72.746-32.233-.375-.638-.514-.447-1.283-.744-.811-1.052-1.009-2.232-1.377-3.529Z" fill="#d98452"/><path d="M166.106,348.825c1.173.502,1.919.817,2.634,2.235.301,9.861,3.092,16.596,10.141,23.568,7.3,7.222,27.902,17.362,37.951,12.294,1.417.046,3.168.221,4.498-.126-1.734,1.268-3.433,2.225-4.464,4.046l.195.824c2.632.607,5.304-.868,7.836-1.907-.214.588-.428,1.176-.642,1.763-4.558,2.925-8.303,4.582-12.456,8.065l-.938,1.337c-11.072-9.758-22.237-4.941-30.35-13.046-10.306-10.295-14.03-25.028-14.405-39.053Z" fill="#d98452"/><path d="M273.347,395.547c1.017-.757,2.066-1.469,3.146-2.134,6.98-4.376,13.006-5.563,21.028-3.714,2.863,6.196,8.273,7.328,4.685,15.414l-.656-.247c-.842-2.002-1.37-4.441-2.844-5.626l-1.485-.332c-2.911,3.957,7.796,9.252-4.517,11.906-2.462.386-3.872-.049-6.187.141-8.869-1.607-12.001-5.608-16.67-12.642.676-.846,1.717-1.597,2.579-2.309l.921-.457Z" fill="#fbefd3"/><path d="M273.347,395.547c.628,4.72,6.686,12.654,11.783,12.818,1.682-1.054,1.594-1.831,1.841-3.865.329,2.795.56,3.794-.454,6.455-8.869-1.607-12.001-5.608-16.67-12.642.676-.846,1.717-1.597,2.579-2.309l.921-.457Z" fill="#e2b9a1"/><path d="M286.971,404.5c-.56-1.573-1.133-2.172-.684-3.358,5.095,1.115,2.589,6.92,4.903,9.313l1.514.359c-2.462.386-3.872-.049-6.187.141,1.014-2.661.783-3.66.454-6.455Z" fill="#633826"/><path d="M183.081,294.887c.167,1.533.275,3.465.81,4.853l.202.364c4.356,10.602,9.676,18.703,16.214,27.964.846,1.198.66,1.651.628,2.996-5.379,6.007-22.628-8.622-26.271-13.548l-.318-.165c-.674-.766-1.505-1.415-2.286-2.089,1.463-5.369,7.632-15.849,11.021-20.375Z" fill="#c7703a"/><path d="M183.081,294.887c.167,1.533.275,3.465.81,4.853l.202.364c-3.242,4.687-5.907,12.335-9.429,17.412l-.318-.165c-.674-.766-1.505-1.415-2.286-2.089,1.463-5.369,7.632-15.849,11.021-20.375Z" fill="#d98452"/><path d="M204.647,273.918c.368,1.297.566,2.477,1.377,3.529,1.321,6.554,2.889,12.131,5.097,18.438,1.146,3.276,5.265,12.856,3.987,15.532-6.007,3.825-17.831-12.557-20.379-17.195-1.013-1.834-1.842-3.763-2.475-5.76-.105-1.252-.337-2.181-.605-3.395,2.155-3.386,9.723-8.864,12.998-11.149Z" fill="#c7703a"/><path d="M167.395,330.61l1.615,2.289c6.506,6.815,12.346,10.782,20.198,15.826,1.208.776,1.274,1.335,1.661,2.552-2.459,6.191-17.541,1.71-22.129-.217-.715-1.418-1.461-1.733-2.634-2.235-1.006-3.611.668-14.415,1.289-18.215Z" fill="#c7703a"/><path d="M252.916,351.038c5.208-.619,25.594-4.203,26.997,3.312-2.046,4.613-17.905,8.858-22.703,9.209-.303.259-1.179.97-1.406,1.238-1.218-4.96-2-8.74-2.888-13.759Z" fill="#c7703a"/><path d="M261.076,372.146c4.339-1.342,15.723-5.472,18.091.262-.837,5.359-8.797,8.002-13.226,9.855-1.429.199-2.659.466-4.087.291-1.228-2.705-2.713-7.298-3.759-10.219,1.507.089,1.523.129,2.981-.189Z" fill="#c7703a"/><path d="M240.979,363.003c.63,7.806-1.241,12.756-4.635,19.634l-5.352,1.231c.614-3.601,7.724-18.423,9.987-20.865Z" fill="#d98452"/><path d="M226.909,332.294c6.09,5.93,9.281,11.23,12.201,19.306l-1.738,2.275c-4.366-8.067-6.53-11.53-11.775-18.866.126-1.887-.134-.956,1.312-2.715Z" fill="#f6c38f"/><path d="M261.854,382.554c1.428.175,2.658-.092,4.087-.291,2.137,4.036,5.295,9.478,6.485,13.741-.862.712-1.903,1.463-2.579,2.309-3.443-4.967-5.622-10.25-7.993-15.759Z" fill="#ec9b6f"/><path d="M172.06,315.262c.781.674,1.612,1.323,2.286,2.089-1.728,4.201-3.418,12.814-5.336,15.548l-1.615-2.289c1.325-5.707,2.539-9.91,4.665-15.348Z" fill="#f6c38f"/><path d="M191.649,285.067c.268,1.214.5,2.143.605,3.395-3.088,3.761-5.563,7.862-8.363,11.278-.535-1.388-.643-3.32-.81-4.853,3.11-3.937,5.026-6.269,8.568-9.82Z" fill="#fbd6a0"/><path d="M255.804,364.797c.227-.268,1.103-.979,1.406-1.238,2.018,3.455,1.909,7.202,3.866,8.587-1.458.318-1.474.278-2.981.189l-2.291-7.538Z" fill="#d98452"/><path d="M216.832,386.922c3.805-2.229,6.113-4.317,10.488-2.099-1.81.556-4.309,1.239-5.99,1.973-1.33.347-3.081.172-4.498.126Z" fill="#ec9b6f"/><path d="M215.163,325.74c4.807.769,6.488,1.292,11.038,2.824l-1.327,1.877c-3.286-2.448-5.916-3.286-9.711-4.701Z" fill="#834013"/><path d="M239.11,351.6c.504,2.154,1.223,4.709,1.325,6.875l-.52.555c-.324-1.73-.63-2.109-1.465-3.612l-.603-.114-.475-1.429,1.738-2.275Z" fill="#f6c38f"/><path d="M130.92,389.23c6.928-6.093,11.058-4.752,18.994-5.532-.452,4.304.547,5.26,3.312,8.543,3.086,2.132,4.134,2.999,7.648,4.31,6.552,1.604,10.031,2.082,16.764,2.399,11.709-.257,27.922-.354,32.088,13.187.094,14.905-18.453,17.538-29.951,17.378-1.948-.02-3.893-.15-5.827-.376-7.995-.796-15.104-1.845-22.644-4.876-7.001-2.965-8.15-3.086-14.568-7.791-.682-.423-1.027-.685-1.638-1.216-5.704-4.912-9.269-11.853-9.94-19.35,1.984-2.562,3.325-3.982,5.561-6.299l.201-.377Z" fill="#fbefd3"/><path d="M130.92,389.23c6.928-6.093,11.058-4.752,18.994-5.532-.452,4.304.547,5.26,3.312,8.543,3.086,2.132,4.134,2.999,7.648,4.31-5.493,3.931-8.64,8.871-9.765,15.553-.172,1.049-.321,2.102-.445,3.157l.088.385c.147,2.875.331,5.747.552,8.617-7.001-2.965-8.15-3.086-14.568-7.791-.682-.423-1.027-.685-1.638-1.216-5.704-4.912-9.269-11.853-9.94-19.35,1.984-2.562,3.325-3.982,5.561-6.299l.201-.377Z" fill="#c7703a"/><path d="M153.226,392.241c3.086,2.132,4.134,2.999,7.648,4.31-5.493,3.931-8.64,8.871-9.765,15.553-.172,1.049-.321,2.102-.445,3.157l.088.385c.147,2.875.331,5.747.552,8.617-7.001-2.965-8.15-3.086-14.568-7.791-.107-4.158.244-7.014,1.047-11.041l.281-.294c3.763-8.392,7.035-9.645,15.162-12.896Z" fill="#f4ae64"/><path d="M138.064,405.137c.591,3.293,9.475,9.593,12.6,10.124l.088.385c.147,2.875.331,5.747.552,8.617-7.001-2.965-8.15-3.086-14.568-7.791-.107-4.158.244-7.014,1.047-11.041l.281-.294Z" fill="#d98452"/><path d="M130.719,389.607c.714,6.862,1.687,11.117,7.064,15.824-.803,4.027-1.154,6.883-1.047,11.041-.682-.423-1.027-.685-1.638-1.216-5.704-4.912-9.269-11.853-9.94-19.35,1.984-2.562,3.325-3.982,5.561-6.299Z" fill="#b45b33"/><path d="M160.874,396.551c6.552,1.604,10.031,2.082,16.764,2.399-3.314,1.325-5.961,4.877-7.28,8.087-1.637,3.95-2.078,8.293-1.267,12.491l.12.284c1.276,3.653,2.264,6.212,4.737,9.327-7.995-.796-15.104-1.845-22.644-4.876-.221-2.87-.405-5.742-.552-8.617l-.088-.385c.124-1.055.273-2.108.445-3.157,1.125-6.682,4.272-11.622,9.765-15.553Z" fill="#c7703a"/><path d="M150.752,415.646c4.969.682,14.234,4.481,18.339,3.882l.12.284c1.276,3.653,2.264,6.212,4.737,9.327-7.995-.796-15.104-1.845-22.644-4.876-.221-2.87-.405-5.742-.552-8.617Z" fill="#b45b33"/><path d="M209.726,412.137c.094,14.905-18.453,17.538-29.951,17.378-1.948-.02-3.893-.15-5.827-.376-2.473-3.115-3.461-5.674-4.737-9.327,11.353,2.769,31.859,1.485,40.515-7.675Z" fill="#e2b9a1"/><path d="M337.09,297.709l7.734-1.579-.085,9.04c-.058,12.206-1.323,25.892-2.993,38.003-.465,3.804-.984,9.417-1.765,13.033-.275,1.972-.528,4.065-.848,6.018-.448,3.074-.992,7.929-1.609,10.831-.574,4.287-1.093,8.273-1.454,12.597,1.828,3.199,6.841,11.018,2.662,14.419-2.384-1.561-2.541-5.649-4.198-6.06-1.789,7.236,4.754,9.477-5.895,11.231-.848.381-3.29.144-4.397.103-9.53-2.684-10.984-6.31-13.844-15.036-2.669-7.707-2.994-19.007-3.223-27.221,7.196-6.074,13.947-12.805,18.143-21.416.879-1.802,2.543-6.258,1.849-8.177,1.87-2.886,4.569-9.341,6.191-12.817.957-4.345,1.515-8.043,2.148-12.419l.466-1.228,1.118-9.322Z" fill="#f4ae64"/><path d="M315.187,387.125c5.574-2.568,15.209-4.132,20.883-1.473,1.828,3.199,6.841,11.018,2.662,14.419-2.384-1.561-2.541-5.649-4.198-6.06-1.789,7.236,4.754,9.477-5.895,11.231-.848.381-3.29.144-4.397.103-9.53-2.684-10.984-6.31-13.844-15.036,1.356-.974,2.802-1.879,4.207-2.787l.582-.397Z" fill="#fbefd3"/><path d="M310.398,390.309c1.356-.974,2.802-1.879,4.207-2.787.802,5.585,3.685,13.819,10.3,13.905-.159,1.409-.17,2.626-.663,3.918-9.53-2.684-10.984-6.31-13.844-15.036Z" fill="#e2b9a1"/><path d="M324.905,401.427c-.196-1.704-.357-3.23-.679-4.914l.474-.845c4.885.789,1.507,7.666,3.939,9.574-.848.381-3.29.144-4.397.103.493-1.292.504-2.509.663-3.918Z" fill="#633826"/><path d="M333.358,320.678c4.207,17.934-13.821,34.5-17.941,50.697-1.158,4.556-.905,11.08-.23,15.75l-.582.397c-1.405.908-2.851,1.813-4.207,2.787-2.669-7.707-2.994-19.007-3.223-27.221,7.196-6.074,13.947-12.805,18.143-21.416.879-1.802,2.543-6.258,1.849-8.177,1.87-2.886,4.569-9.341,6.191-12.817Z" fill="#d98452"/><path d="M341.746,343.173c-.465,3.804-.984,9.417-1.765,13.033-.251-.564-.384-.625-.79-1.114-.766-.116-1.529-.247-2.289-.393-2.86-.559-8.336-2.262-7.357-5.917,3.153-3.449,7.773-4.689,12.201-5.609Z" fill="#c7703a"/><path d="M339.133,362.224c-.448,3.074-.992,7.929-1.609,10.831-4.186-1.04-9.264-.971-10.613-5.739,1.174-4.408,8.423-4.944,12.222-5.092Z" fill="#c7703a"/><path d="M337.09,297.709l7.734-1.579-.085,9.04c-3.188.618-5.954,2.383-8.295,2.526l-.472-.665,1.118-9.322Z" fill="#d98452"/><path d="M148.68,363.848c3.958-1.871,7.529-2.793,11.683-4.069,1.742,8.231,2.869,11.829,6.114,19.716-2.348.534-4.505.958-6.779,1.768l-.51.325c-2.221,1.438-4.415,3.806-5.962,4.483-1.366-.652-.809-.157-1.524-1.735-.828-.854-.318-.525-1.788-.638-7.936.78-12.066-.561-18.994,5.532l-.201.377c-2.236,2.317-3.577,3.737-5.561,6.299-.248-7.071,1.005-13.64,5.809-19.14.76-1.338,2.852-3.273,4.013-4.443,4.112-3.847,8.676-6.08,13.7-8.475Z" fill="#f4ae64"/><path d="M148.68,363.848c3.958-1.871,7.529-2.793,11.683-4.069,1.742,8.231,2.869,11.829,6.114,19.716-2.348.534-4.505.958-6.779,1.768l-.51.325c-2.221,1.438-4.415,3.806-5.962,4.483-1.366-.652-.809-.157-1.524-1.735l.632-.644c-.107-1.992-.437-3.273-.858-5.235.338-1.703.162-9.843.152-12.036-1.031-.705-2.015-1.71-2.948-2.573Z" fill="#d98452"/><path d="M151.628,366.421c2.68,2.652,3.998,3.711,5.739,7.015,1.524,2.893,1.254,5.357,2.331,7.827l-.51.325c-2.221,1.438-4.415,3.806-5.962,4.483-1.366-.652-.809-.157-1.524-1.735l.632-.644c-.107-1.992-.437-3.273-.858-5.235.338-1.703.162-9.843.152-12.036Z" fill="#b45b33"/><path d="M134.98,372.323c4.112-3.847,8.676-6.08,13.7-8.475.933.863,1.917,1.868,2.948,2.573.01,2.193.186,10.333-.152,12.036-3.566-4.873-10.834-6.102-16.496-6.134Z" fill="#c7703a"/><path d="M125.158,395.906c-.248-7.071,1.005-13.64,5.809-19.14-.071,2.976-.913,10.254-.047,12.464l-.201.377c-2.236,2.317-3.577,3.737-5.561,6.299Z" fill="#ec9b6f"/><path d="M224.897,389.759c4.49-1.036,7.67-1.512,12.312-1.217,7.697.489,16.96,5.456,13.056,14.587l-.561-.037c-1.271-2.35-2.528-5.981-4.131-7.588l-1.359-.381-.479.724c.46,1.859,1.252,3.745,1.941,5.544l.639,5.027c-2.943.622-5.998,1.328-8.96,1.787l-2.841-.635c-5.744,1.076-14.906-1.286-20.717-2.614l-2.936-4.032.938-1.337c4.153-3.483,7.898-5.14,12.456-8.065.214-.587.428-1.175.642-1.763Z" fill="#fbefd3"/><path d="M211.799,399.587c3.558.962,18.587,3.563,21.663,2.804l.739-1.037c.192,2.144.253,4.073.313,6.216-5.744,1.076-14.906-1.286-20.717-2.614l-2.936-4.032.938-1.337Z" fill="#ecccb7"/><path d="M245.676,401.391l.639,5.027c-2.943.622-5.998,1.328-8.96,1.787.257-2.067.196-3.858.189-5.932,1.796,1.263,6.46.714,8.132-.882Z" fill="#e2b9a1"/><path d="M234.201,401.354c-.949-1.845-1.604-2.24-1.295-3.827,2.377.115,3.814,2.759,4.638,4.746.007,2.074.068,3.865-.189,5.932l-2.841-.635c-.06-2.143-.121-4.072-.313-6.216Z" fill="url(#c)"/><path d="M196.943,242.097c4.535.134,9.067.329,13.597.586,1.124,2.307,2.966,6.356,4.237,8.434-4.012.737-8.53,1.832-12.559,2.707-2.063-3.95-3.563-7.63-5.275-11.727Z" fill="#d98452"/><path d="M194.442,231.708l.341-.923c1.417-.489,8.508,1.025,10.55,1.359,1.23.254,5.146-.324,7.551-.223-2.073.318-3.594.493-5.686.633.665,1.943,1.564,4.341,2.048,6.293l-13.787-.963-1.017-6.176Z" fill="#d98452"/><path d="M169.446,384.871c1.585,1.494,3.533,4.697,5.615,6.859l-1,.915c-3.2-.507-11.154-1.167-12.859-4.135l.591-1.062c2.346-1.591,4.853-1.92,7.653-2.577Z" fill="#d9ccca"/><path d="M300.111,366.482l1.168.539c1.351,3.259,2.294,15.803,1.72,19.563-1.298-2.686-3.349-16.885-2.888-20.102Z" fill="#c67d6c"/><path d="M175.061,391.73l1.969.356.277.482c-1.455.543-1.713.346-3.246.077l1-.915Z" fill="#633826"/><path d="M182.74,242.319c-2.602.409-12.229,1.737-14.065.148,1.236-1.546,6.713-2.575,8.837-2.936,2.208.573,3.229,1.763,5.228,2.788Z" fill="#0b0304"/><path d="M177.512,239.531c3.106-.312,6.207-.662,9.304-1.05l2.598,3.161c-1.805.239-4.973.762-6.674.677-1.999-1.025-3.02-2.215-5.228-2.788Z" fill="#230603"/></svg>